M48
; DRILL file {KiCad (6.0.11-0)} date Sunday, 26 March 2023 at 21:41:53
; FORMAT={-:-/ absolute / metric / decimal}
; #@! TF.CreationDate,2023-03-26T21:41:53+01:00
; #@! TF.GenerationSoftware,Kicad,Pcbnew,(6.0.11-0)
; #@! TF.FileFunction,Plated,1,2,PTH
FMAT,2
METRIC
; #@! TA.AperFunction,Plated,PTH,ComponentDrill
T1C0.800
; #@! TA.AperFunction,Plated,PTH,ComponentDrill
T2C1.000
; #@! TA.AperFunction,Plated,PTH,ComponentDrill
T3C1.016
; #@! TA.AperFunction,Plated,PTH,ComponentDrill
T4C1.100
%
G90
G05
T1
X34.33Y-95.25
X36.83Y-95.25
X69.85Y-95.25
X72.35Y-95.25
T2
X2.54Y-10.16
X2.54Y-12.7
X2.54Y-15.24
X2.54Y-17.78
X2.54Y-20.32
X2.54Y-22.86
X2.54Y-25.4
X2.54Y-27.94
X2.54Y-30.48
X2.54Y-33.02
X2.54Y-35.56
X2.54Y-38.1
X2.54Y-40.64
X2.54Y-43.18
X2.54Y-45.72
X2.54Y-48.26
X2.54Y-53.34
X2.54Y-55.88
X2.54Y-58.42
X2.54Y-60.96
X2.54Y-63.5
X2.54Y-66.04
X2.54Y-68.58
X2.54Y-71.12
X2.54Y-73.66
X2.54Y-76.2
X2.54Y-78.74
X2.54Y-81.28
X2.54Y-83.82
X2.54Y-86.36
X2.54Y-88.9
X2.54Y-91.44
X5.08Y-12.7
X5.08Y-15.24
X5.08Y-17.78
X5.08Y-20.32
X5.08Y-22.86
X5.08Y-25.4
X5.08Y-27.94
X5.08Y-30.48
X5.08Y-33.02
X5.08Y-35.56
X5.08Y-38.1
X5.08Y-40.64
X5.08Y-43.18
X5.08Y-45.72
X5.08Y-48.26
X5.08Y-53.34
X5.08Y-55.88
X5.08Y-58.42
X5.08Y-60.96
X5.08Y-63.5
X5.08Y-66.04
X5.08Y-68.58
X5.08Y-71.12
X5.08Y-73.66
X5.08Y-76.2
X5.08Y-78.74
X5.08Y-81.28
X5.08Y-83.82
X5.08Y-86.36
X5.08Y-88.9
X7.779Y-2.54
X7.779Y-5.08
X7.779Y-7.62
X7.779Y-10.16
X7.779Y-12.7
X7.779Y-15.24
X7.779Y-17.78
X7.779Y-20.32
X7.779Y-22.86
X7.779Y-25.4
X7.779Y-27.94
X7.779Y-30.48
X7.779Y-33.02
X7.779Y-35.56
X7.779Y-38.1
X7.779Y-40.64
X7.779Y-43.18
X7.779Y-45.72
X7.779Y-48.26
X7.779Y-50.8
X7.779Y-53.34
X7.779Y-55.88
X7.779Y-58.42
X7.779Y-60.96
X7.779Y-63.5
X7.779Y-66.04
X7.779Y-68.58
X7.779Y-71.12
X7.779Y-73.66
X7.779Y-76.2
X7.779Y-78.74
X7.779Y-81.28
X7.779Y-83.82
X7.779Y-86.36
X7.779Y-88.9
X7.779Y-91.44
X7.779Y-93.98
X7.779Y-96.52
X10.477Y-2.54
X10.477Y-5.08
X10.477Y-7.62
X10.477Y-10.16
X10.477Y-12.7
X10.477Y-15.24
X10.477Y-17.78
X10.477Y-20.32
X10.477Y-22.86
X10.477Y-25.4
X10.477Y-27.94
X10.477Y-30.48
X10.477Y-33.02
X10.477Y-35.56
X10.477Y-38.1
X10.477Y-40.64
X10.477Y-43.18
X10.477Y-45.72
X10.477Y-48.26
X10.477Y-50.8
X10.477Y-53.34
X10.477Y-55.88
X10.477Y-58.42
X10.477Y-60.96
X10.477Y-63.5
X10.477Y-66.04
X10.477Y-68.58
X10.477Y-71.12
X10.477Y-73.66
X10.477Y-76.2
X10.477Y-78.74
X10.477Y-81.28
X10.477Y-83.82
X10.477Y-86.36
X10.477Y-88.9
X10.477Y-91.44
X10.477Y-93.98
X10.477Y-96.52
X13.018Y-2.54
X13.018Y-5.08
X13.018Y-7.62
X13.018Y-10.16
X13.018Y-12.7
X13.018Y-15.24
X13.018Y-17.78
X13.018Y-20.32
X13.018Y-22.86
X13.018Y-25.4
X13.018Y-27.94
X13.018Y-30.48
X13.018Y-33.02
X13.018Y-35.56
X13.018Y-38.1
X13.018Y-40.64
X13.018Y-43.18
X13.018Y-45.72
X13.018Y-48.26
X13.018Y-50.8
X13.018Y-53.34
X13.018Y-55.88
X13.018Y-58.42
X13.018Y-60.96
X13.018Y-63.5
X13.018Y-66.04
X13.018Y-68.58
X13.018Y-71.12
X13.018Y-73.66
X13.018Y-76.2
X13.018Y-78.74
X13.018Y-81.28
X13.018Y-83.82
X13.018Y-86.36
X13.018Y-88.9
X13.018Y-91.44
X13.018Y-93.98
X13.018Y-96.52
X15.557Y-2.54
X15.557Y-5.08
X15.557Y-7.62
X15.557Y-10.16
X15.557Y-12.7
X15.557Y-15.24
X15.557Y-17.78
X15.557Y-20.32
X15.557Y-22.86
X15.557Y-25.4
X15.557Y-27.94
X15.557Y-30.48
X15.557Y-33.02
X15.557Y-35.56
X15.557Y-38.1
X15.557Y-40.64
X15.557Y-43.18
X15.557Y-45.72
X15.557Y-48.26
X15.557Y-50.8
X15.557Y-53.34
X15.557Y-55.88
X15.557Y-58.42
X15.557Y-60.96
X15.557Y-63.5
X15.557Y-66.04
X15.557Y-68.58
X15.557Y-71.12
X15.557Y-73.66
X15.557Y-76.2
X15.557Y-78.74
X15.557Y-81.28
X15.557Y-83.82
X15.557Y-86.36
X15.557Y-88.9
X15.557Y-91.44
X15.557Y-93.98
X15.557Y-96.52
X18.098Y-2.54
X18.098Y-5.08
X18.098Y-7.62
X18.098Y-10.16
X18.098Y-12.7
X18.098Y-15.24
X18.098Y-17.78
X18.098Y-20.32
X18.098Y-22.86
X18.098Y-25.4
X18.098Y-27.94
X18.098Y-30.48
X18.098Y-33.02
X18.098Y-35.56
X18.098Y-38.1
X18.098Y-40.64
X18.098Y-43.18
X18.098Y-45.72
X18.098Y-48.26
X18.098Y-50.8
X18.098Y-53.34
X18.098Y-55.88
X18.098Y-58.42
X18.098Y-60.96
X18.098Y-63.5
X18.098Y-66.04
X18.098Y-68.58
X18.098Y-71.12
X18.098Y-73.66
X18.098Y-76.2
X18.098Y-78.74
X18.098Y-81.28
X18.098Y-83.82
X18.098Y-86.36
X18.098Y-88.9
X18.098Y-91.44
X18.098Y-93.98
X18.098Y-96.52
X20.637Y-2.54
X20.637Y-5.08
X20.637Y-7.62
X20.637Y-10.16
X20.637Y-12.7
X20.637Y-15.24
X20.637Y-17.78
X20.637Y-20.32
X20.637Y-22.86
X20.637Y-25.4
X20.637Y-27.94
X20.637Y-30.48
X20.637Y-33.02
X20.637Y-35.56
X20.637Y-38.1
X20.637Y-40.64
X20.637Y-43.18
X20.637Y-45.72
X20.637Y-48.26
X20.637Y-50.8
X20.637Y-53.34
X20.637Y-55.88
X20.637Y-58.42
X20.637Y-60.96
X20.637Y-63.5
X20.637Y-66.04
X20.637Y-68.58
X20.637Y-71.12
X20.637Y-73.66
X20.637Y-76.2
X20.637Y-78.74
X20.637Y-81.28
X20.637Y-83.82
X20.637Y-86.36
X20.637Y-88.9
X20.637Y-91.44
X20.637Y-93.98
X20.637Y-96.52
X23.177Y-2.54
X23.177Y-5.08
X23.177Y-7.62
X23.177Y-10.16
X23.177Y-12.7
X23.177Y-15.24
X23.177Y-17.78
X23.177Y-20.32
X23.177Y-22.86
X23.177Y-25.4
X23.177Y-27.94
X23.177Y-30.48
X23.177Y-33.02
X23.177Y-35.56
X23.177Y-38.1
X23.177Y-40.64
X23.177Y-43.18
X23.177Y-45.72
X23.177Y-48.26
X23.177Y-50.8
X23.177Y-53.34
X23.177Y-55.88
X23.177Y-58.42
X23.177Y-60.96
X23.177Y-63.5
X23.177Y-66.04
X23.177Y-68.58
X23.177Y-71.12
X23.177Y-73.66
X23.177Y-76.2
X23.177Y-78.74
X23.177Y-81.28
X23.177Y-83.82
X23.177Y-86.36
X23.177Y-88.9
X23.177Y-91.44
X23.177Y-93.98
X23.177Y-96.52
X25.717Y-2.54
X25.717Y-5.08
X25.717Y-7.62
X25.717Y-10.16
X25.717Y-12.7
X25.717Y-15.24
X25.717Y-17.78
X25.717Y-20.32
X25.717Y-22.86
X25.717Y-25.4
X25.717Y-27.94
X25.717Y-30.48
X25.717Y-33.02
X25.717Y-35.56
X25.717Y-38.1
X25.717Y-40.64
X25.717Y-43.18
X25.717Y-45.72
X25.717Y-48.26
X25.717Y-50.8
X25.717Y-53.34
X25.717Y-55.88
X25.717Y-58.42
X25.717Y-60.96
X25.717Y-63.5
X25.717Y-66.04
X25.717Y-68.58
X25.717Y-71.12
X25.717Y-73.66
X25.717Y-76.2
X25.717Y-78.74
X25.717Y-81.28
X25.717Y-83.82
X25.717Y-86.36
X25.717Y-88.9
X25.717Y-91.44
X25.717Y-93.98
X25.717Y-96.52
X28.258Y-2.54
X28.258Y-5.08
X28.258Y-7.62
X28.258Y-10.16
X28.258Y-12.7
X28.258Y-15.24
X28.258Y-17.78
X28.258Y-20.32
X28.258Y-22.86
X28.258Y-25.4
X28.258Y-27.94
X28.258Y-30.48
X28.258Y-33.02
X28.258Y-35.56
X28.258Y-38.1
X28.258Y-40.64
X28.258Y-43.18
X28.258Y-45.72
X28.258Y-48.26
X28.258Y-50.8
X28.258Y-53.34
X28.258Y-55.88
X28.258Y-58.42
X28.258Y-60.96
X28.258Y-63.5
X28.258Y-66.04
X28.258Y-68.58
X28.258Y-71.12
X28.258Y-73.66
X28.258Y-76.2
X28.258Y-78.74
X28.258Y-81.28
X28.258Y-83.82
X28.258Y-86.36
X28.258Y-88.9
X28.258Y-91.44
X28.258Y-93.98
X28.258Y-96.52
X30.797Y-2.54
X30.797Y-5.08
X30.797Y-7.62
X30.797Y-10.16
X30.797Y-12.7
X30.797Y-15.24
X30.797Y-17.78
X30.797Y-20.32
X30.797Y-22.86
X30.797Y-25.4
X30.797Y-27.94
X30.797Y-30.48
X30.797Y-33.02
X30.797Y-35.56
X30.797Y-38.1
X30.797Y-40.64
X30.797Y-43.18
X30.797Y-45.72
X30.797Y-48.26
X30.797Y-50.8
X30.797Y-53.34
X30.797Y-55.88
X30.797Y-58.42
X30.797Y-60.96
X30.797Y-63.5
X30.797Y-66.04
X30.797Y-68.58
X30.797Y-71.12
X30.797Y-73.66
X30.797Y-76.2
X30.797Y-78.74
X30.797Y-81.28
X30.797Y-83.82
X30.797Y-86.36
X30.797Y-88.9
X30.797Y-91.44
X30.797Y-93.98
X30.797Y-96.52
X33.337Y-2.54
X33.337Y-5.08
X33.337Y-7.62
X33.337Y-10.16
X33.337Y-12.7
X33.337Y-15.24
X33.337Y-17.78
X33.337Y-20.32
X33.337Y-22.86
X33.337Y-25.4
X33.337Y-27.94
X33.337Y-30.48
X33.337Y-33.02
X33.337Y-35.56
X33.337Y-38.1
X33.337Y-40.64
X33.337Y-43.18
X33.337Y-45.72
X33.337Y-48.26
X33.337Y-50.8
X33.337Y-53.34
X33.337Y-55.88
X33.337Y-58.42
X33.337Y-60.96
X33.337Y-63.5
X33.337Y-66.04
X33.337Y-68.58
X33.337Y-71.12
X33.337Y-73.66
X33.337Y-76.2
X33.337Y-78.74
X33.337Y-81.28
X33.337Y-83.82
X33.337Y-86.36
X33.337Y-88.9
X35.877Y-2.54
X35.877Y-5.08
X35.877Y-7.62
X35.877Y-10.16
X35.877Y-12.7
X35.877Y-15.24
X35.877Y-17.78
X35.877Y-20.32
X35.877Y-22.86
X35.877Y-25.4
X35.877Y-27.94
X35.877Y-30.48
X35.877Y-33.02
X35.877Y-35.56
X35.877Y-38.1
X35.877Y-40.64
X35.877Y-43.18
X35.877Y-45.72
X35.877Y-48.26
X35.877Y-50.8
X35.877Y-53.34
X35.877Y-55.88
X35.877Y-58.42
X35.877Y-60.96
X35.877Y-63.5
X35.877Y-66.04
X35.877Y-68.58
X35.877Y-71.12
X35.877Y-73.66
X35.877Y-76.2
X35.877Y-78.74
X35.877Y-81.28
X35.877Y-83.82
X35.877Y-86.36
X35.877Y-88.9
X38.417Y-2.54
X38.417Y-5.08
X38.417Y-7.62
X38.417Y-10.16
X38.417Y-12.7
X38.417Y-15.24
X38.417Y-17.78
X38.417Y-20.32
X38.417Y-22.86
X38.417Y-25.4
X38.417Y-27.94
X38.417Y-30.48
X38.417Y-33.02
X38.417Y-35.56
X38.417Y-38.1
X38.417Y-40.64
X38.417Y-43.18
X38.417Y-45.72
X38.417Y-48.26
X38.417Y-50.8
X38.417Y-53.34
X38.417Y-55.88
X38.417Y-58.42
X38.417Y-60.96
X38.417Y-63.5
X38.417Y-66.04
X38.417Y-68.58
X38.417Y-71.12
X38.417Y-73.66
X38.417Y-76.2
X38.417Y-78.74
X38.417Y-81.28
X38.417Y-83.82
X41.275Y-2.54
X41.275Y-5.08
X41.275Y-7.62
X41.275Y-10.16
X41.275Y-12.7
X41.275Y-15.24
X41.275Y-17.78
X41.275Y-20.32
X41.275Y-22.86
X41.275Y-25.4
X41.275Y-27.94
X41.275Y-30.48
X41.275Y-33.02
X41.275Y-35.56
X41.275Y-38.1
X41.275Y-40.64
X41.275Y-43.18
X41.275Y-45.72
X41.275Y-48.26
X41.275Y-50.8
X41.275Y-53.34
X41.275Y-55.88
X41.275Y-58.42
X41.275Y-60.96
X41.275Y-63.5
X41.275Y-66.04
X41.275Y-68.58
X41.275Y-71.12
X41.275Y-73.66
X41.275Y-76.2
X41.275Y-78.74
X41.275Y-81.28
X41.275Y-83.82
X44.133Y-2.54
X44.133Y-5.08
X44.133Y-7.62
X44.133Y-10.16
X44.133Y-12.7
X44.133Y-15.24
X44.133Y-17.78
X44.133Y-20.32
X44.133Y-22.86
X44.133Y-25.4
X44.133Y-27.94
X44.133Y-30.48
X44.133Y-33.02
X44.133Y-35.56
X44.133Y-38.1
X44.133Y-40.64
X44.133Y-43.18
X44.133Y-45.72
X44.133Y-48.26
X44.133Y-50.8
X44.133Y-53.34
X44.133Y-55.88
X44.133Y-58.42
X44.133Y-60.96
X44.133Y-63.5
X44.133Y-66.04
X44.133Y-68.58
X44.133Y-71.12
X44.133Y-73.66
X44.133Y-76.2
X44.133Y-78.74
X44.133Y-81.28
X44.133Y-83.82
X44.133Y-86.36
X46.672Y-2.54
X46.672Y-5.08
X46.672Y-7.62
X46.672Y-10.16
X46.672Y-12.7
X46.672Y-15.24
X46.672Y-17.78
X46.672Y-20.32
X46.672Y-22.86
X46.672Y-25.4
X46.672Y-27.94
X46.672Y-30.48
X46.672Y-33.02
X46.672Y-35.56
X46.672Y-38.1
X46.672Y-40.64
X46.672Y-43.18
X46.672Y-45.72
X46.672Y-48.26
X46.672Y-50.8
X46.672Y-53.34
X46.672Y-55.88
X46.672Y-58.42
X46.672Y-60.96
X46.672Y-63.5
X46.672Y-66.04
X46.672Y-68.58
X46.672Y-71.12
X46.672Y-73.66
X46.672Y-76.2
X46.672Y-78.74
X46.672Y-81.28
X46.672Y-83.82
X46.672Y-86.36
X49.212Y-2.54
X49.212Y-5.08
X49.212Y-7.62
X49.212Y-10.16
X49.212Y-12.7
X49.212Y-15.24
X49.212Y-17.78
X49.212Y-20.32
X49.212Y-22.86
X49.212Y-25.4
X49.212Y-27.94
X49.212Y-30.48
X49.212Y-33.02
X49.212Y-35.56
X49.212Y-38.1
X49.212Y-40.64
X49.212Y-43.18
X49.212Y-45.72
X49.212Y-48.26
X49.212Y-50.8
X49.212Y-53.34
X49.212Y-55.88
X49.212Y-58.42
X49.212Y-60.96
X49.212Y-63.5
X49.212Y-66.04
X49.212Y-68.58
X49.212Y-71.12
X49.212Y-73.66
X49.212Y-76.2
X49.212Y-78.74
X49.212Y-81.28
X49.212Y-83.82
X49.212Y-86.36
X51.752Y-2.54
X51.752Y-5.08
X51.752Y-7.62
X51.752Y-10.16
X51.752Y-12.7
X51.752Y-15.24
X51.752Y-17.78
X51.752Y-20.32
X51.752Y-22.86
X51.752Y-25.4
X51.752Y-27.94
X51.752Y-30.48
X51.752Y-33.02
X51.752Y-35.56
X51.752Y-38.1
X51.752Y-40.64
X51.752Y-43.18
X51.752Y-45.72
X51.752Y-48.26
X51.752Y-50.8
X51.752Y-53.34
X51.752Y-55.88
X51.752Y-58.42
X51.752Y-60.96
X51.752Y-63.5
X51.752Y-66.04
X51.752Y-68.58
X51.752Y-71.12
X51.752Y-73.66
X51.752Y-76.2
X51.752Y-78.74
X51.752Y-81.28
X51.752Y-83.82
X51.752Y-86.36
X54.292Y-2.54
X54.292Y-5.08
X54.292Y-7.62
X54.292Y-10.16
X54.292Y-12.7
X54.292Y-15.24
X54.292Y-17.78
X54.292Y-20.32
X54.292Y-22.86
X54.292Y-25.4
X54.292Y-27.94
X54.292Y-30.48
X54.292Y-33.02
X54.292Y-35.56
X54.292Y-38.1
X54.292Y-40.64
X54.292Y-43.18
X54.292Y-45.72
X54.292Y-48.26
X54.292Y-50.8
X54.292Y-53.34
X54.292Y-55.88
X54.292Y-58.42
X54.292Y-60.96
X54.292Y-63.5
X54.292Y-66.04
X54.292Y-68.58
X54.292Y-71.12
X54.292Y-73.66
X54.292Y-76.2
X54.292Y-78.74
X54.292Y-81.28
X54.292Y-83.82
X54.292Y-86.36
X56.832Y-2.54
X56.832Y-5.08
X56.832Y-7.62
X56.832Y-10.16
X56.832Y-12.7
X56.832Y-15.24
X56.832Y-17.78
X56.832Y-20.32
X56.832Y-22.86
X56.832Y-25.4
X56.832Y-27.94
X56.832Y-30.48
X56.832Y-33.02
X56.832Y-35.56
X56.832Y-38.1
X56.832Y-40.64
X56.832Y-43.18
X56.832Y-45.72
X56.832Y-48.26
X56.832Y-50.8
X56.832Y-53.34
X56.832Y-55.88
X56.832Y-58.42
X56.832Y-60.96
X56.832Y-63.5
X56.832Y-66.04
X56.832Y-68.58
X56.832Y-71.12
X56.832Y-73.66
X56.832Y-76.2
X56.832Y-78.74
X56.832Y-81.28
X56.832Y-83.82
X56.832Y-86.36
X59.372Y-2.54
X59.372Y-5.08
X59.372Y-7.62
X59.372Y-10.16
X59.372Y-12.7
X59.372Y-15.24
X59.372Y-17.78
X59.372Y-20.32
X59.372Y-22.86
X59.372Y-25.4
X59.372Y-27.94
X59.372Y-30.48
X59.372Y-33.02
X59.372Y-35.56
X59.372Y-38.1
X59.372Y-40.64
X59.372Y-43.18
X59.372Y-45.72
X59.372Y-48.26
X59.372Y-50.8
X59.372Y-53.34
X59.372Y-55.88
X59.372Y-58.42
X59.372Y-60.96
X59.372Y-63.5
X59.372Y-66.04
X59.372Y-68.58
X59.372Y-71.12
X59.372Y-73.66
X59.372Y-76.2
X59.372Y-78.74
X59.372Y-81.28
X59.372Y-83.82
X59.372Y-86.36
X61.912Y-2.54
X61.912Y-5.08
X61.912Y-7.62
X61.912Y-10.16
X61.912Y-12.7
X61.912Y-15.24
X61.912Y-17.78
X61.912Y-20.32
X61.912Y-22.86
X61.912Y-25.4
X61.912Y-27.94
X61.912Y-30.48
X61.912Y-33.02
X61.912Y-35.56
X61.912Y-38.1
X61.912Y-40.64
X61.912Y-43.18
X61.912Y-45.72
X61.912Y-48.26
X61.912Y-50.8
X61.912Y-53.34
X61.912Y-55.88
X61.912Y-58.42
X61.912Y-60.96
X61.912Y-63.5
X61.912Y-66.04
X61.912Y-68.58
X61.912Y-71.12
X61.912Y-73.66
X61.912Y-76.2
X61.912Y-78.74
X61.912Y-81.28
X61.912Y-83.82
X61.912Y-86.36
X64.453Y-2.54
X64.453Y-5.08
X64.453Y-7.62
X64.453Y-10.16
X64.453Y-12.7
X64.453Y-15.24
X64.453Y-17.78
X64.453Y-20.32
X64.453Y-22.86
X64.453Y-25.4
X64.453Y-27.94
X64.453Y-30.48
X64.453Y-33.02
X64.453Y-35.56
X64.453Y-38.1
X64.453Y-40.64
X64.453Y-43.18
X64.453Y-45.72
X64.453Y-48.26
X64.453Y-50.8
X64.453Y-53.34
X64.453Y-55.88
X64.453Y-58.42
X64.453Y-60.96
X64.453Y-63.5
X64.453Y-66.04
X64.453Y-68.58
X64.453Y-71.12
X64.453Y-73.66
X64.453Y-76.2
X64.453Y-78.74
X64.453Y-81.28
X64.453Y-83.82
X66.992Y-2.54
X66.992Y-5.08
X66.992Y-7.62
X66.992Y-10.16
X66.992Y-12.7
X66.992Y-15.24
X66.992Y-17.78
X66.992Y-20.32
X66.992Y-22.86
X66.992Y-25.4
X66.992Y-27.94
X66.992Y-30.48
X66.992Y-33.02
X66.992Y-35.56
X66.992Y-38.1
X66.992Y-40.64
X66.992Y-43.18
X66.992Y-45.72
X66.992Y-48.26
X66.992Y-50.8
X66.992Y-53.34
X66.992Y-55.88
X66.992Y-58.42
X66.992Y-60.96
X66.992Y-63.5
X66.992Y-66.04
X66.992Y-68.58
X66.992Y-71.12
X66.992Y-73.66
X66.992Y-76.2
X66.992Y-78.74
X66.992Y-81.28
X66.992Y-83.82
X69.532Y-2.54
X69.532Y-5.08
X69.532Y-7.62
X69.532Y-10.16
X69.532Y-12.7
X69.532Y-15.24
X69.532Y-17.78
X69.532Y-20.32
X69.532Y-22.86
X69.532Y-25.4
X69.532Y-27.94
X69.532Y-30.48
X69.532Y-33.02
X69.532Y-35.56
X69.532Y-38.1
X69.532Y-40.64
X69.532Y-43.18
X69.532Y-45.72
X69.532Y-48.26
X69.532Y-50.8
X69.532Y-53.34
X69.532Y-55.88
X69.532Y-58.42
X69.532Y-60.96
X69.532Y-63.5
X69.532Y-66.04
X69.532Y-68.58
X69.532Y-71.12
X69.532Y-73.66
X69.532Y-76.2
X69.532Y-78.74
X69.532Y-81.28
X69.532Y-83.82
X69.532Y-86.36
X72.231Y-2.54
X72.231Y-5.08
X72.231Y-7.62
X72.231Y-10.16
X72.231Y-12.7
X72.231Y-15.24
X72.231Y-17.78
X72.231Y-20.32
X72.231Y-22.86
X72.231Y-25.4
X72.231Y-27.94
X72.231Y-30.48
X72.231Y-33.02
X72.231Y-35.56
X72.231Y-38.1
X72.231Y-40.64
X72.231Y-43.18
X72.231Y-45.72
X72.231Y-48.26
X72.231Y-50.8
X72.231Y-53.34
X72.231Y-55.88
X72.231Y-58.42
X72.231Y-60.96
X72.231Y-63.5
X72.231Y-66.04
X72.231Y-68.58
X72.231Y-71.12
X72.231Y-73.66
X72.231Y-76.2
X72.231Y-78.74
X72.231Y-81.28
X72.231Y-83.82
X72.231Y-86.36
X74.92Y-12.7
X74.92Y-15.24
X74.92Y-17.78
X74.92Y-20.32
X74.92Y-22.86
X74.92Y-25.4
X74.92Y-27.94
X74.92Y-30.48
X74.92Y-33.02
X74.92Y-35.56
X74.92Y-38.1
X74.92Y-40.64
X74.92Y-43.18
X74.92Y-45.72
X74.92Y-48.26
X74.92Y-53.34
X74.92Y-55.88
X74.92Y-58.42
X74.92Y-60.96
X74.92Y-63.5
X74.92Y-66.04
X74.92Y-68.58
X74.92Y-71.12
X74.92Y-73.66
X74.92Y-76.2
X74.92Y-78.74
X74.92Y-81.28
X74.92Y-83.82
X74.92Y-86.36
X74.92Y-88.9
X77.46Y-10.16
X77.46Y-12.7
X77.46Y-15.24
X77.46Y-17.78
X77.46Y-20.32
X77.46Y-22.86
X77.46Y-25.4
X77.46Y-27.94
X77.46Y-30.48
X77.46Y-33.02
X77.46Y-35.56
X77.46Y-38.1
X77.46Y-40.64
X77.46Y-43.18
X77.46Y-45.72
X77.46Y-48.26
X77.46Y-53.34
X77.46Y-55.88
X77.46Y-58.42
X77.46Y-60.96
X77.46Y-63.5
X77.46Y-66.04
X77.46Y-68.58
X77.46Y-71.12
X77.46Y-73.66
X77.46Y-76.2
X77.46Y-78.74
X77.46Y-81.28
X77.46Y-83.82
X77.46Y-86.36
X77.46Y-88.9
X77.46Y-91.44
T3
X48.26Y-92.71
X48.26Y-95.504
X50.8Y-92.71
X50.8Y-95.504
X53.34Y-92.71
X53.34Y-95.504
X55.88Y-92.71
X55.88Y-95.504
X58.42Y-92.71
X58.42Y-95.504
T4
X40.64Y-87.63
X40.64Y-97.79
X66.04Y-87.59
X66.04Y-97.75
T0
M30
