G04 #@! TF.GenerationSoftware,KiCad,Pcbnew,(6.0.11-0)*
G04 #@! TF.CreationDate,2023-03-26T21:43:42+01:00*
G04 #@! TF.ProjectId,panel,70616e65-6c2e-46b6-9963-61645f706362,rev?*
G04 #@! TF.SameCoordinates,Original*
G04 #@! TF.FileFunction,Profile,NP*
%FSLAX46Y46*%
G04 Gerber Fmt 4.6, Leading zero omitted, Abs format (unit mm)*
G04 Created by KiCad (PCBNEW (6.0.11-0)) date 2023-03-26 21:43:42*
%MOMM*%
%LPD*%
G01*
G04 APERTURE LIST*
G04 #@! TA.AperFunction,Profile*
%ADD10C,0.100000*%
G04 #@! TD*
G04 APERTURE END LIST*
D10*
X80900000Y0D02*
X80900000Y-128500000D01*
X0Y-128500000D02*
X0Y0D01*
X52925000Y-80750000D02*
G75*
G03*
X52925000Y-80750000I-3200000J0D01*
G01*
X5200000Y-111250000D02*
G75*
G03*
X5200000Y-111250000I-1600000J0D01*
G01*
X34675000Y-60750000D02*
G75*
G03*
X34675000Y-60750000I-3200000J0D01*
G01*
X16300000Y-40750000D02*
G75*
G03*
X16300000Y-40750000I-3200000J0D01*
G01*
X16300000Y-20750000D02*
G75*
G03*
X16300000Y-20750000I-3200000J0D01*
G01*
X34675000Y-80750000D02*
G75*
G03*
X34675000Y-80750000I-3200000J0D01*
G01*
X79200000Y-111250000D02*
G75*
G03*
X79200000Y-111250000I-1600000J0D01*
G01*
X71300000Y-20750000D02*
G75*
G03*
X71300000Y-20750000I-3200000J0D01*
G01*
X52925000Y-20750000D02*
G75*
G03*
X52925000Y-20750000I-3200000J0D01*
G01*
X71300000Y-40750000D02*
G75*
G03*
X71300000Y-40750000I-3200000J0D01*
G01*
X71300000Y-80750000D02*
G75*
G03*
X71300000Y-80750000I-3200000J0D01*
G01*
X0Y0D02*
X80900000Y0D01*
X52925000Y-60750000D02*
G75*
G03*
X52925000Y-60750000I-3200000J0D01*
G01*
X34675000Y-20750000D02*
G75*
G03*
X34675000Y-20750000I-3200000J0D01*
G01*
X5200000Y-17250000D02*
G75*
G03*
X5200000Y-17250000I-1600000J0D01*
G01*
X16300000Y-100750000D02*
G75*
G03*
X16300000Y-100750000I-3200000J0D01*
G01*
X34675000Y-40750000D02*
G75*
G03*
X34675000Y-40750000I-3200000J0D01*
G01*
X80900000Y-128500000D02*
X0Y-128500000D01*
X34675000Y-100750000D02*
G75*
G03*
X34675000Y-100750000I-3200000J0D01*
G01*
X71300000Y-100750000D02*
G75*
G03*
X71300000Y-100750000I-3200000J0D01*
G01*
X16300000Y-60750000D02*
G75*
G03*
X16300000Y-60750000I-3200000J0D01*
G01*
X71300000Y-60750000D02*
G75*
G03*
X71300000Y-60750000I-3200000J0D01*
G01*
X52925000Y-40750000D02*
G75*
G03*
X52925000Y-40750000I-3200000J0D01*
G01*
X16300000Y-80750000D02*
G75*
G03*
X16300000Y-80750000I-3200000J0D01*
G01*
X79200000Y-17250000D02*
G75*
G03*
X79200000Y-17250000I-1600000J0D01*
G01*
X52925000Y-100750000D02*
G75*
G03*
X52925000Y-100750000I-3200000J0D01*
G01*
M02*
