%TF.GenerationSoftware,KiCad,Pcbnew,(6.0.11-0)*%
%TF.CreationDate,2023-03-26T21:43:49+01:00*%
%TF.ProjectId,panel,70616e65-6c2e-46b6-9963-61645f706362,rev?*%
%TF.SameCoordinates,Original*%
%TF.FileFunction,Drillmap*%
%TF.FilePolarity,Positive*%
%FSLAX45Y45*%
G04 Gerber Fmt 4.5, Leading zero omitted, Abs format (unit mm)*
G04 Created by KiCad (PCBNEW (6.0.11-0)) date 2023-03-26 21:43:49*
%MOMM*%
%LPD*%
G01*
G04 APERTURE LIST*
%ADD10C,0.100000*%
%ADD11C,0.200000*%
%ADD12C,0.320000*%
G04 APERTURE END LIST*
D10*
X8090000Y0D02*
X8090000Y-12850000D01*
X0Y-12850000D02*
X0Y0D01*
X5292500Y-8075000D02*
G75*
G03*
X5292500Y-8075000I-320000J0D01*
G01*
X520000Y-11125000D02*
G75*
G03*
X520000Y-11125000I-160000J0D01*
G01*
X3467500Y-6075000D02*
G75*
G03*
X3467500Y-6075000I-320000J0D01*
G01*
X1630000Y-4075000D02*
G75*
G03*
X1630000Y-4075000I-320000J0D01*
G01*
X1630000Y-2075000D02*
G75*
G03*
X1630000Y-2075000I-320000J0D01*
G01*
X3467500Y-8075000D02*
G75*
G03*
X3467500Y-8075000I-320000J0D01*
G01*
X7920000Y-11125000D02*
G75*
G03*
X7920000Y-11125000I-160000J0D01*
G01*
X7130000Y-2075000D02*
G75*
G03*
X7130000Y-2075000I-320000J0D01*
G01*
X5292500Y-2075000D02*
G75*
G03*
X5292500Y-2075000I-320000J0D01*
G01*
X7130000Y-4075000D02*
G75*
G03*
X7130000Y-4075000I-320000J0D01*
G01*
X7130000Y-8075000D02*
G75*
G03*
X7130000Y-8075000I-320000J0D01*
G01*
X0Y0D02*
X8090000Y0D01*
X5292500Y-6075000D02*
G75*
G03*
X5292500Y-6075000I-320000J0D01*
G01*
X3467500Y-2075000D02*
G75*
G03*
X3467500Y-2075000I-320000J0D01*
G01*
X520000Y-1725000D02*
G75*
G03*
X520000Y-1725000I-160000J0D01*
G01*
X1630000Y-10075000D02*
G75*
G03*
X1630000Y-10075000I-320000J0D01*
G01*
X3467500Y-4075000D02*
G75*
G03*
X3467500Y-4075000I-320000J0D01*
G01*
X8090000Y-12850000D02*
X0Y-12850000D01*
X3467500Y-10075000D02*
G75*
G03*
X3467500Y-10075000I-320000J0D01*
G01*
X7130000Y-10075000D02*
G75*
G03*
X7130000Y-10075000I-320000J0D01*
G01*
X1630000Y-6075000D02*
G75*
G03*
X1630000Y-6075000I-320000J0D01*
G01*
X7130000Y-6075000D02*
G75*
G03*
X7130000Y-6075000I-320000J0D01*
G01*
X5292500Y-4075000D02*
G75*
G03*
X5292500Y-4075000I-320000J0D01*
G01*
X1630000Y-8075000D02*
G75*
G03*
X1630000Y-8075000I-320000J0D01*
G01*
X7920000Y-1725000D02*
G75*
G03*
X7920000Y-1725000I-160000J0D01*
G01*
X5292500Y-10075000D02*
G75*
G03*
X5292500Y-10075000I-320000J0D01*
G01*
D11*
D12*
X348000Y-140000D02*
X668000Y-460000D01*
X668000Y-140000D02*
X348000Y-460000D01*
D11*
X318000Y-460000D02*
X698000Y-460000D01*
X318000Y-140000D02*
X698000Y-140000D01*
X698000Y-460000D02*
G75*
G03*
X698000Y-140000I0J160000D01*
G01*
X318000Y-140000D02*
G75*
G03*
X318000Y-460000I0J-160000D01*
G01*
D12*
X348000Y-12390000D02*
X668000Y-12710000D01*
X668000Y-12390000D02*
X348000Y-12710000D01*
D11*
X318000Y-12710000D02*
X698000Y-12710000D01*
X318000Y-12390000D02*
X698000Y-12390000D01*
X698000Y-12710000D02*
G75*
G03*
X698000Y-12390000I0J160000D01*
G01*
X318000Y-12390000D02*
G75*
G03*
X318000Y-12710000I0J-160000D01*
G01*
D12*
X7422000Y-140000D02*
X7742000Y-460000D01*
X7742000Y-140000D02*
X7422000Y-460000D01*
D11*
X7392000Y-460000D02*
X7772000Y-460000D01*
X7392000Y-140000D02*
X7772000Y-140000D01*
X7772000Y-460000D02*
G75*
G03*
X7772000Y-140000I0J160000D01*
G01*
X7392000Y-140000D02*
G75*
G03*
X7392000Y-460000I0J-160000D01*
G01*
D12*
X7422000Y-12390000D02*
X7742000Y-12710000D01*
X7742000Y-12390000D02*
X7422000Y-12710000D01*
D11*
X7392000Y-12710000D02*
X7772000Y-12710000D01*
X7392000Y-12390000D02*
X7772000Y-12390000D01*
X7772000Y-12710000D02*
G75*
G03*
X7772000Y-12390000I0J160000D01*
G01*
X7392000Y-12390000D02*
G75*
G03*
X7392000Y-12710000I0J-160000D01*
G01*
X252619Y-13165476D02*
X252619Y-12965476D01*
X300238Y-12965476D01*
X328810Y-12975000D01*
X347857Y-12994048D01*
X357381Y-13013095D01*
X366905Y-13051190D01*
X366905Y-13079762D01*
X357381Y-13117857D01*
X347857Y-13136905D01*
X328810Y-13155952D01*
X300238Y-13165476D01*
X252619Y-13165476D01*
X452619Y-13165476D02*
X452619Y-13032143D01*
X452619Y-13070238D02*
X462143Y-13051190D01*
X471667Y-13041667D01*
X490714Y-13032143D01*
X509762Y-13032143D01*
X576429Y-13165476D02*
X576429Y-13032143D01*
X576429Y-12965476D02*
X566905Y-12975000D01*
X576429Y-12984524D01*
X585952Y-12975000D01*
X576429Y-12965476D01*
X576429Y-12984524D01*
X700238Y-13165476D02*
X681190Y-13155952D01*
X671667Y-13136905D01*
X671667Y-12965476D01*
X805000Y-13165476D02*
X785952Y-13155952D01*
X776428Y-13136905D01*
X776428Y-12965476D01*
X1033571Y-13165476D02*
X1033571Y-12965476D01*
X1100238Y-13108333D01*
X1166905Y-12965476D01*
X1166905Y-13165476D01*
X1347857Y-13165476D02*
X1347857Y-13060714D01*
X1338333Y-13041667D01*
X1319286Y-13032143D01*
X1281190Y-13032143D01*
X1262143Y-13041667D01*
X1347857Y-13155952D02*
X1328810Y-13165476D01*
X1281190Y-13165476D01*
X1262143Y-13155952D01*
X1252619Y-13136905D01*
X1252619Y-13117857D01*
X1262143Y-13098809D01*
X1281190Y-13089286D01*
X1328810Y-13089286D01*
X1347857Y-13079762D01*
X1443095Y-13032143D02*
X1443095Y-13232143D01*
X1443095Y-13041667D02*
X1462143Y-13032143D01*
X1500238Y-13032143D01*
X1519286Y-13041667D01*
X1528809Y-13051190D01*
X1538333Y-13070238D01*
X1538333Y-13127381D01*
X1528809Y-13146428D01*
X1519286Y-13155952D01*
X1500238Y-13165476D01*
X1462143Y-13165476D01*
X1443095Y-13155952D01*
X1624048Y-13146428D02*
X1633571Y-13155952D01*
X1624048Y-13165476D01*
X1614524Y-13155952D01*
X1624048Y-13146428D01*
X1624048Y-13165476D01*
X1624048Y-13041667D02*
X1633571Y-13051190D01*
X1624048Y-13060714D01*
X1614524Y-13051190D01*
X1624048Y-13041667D01*
X1624048Y-13060714D01*
X-205000Y-13395000D02*
X-5000Y-13595000D01*
X-5000Y-13395000D02*
X-205000Y-13595000D01*
X233571Y-13385476D02*
X357381Y-13385476D01*
X290714Y-13461667D01*
X319286Y-13461667D01*
X338333Y-13471190D01*
X347857Y-13480714D01*
X357381Y-13499762D01*
X357381Y-13547381D01*
X347857Y-13566428D01*
X338333Y-13575952D01*
X319286Y-13585476D01*
X262143Y-13585476D01*
X243095Y-13575952D01*
X233571Y-13566428D01*
X443095Y-13566428D02*
X452619Y-13575952D01*
X443095Y-13585476D01*
X433571Y-13575952D01*
X443095Y-13566428D01*
X443095Y-13585476D01*
X528810Y-13404524D02*
X538333Y-13395000D01*
X557381Y-13385476D01*
X605000Y-13385476D01*
X624048Y-13395000D01*
X633571Y-13404524D01*
X643095Y-13423571D01*
X643095Y-13442619D01*
X633571Y-13471190D01*
X519286Y-13585476D01*
X643095Y-13585476D01*
X766905Y-13385476D02*
X785952Y-13385476D01*
X805000Y-13395000D01*
X814524Y-13404524D01*
X824048Y-13423571D01*
X833571Y-13461667D01*
X833571Y-13509286D01*
X824048Y-13547381D01*
X814524Y-13566428D01*
X805000Y-13575952D01*
X785952Y-13585476D01*
X766905Y-13585476D01*
X747857Y-13575952D01*
X738333Y-13566428D01*
X728809Y-13547381D01*
X719286Y-13509286D01*
X719286Y-13461667D01*
X728809Y-13423571D01*
X738333Y-13404524D01*
X747857Y-13395000D01*
X766905Y-13385476D01*
X957381Y-13385476D02*
X976428Y-13385476D01*
X995476Y-13395000D01*
X1005000Y-13404524D01*
X1014524Y-13423571D01*
X1024048Y-13461667D01*
X1024048Y-13509286D01*
X1014524Y-13547381D01*
X1005000Y-13566428D01*
X995476Y-13575952D01*
X976428Y-13585476D01*
X957381Y-13585476D01*
X938333Y-13575952D01*
X928809Y-13566428D01*
X919286Y-13547381D01*
X909762Y-13509286D01*
X909762Y-13461667D01*
X919286Y-13423571D01*
X928809Y-13404524D01*
X938333Y-13395000D01*
X957381Y-13385476D01*
X1109762Y-13585476D02*
X1109762Y-13452143D01*
X1109762Y-13471190D02*
X1119286Y-13461667D01*
X1138333Y-13452143D01*
X1166905Y-13452143D01*
X1185952Y-13461667D01*
X1195476Y-13480714D01*
X1195476Y-13585476D01*
X1195476Y-13480714D02*
X1205000Y-13461667D01*
X1224048Y-13452143D01*
X1252619Y-13452143D01*
X1271667Y-13461667D01*
X1281190Y-13480714D01*
X1281190Y-13585476D01*
X1376429Y-13585476D02*
X1376429Y-13452143D01*
X1376429Y-13471190D02*
X1385952Y-13461667D01*
X1405000Y-13452143D01*
X1433571Y-13452143D01*
X1452619Y-13461667D01*
X1462143Y-13480714D01*
X1462143Y-13585476D01*
X1462143Y-13480714D02*
X1471667Y-13461667D01*
X1490714Y-13452143D01*
X1519286Y-13452143D01*
X1538333Y-13461667D01*
X1547857Y-13480714D01*
X1547857Y-13585476D01*
X1938333Y-13375952D02*
X1766905Y-13633095D01*
X2195476Y-13385476D02*
X2214524Y-13385476D01*
X2233571Y-13395000D01*
X2243095Y-13404524D01*
X2252619Y-13423571D01*
X2262143Y-13461667D01*
X2262143Y-13509286D01*
X2252619Y-13547381D01*
X2243095Y-13566428D01*
X2233571Y-13575952D01*
X2214524Y-13585476D01*
X2195476Y-13585476D01*
X2176429Y-13575952D01*
X2166905Y-13566428D01*
X2157381Y-13547381D01*
X2147857Y-13509286D01*
X2147857Y-13461667D01*
X2157381Y-13423571D01*
X2166905Y-13404524D01*
X2176429Y-13395000D01*
X2195476Y-13385476D01*
X2347857Y-13566428D02*
X2357381Y-13575952D01*
X2347857Y-13585476D01*
X2338333Y-13575952D01*
X2347857Y-13566428D01*
X2347857Y-13585476D01*
X2547857Y-13585476D02*
X2433571Y-13585476D01*
X2490714Y-13585476D02*
X2490714Y-13385476D01*
X2471667Y-13414048D01*
X2452619Y-13433095D01*
X2433571Y-13442619D01*
X2624048Y-13404524D02*
X2633571Y-13395000D01*
X2652619Y-13385476D01*
X2700238Y-13385476D01*
X2719286Y-13395000D01*
X2728810Y-13404524D01*
X2738333Y-13423571D01*
X2738333Y-13442619D01*
X2728810Y-13471190D01*
X2614524Y-13585476D01*
X2738333Y-13585476D01*
X2909762Y-13385476D02*
X2871667Y-13385476D01*
X2852619Y-13395000D01*
X2843095Y-13404524D01*
X2824048Y-13433095D01*
X2814524Y-13471190D01*
X2814524Y-13547381D01*
X2824048Y-13566428D01*
X2833571Y-13575952D01*
X2852619Y-13585476D01*
X2890714Y-13585476D01*
X2909762Y-13575952D01*
X2919286Y-13566428D01*
X2928809Y-13547381D01*
X2928809Y-13499762D01*
X2919286Y-13480714D01*
X2909762Y-13471190D01*
X2890714Y-13461667D01*
X2852619Y-13461667D01*
X2833571Y-13471190D01*
X2824048Y-13480714D01*
X2814524Y-13499762D01*
X3052619Y-13385476D02*
X3071667Y-13385476D01*
X3090714Y-13395000D01*
X3100238Y-13404524D01*
X3109762Y-13423571D01*
X3119286Y-13461667D01*
X3119286Y-13509286D01*
X3109762Y-13547381D01*
X3100238Y-13566428D01*
X3090714Y-13575952D01*
X3071667Y-13585476D01*
X3052619Y-13585476D01*
X3033571Y-13575952D01*
X3024048Y-13566428D01*
X3014524Y-13547381D01*
X3005000Y-13509286D01*
X3005000Y-13461667D01*
X3014524Y-13423571D01*
X3024048Y-13404524D01*
X3033571Y-13395000D01*
X3052619Y-13385476D01*
X3195476Y-13385476D02*
X3195476Y-13423571D01*
X3271667Y-13385476D02*
X3271667Y-13423571D01*
X3566905Y-13661667D02*
X3557381Y-13652143D01*
X3538333Y-13623571D01*
X3528809Y-13604524D01*
X3519286Y-13575952D01*
X3509762Y-13528333D01*
X3509762Y-13490238D01*
X3519286Y-13442619D01*
X3528809Y-13414048D01*
X3538333Y-13395000D01*
X3557381Y-13366428D01*
X3566905Y-13356905D01*
X3681190Y-13385476D02*
X3700238Y-13385476D01*
X3719286Y-13395000D01*
X3728809Y-13404524D01*
X3738333Y-13423571D01*
X3747857Y-13461667D01*
X3747857Y-13509286D01*
X3738333Y-13547381D01*
X3728809Y-13566428D01*
X3719286Y-13575952D01*
X3700238Y-13585476D01*
X3681190Y-13585476D01*
X3662143Y-13575952D01*
X3652619Y-13566428D01*
X3643095Y-13547381D01*
X3633571Y-13509286D01*
X3633571Y-13461667D01*
X3643095Y-13423571D01*
X3652619Y-13404524D01*
X3662143Y-13395000D01*
X3681190Y-13385476D01*
X3985952Y-13585476D02*
X3985952Y-13385476D01*
X4071667Y-13585476D02*
X4071667Y-13480714D01*
X4062143Y-13461667D01*
X4043095Y-13452143D01*
X4014524Y-13452143D01*
X3995476Y-13461667D01*
X3985952Y-13471190D01*
X4195476Y-13585476D02*
X4176428Y-13575952D01*
X4166905Y-13566428D01*
X4157381Y-13547381D01*
X4157381Y-13490238D01*
X4166905Y-13471190D01*
X4176428Y-13461667D01*
X4195476Y-13452143D01*
X4224048Y-13452143D01*
X4243095Y-13461667D01*
X4252619Y-13471190D01*
X4262143Y-13490238D01*
X4262143Y-13547381D01*
X4252619Y-13566428D01*
X4243095Y-13575952D01*
X4224048Y-13585476D01*
X4195476Y-13585476D01*
X4376429Y-13585476D02*
X4357381Y-13575952D01*
X4347857Y-13556905D01*
X4347857Y-13385476D01*
X4528810Y-13575952D02*
X4509762Y-13585476D01*
X4471667Y-13585476D01*
X4452619Y-13575952D01*
X4443095Y-13556905D01*
X4443095Y-13480714D01*
X4452619Y-13461667D01*
X4471667Y-13452143D01*
X4509762Y-13452143D01*
X4528810Y-13461667D01*
X4538333Y-13480714D01*
X4538333Y-13499762D01*
X4443095Y-13518809D01*
X4614524Y-13575952D02*
X4633571Y-13585476D01*
X4671667Y-13585476D01*
X4690714Y-13575952D01*
X4700238Y-13556905D01*
X4700238Y-13547381D01*
X4690714Y-13528333D01*
X4671667Y-13518809D01*
X4643095Y-13518809D01*
X4624048Y-13509286D01*
X4614524Y-13490238D01*
X4614524Y-13480714D01*
X4624048Y-13461667D01*
X4643095Y-13452143D01*
X4671667Y-13452143D01*
X4690714Y-13461667D01*
X4938333Y-13509286D02*
X5090714Y-13509286D01*
X5014524Y-13585476D02*
X5014524Y-13433095D01*
X5424048Y-13452143D02*
X5424048Y-13585476D01*
X5376429Y-13375952D02*
X5328810Y-13518809D01*
X5452619Y-13518809D01*
X5671667Y-13575952D02*
X5690714Y-13585476D01*
X5728809Y-13585476D01*
X5747857Y-13575952D01*
X5757381Y-13556905D01*
X5757381Y-13547381D01*
X5747857Y-13528333D01*
X5728809Y-13518809D01*
X5700238Y-13518809D01*
X5681190Y-13509286D01*
X5671667Y-13490238D01*
X5671667Y-13480714D01*
X5681190Y-13461667D01*
X5700238Y-13452143D01*
X5728809Y-13452143D01*
X5747857Y-13461667D01*
X5871667Y-13585476D02*
X5852619Y-13575952D01*
X5843095Y-13556905D01*
X5843095Y-13385476D01*
X5976428Y-13585476D02*
X5957381Y-13575952D01*
X5947857Y-13566428D01*
X5938333Y-13547381D01*
X5938333Y-13490238D01*
X5947857Y-13471190D01*
X5957381Y-13461667D01*
X5976428Y-13452143D01*
X6005000Y-13452143D01*
X6024048Y-13461667D01*
X6033571Y-13471190D01*
X6043095Y-13490238D01*
X6043095Y-13547381D01*
X6033571Y-13566428D01*
X6024048Y-13575952D01*
X6005000Y-13585476D01*
X5976428Y-13585476D01*
X6100238Y-13452143D02*
X6176428Y-13452143D01*
X6128809Y-13385476D02*
X6128809Y-13556905D01*
X6138333Y-13575952D01*
X6157381Y-13585476D01*
X6176428Y-13585476D01*
X6233571Y-13575952D02*
X6252619Y-13585476D01*
X6290714Y-13585476D01*
X6309762Y-13575952D01*
X6319286Y-13556905D01*
X6319286Y-13547381D01*
X6309762Y-13528333D01*
X6290714Y-13518809D01*
X6262143Y-13518809D01*
X6243095Y-13509286D01*
X6233571Y-13490238D01*
X6233571Y-13480714D01*
X6243095Y-13461667D01*
X6262143Y-13452143D01*
X6290714Y-13452143D01*
X6309762Y-13461667D01*
X6385952Y-13661667D02*
X6395476Y-13652143D01*
X6414524Y-13623571D01*
X6424048Y-13604524D01*
X6433571Y-13575952D01*
X6443095Y-13528333D01*
X6443095Y-13490238D01*
X6433571Y-13442619D01*
X6424048Y-13414048D01*
X6414524Y-13395000D01*
X6395476Y-13366428D01*
X6385952Y-13356905D01*
X6747857Y-13661667D02*
X6738333Y-13652143D01*
X6719286Y-13623571D01*
X6709762Y-13604524D01*
X6700238Y-13575952D01*
X6690714Y-13528333D01*
X6690714Y-13490238D01*
X6700238Y-13442619D01*
X6709762Y-13414048D01*
X6719286Y-13395000D01*
X6738333Y-13366428D01*
X6747857Y-13356905D01*
X6824048Y-13452143D02*
X6824048Y-13585476D01*
X6824048Y-13471190D02*
X6833571Y-13461667D01*
X6852619Y-13452143D01*
X6881190Y-13452143D01*
X6900238Y-13461667D01*
X6909762Y-13480714D01*
X6909762Y-13585476D01*
X7033571Y-13585476D02*
X7014524Y-13575952D01*
X7005000Y-13566428D01*
X6995476Y-13547381D01*
X6995476Y-13490238D01*
X7005000Y-13471190D01*
X7014524Y-13461667D01*
X7033571Y-13452143D01*
X7062143Y-13452143D01*
X7081190Y-13461667D01*
X7090714Y-13471190D01*
X7100238Y-13490238D01*
X7100238Y-13547381D01*
X7090714Y-13566428D01*
X7081190Y-13575952D01*
X7062143Y-13585476D01*
X7033571Y-13585476D01*
X7157381Y-13452143D02*
X7233571Y-13452143D01*
X7185952Y-13385476D02*
X7185952Y-13556905D01*
X7195476Y-13575952D01*
X7214524Y-13585476D01*
X7233571Y-13585476D01*
X7452619Y-13452143D02*
X7452619Y-13652143D01*
X7452619Y-13461667D02*
X7471667Y-13452143D01*
X7509762Y-13452143D01*
X7528809Y-13461667D01*
X7538333Y-13471190D01*
X7547857Y-13490238D01*
X7547857Y-13547381D01*
X7538333Y-13566428D01*
X7528809Y-13575952D01*
X7509762Y-13585476D01*
X7471667Y-13585476D01*
X7452619Y-13575952D01*
X7662143Y-13585476D02*
X7643095Y-13575952D01*
X7633571Y-13556905D01*
X7633571Y-13385476D01*
X7824048Y-13585476D02*
X7824048Y-13480714D01*
X7814524Y-13461667D01*
X7795476Y-13452143D01*
X7757381Y-13452143D01*
X7738333Y-13461667D01*
X7824048Y-13575952D02*
X7805000Y-13585476D01*
X7757381Y-13585476D01*
X7738333Y-13575952D01*
X7728809Y-13556905D01*
X7728809Y-13537857D01*
X7738333Y-13518809D01*
X7757381Y-13509286D01*
X7805000Y-13509286D01*
X7824048Y-13499762D01*
X7890714Y-13452143D02*
X7966905Y-13452143D01*
X7919286Y-13385476D02*
X7919286Y-13556905D01*
X7928809Y-13575952D01*
X7947857Y-13585476D01*
X7966905Y-13585476D01*
X8109762Y-13575952D02*
X8090714Y-13585476D01*
X8052619Y-13585476D01*
X8033571Y-13575952D01*
X8024048Y-13556905D01*
X8024048Y-13480714D01*
X8033571Y-13461667D01*
X8052619Y-13452143D01*
X8090714Y-13452143D01*
X8109762Y-13461667D01*
X8119286Y-13480714D01*
X8119286Y-13499762D01*
X8024048Y-13518809D01*
X8290714Y-13585476D02*
X8290714Y-13385476D01*
X8290714Y-13575952D02*
X8271667Y-13585476D01*
X8233571Y-13585476D01*
X8214524Y-13575952D01*
X8205000Y-13566428D01*
X8195476Y-13547381D01*
X8195476Y-13490238D01*
X8205000Y-13471190D01*
X8214524Y-13461667D01*
X8233571Y-13452143D01*
X8271667Y-13452143D01*
X8290714Y-13461667D01*
X8366905Y-13661667D02*
X8376428Y-13652143D01*
X8395476Y-13623571D01*
X8405000Y-13604524D01*
X8414524Y-13575952D01*
X8424048Y-13528333D01*
X8424048Y-13490238D01*
X8414524Y-13442619D01*
X8405000Y-13414048D01*
X8395476Y-13395000D01*
X8376428Y-13366428D01*
X8366905Y-13356905D01*
M02*
