  0
SECTION
  2
HEADER
  9
$ANGBASE
  50
0.0
  9
$ANGDIR
  70
1
  9
$MEASUREMENT
  70
1
  0
ENDSEC
  0
SECTION
  2
TABLES
  0
TABLE
  2
LTYPE
  70
4
  0
LTYPE
  5
40F
  2
CONTINUOUS
  70
0
  3
Solid line
  72
65
  73
0
  40
0.0
  0
LTYPE
  5
410
  2
DASHDOT
 70
0
  3
Dash Dot ____ _ ____ _
 72
65
 73
4
 40
2.0
 49
1.25
 49
-0.25
 49
0.25
 49
-0.25
  0
LTYPE
  5
411
  2
DASHED
 70
0
  3
Dashed __ __ __ __ __
 72
65
 73
2
 40
0.75
 49
0.5
 49
-0.25
  0
LTYPE
  5
43B
  2
DOTTED
 70
0
  3
Dotted .  .  .  .
 72
65
 73
2
 40
0.2
 49
0.0
 49
-0.2
  0
ENDTAB
  0
TABLE
  2
STYLE
  70
4
  0
STYLE
  2
KICAD
  70
0
  40
0
  41
1
  42
1
  50
0
  71
0
  3
isocp.shx
  0
STYLE
  2
KICADB
  70
0
  40
0
  41
1
  42
1
  50
0
  71
0
  3
isocp.shx
  0
STYLE
  2
KICADI
  70
0
  40
0
  41
1
  42
1
  50
15
  71
0
  3
isocp.shx
  0
STYLE
  2
KICADBI
  70
0
  40
0
  41
1
  42
1
  50
15
  71
0
  3
isocp.shx
  0
ENDTAB
  0
TABLE
  2
LAYER
  70
1
  0
LAYER
  2
BLACK
  70
0
  62
7
  6
CONTINUOUS
  0
ENDTAB
  0
ENDSEC
  0
SECTION
  2
ENTITIES
0
LINE
8
BLACK
6
CONTINUOUS
10
-0.035355
20
-128.535
11
-0.05
21
-128.5
0
LINE
8
BLACK
6
CONTINUOUS
10
-0.05
20
-128.5
11
-0.05
21
0
0
LINE
8
BLACK
6
CONTINUOUS
10
-0.05
20
0
11
-0.035355
21
0.035355
0
LINE
8
BLACK
6
CONTINUOUS
10
-0.035355
20
0.035355
11
0
21
0.05
0
LINE
8
BLACK
6
CONTINUOUS
10
0
20
0.05
11
80.9
21
0.05
0
LINE
8
BLACK
6
CONTINUOUS
10
80.9
20
0.05
11
80.9354
21
0.035355
0
LINE
8
BLACK
6
CONTINUOUS
10
80.9354
20
0.035355
11
80.95
21
0
0
LINE
8
BLACK
6
CONTINUOUS
10
80.95
20
0
11
80.95
21
-128.5
0
LINE
8
BLACK
6
CONTINUOUS
10
80.95
20
-128.5
11
80.9354
21
-128.535
0
LINE
8
BLACK
6
CONTINUOUS
10
80.9354
20
-128.535
11
80.9
21
-128.55
0
LINE
8
BLACK
6
CONTINUOUS
10
80.9
20
-128.55
11
0
21
-128.55
0
LINE
8
BLACK
6
CONTINUOUS
10
0
20
-128.55
11
-0.035355
21
-128.535
0
LINE
8
BLACK
6
CONTINUOUS
10
0.05
20
-0.05
11
0.05
21
-128.45
0
LINE
8
BLACK
6
CONTINUOUS
10
0.05
20
-128.45
11
80.85
21
-128.45
0
LINE
8
BLACK
6
CONTINUOUS
10
80.85
20
-128.45
11
80.85
21
-0.05
0
LINE
8
BLACK
6
CONTINUOUS
10
80.85
20
-0.05
11
0.05
21
-0.05
0
LINE
8
BLACK
6
CONTINUOUS
10
2.03076
20
-110.74
11
2.12984
21
-110.501
0
LINE
8
BLACK
6
CONTINUOUS
10
2.12984
20
-110.501
11
2.26512
21
-110.28
0
LINE
8
BLACK
6
CONTINUOUS
10
2.26512
20
-110.28
11
2.43327
21
-110.083
0
LINE
8
BLACK
6
CONTINUOUS
10
2.43327
20
-110.083
11
2.63015
21
-109.915
0
LINE
8
BLACK
6
CONTINUOUS
10
2.63015
20
-109.915
11
2.85092
21
-109.78
0
LINE
8
BLACK
6
CONTINUOUS
10
2.85092
20
-109.78
11
3.09012
21
-109.681
0
LINE
8
BLACK
6
CONTINUOUS
10
3.09012
20
-109.681
11
3.34188
21
-109.62
0
LINE
8
BLACK
6
CONTINUOUS
10
3.34188
20
-109.62
11
3.6
21
-109.6
0
LINE
8
BLACK
6
CONTINUOUS
10
3.6
20
-109.6
11
3.85812
21
-109.62
0
LINE
8
BLACK
6
CONTINUOUS
10
3.85812
20
-109.62
11
4.10988
21
-109.681
0
LINE
8
BLACK
6
CONTINUOUS
10
4.10988
20
-109.681
11
4.34908
21
-109.78
0
LINE
8
BLACK
6
CONTINUOUS
10
4.34908
20
-109.78
11
4.56985
21
-109.915
0
LINE
8
BLACK
6
CONTINUOUS
10
4.56985
20
-109.915
11
4.76673
21
-110.083
0
LINE
8
BLACK
6
CONTINUOUS
10
4.76673
20
-110.083
11
4.93488
21
-110.28
0
LINE
8
BLACK
6
CONTINUOUS
10
4.93488
20
-110.28
11
5.07016
21
-110.501
0
LINE
8
BLACK
6
CONTINUOUS
10
5.07016
20
-110.501
11
5.16924
21
-110.74
0
LINE
8
BLACK
6
CONTINUOUS
10
5.16924
20
-110.74
11
5.22969
21
-110.992
0
LINE
8
BLACK
6
CONTINUOUS
10
5.22969
20
-110.992
11
5.25
21
-111.25
0
LINE
8
BLACK
6
CONTINUOUS
10
5.25
20
-111.25
11
5.22969
21
-111.508
0
LINE
8
BLACK
6
CONTINUOUS
10
5.22969
20
-111.508
11
5.16924
21
-111.76
0
LINE
8
BLACK
6
CONTINUOUS
10
5.16924
20
-111.76
11
5.07016
21
-111.999
0
LINE
8
BLACK
6
CONTINUOUS
10
5.07016
20
-111.999
11
4.93488
21
-112.22
0
LINE
8
BLACK
6
CONTINUOUS
10
4.93488
20
-112.22
11
4.76673
21
-112.417
0
LINE
8
BLACK
6
CONTINUOUS
10
4.76673
20
-112.417
11
4.56985
21
-112.585
0
LINE
8
BLACK
6
CONTINUOUS
10
4.56985
20
-112.585
11
4.34908
21
-112.72
0
LINE
8
BLACK
6
CONTINUOUS
10
4.34908
20
-112.72
11
4.10988
21
-112.819
0
LINE
8
BLACK
6
CONTINUOUS
10
4.10988
20
-112.819
11
3.85812
21
-112.88
0
LINE
8
BLACK
6
CONTINUOUS
10
3.85812
20
-112.88
11
3.6
21
-112.9
0
LINE
8
BLACK
6
CONTINUOUS
10
3.6
20
-112.9
11
3.34188
21
-112.88
0
LINE
8
BLACK
6
CONTINUOUS
10
3.34188
20
-112.88
11
3.09012
21
-112.819
0
LINE
8
BLACK
6
CONTINUOUS
10
3.09012
20
-112.819
11
2.85092
21
-112.72
0
LINE
8
BLACK
6
CONTINUOUS
10
2.85092
20
-112.72
11
2.63015
21
-112.585
0
LINE
8
BLACK
6
CONTINUOUS
10
2.63015
20
-112.585
11
2.43327
21
-112.417
0
LINE
8
BLACK
6
CONTINUOUS
10
2.43327
20
-112.417
11
2.26512
21
-112.22
0
LINE
8
BLACK
6
CONTINUOUS
10
2.26512
20
-112.22
11
2.12984
21
-111.999
0
LINE
8
BLACK
6
CONTINUOUS
10
2.12984
20
-111.999
11
2.03076
21
-111.76
0
LINE
8
BLACK
6
CONTINUOUS
10
2.03076
20
-111.76
11
1.97031
21
-111.508
0
LINE
8
BLACK
6
CONTINUOUS
10
1.97031
20
-111.508
11
1.95
21
-111.25
0
LINE
8
BLACK
6
CONTINUOUS
10
1.95
20
-111.25
11
1.97031
21
-110.992
0
LINE
8
BLACK
6
CONTINUOUS
10
1.97031
20
-110.992
11
2.03076
21
-110.74
0
LINE
8
BLACK
6
CONTINUOUS
10
2.1213
20
-111.73
11
2.21467
21
-111.956
0
LINE
8
BLACK
6
CONTINUOUS
10
2.21467
20
-111.956
11
2.34215
21
-112.164
0
LINE
8
BLACK
6
CONTINUOUS
10
2.34215
20
-112.164
11
2.50059
21
-112.349
0
LINE
8
BLACK
6
CONTINUOUS
10
2.50059
20
-112.349
11
2.68612
21
-112.508
0
LINE
8
BLACK
6
CONTINUOUS
10
2.68612
20
-112.508
11
2.89414
21
-112.635
0
LINE
8
BLACK
6
CONTINUOUS
10
2.89414
20
-112.635
11
3.11954
21
-112.729
0
LINE
8
BLACK
6
CONTINUOUS
10
3.11954
20
-112.729
11
3.35678
21
-112.786
0
LINE
8
BLACK
6
CONTINUOUS
10
3.35678
20
-112.786
11
3.6
21
-112.805
0
LINE
8
BLACK
6
CONTINUOUS
10
3.6
20
-112.805
11
3.84322
21
-112.786
0
LINE
8
BLACK
6
CONTINUOUS
10
3.84322
20
-112.786
11
4.08046
21
-112.729
0
LINE
8
BLACK
6
CONTINUOUS
10
4.08046
20
-112.729
11
4.30586
21
-112.635
0
LINE
8
BLACK
6
CONTINUOUS
10
4.30586
20
-112.635
11
4.51388
21
-112.508
0
LINE
8
BLACK
6
CONTINUOUS
10
4.51388
20
-112.508
11
4.6994
21
-112.349
0
LINE
8
BLACK
6
CONTINUOUS
10
4.6994
20
-112.349
11
4.85785
21
-112.164
0
LINE
8
BLACK
6
CONTINUOUS
10
4.85785
20
-112.164
11
4.98533
21
-111.956
0
LINE
8
BLACK
6
CONTINUOUS
10
4.98533
20
-111.956
11
5.0787
21
-111.73
0
LINE
8
BLACK
6
CONTINUOUS
10
5.0787
20
-111.73
11
5.13565
21
-111.493
0
LINE
8
BLACK
6
CONTINUOUS
10
5.13565
20
-111.493
11
5.15479
21
-111.25
0
LINE
8
BLACK
6
CONTINUOUS
10
5.15479
20
-111.25
11
5.13565
21
-111.007
0
LINE
8
BLACK
6
CONTINUOUS
10
5.13565
20
-111.007
11
5.0787
21
-110.77
0
LINE
8
BLACK
6
CONTINUOUS
10
5.0787
20
-110.77
11
4.98533
21
-110.544
0
LINE
8
BLACK
6
CONTINUOUS
10
4.98533
20
-110.544
11
4.85785
21
-110.336
0
LINE
8
BLACK
6
CONTINUOUS
10
4.85785
20
-110.336
11
4.6994
21
-110.151
0
LINE
8
BLACK
6
CONTINUOUS
10
4.6994
20
-110.151
11
4.51388
21
-109.992
0
LINE
8
BLACK
6
CONTINUOUS
10
4.51388
20
-109.992
11
4.30586
21
-109.865
0
LINE
8
BLACK
6
CONTINUOUS
10
4.30586
20
-109.865
11
4.08046
21
-109.771
0
LINE
8
BLACK
6
CONTINUOUS
10
4.08046
20
-109.771
11
3.84322
21
-109.714
0
LINE
8
BLACK
6
CONTINUOUS
10
3.84322
20
-109.714
11
3.6
21
-109.695
0
LINE
8
BLACK
6
CONTINUOUS
10
3.6
20
-109.695
11
3.35678
21
-109.714
0
LINE
8
BLACK
6
CONTINUOUS
10
3.35678
20
-109.714
11
3.11954
21
-109.771
0
LINE
8
BLACK
6
CONTINUOUS
10
3.11954
20
-109.771
11
2.89414
21
-109.865
0
LINE
8
BLACK
6
CONTINUOUS
10
2.89414
20
-109.865
11
2.68612
21
-109.992
0
LINE
8
BLACK
6
CONTINUOUS
10
2.68612
20
-109.992
11
2.50059
21
-110.151
0
LINE
8
BLACK
6
CONTINUOUS
10
2.50059
20
-110.151
11
2.34215
21
-110.336
0
LINE
8
BLACK
6
CONTINUOUS
10
2.34215
20
-110.336
11
2.21467
21
-110.544
0
LINE
8
BLACK
6
CONTINUOUS
10
2.21467
20
-110.544
11
2.1213
21
-110.77
0
LINE
8
BLACK
6
CONTINUOUS
10
2.1213
20
-110.77
11
2.06435
21
-111.007
0
LINE
8
BLACK
6
CONTINUOUS
10
2.06435
20
-111.007
11
2.04521
21
-111.25
0
LINE
8
BLACK
6
CONTINUOUS
10
2.04521
20
-111.25
11
2.06435
21
-111.493
0
LINE
8
BLACK
6
CONTINUOUS
10
2.06435
20
-111.493
11
2.1213
21
-111.73
0
LINE
8
BLACK
6
CONTINUOUS
10
76.0308
20
-110.74
11
76.1298
21
-110.501
0
LINE
8
BLACK
6
CONTINUOUS
10
76.1298
20
-110.501
11
76.2651
21
-110.28
0
LINE
8
BLACK
6
CONTINUOUS
10
76.2651
20
-110.28
11
76.4333
21
-110.083
0
LINE
8
BLACK
6
CONTINUOUS
10
76.4333
20
-110.083
11
76.6302
21
-109.915
0
LINE
8
BLACK
6
CONTINUOUS
10
76.6302
20
-109.915
11
76.8509
21
-109.78
0
LINE
8
BLACK
6
CONTINUOUS
10
76.8509
20
-109.78
11
77.0901
21
-109.681
0
LINE
8
BLACK
6
CONTINUOUS
10
77.0901
20
-109.681
11
77.3419
21
-109.62
0
LINE
8
BLACK
6
CONTINUOUS
10
77.3419
20
-109.62
11
77.6
21
-109.6
0
LINE
8
BLACK
6
CONTINUOUS
10
77.6
20
-109.6
11
77.8581
21
-109.62
0
LINE
8
BLACK
6
CONTINUOUS
10
77.8581
20
-109.62
11
78.1099
21
-109.681
0
LINE
8
BLACK
6
CONTINUOUS
10
78.1099
20
-109.681
11
78.3491
21
-109.78
0
LINE
8
BLACK
6
CONTINUOUS
10
78.3491
20
-109.78
11
78.5698
21
-109.915
0
LINE
8
BLACK
6
CONTINUOUS
10
78.5698
20
-109.915
11
78.7667
21
-110.083
0
LINE
8
BLACK
6
CONTINUOUS
10
78.7667
20
-110.083
11
78.9349
21
-110.28
0
LINE
8
BLACK
6
CONTINUOUS
10
78.9349
20
-110.28
11
79.0702
21
-110.501
0
LINE
8
BLACK
6
CONTINUOUS
10
79.0702
20
-110.501
11
79.1692
21
-110.74
0
LINE
8
BLACK
6
CONTINUOUS
10
79.1692
20
-110.74
11
79.2297
21
-110.992
0
LINE
8
BLACK
6
CONTINUOUS
10
79.2297
20
-110.992
11
79.25
21
-111.25
0
LINE
8
BLACK
6
CONTINUOUS
10
79.25
20
-111.25
11
79.2297
21
-111.508
0
LINE
8
BLACK
6
CONTINUOUS
10
79.2297
20
-111.508
11
79.1692
21
-111.76
0
LINE
8
BLACK
6
CONTINUOUS
10
79.1692
20
-111.76
11
79.0702
21
-111.999
0
LINE
8
BLACK
6
CONTINUOUS
10
79.0702
20
-111.999
11
78.9349
21
-112.22
0
LINE
8
BLACK
6
CONTINUOUS
10
78.9349
20
-112.22
11
78.7667
21
-112.417
0
LINE
8
BLACK
6
CONTINUOUS
10
78.7667
20
-112.417
11
78.5698
21
-112.585
0
LINE
8
BLACK
6
CONTINUOUS
10
78.5698
20
-112.585
11
78.3491
21
-112.72
0
LINE
8
BLACK
6
CONTINUOUS
10
78.3491
20
-112.72
11
78.1099
21
-112.819
0
LINE
8
BLACK
6
CONTINUOUS
10
78.1099
20
-112.819
11
77.8581
21
-112.88
0
LINE
8
BLACK
6
CONTINUOUS
10
77.8581
20
-112.88
11
77.6
21
-112.9
0
LINE
8
BLACK
6
CONTINUOUS
10
77.6
20
-112.9
11
77.3419
21
-112.88
0
LINE
8
BLACK
6
CONTINUOUS
10
77.3419
20
-112.88
11
77.0901
21
-112.819
0
LINE
8
BLACK
6
CONTINUOUS
10
77.0901
20
-112.819
11
76.8509
21
-112.72
0
LINE
8
BLACK
6
CONTINUOUS
10
76.8509
20
-112.72
11
76.6302
21
-112.585
0
LINE
8
BLACK
6
CONTINUOUS
10
76.6302
20
-112.585
11
76.4333
21
-112.417
0
LINE
8
BLACK
6
CONTINUOUS
10
76.4333
20
-112.417
11
76.2651
21
-112.22
0
LINE
8
BLACK
6
CONTINUOUS
10
76.2651
20
-112.22
11
76.1298
21
-111.999
0
LINE
8
BLACK
6
CONTINUOUS
10
76.1298
20
-111.999
11
76.0308
21
-111.76
0
LINE
8
BLACK
6
CONTINUOUS
10
76.0308
20
-111.76
11
75.9703
21
-111.508
0
LINE
8
BLACK
6
CONTINUOUS
10
75.9703
20
-111.508
11
75.95
21
-111.25
0
LINE
8
BLACK
6
CONTINUOUS
10
75.95
20
-111.25
11
75.9703
21
-110.992
0
LINE
8
BLACK
6
CONTINUOUS
10
75.9703
20
-110.992
11
76.0308
21
-110.74
0
LINE
8
BLACK
6
CONTINUOUS
10
76.1213
20
-111.73
11
76.2147
21
-111.956
0
LINE
8
BLACK
6
CONTINUOUS
10
76.2147
20
-111.956
11
76.3421
21
-112.164
0
LINE
8
BLACK
6
CONTINUOUS
10
76.3421
20
-112.164
11
76.5006
21
-112.349
0
LINE
8
BLACK
6
CONTINUOUS
10
76.5006
20
-112.349
11
76.6861
21
-112.508
0
LINE
8
BLACK
6
CONTINUOUS
10
76.6861
20
-112.508
11
76.8941
21
-112.635
0
LINE
8
BLACK
6
CONTINUOUS
10
76.8941
20
-112.635
11
77.1195
21
-112.729
0
LINE
8
BLACK
6
CONTINUOUS
10
77.1195
20
-112.729
11
77.3568
21
-112.786
0
LINE
8
BLACK
6
CONTINUOUS
10
77.3568
20
-112.786
11
77.6
21
-112.805
0
LINE
8
BLACK
6
CONTINUOUS
10
77.6
20
-112.805
11
77.8432
21
-112.786
0
LINE
8
BLACK
6
CONTINUOUS
10
77.8432
20
-112.786
11
78.0805
21
-112.729
0
LINE
8
BLACK
6
CONTINUOUS
10
78.0805
20
-112.729
11
78.3059
21
-112.635
0
LINE
8
BLACK
6
CONTINUOUS
10
78.3059
20
-112.635
11
78.5139
21
-112.508
0
LINE
8
BLACK
6
CONTINUOUS
10
78.5139
20
-112.508
11
78.6994
21
-112.349
0
LINE
8
BLACK
6
CONTINUOUS
10
78.6994
20
-112.349
11
78.8579
21
-112.164
0
LINE
8
BLACK
6
CONTINUOUS
10
78.8579
20
-112.164
11
78.9853
21
-111.956
0
LINE
8
BLACK
6
CONTINUOUS
10
78.9853
20
-111.956
11
79.0787
21
-111.73
0
LINE
8
BLACK
6
CONTINUOUS
10
79.0787
20
-111.73
11
79.1357
21
-111.493
0
LINE
8
BLACK
6
CONTINUOUS
10
79.1357
20
-111.493
11
79.1548
21
-111.25
0
LINE
8
BLACK
6
CONTINUOUS
10
79.1548
20
-111.25
11
79.1357
21
-111.007
0
LINE
8
BLACK
6
CONTINUOUS
10
79.1357
20
-111.007
11
79.0787
21
-110.77
0
LINE
8
BLACK
6
CONTINUOUS
10
79.0787
20
-110.77
11
78.9853
21
-110.544
0
LINE
8
BLACK
6
CONTINUOUS
10
78.9853
20
-110.544
11
78.8579
21
-110.336
0
LINE
8
BLACK
6
CONTINUOUS
10
78.8579
20
-110.336
11
78.6994
21
-110.151
0
LINE
8
BLACK
6
CONTINUOUS
10
78.6994
20
-110.151
11
78.5139
21
-109.992
0
LINE
8
BLACK
6
CONTINUOUS
10
78.5139
20
-109.992
11
78.3059
21
-109.865
0
LINE
8
BLACK
6
CONTINUOUS
10
78.3059
20
-109.865
11
78.0805
21
-109.771
0
LINE
8
BLACK
6
CONTINUOUS
10
78.0805
20
-109.771
11
77.8432
21
-109.714
0
LINE
8
BLACK
6
CONTINUOUS
10
77.8432
20
-109.714
11
77.6
21
-109.695
0
LINE
8
BLACK
6
CONTINUOUS
10
77.6
20
-109.695
11
77.3568
21
-109.714
0
LINE
8
BLACK
6
CONTINUOUS
10
77.3568
20
-109.714
11
77.1195
21
-109.771
0
LINE
8
BLACK
6
CONTINUOUS
10
77.1195
20
-109.771
11
76.8941
21
-109.865
0
LINE
8
BLACK
6
CONTINUOUS
10
76.8941
20
-109.865
11
76.6861
21
-109.992
0
LINE
8
BLACK
6
CONTINUOUS
10
76.6861
20
-109.992
11
76.5006
21
-110.151
0
LINE
8
BLACK
6
CONTINUOUS
10
76.5006
20
-110.151
11
76.3421
21
-110.336
0
LINE
8
BLACK
6
CONTINUOUS
10
76.3421
20
-110.336
11
76.2147
21
-110.544
0
LINE
8
BLACK
6
CONTINUOUS
10
76.2147
20
-110.544
11
76.1213
21
-110.77
0
LINE
8
BLACK
6
CONTINUOUS
10
76.1213
20
-110.77
11
76.0643
21
-111.007
0
LINE
8
BLACK
6
CONTINUOUS
10
76.0643
20
-111.007
11
76.0452
21
-111.25
0
LINE
8
BLACK
6
CONTINUOUS
10
76.0452
20
-111.25
11
76.0643
21
-111.493
0
LINE
8
BLACK
6
CONTINUOUS
10
76.0643
20
-111.493
11
76.1213
21
-111.73
0
LINE
8
BLACK
6
CONTINUOUS
10
46.5533
20
-100.041
11
46.6484
21
-99.7026
0
LINE
8
BLACK
6
CONTINUOUS
10
46.6484
20
-99.7026
11
46.7795
21
-99.3765
0
LINE
8
BLACK
6
CONTINUOUS
10
46.7795
20
-99.3765
11
46.9451
21
-99.0664
0
LINE
8
BLACK
6
CONTINUOUS
10
46.9451
20
-99.0664
11
47.1432
21
-98.776
0
LINE
8
BLACK
6
CONTINUOUS
10
47.1432
20
-98.776
11
47.3714
21
-98.5087
0
LINE
8
BLACK
6
CONTINUOUS
10
47.3714
20
-98.5087
11
47.6273
21
-98.2677
0
LINE
8
BLACK
6
CONTINUOUS
10
47.6273
20
-98.2677
11
47.9076
21
-98.0556
0
LINE
8
BLACK
6
CONTINUOUS
10
47.9076
20
-98.0556
11
48.2092
21
-97.8751
0
LINE
8
BLACK
6
CONTINUOUS
10
48.2092
20
-97.8751
11
48.5286
21
-97.7282
0
LINE
8
BLACK
6
CONTINUOUS
10
48.5286
20
-97.7282
11
48.8619
21
-97.6167
0
LINE
8
BLACK
6
CONTINUOUS
10
48.8619
20
-97.6167
11
49.2054
21
-97.5418
0
LINE
8
BLACK
6
CONTINUOUS
10
49.2054
20
-97.5418
11
49.5549
21
-97.5045
0
LINE
8
BLACK
6
CONTINUOUS
10
49.5549
20
-97.5045
11
49.9064
21
-97.5051
0
LINE
8
BLACK
6
CONTINUOUS
10
49.9064
20
-97.5051
11
50.2558
21
-97.5436
0
LINE
8
BLACK
6
CONTINUOUS
10
50.2558
20
-97.5436
11
50.599
21
-97.6197
0
LINE
8
BLACK
6
CONTINUOUS
10
50.599
20
-97.6197
11
50.9319
21
-97.7324
0
LINE
8
BLACK
6
CONTINUOUS
10
50.9319
20
-97.7324
11
51.2508
21
-97.8804
0
LINE
8
BLACK
6
CONTINUOUS
10
51.2508
20
-97.8804
11
51.5518
21
-98.062
0
LINE
8
BLACK
6
CONTINUOUS
10
51.5518
20
-98.062
11
51.8314
21
-98.275
0
LINE
8
BLACK
6
CONTINUOUS
10
51.8314
20
-98.275
11
52.0864
21
-98.517
0
LINE
8
BLACK
6
CONTINUOUS
10
52.0864
20
-98.517
11
52.3137
21
-98.7851
0
LINE
8
BLACK
6
CONTINUOUS
10
52.3137
20
-98.7851
11
52.5108
21
-99.0761
0
LINE
8
BLACK
6
CONTINUOUS
10
52.5108
20
-99.0761
11
52.6753
21
-99.3868
0
LINE
8
BLACK
6
CONTINUOUS
10
52.6753
20
-99.3868
11
52.8052
21
-99.7134
0
LINE
8
BLACK
6
CONTINUOUS
10
52.8052
20
-99.7134
11
52.8992
21
-100.052
0
LINE
8
BLACK
6
CONTINUOUS
10
52.8992
20
-100.052
11
52.956
21
-100.399
0
LINE
8
BLACK
6
CONTINUOUS
10
52.956
20
-100.399
11
52.975
21
-100.75
0
LINE
8
BLACK
6
CONTINUOUS
10
52.975
20
-100.75
11
52.9749
21
-100.773
0
LINE
8
BLACK
6
CONTINUOUS
10
52.9749
20
-100.773
11
52.9535
21
-101.124
0
LINE
8
BLACK
6
CONTINUOUS
10
52.9535
20
-101.124
11
52.8942
21
-101.47
0
LINE
8
BLACK
6
CONTINUOUS
10
52.8942
20
-101.47
11
52.7979
21
-101.808
0
LINE
8
BLACK
6
CONTINUOUS
10
52.7979
20
-101.808
11
52.6657
21
-102.134
0
LINE
8
BLACK
6
CONTINUOUS
10
52.6657
20
-102.134
11
52.499
21
-102.443
0
LINE
8
BLACK
6
CONTINUOUS
10
52.499
20
-102.443
11
52.2999
21
-102.733
0
LINE
8
BLACK
6
CONTINUOUS
10
52.2999
20
-102.733
11
52.0707
21
-102.999
0
LINE
8
BLACK
6
CONTINUOUS
10
52.0707
20
-102.999
11
51.8141
21
-103.24
0
LINE
8
BLACK
6
CONTINUOUS
10
51.8141
20
-103.24
11
51.533
21
-103.451
0
LINE
8
BLACK
6
CONTINUOUS
10
51.533
20
-103.451
11
51.2307
21
-103.63
0
LINE
8
BLACK
6
CONTINUOUS
10
51.2307
20
-103.63
11
50.9108
21
-103.776
0
LINE
8
BLACK
6
CONTINUOUS
10
50.9108
20
-103.776
11
50.5771
21
-103.886
0
LINE
8
BLACK
6
CONTINUOUS
10
50.5771
20
-103.886
11
50.2334
21
-103.96
0
LINE
8
BLACK
6
CONTINUOUS
10
50.2334
20
-103.96
11
49.8838
21
-103.996
0
LINE
8
BLACK
6
CONTINUOUS
10
49.8838
20
-103.996
11
49.5323
21
-103.994
0
LINE
8
BLACK
6
CONTINUOUS
10
49.5323
20
-103.994
11
49.183
21
-103.954
0
LINE
8
BLACK
6
CONTINUOUS
10
49.183
20
-103.954
11
48.8401
21
-103.877
0
LINE
8
BLACK
6
CONTINUOUS
10
48.8401
20
-103.877
11
48.5075
21
-103.763
0
LINE
8
BLACK
6
CONTINUOUS
10
48.5075
20
-103.763
11
48.1892
21
-103.614
0
LINE
8
BLACK
6
CONTINUOUS
10
48.1892
20
-103.614
11
47.8889
21
-103.432
0
LINE
8
BLACK
6
CONTINUOUS
10
47.8889
20
-103.432
11
47.61
21
-103.218
0
LINE
8
BLACK
6
CONTINUOUS
10
47.61
20
-103.218
11
47.3559
21
-102.975
0
LINE
8
BLACK
6
CONTINUOUS
10
47.3559
20
-102.975
11
47.1294
21
-102.706
0
LINE
8
BLACK
6
CONTINUOUS
10
47.1294
20
-102.706
11
46.9334
21
-102.414
0
LINE
8
BLACK
6
CONTINUOUS
10
46.9334
20
-102.414
11
46.77
21
-102.103
0
LINE
8
BLACK
6
CONTINUOUS
10
46.77
20
-102.103
11
46.6412
21
-101.776
0
LINE
8
BLACK
6
CONTINUOUS
10
46.6412
20
-101.776
11
46.5484
21
-101.437
0
LINE
8
BLACK
6
CONTINUOUS
10
46.5484
20
-101.437
11
46.4928
21
-101.09
0
LINE
8
BLACK
6
CONTINUOUS
10
46.4928
20
-101.09
11
46.475
21
-100.739
0
LINE
8
BLACK
6
CONTINUOUS
10
46.475
20
-100.739
11
46.4769
21
-100.706
0
LINE
8
BLACK
6
CONTINUOUS
10
46.4769
20
-100.706
11
46.4953
21
-100.388
0
LINE
8
BLACK
6
CONTINUOUS
10
46.4953
20
-100.388
11
46.5533
21
-100.041
0
LINE
8
BLACK
6
CONTINUOUS
10
46.639
20
-101.406
11
46.7313
21
-101.746
0
LINE
8
BLACK
6
CONTINUOUS
10
46.7313
20
-101.746
11
46.861
21
-102.073
0
LINE
8
BLACK
6
CONTINUOUS
10
46.861
20
-102.073
11
47.0264
21
-102.384
0
LINE
8
BLACK
6
CONTINUOUS
10
47.0264
20
-102.384
11
47.2254
21
-102.675
0
LINE
8
BLACK
6
CONTINUOUS
10
47.2254
20
-102.675
11
47.4555
21
-102.942
0
LINE
8
BLACK
6
CONTINUOUS
10
47.4555
20
-102.942
11
47.714
21
-103.181
0
LINE
8
BLACK
6
CONTINUOUS
10
47.714
20
-103.181
11
47.9975
21
-103.39
0
LINE
8
BLACK
6
CONTINUOUS
10
47.9975
20
-103.39
11
48.3025
21
-103.566
0
LINE
8
BLACK
6
CONTINUOUS
10
48.3025
20
-103.566
11
48.6253
21
-103.707
0
LINE
8
BLACK
6
CONTINUOUS
10
48.6253
20
-103.707
11
48.9617
21
-103.811
0
LINE
8
BLACK
6
CONTINUOUS
10
48.9617
20
-103.811
11
49.3077
21
-103.877
0
LINE
8
BLACK
6
CONTINUOUS
10
49.3077
20
-103.877
11
49.6589
21
-103.904
0
LINE
8
BLACK
6
CONTINUOUS
10
49.6589
20
-103.904
11
50.0109
21
-103.892
0
LINE
8
BLACK
6
CONTINUOUS
10
50.0109
20
-103.892
11
50.3594
21
-103.841
0
LINE
8
BLACK
6
CONTINUOUS
10
50.3594
20
-103.841
11
50.6999
21
-103.751
0
LINE
8
BLACK
6
CONTINUOUS
10
50.6999
20
-103.751
11
51.0283
21
-103.623
0
LINE
8
BLACK
6
CONTINUOUS
10
51.0283
20
-103.623
11
51.3405
21
-103.46
0
LINE
8
BLACK
6
CONTINUOUS
10
51.3405
20
-103.46
11
51.6325
21
-103.263
0
LINE
8
BLACK
6
CONTINUOUS
10
51.6325
20
-103.263
11
51.9007
21
-103.035
0
LINE
8
BLACK
6
CONTINUOUS
10
51.9007
20
-103.035
11
52.1418
21
-102.778
0
LINE
8
BLACK
6
CONTINUOUS
10
52.1418
20
-102.778
11
52.3528
21
-102.496
0
LINE
8
BLACK
6
CONTINUOUS
10
52.3528
20
-102.496
11
52.5311
21
-102.192
0
LINE
8
BLACK
6
CONTINUOUS
10
52.5311
20
-102.192
11
52.6743
21
-101.87
0
LINE
8
BLACK
6
CONTINUOUS
10
52.6743
20
-101.87
11
52.7808
21
-101.535
0
LINE
8
BLACK
6
CONTINUOUS
10
52.7808
20
-101.535
11
52.8493
21
-101.189
0
LINE
8
BLACK
6
CONTINUOUS
10
52.8493
20
-101.189
11
52.8787
21
-100.838
0
LINE
8
BLACK
6
CONTINUOUS
10
52.8787
20
-100.838
11
52.88
21
-100.75
0
LINE
8
BLACK
6
CONTINUOUS
10
52.88
20
-100.75
11
52.8603
21
-100.398
0
LINE
8
BLACK
6
CONTINUOUS
10
52.8603
20
-100.398
11
52.8016
21
-100.051
0
LINE
8
BLACK
6
CONTINUOUS
10
52.8016
20
-100.051
11
52.7045
21
-99.7124
0
LINE
8
BLACK
6
CONTINUOUS
10
52.7045
20
-99.7124
11
52.5702
21
-99.3868
0
LINE
8
BLACK
6
CONTINUOUS
10
52.5702
20
-99.3868
11
52.4006
21
-99.0781
0
LINE
8
BLACK
6
CONTINUOUS
10
52.4006
20
-99.0781
11
52.1975
21
-98.7903
0
LINE
8
BLACK
6
CONTINUOUS
10
52.1975
20
-98.7903
11
51.9637
21
-98.5269
0
LINE
8
BLACK
6
CONTINUOUS
10
51.9637
20
-98.5269
11
51.7019
21
-98.2912
0
LINE
8
BLACK
6
CONTINUOUS
10
51.7019
20
-98.2912
11
51.4155
21
-98.0862
0
LINE
8
BLACK
6
CONTINUOUS
10
51.4155
20
-98.0862
11
51.108
21
-97.9143
0
LINE
8
BLACK
6
CONTINUOUS
10
51.108
20
-97.9143
11
50.7833
21
-97.7778
0
LINE
8
BLACK
6
CONTINUOUS
10
50.7833
20
-97.7778
11
50.4454
21
-97.6784
0
LINE
8
BLACK
6
CONTINUOUS
10
50.4454
20
-97.6784
11
50.0986
21
-97.6172
0
LINE
8
BLACK
6
CONTINUOUS
10
50.0986
20
-97.6172
11
49.747
21
-97.5951
0
LINE
8
BLACK
6
CONTINUOUS
10
49.747
20
-97.5951
11
49.3952
21
-97.6123
0
LINE
8
BLACK
6
CONTINUOUS
10
49.3952
20
-97.6123
11
49.0475
21
-97.6686
0
LINE
8
BLACK
6
CONTINUOUS
10
49.0475
20
-97.6686
11
48.7083
21
-97.7634
0
LINE
8
BLACK
6
CONTINUOUS
10
48.7083
20
-97.7634
11
48.3817
21
-97.8953
0
LINE
8
BLACK
6
CONTINUOUS
10
48.3817
20
-97.8953
11
48.0718
21
-98.0628
0
LINE
8
BLACK
6
CONTINUOUS
10
48.0718
20
-98.0628
11
47.7826
21
-98.2639
0
LINE
8
BLACK
6
CONTINUOUS
10
47.7826
20
-98.2639
11
47.5176
21
-98.4959
0
LINE
8
BLACK
6
CONTINUOUS
10
47.5176
20
-98.4959
11
47.2801
21
-98.756
0
LINE
8
BLACK
6
CONTINUOUS
10
47.2801
20
-98.756
11
47.073
21
-99.0409
0
LINE
8
BLACK
6
CONTINUOUS
10
47.073
20
-99.0409
11
46.8991
21
-99.3472
0
LINE
8
BLACK
6
CONTINUOUS
10
46.8991
20
-99.3472
11
46.7603
21
-99.6709
0
LINE
8
BLACK
6
CONTINUOUS
10
46.7603
20
-99.6709
11
46.6585
21
-100.008
0
LINE
8
BLACK
6
CONTINUOUS
10
46.6585
20
-100.008
11
46.5949
21
-100.355
0
LINE
8
BLACK
6
CONTINUOUS
10
46.5949
20
-100.355
11
46.5703
21
-100.706
0
LINE
8
BLACK
6
CONTINUOUS
10
46.5703
20
-100.706
11
46.5851
21
-101.058
0
LINE
8
BLACK
6
CONTINUOUS
10
46.5851
20
-101.058
11
46.639
21
-101.406
0
LINE
8
BLACK
6
CONTINUOUS
10
9.92827
20
-100.041
11
10.0234
21
-99.7026
0
LINE
8
BLACK
6
CONTINUOUS
10
10.0234
20
-99.7026
11
10.1545
21
-99.3765
0
LINE
8
BLACK
6
CONTINUOUS
10
10.1545
20
-99.3765
11
10.3201
21
-99.0664
0
LINE
8
BLACK
6
CONTINUOUS
10
10.3201
20
-99.0664
11
10.5182
21
-98.776
0
LINE
8
BLACK
6
CONTINUOUS
10
10.5182
20
-98.776
11
10.7464
21
-98.5087
0
LINE
8
BLACK
6
CONTINUOUS
10
10.7464
20
-98.5087
11
11.0023
21
-98.2677
0
LINE
8
BLACK
6
CONTINUOUS
10
11.0023
20
-98.2677
11
11.2826
21
-98.0556
0
LINE
8
BLACK
6
CONTINUOUS
10
11.2826
20
-98.0556
11
11.5842
21
-97.8751
0
LINE
8
BLACK
6
CONTINUOUS
10
11.5842
20
-97.8751
11
11.9036
21
-97.7282
0
LINE
8
BLACK
6
CONTINUOUS
10
11.9036
20
-97.7282
11
12.2369
21
-97.6167
0
LINE
8
BLACK
6
CONTINUOUS
10
12.2369
20
-97.6167
11
12.5804
21
-97.5418
0
LINE
8
BLACK
6
CONTINUOUS
10
12.5804
20
-97.5418
11
12.9299
21
-97.5045
0
LINE
8
BLACK
6
CONTINUOUS
10
12.9299
20
-97.5045
11
13.2814
21
-97.5051
0
LINE
8
BLACK
6
CONTINUOUS
10
13.2814
20
-97.5051
11
13.6308
21
-97.5436
0
LINE
8
BLACK
6
CONTINUOUS
10
13.6308
20
-97.5436
11
13.974
21
-97.6197
0
LINE
8
BLACK
6
CONTINUOUS
10
13.974
20
-97.6197
11
14.3069
21
-97.7324
0
LINE
8
BLACK
6
CONTINUOUS
10
14.3069
20
-97.7324
11
14.6258
21
-97.8804
0
LINE
8
BLACK
6
CONTINUOUS
10
14.6258
20
-97.8804
11
14.9268
21
-98.062
0
LINE
8
BLACK
6
CONTINUOUS
10
14.9268
20
-98.062
11
15.2064
21
-98.275
0
LINE
8
BLACK
6
CONTINUOUS
10
15.2064
20
-98.275
11
15.4614
21
-98.517
0
LINE
8
BLACK
6
CONTINUOUS
10
15.4614
20
-98.517
11
15.6887
21
-98.7851
0
LINE
8
BLACK
6
CONTINUOUS
10
15.6887
20
-98.7851
11
15.8858
21
-99.0761
0
LINE
8
BLACK
6
CONTINUOUS
10
15.8858
20
-99.0761
11
16.0503
21
-99.3868
0
LINE
8
BLACK
6
CONTINUOUS
10
16.0503
20
-99.3868
11
16.1802
21
-99.7134
0
LINE
8
BLACK
6
CONTINUOUS
10
16.1802
20
-99.7134
11
16.2742
21
-100.052
0
LINE
8
BLACK
6
CONTINUOUS
10
16.2742
20
-100.052
11
16.331
21
-100.399
0
LINE
8
BLACK
6
CONTINUOUS
10
16.331
20
-100.399
11
16.35
21
-100.75
0
LINE
8
BLACK
6
CONTINUOUS
10
16.35
20
-100.75
11
16.3499
21
-100.773
0
LINE
8
BLACK
6
CONTINUOUS
10
16.3499
20
-100.773
11
16.3285
21
-101.124
0
LINE
8
BLACK
6
CONTINUOUS
10
16.3285
20
-101.124
11
16.2692
21
-101.47
0
LINE
8
BLACK
6
CONTINUOUS
10
16.2692
20
-101.47
11
16.1729
21
-101.808
0
LINE
8
BLACK
6
CONTINUOUS
10
16.1729
20
-101.808
11
16.0407
21
-102.134
0
LINE
8
BLACK
6
CONTINUOUS
10
16.0407
20
-102.134
11
15.874
21
-102.443
0
LINE
8
BLACK
6
CONTINUOUS
10
15.874
20
-102.443
11
15.6749
21
-102.733
0
LINE
8
BLACK
6
CONTINUOUS
10
15.6749
20
-102.733
11
15.4457
21
-102.999
0
LINE
8
BLACK
6
CONTINUOUS
10
15.4457
20
-102.999
11
15.1891
21
-103.24
0
LINE
8
BLACK
6
CONTINUOUS
10
15.1891
20
-103.24
11
14.908
21
-103.451
0
LINE
8
BLACK
6
CONTINUOUS
10
14.908
20
-103.451
11
14.6057
21
-103.63
0
LINE
8
BLACK
6
CONTINUOUS
10
14.6057
20
-103.63
11
14.2858
21
-103.776
0
LINE
8
BLACK
6
CONTINUOUS
10
14.2858
20
-103.776
11
13.9521
21
-103.886
0
LINE
8
BLACK
6
CONTINUOUS
10
13.9521
20
-103.886
11
13.6084
21
-103.96
0
LINE
8
BLACK
6
CONTINUOUS
10
13.6084
20
-103.96
11
13.2588
21
-103.996
0
LINE
8
BLACK
6
CONTINUOUS
10
13.2588
20
-103.996
11
12.9073
21
-103.994
0
LINE
8
BLACK
6
CONTINUOUS
10
12.9073
20
-103.994
11
12.558
21
-103.954
0
LINE
8
BLACK
6
CONTINUOUS
10
12.558
20
-103.954
11
12.2151
21
-103.877
0
LINE
8
BLACK
6
CONTINUOUS
10
12.2151
20
-103.877
11
11.8825
21
-103.763
0
LINE
8
BLACK
6
CONTINUOUS
10
11.8825
20
-103.763
11
11.5642
21
-103.614
0
LINE
8
BLACK
6
CONTINUOUS
10
11.5642
20
-103.614
11
11.2639
21
-103.432
0
LINE
8
BLACK
6
CONTINUOUS
10
11.2639
20
-103.432
11
10.985
21
-103.218
0
LINE
8
BLACK
6
CONTINUOUS
10
10.985
20
-103.218
11
10.7309
21
-102.975
0
LINE
8
BLACK
6
CONTINUOUS
10
10.7309
20
-102.975
11
10.5044
21
-102.706
0
LINE
8
BLACK
6
CONTINUOUS
10
10.5044
20
-102.706
11
10.3084
21
-102.414
0
LINE
8
BLACK
6
CONTINUOUS
10
10.3084
20
-102.414
11
10.145
21
-102.103
0
LINE
8
BLACK
6
CONTINUOUS
10
10.145
20
-102.103
11
10.0162
21
-101.776
0
LINE
8
BLACK
6
CONTINUOUS
10
10.0162
20
-101.776
11
9.9234
21
-101.437
0
LINE
8
BLACK
6
CONTINUOUS
10
9.9234
20
-101.437
11
9.8678
21
-101.09
0
LINE
8
BLACK
6
CONTINUOUS
10
9.8678
20
-101.09
11
9.85002
21
-100.739
0
LINE
8
BLACK
6
CONTINUOUS
10
9.85002
20
-100.739
11
9.85191
21
-100.706
0
LINE
8
BLACK
6
CONTINUOUS
10
9.85191
20
-100.706
11
9.87025
21
-100.388
0
LINE
8
BLACK
6
CONTINUOUS
10
9.87025
20
-100.388
11
9.92827
21
-100.041
0
LINE
8
BLACK
6
CONTINUOUS
10
10.014
20
-101.406
11
10.1063
21
-101.746
0
LINE
8
BLACK
6
CONTINUOUS
10
10.1063
20
-101.746
11
10.236
21
-102.073
0
LINE
8
BLACK
6
CONTINUOUS
10
10.236
20
-102.073
11
10.4014
21
-102.384
0
LINE
8
BLACK
6
CONTINUOUS
10
10.4014
20
-102.384
11
10.6004
21
-102.675
0
LINE
8
BLACK
6
CONTINUOUS
10
10.6004
20
-102.675
11
10.8305
21
-102.942
0
LINE
8
BLACK
6
CONTINUOUS
10
10.8305
20
-102.942
11
11.089
21
-103.181
0
LINE
8
BLACK
6
CONTINUOUS
10
11.089
20
-103.181
11
11.3725
21
-103.39
0
LINE
8
BLACK
6
CONTINUOUS
10
11.3725
20
-103.39
11
11.6775
21
-103.566
0
LINE
8
BLACK
6
CONTINUOUS
10
11.6775
20
-103.566
11
12.0003
21
-103.707
0
LINE
8
BLACK
6
CONTINUOUS
10
12.0003
20
-103.707
11
12.3367
21
-103.811
0
LINE
8
BLACK
6
CONTINUOUS
10
12.3367
20
-103.811
11
12.6827
21
-103.877
0
LINE
8
BLACK
6
CONTINUOUS
10
12.6827
20
-103.877
11
13.0339
21
-103.904
0
LINE
8
BLACK
6
CONTINUOUS
10
13.0339
20
-103.904
11
13.3859
21
-103.892
0
LINE
8
BLACK
6
CONTINUOUS
10
13.3859
20
-103.892
11
13.7344
21
-103.841
0
LINE
8
BLACK
6
CONTINUOUS
10
13.7344
20
-103.841
11
14.0749
21
-103.751
0
LINE
8
BLACK
6
CONTINUOUS
10
14.0749
20
-103.751
11
14.4033
21
-103.623
0
LINE
8
BLACK
6
CONTINUOUS
10
14.4033
20
-103.623
11
14.7155
21
-103.46
0
LINE
8
BLACK
6
CONTINUOUS
10
14.7155
20
-103.46
11
15.0075
21
-103.263
0
LINE
8
BLACK
6
CONTINUOUS
10
15.0075
20
-103.263
11
15.2757
21
-103.035
0
LINE
8
BLACK
6
CONTINUOUS
10
15.2757
20
-103.035
11
15.5168
21
-102.778
0
LINE
8
BLACK
6
CONTINUOUS
10
15.5168
20
-102.778
11
15.7278
21
-102.496
0
LINE
8
BLACK
6
CONTINUOUS
10
15.7278
20
-102.496
11
15.9061
21
-102.192
0
LINE
8
BLACK
6
CONTINUOUS
10
15.9061
20
-102.192
11
16.0493
21
-101.87
0
LINE
8
BLACK
6
CONTINUOUS
10
16.0493
20
-101.87
11
16.1558
21
-101.535
0
LINE
8
BLACK
6
CONTINUOUS
10
16.1558
20
-101.535
11
16.2243
21
-101.189
0
LINE
8
BLACK
6
CONTINUOUS
10
16.2243
20
-101.189
11
16.2537
21
-100.838
0
LINE
8
BLACK
6
CONTINUOUS
10
16.2537
20
-100.838
11
16.255
21
-100.75
0
LINE
8
BLACK
6
CONTINUOUS
10
16.255
20
-100.75
11
16.2353
21
-100.398
0
LINE
8
BLACK
6
CONTINUOUS
10
16.2353
20
-100.398
11
16.1766
21
-100.051
0
LINE
8
BLACK
6
CONTINUOUS
10
16.1766
20
-100.051
11
16.0795
21
-99.7124
0
LINE
8
BLACK
6
CONTINUOUS
10
16.0795
20
-99.7124
11
15.9452
21
-99.3868
0
LINE
8
BLACK
6
CONTINUOUS
10
15.9452
20
-99.3868
11
15.7756
21
-99.0781
0
LINE
8
BLACK
6
CONTINUOUS
10
15.7756
20
-99.0781
11
15.5725
21
-98.7903
0
LINE
8
BLACK
6
CONTINUOUS
10
15.5725
20
-98.7903
11
15.3387
21
-98.5269
0
LINE
8
BLACK
6
CONTINUOUS
10
15.3387
20
-98.5269
11
15.0769
21
-98.2912
0
LINE
8
BLACK
6
CONTINUOUS
10
15.0769
20
-98.2912
11
14.7905
21
-98.0862
0
LINE
8
BLACK
6
CONTINUOUS
10
14.7905
20
-98.0862
11
14.483
21
-97.9143
0
LINE
8
BLACK
6
CONTINUOUS
10
14.483
20
-97.9143
11
14.1583
21
-97.7778
0
LINE
8
BLACK
6
CONTINUOUS
10
14.1583
20
-97.7778
11
13.8204
21
-97.6784
0
LINE
8
BLACK
6
CONTINUOUS
10
13.8204
20
-97.6784
11
13.4736
21
-97.6172
0
LINE
8
BLACK
6
CONTINUOUS
10
13.4736
20
-97.6172
11
13.122
21
-97.5951
0
LINE
8
BLACK
6
CONTINUOUS
10
13.122
20
-97.5951
11
12.7702
21
-97.6123
0
LINE
8
BLACK
6
CONTINUOUS
10
12.7702
20
-97.6123
11
12.4225
21
-97.6686
0
LINE
8
BLACK
6
CONTINUOUS
10
12.4225
20
-97.6686
11
12.0833
21
-97.7634
0
LINE
8
BLACK
6
CONTINUOUS
10
12.0833
20
-97.7634
11
11.7567
21
-97.8953
0
LINE
8
BLACK
6
CONTINUOUS
10
11.7567
20
-97.8953
11
11.4468
21
-98.0628
0
LINE
8
BLACK
6
CONTINUOUS
10
11.4468
20
-98.0628
11
11.1576
21
-98.2639
0
LINE
8
BLACK
6
CONTINUOUS
10
11.1576
20
-98.2639
11
10.8926
21
-98.4959
0
LINE
8
BLACK
6
CONTINUOUS
10
10.8926
20
-98.4959
11
10.6551
21
-98.756
0
LINE
8
BLACK
6
CONTINUOUS
10
10.6551
20
-98.756
11
10.448
21
-99.0409
0
LINE
8
BLACK
6
CONTINUOUS
10
10.448
20
-99.0409
11
10.2741
21
-99.3472
0
LINE
8
BLACK
6
CONTINUOUS
10
10.2741
20
-99.3472
11
10.1353
21
-99.6709
0
LINE
8
BLACK
6
CONTINUOUS
10
10.1353
20
-99.6709
11
10.0335
21
-100.008
0
LINE
8
BLACK
6
CONTINUOUS
10
10.0335
20
-100.008
11
9.96992
21
-100.355
0
LINE
8
BLACK
6
CONTINUOUS
10
9.96992
20
-100.355
11
9.94534
21
-100.706
0
LINE
8
BLACK
6
CONTINUOUS
10
9.94534
20
-100.706
11
9.96009
21
-101.058
0
LINE
8
BLACK
6
CONTINUOUS
10
9.96009
20
-101.058
11
10.014
21
-101.406
0
LINE
8
BLACK
6
CONTINUOUS
10
64.9283
20
-100.041
11
65.0234
21
-99.7026
0
LINE
8
BLACK
6
CONTINUOUS
10
65.0234
20
-99.7026
11
65.1545
21
-99.3765
0
LINE
8
BLACK
6
CONTINUOUS
10
65.1545
20
-99.3765
11
65.3201
21
-99.0664
0
LINE
8
BLACK
6
CONTINUOUS
10
65.3201
20
-99.0664
11
65.5182
21
-98.776
0
LINE
8
BLACK
6
CONTINUOUS
10
65.5182
20
-98.776
11
65.7464
21
-98.5087
0
LINE
8
BLACK
6
CONTINUOUS
10
65.7464
20
-98.5087
11
66.0023
21
-98.2677
0
LINE
8
BLACK
6
CONTINUOUS
10
66.0023
20
-98.2677
11
66.2826
21
-98.0556
0
LINE
8
BLACK
6
CONTINUOUS
10
66.2826
20
-98.0556
11
66.5842
21
-97.8751
0
LINE
8
BLACK
6
CONTINUOUS
10
66.5842
20
-97.8751
11
66.9036
21
-97.7282
0
LINE
8
BLACK
6
CONTINUOUS
10
66.9036
20
-97.7282
11
67.2369
21
-97.6167
0
LINE
8
BLACK
6
CONTINUOUS
10
67.2369
20
-97.6167
11
67.5804
21
-97.5418
0
LINE
8
BLACK
6
CONTINUOUS
10
67.5804
20
-97.5418
11
67.9299
21
-97.5045
0
LINE
8
BLACK
6
CONTINUOUS
10
67.9299
20
-97.5045
11
68.2814
21
-97.5051
0
LINE
8
BLACK
6
CONTINUOUS
10
68.2814
20
-97.5051
11
68.6308
21
-97.5436
0
LINE
8
BLACK
6
CONTINUOUS
10
68.6308
20
-97.5436
11
68.974
21
-97.6197
0
LINE
8
BLACK
6
CONTINUOUS
10
68.974
20
-97.6197
11
69.3069
21
-97.7324
0
LINE
8
BLACK
6
CONTINUOUS
10
69.3069
20
-97.7324
11
69.6258
21
-97.8804
0
LINE
8
BLACK
6
CONTINUOUS
10
69.6258
20
-97.8804
11
69.9268
21
-98.062
0
LINE
8
BLACK
6
CONTINUOUS
10
69.9268
20
-98.062
11
70.2064
21
-98.275
0
LINE
8
BLACK
6
CONTINUOUS
10
70.2064
20
-98.275
11
70.4614
21
-98.517
0
LINE
8
BLACK
6
CONTINUOUS
10
70.4614
20
-98.517
11
70.6887
21
-98.7851
0
LINE
8
BLACK
6
CONTINUOUS
10
70.6887
20
-98.7851
11
70.8858
21
-99.0761
0
LINE
8
BLACK
6
CONTINUOUS
10
70.8858
20
-99.0761
11
71.0503
21
-99.3868
0
LINE
8
BLACK
6
CONTINUOUS
10
71.0503
20
-99.3868
11
71.1802
21
-99.7134
0
LINE
8
BLACK
6
CONTINUOUS
10
71.1802
20
-99.7134
11
71.2742
21
-100.052
0
LINE
8
BLACK
6
CONTINUOUS
10
71.2742
20
-100.052
11
71.331
21
-100.399
0
LINE
8
BLACK
6
CONTINUOUS
10
71.331
20
-100.399
11
71.35
21
-100.75
0
LINE
8
BLACK
6
CONTINUOUS
10
71.35
20
-100.75
11
71.3499
21
-100.773
0
LINE
8
BLACK
6
CONTINUOUS
10
71.3499
20
-100.773
11
71.3285
21
-101.124
0
LINE
8
BLACK
6
CONTINUOUS
10
71.3285
20
-101.124
11
71.2692
21
-101.47
0
LINE
8
BLACK
6
CONTINUOUS
10
71.2692
20
-101.47
11
71.1729
21
-101.808
0
LINE
8
BLACK
6
CONTINUOUS
10
71.1729
20
-101.808
11
71.0407
21
-102.134
0
LINE
8
BLACK
6
CONTINUOUS
10
71.0407
20
-102.134
11
70.874
21
-102.443
0
LINE
8
BLACK
6
CONTINUOUS
10
70.874
20
-102.443
11
70.6749
21
-102.733
0
LINE
8
BLACK
6
CONTINUOUS
10
70.6749
20
-102.733
11
70.4457
21
-102.999
0
LINE
8
BLACK
6
CONTINUOUS
10
70.4457
20
-102.999
11
70.1891
21
-103.24
0
LINE
8
BLACK
6
CONTINUOUS
10
70.1891
20
-103.24
11
69.908
21
-103.451
0
LINE
8
BLACK
6
CONTINUOUS
10
69.908
20
-103.451
11
69.6057
21
-103.63
0
LINE
8
BLACK
6
CONTINUOUS
10
69.6057
20
-103.63
11
69.2858
21
-103.776
0
LINE
8
BLACK
6
CONTINUOUS
10
69.2858
20
-103.776
11
68.9521
21
-103.886
0
LINE
8
BLACK
6
CONTINUOUS
10
68.9521
20
-103.886
11
68.6084
21
-103.96
0
LINE
8
BLACK
6
CONTINUOUS
10
68.6084
20
-103.96
11
68.2588
21
-103.996
0
LINE
8
BLACK
6
CONTINUOUS
10
68.2588
20
-103.996
11
67.9073
21
-103.994
0
LINE
8
BLACK
6
CONTINUOUS
10
67.9073
20
-103.994
11
67.558
21
-103.954
0
LINE
8
BLACK
6
CONTINUOUS
10
67.558
20
-103.954
11
67.2151
21
-103.877
0
LINE
8
BLACK
6
CONTINUOUS
10
67.2151
20
-103.877
11
66.8825
21
-103.763
0
LINE
8
BLACK
6
CONTINUOUS
10
66.8825
20
-103.763
11
66.5642
21
-103.614
0
LINE
8
BLACK
6
CONTINUOUS
10
66.5642
20
-103.614
11
66.2639
21
-103.432
0
LINE
8
BLACK
6
CONTINUOUS
10
66.2639
20
-103.432
11
65.985
21
-103.218
0
LINE
8
BLACK
6
CONTINUOUS
10
65.985
20
-103.218
11
65.7309
21
-102.975
0
LINE
8
BLACK
6
CONTINUOUS
10
65.7309
20
-102.975
11
65.5044
21
-102.706
0
LINE
8
BLACK
6
CONTINUOUS
10
65.5044
20
-102.706
11
65.3084
21
-102.414
0
LINE
8
BLACK
6
CONTINUOUS
10
65.3084
20
-102.414
11
65.145
21
-102.103
0
LINE
8
BLACK
6
CONTINUOUS
10
65.145
20
-102.103
11
65.0162
21
-101.776
0
LINE
8
BLACK
6
CONTINUOUS
10
65.0162
20
-101.776
11
64.9234
21
-101.437
0
LINE
8
BLACK
6
CONTINUOUS
10
64.9234
20
-101.437
11
64.8678
21
-101.09
0
LINE
8
BLACK
6
CONTINUOUS
10
64.8678
20
-101.09
11
64.85
21
-100.739
0
LINE
8
BLACK
6
CONTINUOUS
10
64.85
20
-100.739
11
64.8519
21
-100.706
0
LINE
8
BLACK
6
CONTINUOUS
10
64.8519
20
-100.706
11
64.8703
21
-100.388
0
LINE
8
BLACK
6
CONTINUOUS
10
64.8703
20
-100.388
11
64.9283
21
-100.041
0
LINE
8
BLACK
6
CONTINUOUS
10
65.014
20
-101.406
11
65.1063
21
-101.746
0
LINE
8
BLACK
6
CONTINUOUS
10
65.1063
20
-101.746
11
65.236
21
-102.073
0
LINE
8
BLACK
6
CONTINUOUS
10
65.236
20
-102.073
11
65.4014
21
-102.384
0
LINE
8
BLACK
6
CONTINUOUS
10
65.4014
20
-102.384
11
65.6004
21
-102.675
0
LINE
8
BLACK
6
CONTINUOUS
10
65.6004
20
-102.675
11
65.8305
21
-102.942
0
LINE
8
BLACK
6
CONTINUOUS
10
65.8305
20
-102.942
11
66.089
21
-103.181
0
LINE
8
BLACK
6
CONTINUOUS
10
66.089
20
-103.181
11
66.3725
21
-103.39
0
LINE
8
BLACK
6
CONTINUOUS
10
66.3725
20
-103.39
11
66.6775
21
-103.566
0
LINE
8
BLACK
6
CONTINUOUS
10
66.6775
20
-103.566
11
67.0003
21
-103.707
0
LINE
8
BLACK
6
CONTINUOUS
10
67.0003
20
-103.707
11
67.3367
21
-103.811
0
LINE
8
BLACK
6
CONTINUOUS
10
67.3367
20
-103.811
11
67.6827
21
-103.877
0
LINE
8
BLACK
6
CONTINUOUS
10
67.6827
20
-103.877
11
68.0339
21
-103.904
0
LINE
8
BLACK
6
CONTINUOUS
10
68.0339
20
-103.904
11
68.3859
21
-103.892
0
LINE
8
BLACK
6
CONTINUOUS
10
68.3859
20
-103.892
11
68.7344
21
-103.841
0
LINE
8
BLACK
6
CONTINUOUS
10
68.7344
20
-103.841
11
69.0749
21
-103.751
0
LINE
8
BLACK
6
CONTINUOUS
10
69.0749
20
-103.751
11
69.4033
21
-103.623
0
LINE
8
BLACK
6
CONTINUOUS
10
69.4033
20
-103.623
11
69.7155
21
-103.46
0
LINE
8
BLACK
6
CONTINUOUS
10
69.7155
20
-103.46
11
70.0075
21
-103.263
0
LINE
8
BLACK
6
CONTINUOUS
10
70.0075
20
-103.263
11
70.2757
21
-103.035
0
LINE
8
BLACK
6
CONTINUOUS
10
70.2757
20
-103.035
11
70.5168
21
-102.778
0
LINE
8
BLACK
6
CONTINUOUS
10
70.5168
20
-102.778
11
70.7278
21
-102.496
0
LINE
8
BLACK
6
CONTINUOUS
10
70.7278
20
-102.496
11
70.9061
21
-102.192
0
LINE
8
BLACK
6
CONTINUOUS
10
70.9061
20
-102.192
11
71.0493
21
-101.87
0
LINE
8
BLACK
6
CONTINUOUS
10
71.0493
20
-101.87
11
71.1558
21
-101.535
0
LINE
8
BLACK
6
CONTINUOUS
10
71.1558
20
-101.535
11
71.2243
21
-101.189
0
LINE
8
BLACK
6
CONTINUOUS
10
71.2243
20
-101.189
11
71.2537
21
-100.838
0
LINE
8
BLACK
6
CONTINUOUS
10
71.2537
20
-100.838
11
71.255
21
-100.75
0
LINE
8
BLACK
6
CONTINUOUS
10
71.255
20
-100.75
11
71.2353
21
-100.398
0
LINE
8
BLACK
6
CONTINUOUS
10
71.2353
20
-100.398
11
71.1766
21
-100.051
0
LINE
8
BLACK
6
CONTINUOUS
10
71.1766
20
-100.051
11
71.0795
21
-99.7124
0
LINE
8
BLACK
6
CONTINUOUS
10
71.0795
20
-99.7124
11
70.9452
21
-99.3868
0
LINE
8
BLACK
6
CONTINUOUS
10
70.9452
20
-99.3868
11
70.7756
21
-99.0781
0
LINE
8
BLACK
6
CONTINUOUS
10
70.7756
20
-99.0781
11
70.5725
21
-98.7903
0
LINE
8
BLACK
6
CONTINUOUS
10
70.5725
20
-98.7903
11
70.3387
21
-98.5269
0
LINE
8
BLACK
6
CONTINUOUS
10
70.3387
20
-98.5269
11
70.0769
21
-98.2912
0
LINE
8
BLACK
6
CONTINUOUS
10
70.0769
20
-98.2912
11
69.7905
21
-98.0862
0
LINE
8
BLACK
6
CONTINUOUS
10
69.7905
20
-98.0862
11
69.483
21
-97.9143
0
LINE
8
BLACK
6
CONTINUOUS
10
69.483
20
-97.9143
11
69.1583
21
-97.7778
0
LINE
8
BLACK
6
CONTINUOUS
10
69.1583
20
-97.7778
11
68.8204
21
-97.6784
0
LINE
8
BLACK
6
CONTINUOUS
10
68.8204
20
-97.6784
11
68.4736
21
-97.6172
0
LINE
8
BLACK
6
CONTINUOUS
10
68.4736
20
-97.6172
11
68.122
21
-97.5951
0
LINE
8
BLACK
6
CONTINUOUS
10
68.122
20
-97.5951
11
67.7702
21
-97.6123
0
LINE
8
BLACK
6
CONTINUOUS
10
67.7702
20
-97.6123
11
67.4225
21
-97.6686
0
LINE
8
BLACK
6
CONTINUOUS
10
67.4225
20
-97.6686
11
67.0833
21
-97.7634
0
LINE
8
BLACK
6
CONTINUOUS
10
67.0833
20
-97.7634
11
66.7567
21
-97.8953
0
LINE
8
BLACK
6
CONTINUOUS
10
66.7567
20
-97.8953
11
66.4468
21
-98.0628
0
LINE
8
BLACK
6
CONTINUOUS
10
66.4468
20
-98.0628
11
66.1576
21
-98.2639
0
LINE
8
BLACK
6
CONTINUOUS
10
66.1576
20
-98.2639
11
65.8926
21
-98.4959
0
LINE
8
BLACK
6
CONTINUOUS
10
65.8926
20
-98.4959
11
65.6551
21
-98.756
0
LINE
8
BLACK
6
CONTINUOUS
10
65.6551
20
-98.756
11
65.448
21
-99.0409
0
LINE
8
BLACK
6
CONTINUOUS
10
65.448
20
-99.0409
11
65.2741
21
-99.3472
0
LINE
8
BLACK
6
CONTINUOUS
10
65.2741
20
-99.3472
11
65.1353
21
-99.6709
0
LINE
8
BLACK
6
CONTINUOUS
10
65.1353
20
-99.6709
11
65.0335
21
-100.008
0
LINE
8
BLACK
6
CONTINUOUS
10
65.0335
20
-100.008
11
64.9699
21
-100.355
0
LINE
8
BLACK
6
CONTINUOUS
10
64.9699
20
-100.355
11
64.9453
21
-100.706
0
LINE
8
BLACK
6
CONTINUOUS
10
64.9453
20
-100.706
11
64.9601
21
-101.058
0
LINE
8
BLACK
6
CONTINUOUS
10
64.9601
20
-101.058
11
65.014
21
-101.406
0
LINE
8
BLACK
6
CONTINUOUS
10
28.3033
20
-100.041
11
28.3984
21
-99.7026
0
LINE
8
BLACK
6
CONTINUOUS
10
28.3984
20
-99.7026
11
28.5295
21
-99.3765
0
LINE
8
BLACK
6
CONTINUOUS
10
28.5295
20
-99.3765
11
28.6951
21
-99.0664
0
LINE
8
BLACK
6
CONTINUOUS
10
28.6951
20
-99.0664
11
28.8932
21
-98.776
0
LINE
8
BLACK
6
CONTINUOUS
10
28.8932
20
-98.776
11
29.1214
21
-98.5087
0
LINE
8
BLACK
6
CONTINUOUS
10
29.1214
20
-98.5087
11
29.3773
21
-98.2677
0
LINE
8
BLACK
6
CONTINUOUS
10
29.3773
20
-98.2677
11
29.6576
21
-98.0556
0
LINE
8
BLACK
6
CONTINUOUS
10
29.6576
20
-98.0556
11
29.9592
21
-97.8751
0
LINE
8
BLACK
6
CONTINUOUS
10
29.9592
20
-97.8751
11
30.2786
21
-97.7282
0
LINE
8
BLACK
6
CONTINUOUS
10
30.2786
20
-97.7282
11
30.6119
21
-97.6167
0
LINE
8
BLACK
6
CONTINUOUS
10
30.6119
20
-97.6167
11
30.9554
21
-97.5418
0
LINE
8
BLACK
6
CONTINUOUS
10
30.9554
20
-97.5418
11
31.3049
21
-97.5045
0
LINE
8
BLACK
6
CONTINUOUS
10
31.3049
20
-97.5045
11
31.6564
21
-97.5051
0
LINE
8
BLACK
6
CONTINUOUS
10
31.6564
20
-97.5051
11
32.0058
21
-97.5436
0
LINE
8
BLACK
6
CONTINUOUS
10
32.0058
20
-97.5436
11
32.349
21
-97.6197
0
LINE
8
BLACK
6
CONTINUOUS
10
32.349
20
-97.6197
11
32.6819
21
-97.7324
0
LINE
8
BLACK
6
CONTINUOUS
10
32.6819
20
-97.7324
11
33.0008
21
-97.8804
0
LINE
8
BLACK
6
CONTINUOUS
10
33.0008
20
-97.8804
11
33.3018
21
-98.062
0
LINE
8
BLACK
6
CONTINUOUS
10
33.3018
20
-98.062
11
33.5814
21
-98.275
0
LINE
8
BLACK
6
CONTINUOUS
10
33.5814
20
-98.275
11
33.8364
21
-98.517
0
LINE
8
BLACK
6
CONTINUOUS
10
33.8364
20
-98.517
11
34.0637
21
-98.7851
0
LINE
8
BLACK
6
CONTINUOUS
10
34.0637
20
-98.7851
11
34.2608
21
-99.0761
0
LINE
8
BLACK
6
CONTINUOUS
10
34.2608
20
-99.0761
11
34.4253
21
-99.3868
0
LINE
8
BLACK
6
CONTINUOUS
10
34.4253
20
-99.3868
11
34.5552
21
-99.7134
0
LINE
8
BLACK
6
CONTINUOUS
10
34.5552
20
-99.7134
11
34.6492
21
-100.052
0
LINE
8
BLACK
6
CONTINUOUS
10
34.6492
20
-100.052
11
34.706
21
-100.399
0
LINE
8
BLACK
6
CONTINUOUS
10
34.706
20
-100.399
11
34.725
21
-100.75
0
LINE
8
BLACK
6
CONTINUOUS
10
34.725
20
-100.75
11
34.7249
21
-100.773
0
LINE
8
BLACK
6
CONTINUOUS
10
34.7249
20
-100.773
11
34.7035
21
-101.124
0
LINE
8
BLACK
6
CONTINUOUS
10
34.7035
20
-101.124
11
34.6442
21
-101.47
0
LINE
8
BLACK
6
CONTINUOUS
10
34.6442
20
-101.47
11
34.5479
21
-101.808
0
LINE
8
BLACK
6
CONTINUOUS
10
34.5479
20
-101.808
11
34.4157
21
-102.134
0
LINE
8
BLACK
6
CONTINUOUS
10
34.4157
20
-102.134
11
34.249
21
-102.443
0
LINE
8
BLACK
6
CONTINUOUS
10
34.249
20
-102.443
11
34.0499
21
-102.733
0
LINE
8
BLACK
6
CONTINUOUS
10
34.0499
20
-102.733
11
33.8207
21
-102.999
0
LINE
8
BLACK
6
CONTINUOUS
10
33.8207
20
-102.999
11
33.5641
21
-103.24
0
LINE
8
BLACK
6
CONTINUOUS
10
33.5641
20
-103.24
11
33.283
21
-103.451
0
LINE
8
BLACK
6
CONTINUOUS
10
33.283
20
-103.451
11
32.9807
21
-103.63
0
LINE
8
BLACK
6
CONTINUOUS
10
32.9807
20
-103.63
11
32.6608
21
-103.776
0
LINE
8
BLACK
6
CONTINUOUS
10
32.6608
20
-103.776
11
32.3271
21
-103.886
0
LINE
8
BLACK
6
CONTINUOUS
10
32.3271
20
-103.886
11
31.9834
21
-103.96
0
LINE
8
BLACK
6
CONTINUOUS
10
31.9834
20
-103.96
11
31.6338
21
-103.996
0
LINE
8
BLACK
6
CONTINUOUS
10
31.6338
20
-103.996
11
31.2823
21
-103.994
0
LINE
8
BLACK
6
CONTINUOUS
10
31.2823
20
-103.994
11
30.933
21
-103.954
0
LINE
8
BLACK
6
CONTINUOUS
10
30.933
20
-103.954
11
30.5901
21
-103.877
0
LINE
8
BLACK
6
CONTINUOUS
10
30.5901
20
-103.877
11
30.2575
21
-103.763
0
LINE
8
BLACK
6
CONTINUOUS
10
30.2575
20
-103.763
11
29.9392
21
-103.614
0
LINE
8
BLACK
6
CONTINUOUS
10
29.9392
20
-103.614
11
29.6389
21
-103.432
0
LINE
8
BLACK
6
CONTINUOUS
10
29.6389
20
-103.432
11
29.36
21
-103.218
0
LINE
8
BLACK
6
CONTINUOUS
10
29.36
20
-103.218
11
29.1059
21
-102.975
0
LINE
8
BLACK
6
CONTINUOUS
10
29.1059
20
-102.975
11
28.8794
21
-102.706
0
LINE
8
BLACK
6
CONTINUOUS
10
28.8794
20
-102.706
11
28.6834
21
-102.414
0
LINE
8
BLACK
6
CONTINUOUS
10
28.6834
20
-102.414
11
28.52
21
-102.103
0
LINE
8
BLACK
6
CONTINUOUS
10
28.52
20
-102.103
11
28.3912
21
-101.776
0
LINE
8
BLACK
6
CONTINUOUS
10
28.3912
20
-101.776
11
28.2984
21
-101.437
0
LINE
8
BLACK
6
CONTINUOUS
10
28.2984
20
-101.437
11
28.2428
21
-101.09
0
LINE
8
BLACK
6
CONTINUOUS
10
28.2428
20
-101.09
11
28.225
21
-100.739
0
LINE
8
BLACK
6
CONTINUOUS
10
28.225
20
-100.739
11
28.2269
21
-100.706
0
LINE
8
BLACK
6
CONTINUOUS
10
28.2269
20
-100.706
11
28.2453
21
-100.388
0
LINE
8
BLACK
6
CONTINUOUS
10
28.2453
20
-100.388
11
28.3033
21
-100.041
0
LINE
8
BLACK
6
CONTINUOUS
10
28.389
20
-101.406
11
28.4813
21
-101.746
0
LINE
8
BLACK
6
CONTINUOUS
10
28.4813
20
-101.746
11
28.611
21
-102.073
0
LINE
8
BLACK
6
CONTINUOUS
10
28.611
20
-102.073
11
28.7764
21
-102.384
0
LINE
8
BLACK
6
CONTINUOUS
10
28.7764
20
-102.384
11
28.9754
21
-102.675
0
LINE
8
BLACK
6
CONTINUOUS
10
28.9754
20
-102.675
11
29.2055
21
-102.942
0
LINE
8
BLACK
6
CONTINUOUS
10
29.2055
20
-102.942
11
29.464
21
-103.181
0
LINE
8
BLACK
6
CONTINUOUS
10
29.464
20
-103.181
11
29.7475
21
-103.39
0
LINE
8
BLACK
6
CONTINUOUS
10
29.7475
20
-103.39
11
30.0525
21
-103.566
0
LINE
8
BLACK
6
CONTINUOUS
10
30.0525
20
-103.566
11
30.3753
21
-103.707
0
LINE
8
BLACK
6
CONTINUOUS
10
30.3753
20
-103.707
11
30.7117
21
-103.811
0
LINE
8
BLACK
6
CONTINUOUS
10
30.7117
20
-103.811
11
31.0577
21
-103.877
0
LINE
8
BLACK
6
CONTINUOUS
10
31.0577
20
-103.877
11
31.4089
21
-103.904
0
LINE
8
BLACK
6
CONTINUOUS
10
31.4089
20
-103.904
11
31.7609
21
-103.892
0
LINE
8
BLACK
6
CONTINUOUS
10
31.7609
20
-103.892
11
32.1094
21
-103.841
0
LINE
8
BLACK
6
CONTINUOUS
10
32.1094
20
-103.841
11
32.4499
21
-103.751
0
LINE
8
BLACK
6
CONTINUOUS
10
32.4499
20
-103.751
11
32.7783
21
-103.623
0
LINE
8
BLACK
6
CONTINUOUS
10
32.7783
20
-103.623
11
33.0905
21
-103.46
0
LINE
8
BLACK
6
CONTINUOUS
10
33.0905
20
-103.46
11
33.3825
21
-103.263
0
LINE
8
BLACK
6
CONTINUOUS
10
33.3825
20
-103.263
11
33.6507
21
-103.035
0
LINE
8
BLACK
6
CONTINUOUS
10
33.6507
20
-103.035
11
33.8918
21
-102.778
0
LINE
8
BLACK
6
CONTINUOUS
10
33.8918
20
-102.778
11
34.1028
21
-102.496
0
LINE
8
BLACK
6
CONTINUOUS
10
34.1028
20
-102.496
11
34.2811
21
-102.192
0
LINE
8
BLACK
6
CONTINUOUS
10
34.2811
20
-102.192
11
34.4243
21
-101.87
0
LINE
8
BLACK
6
CONTINUOUS
10
34.4243
20
-101.87
11
34.5308
21
-101.535
0
LINE
8
BLACK
6
CONTINUOUS
10
34.5308
20
-101.535
11
34.5993
21
-101.189
0
LINE
8
BLACK
6
CONTINUOUS
10
34.5993
20
-101.189
11
34.6287
21
-100.838
0
LINE
8
BLACK
6
CONTINUOUS
10
34.6287
20
-100.838
11
34.63
21
-100.75
0
LINE
8
BLACK
6
CONTINUOUS
10
34.63
20
-100.75
11
34.6103
21
-100.398
0
LINE
8
BLACK
6
CONTINUOUS
10
34.6103
20
-100.398
11
34.5516
21
-100.051
0
LINE
8
BLACK
6
CONTINUOUS
10
34.5516
20
-100.051
11
34.4545
21
-99.7124
0
LINE
8
BLACK
6
CONTINUOUS
10
34.4545
20
-99.7124
11
34.3202
21
-99.3868
0
LINE
8
BLACK
6
CONTINUOUS
10
34.3202
20
-99.3868
11
34.1506
21
-99.0781
0
LINE
8
BLACK
6
CONTINUOUS
10
34.1506
20
-99.0781
11
33.9475
21
-98.7903
0
LINE
8
BLACK
6
CONTINUOUS
10
33.9475
20
-98.7903
11
33.7137
21
-98.5269
0
LINE
8
BLACK
6
CONTINUOUS
10
33.7137
20
-98.5269
11
33.4519
21
-98.2912
0
LINE
8
BLACK
6
CONTINUOUS
10
33.4519
20
-98.2912
11
33.1655
21
-98.0862
0
LINE
8
BLACK
6
CONTINUOUS
10
33.1655
20
-98.0862
11
32.858
21
-97.9143
0
LINE
8
BLACK
6
CONTINUOUS
10
32.858
20
-97.9143
11
32.5333
21
-97.7778
0
LINE
8
BLACK
6
CONTINUOUS
10
32.5333
20
-97.7778
11
32.1954
21
-97.6784
0
LINE
8
BLACK
6
CONTINUOUS
10
32.1954
20
-97.6784
11
31.8486
21
-97.6172
0
LINE
8
BLACK
6
CONTINUOUS
10
31.8486
20
-97.6172
11
31.497
21
-97.5951
0
LINE
8
BLACK
6
CONTINUOUS
10
31.497
20
-97.5951
11
31.1452
21
-97.6123
0
LINE
8
BLACK
6
CONTINUOUS
10
31.1452
20
-97.6123
11
30.7975
21
-97.6686
0
LINE
8
BLACK
6
CONTINUOUS
10
30.7975
20
-97.6686
11
30.4583
21
-97.7634
0
LINE
8
BLACK
6
CONTINUOUS
10
30.4583
20
-97.7634
11
30.1317
21
-97.8953
0
LINE
8
BLACK
6
CONTINUOUS
10
30.1317
20
-97.8953
11
29.8218
21
-98.0628
0
LINE
8
BLACK
6
CONTINUOUS
10
29.8218
20
-98.0628
11
29.5326
21
-98.2639
0
LINE
8
BLACK
6
CONTINUOUS
10
29.5326
20
-98.2639
11
29.2676
21
-98.4959
0
LINE
8
BLACK
6
CONTINUOUS
10
29.2676
20
-98.4959
11
29.0301
21
-98.756
0
LINE
8
BLACK
6
CONTINUOUS
10
29.0301
20
-98.756
11
28.823
21
-99.0409
0
LINE
8
BLACK
6
CONTINUOUS
10
28.823
20
-99.0409
11
28.6491
21
-99.3472
0
LINE
8
BLACK
6
CONTINUOUS
10
28.6491
20
-99.3472
11
28.5103
21
-99.6709
0
LINE
8
BLACK
6
CONTINUOUS
10
28.5103
20
-99.6709
11
28.4085
21
-100.008
0
LINE
8
BLACK
6
CONTINUOUS
10
28.4085
20
-100.008
11
28.3449
21
-100.355
0
LINE
8
BLACK
6
CONTINUOUS
10
28.3449
20
-100.355
11
28.3203
21
-100.706
0
LINE
8
BLACK
6
CONTINUOUS
10
28.3203
20
-100.706
11
28.3351
21
-101.058
0
LINE
8
BLACK
6
CONTINUOUS
10
28.3351
20
-101.058
11
28.389
21
-101.406
0
LINE
8
BLACK
6
CONTINUOUS
10
28.3033
20
-80.041
11
28.3984
21
-79.7026
0
LINE
8
BLACK
6
CONTINUOUS
10
28.3984
20
-79.7026
11
28.5295
21
-79.3765
0
LINE
8
BLACK
6
CONTINUOUS
10
28.5295
20
-79.3765
11
28.6951
21
-79.0664
0
LINE
8
BLACK
6
CONTINUOUS
10
28.6951
20
-79.0664
11
28.8932
21
-78.776
0
LINE
8
BLACK
6
CONTINUOUS
10
28.8932
20
-78.776
11
29.1214
21
-78.5087
0
LINE
8
BLACK
6
CONTINUOUS
10
29.1214
20
-78.5087
11
29.3773
21
-78.2677
0
LINE
8
BLACK
6
CONTINUOUS
10
29.3773
20
-78.2677
11
29.6576
21
-78.0556
0
LINE
8
BLACK
6
CONTINUOUS
10
29.6576
20
-78.0556
11
29.9592
21
-77.8751
0
LINE
8
BLACK
6
CONTINUOUS
10
29.9592
20
-77.8751
11
30.2786
21
-77.7282
0
LINE
8
BLACK
6
CONTINUOUS
10
30.2786
20
-77.7282
11
30.6119
21
-77.6167
0
LINE
8
BLACK
6
CONTINUOUS
10
30.6119
20
-77.6167
11
30.9554
21
-77.5418
0
LINE
8
BLACK
6
CONTINUOUS
10
30.9554
20
-77.5418
11
31.3049
21
-77.5045
0
LINE
8
BLACK
6
CONTINUOUS
10
31.3049
20
-77.5045
11
31.6564
21
-77.5051
0
LINE
8
BLACK
6
CONTINUOUS
10
31.6564
20
-77.5051
11
32.0058
21
-77.5436
0
LINE
8
BLACK
6
CONTINUOUS
10
32.0058
20
-77.5436
11
32.349
21
-77.6197
0
LINE
8
BLACK
6
CONTINUOUS
10
32.349
20
-77.6197
11
32.6819
21
-77.7324
0
LINE
8
BLACK
6
CONTINUOUS
10
32.6819
20
-77.7324
11
33.0008
21
-77.8804
0
LINE
8
BLACK
6
CONTINUOUS
10
33.0008
20
-77.8804
11
33.3018
21
-78.062
0
LINE
8
BLACK
6
CONTINUOUS
10
33.3018
20
-78.062
11
33.5814
21
-78.275
0
LINE
8
BLACK
6
CONTINUOUS
10
33.5814
20
-78.275
11
33.8364
21
-78.517
0
LINE
8
BLACK
6
CONTINUOUS
10
33.8364
20
-78.517
11
34.0637
21
-78.7851
0
LINE
8
BLACK
6
CONTINUOUS
10
34.0637
20
-78.7851
11
34.2608
21
-79.0761
0
LINE
8
BLACK
6
CONTINUOUS
10
34.2608
20
-79.0761
11
34.4253
21
-79.3868
0
LINE
8
BLACK
6
CONTINUOUS
10
34.4253
20
-79.3868
11
34.5552
21
-79.7134
0
LINE
8
BLACK
6
CONTINUOUS
10
34.5552
20
-79.7134
11
34.6492
21
-80.0521
0
LINE
8
BLACK
6
CONTINUOUS
10
34.6492
20
-80.0521
11
34.706
21
-80.399
0
LINE
8
BLACK
6
CONTINUOUS
10
34.706
20
-80.399
11
34.725
21
-80.75
0
LINE
8
BLACK
6
CONTINUOUS
10
34.725
20
-80.75
11
34.7249
21
-80.7727
0
LINE
8
BLACK
6
CONTINUOUS
10
34.7249
20
-80.7727
11
34.7035
21
-81.1235
0
LINE
8
BLACK
6
CONTINUOUS
10
34.7035
20
-81.1235
11
34.6442
21
-81.47
0
LINE
8
BLACK
6
CONTINUOUS
10
34.6442
20
-81.47
11
34.5479
21
-81.8081
0
LINE
8
BLACK
6
CONTINUOUS
10
34.5479
20
-81.8081
11
34.4157
21
-82.1338
0
LINE
8
BLACK
6
CONTINUOUS
10
34.4157
20
-82.1338
11
34.249
21
-82.4433
0
LINE
8
BLACK
6
CONTINUOUS
10
34.249
20
-82.4433
11
34.0499
21
-82.733
0
LINE
8
BLACK
6
CONTINUOUS
10
34.0499
20
-82.733
11
33.8207
21
-82.9995
0
LINE
8
BLACK
6
CONTINUOUS
10
33.8207
20
-82.9995
11
33.5641
21
-83.2396
0
LINE
8
BLACK
6
CONTINUOUS
10
33.5641
20
-83.2396
11
33.283
21
-83.4507
0
LINE
8
BLACK
6
CONTINUOUS
10
33.283
20
-83.4507
11
32.9807
21
-83.6302
0
LINE
8
BLACK
6
CONTINUOUS
10
32.9807
20
-83.6302
11
32.6608
21
-83.7759
0
LINE
8
BLACK
6
CONTINUOUS
10
32.6608
20
-83.7759
11
32.3271
21
-83.8863
0
LINE
8
BLACK
6
CONTINUOUS
10
32.3271
20
-83.8863
11
31.9834
21
-83.96
0
LINE
8
BLACK
6
CONTINUOUS
10
31.9834
20
-83.96
11
31.6338
21
-83.9961
0
LINE
8
BLACK
6
CONTINUOUS
10
31.6338
20
-83.9961
11
31.2823
21
-83.9943
0
LINE
8
BLACK
6
CONTINUOUS
10
31.2823
20
-83.9943
11
30.933
21
-83.9545
0
LINE
8
BLACK
6
CONTINUOUS
10
30.933
20
-83.9545
11
30.5901
21
-83.8772
0
LINE
8
BLACK
6
CONTINUOUS
10
30.5901
20
-83.8772
11
30.2575
21
-83.7633
0
LINE
8
BLACK
6
CONTINUOUS
10
30.2575
20
-83.7633
11
29.9392
21
-83.6142
0
LINE
8
BLACK
6
CONTINUOUS
10
29.9392
20
-83.6142
11
29.6389
21
-83.4316
0
LINE
8
BLACK
6
CONTINUOUS
10
29.6389
20
-83.4316
11
29.36
21
-83.2176
0
LINE
8
BLACK
6
CONTINUOUS
10
29.36
20
-83.2176
11
29.1059
21
-82.9748
0
LINE
8
BLACK
6
CONTINUOUS
10
29.1059
20
-82.9748
11
28.8794
21
-82.7059
0
LINE
8
BLACK
6
CONTINUOUS
10
28.8794
20
-82.7059
11
28.6834
21
-82.4141
0
LINE
8
BLACK
6
CONTINUOUS
10
28.6834
20
-82.4141
11
28.52
21
-82.1029
0
LINE
8
BLACK
6
CONTINUOUS
10
28.52
20
-82.1029
11
28.3912
21
-81.7759
0
LINE
8
BLACK
6
CONTINUOUS
10
28.3912
20
-81.7759
11
28.2984
21
-81.4368
0
LINE
8
BLACK
6
CONTINUOUS
10
28.2984
20
-81.4368
11
28.2428
21
-81.0897
0
LINE
8
BLACK
6
CONTINUOUS
10
28.2428
20
-81.0897
11
28.225
21
-80.7387
0
LINE
8
BLACK
6
CONTINUOUS
10
28.225
20
-80.7387
11
28.2269
21
-80.706
0
LINE
8
BLACK
6
CONTINUOUS
10
28.2269
20
-80.706
11
28.2453
21
-80.3877
0
LINE
8
BLACK
6
CONTINUOUS
10
28.2453
20
-80.3877
11
28.3033
21
-80.041
0
LINE
8
BLACK
6
CONTINUOUS
10
28.389
20
-81.406
11
28.4813
21
-81.7459
0
LINE
8
BLACK
6
CONTINUOUS
10
28.4813
20
-81.7459
11
28.611
21
-82.0734
0
LINE
8
BLACK
6
CONTINUOUS
10
28.611
20
-82.0734
11
28.7764
21
-82.3844
0
LINE
8
BLACK
6
CONTINUOUS
10
28.7764
20
-82.3844
11
28.9754
21
-82.675
0
LINE
8
BLACK
6
CONTINUOUS
10
28.9754
20
-82.675
11
29.2055
21
-82.9416
0
LINE
8
BLACK
6
CONTINUOUS
10
29.2055
20
-82.9416
11
29.464
21
-83.1809
0
LINE
8
BLACK
6
CONTINUOUS
10
29.464
20
-83.1809
11
29.7475
21
-83.39
0
LINE
8
BLACK
6
CONTINUOUS
10
29.7475
20
-83.39
11
30.0525
21
-83.5661
0
LINE
8
BLACK
6
CONTINUOUS
10
30.0525
20
-83.5661
11
30.3753
21
-83.7071
0
LINE
8
BLACK
6
CONTINUOUS
10
30.3753
20
-83.7071
11
30.7117
21
-83.8112
0
LINE
8
BLACK
6
CONTINUOUS
10
30.7117
20
-83.8112
11
31.0577
21
-83.8772
0
LINE
8
BLACK
6
CONTINUOUS
10
31.0577
20
-83.8772
11
31.4089
21
-83.9043
0
LINE
8
BLACK
6
CONTINUOUS
10
31.4089
20
-83.9043
11
31.7609
21
-83.892
0
LINE
8
BLACK
6
CONTINUOUS
10
31.7609
20
-83.892
11
32.1094
21
-83.8405
0
LINE
8
BLACK
6
CONTINUOUS
10
32.1094
20
-83.8405
11
32.4499
21
-83.7505
0
LINE
8
BLACK
6
CONTINUOUS
10
32.4499
20
-83.7505
11
32.7783
21
-83.6232
0
LINE
8
BLACK
6
CONTINUOUS
10
32.7783
20
-83.6232
11
33.0905
21
-83.46
0
LINE
8
BLACK
6
CONTINUOUS
10
33.0905
20
-83.46
11
33.3825
21
-83.263
0
LINE
8
BLACK
6
CONTINUOUS
10
33.3825
20
-83.263
11
33.6507
21
-83.0347
0
LINE
8
BLACK
6
CONTINUOUS
10
33.6507
20
-83.0347
11
33.8918
21
-82.778
0
LINE
8
BLACK
6
CONTINUOUS
10
33.8918
20
-82.778
11
34.1028
21
-82.4959
0
LINE
8
BLACK
6
CONTINUOUS
10
34.1028
20
-82.4959
11
34.2811
21
-82.1921
0
LINE
8
BLACK
6
CONTINUOUS
10
34.2811
20
-82.1921
11
34.4243
21
-81.8703
0
LINE
8
BLACK
6
CONTINUOUS
10
34.4243
20
-81.8703
11
34.5308
21
-81.5346
0
LINE
8
BLACK
6
CONTINUOUS
10
34.5308
20
-81.5346
11
34.5993
21
-81.1891
0
LINE
8
BLACK
6
CONTINUOUS
10
34.5993
20
-81.1891
11
34.6287
21
-80.8381
0
LINE
8
BLACK
6
CONTINUOUS
10
34.6287
20
-80.8381
11
34.63
21
-80.75
0
LINE
8
BLACK
6
CONTINUOUS
10
34.63
20
-80.75
11
34.6103
21
-80.3983
0
LINE
8
BLACK
6
CONTINUOUS
10
34.6103
20
-80.3983
11
34.5516
21
-80.051
0
LINE
8
BLACK
6
CONTINUOUS
10
34.5516
20
-80.051
11
34.4545
21
-79.7124
0
LINE
8
BLACK
6
CONTINUOUS
10
34.4545
20
-79.7124
11
34.3202
21
-79.3868
0
LINE
8
BLACK
6
CONTINUOUS
10
34.3202
20
-79.3868
11
34.1506
21
-79.0781
0
LINE
8
BLACK
6
CONTINUOUS
10
34.1506
20
-79.0781
11
33.9475
21
-78.7903
0
LINE
8
BLACK
6
CONTINUOUS
10
33.9475
20
-78.7903
11
33.7137
21
-78.5269
0
LINE
8
BLACK
6
CONTINUOUS
10
33.7137
20
-78.5269
11
33.4519
21
-78.2912
0
LINE
8
BLACK
6
CONTINUOUS
10
33.4519
20
-78.2912
11
33.1655
21
-78.0862
0
LINE
8
BLACK
6
CONTINUOUS
10
33.1655
20
-78.0862
11
32.858
21
-77.9143
0
LINE
8
BLACK
6
CONTINUOUS
10
32.858
20
-77.9143
11
32.5333
21
-77.7778
0
LINE
8
BLACK
6
CONTINUOUS
10
32.5333
20
-77.7778
11
32.1954
21
-77.6784
0
LINE
8
BLACK
6
CONTINUOUS
10
32.1954
20
-77.6784
11
31.8486
21
-77.6172
0
LINE
8
BLACK
6
CONTINUOUS
10
31.8486
20
-77.6172
11
31.497
21
-77.5951
0
LINE
8
BLACK
6
CONTINUOUS
10
31.497
20
-77.5951
11
31.1452
21
-77.6123
0
LINE
8
BLACK
6
CONTINUOUS
10
31.1452
20
-77.6123
11
30.7975
21
-77.6686
0
LINE
8
BLACK
6
CONTINUOUS
10
30.7975
20
-77.6686
11
30.4583
21
-77.7634
0
LINE
8
BLACK
6
CONTINUOUS
10
30.4583
20
-77.7634
11
30.1317
21
-77.8953
0
LINE
8
BLACK
6
CONTINUOUS
10
30.1317
20
-77.8953
11
29.8218
21
-78.0628
0
LINE
8
BLACK
6
CONTINUOUS
10
29.8218
20
-78.0628
11
29.5326
21
-78.2639
0
LINE
8
BLACK
6
CONTINUOUS
10
29.5326
20
-78.2639
11
29.2676
21
-78.4959
0
LINE
8
BLACK
6
CONTINUOUS
10
29.2676
20
-78.4959
11
29.0301
21
-78.756
0
LINE
8
BLACK
6
CONTINUOUS
10
29.0301
20
-78.756
11
28.823
21
-79.0409
0
LINE
8
BLACK
6
CONTINUOUS
10
28.823
20
-79.0409
11
28.6491
21
-79.3472
0
LINE
8
BLACK
6
CONTINUOUS
10
28.6491
20
-79.3472
11
28.5103
21
-79.6709
0
LINE
8
BLACK
6
CONTINUOUS
10
28.5103
20
-79.6709
11
28.4085
21
-80.0081
0
LINE
8
BLACK
6
CONTINUOUS
10
28.4085
20
-80.0081
11
28.3449
21
-80.3546
0
LINE
8
BLACK
6
CONTINUOUS
10
28.3449
20
-80.3546
11
28.3203
21
-80.706
0
LINE
8
BLACK
6
CONTINUOUS
10
28.3203
20
-80.706
11
28.3351
21
-81.0579
0
LINE
8
BLACK
6
CONTINUOUS
10
28.3351
20
-81.0579
11
28.389
21
-81.406
0
LINE
8
BLACK
6
CONTINUOUS
10
9.92827
20
-80.041
11
10.0234
21
-79.7026
0
LINE
8
BLACK
6
CONTINUOUS
10
10.0234
20
-79.7026
11
10.1545
21
-79.3765
0
LINE
8
BLACK
6
CONTINUOUS
10
10.1545
20
-79.3765
11
10.3201
21
-79.0664
0
LINE
8
BLACK
6
CONTINUOUS
10
10.3201
20
-79.0664
11
10.5182
21
-78.776
0
LINE
8
BLACK
6
CONTINUOUS
10
10.5182
20
-78.776
11
10.7464
21
-78.5087
0
LINE
8
BLACK
6
CONTINUOUS
10
10.7464
20
-78.5087
11
11.0023
21
-78.2677
0
LINE
8
BLACK
6
CONTINUOUS
10
11.0023
20
-78.2677
11
11.2826
21
-78.0556
0
LINE
8
BLACK
6
CONTINUOUS
10
11.2826
20
-78.0556
11
11.5842
21
-77.8751
0
LINE
8
BLACK
6
CONTINUOUS
10
11.5842
20
-77.8751
11
11.9036
21
-77.7282
0
LINE
8
BLACK
6
CONTINUOUS
10
11.9036
20
-77.7282
11
12.2369
21
-77.6167
0
LINE
8
BLACK
6
CONTINUOUS
10
12.2369
20
-77.6167
11
12.5804
21
-77.5418
0
LINE
8
BLACK
6
CONTINUOUS
10
12.5804
20
-77.5418
11
12.9299
21
-77.5045
0
LINE
8
BLACK
6
CONTINUOUS
10
12.9299
20
-77.5045
11
13.2814
21
-77.5051
0
LINE
8
BLACK
6
CONTINUOUS
10
13.2814
20
-77.5051
11
13.6308
21
-77.5436
0
LINE
8
BLACK
6
CONTINUOUS
10
13.6308
20
-77.5436
11
13.974
21
-77.6197
0
LINE
8
BLACK
6
CONTINUOUS
10
13.974
20
-77.6197
11
14.3069
21
-77.7324
0
LINE
8
BLACK
6
CONTINUOUS
10
14.3069
20
-77.7324
11
14.6258
21
-77.8804
0
LINE
8
BLACK
6
CONTINUOUS
10
14.6258
20
-77.8804
11
14.9268
21
-78.062
0
LINE
8
BLACK
6
CONTINUOUS
10
14.9268
20
-78.062
11
15.2064
21
-78.275
0
LINE
8
BLACK
6
CONTINUOUS
10
15.2064
20
-78.275
11
15.4614
21
-78.517
0
LINE
8
BLACK
6
CONTINUOUS
10
15.4614
20
-78.517
11
15.6887
21
-78.7851
0
LINE
8
BLACK
6
CONTINUOUS
10
15.6887
20
-78.7851
11
15.8858
21
-79.0761
0
LINE
8
BLACK
6
CONTINUOUS
10
15.8858
20
-79.0761
11
16.0503
21
-79.3868
0
LINE
8
BLACK
6
CONTINUOUS
10
16.0503
20
-79.3868
11
16.1802
21
-79.7134
0
LINE
8
BLACK
6
CONTINUOUS
10
16.1802
20
-79.7134
11
16.2742
21
-80.0521
0
LINE
8
BLACK
6
CONTINUOUS
10
16.2742
20
-80.0521
11
16.331
21
-80.399
0
LINE
8
BLACK
6
CONTINUOUS
10
16.331
20
-80.399
11
16.35
21
-80.75
0
LINE
8
BLACK
6
CONTINUOUS
10
16.35
20
-80.75
11
16.3499
21
-80.7727
0
LINE
8
BLACK
6
CONTINUOUS
10
16.3499
20
-80.7727
11
16.3285
21
-81.1235
0
LINE
8
BLACK
6
CONTINUOUS
10
16.3285
20
-81.1235
11
16.2692
21
-81.47
0
LINE
8
BLACK
6
CONTINUOUS
10
16.2692
20
-81.47
11
16.1729
21
-81.8081
0
LINE
8
BLACK
6
CONTINUOUS
10
16.1729
20
-81.8081
11
16.0407
21
-82.1338
0
LINE
8
BLACK
6
CONTINUOUS
10
16.0407
20
-82.1338
11
15.874
21
-82.4433
0
LINE
8
BLACK
6
CONTINUOUS
10
15.874
20
-82.4433
11
15.6749
21
-82.733
0
LINE
8
BLACK
6
CONTINUOUS
10
15.6749
20
-82.733
11
15.4457
21
-82.9995
0
LINE
8
BLACK
6
CONTINUOUS
10
15.4457
20
-82.9995
11
15.1891
21
-83.2396
0
LINE
8
BLACK
6
CONTINUOUS
10
15.1891
20
-83.2396
11
14.908
21
-83.4507
0
LINE
8
BLACK
6
CONTINUOUS
10
14.908
20
-83.4507
11
14.6057
21
-83.6302
0
LINE
8
BLACK
6
CONTINUOUS
10
14.6057
20
-83.6302
11
14.2858
21
-83.7759
0
LINE
8
BLACK
6
CONTINUOUS
10
14.2858
20
-83.7759
11
13.9521
21
-83.8863
0
LINE
8
BLACK
6
CONTINUOUS
10
13.9521
20
-83.8863
11
13.6084
21
-83.96
0
LINE
8
BLACK
6
CONTINUOUS
10
13.6084
20
-83.96
11
13.2588
21
-83.9961
0
LINE
8
BLACK
6
CONTINUOUS
10
13.2588
20
-83.9961
11
12.9073
21
-83.9943
0
LINE
8
BLACK
6
CONTINUOUS
10
12.9073
20
-83.9943
11
12.558
21
-83.9545
0
LINE
8
BLACK
6
CONTINUOUS
10
12.558
20
-83.9545
11
12.2151
21
-83.8772
0
LINE
8
BLACK
6
CONTINUOUS
10
12.2151
20
-83.8772
11
11.8825
21
-83.7633
0
LINE
8
BLACK
6
CONTINUOUS
10
11.8825
20
-83.7633
11
11.5642
21
-83.6142
0
LINE
8
BLACK
6
CONTINUOUS
10
11.5642
20
-83.6142
11
11.2639
21
-83.4316
0
LINE
8
BLACK
6
CONTINUOUS
10
11.2639
20
-83.4316
11
10.985
21
-83.2176
0
LINE
8
BLACK
6
CONTINUOUS
10
10.985
20
-83.2176
11
10.7309
21
-82.9748
0
LINE
8
BLACK
6
CONTINUOUS
10
10.7309
20
-82.9748
11
10.5044
21
-82.7059
0
LINE
8
BLACK
6
CONTINUOUS
10
10.5044
20
-82.7059
11
10.3084
21
-82.4141
0
LINE
8
BLACK
6
CONTINUOUS
10
10.3084
20
-82.4141
11
10.145
21
-82.1029
0
LINE
8
BLACK
6
CONTINUOUS
10
10.145
20
-82.1029
11
10.0162
21
-81.7759
0
LINE
8
BLACK
6
CONTINUOUS
10
10.0162
20
-81.7759
11
9.9234
21
-81.4368
0
LINE
8
BLACK
6
CONTINUOUS
10
9.9234
20
-81.4368
11
9.8678
21
-81.0897
0
LINE
8
BLACK
6
CONTINUOUS
10
9.8678
20
-81.0897
11
9.85002
21
-80.7387
0
LINE
8
BLACK
6
CONTINUOUS
10
9.85002
20
-80.7387
11
9.85191
21
-80.706
0
LINE
8
BLACK
6
CONTINUOUS
10
9.85191
20
-80.706
11
9.87025
21
-80.3877
0
LINE
8
BLACK
6
CONTINUOUS
10
9.87025
20
-80.3877
11
9.92827
21
-80.041
0
LINE
8
BLACK
6
CONTINUOUS
10
10.014
20
-81.406
11
10.1063
21
-81.7459
0
LINE
8
BLACK
6
CONTINUOUS
10
10.1063
20
-81.7459
11
10.236
21
-82.0734
0
LINE
8
BLACK
6
CONTINUOUS
10
10.236
20
-82.0734
11
10.4014
21
-82.3844
0
LINE
8
BLACK
6
CONTINUOUS
10
10.4014
20
-82.3844
11
10.6004
21
-82.675
0
LINE
8
BLACK
6
CONTINUOUS
10
10.6004
20
-82.675
11
10.8305
21
-82.9416
0
LINE
8
BLACK
6
CONTINUOUS
10
10.8305
20
-82.9416
11
11.089
21
-83.1809
0
LINE
8
BLACK
6
CONTINUOUS
10
11.089
20
-83.1809
11
11.3725
21
-83.39
0
LINE
8
BLACK
6
CONTINUOUS
10
11.3725
20
-83.39
11
11.6775
21
-83.5661
0
LINE
8
BLACK
6
CONTINUOUS
10
11.6775
20
-83.5661
11
12.0003
21
-83.7071
0
LINE
8
BLACK
6
CONTINUOUS
10
12.0003
20
-83.7071
11
12.3367
21
-83.8112
0
LINE
8
BLACK
6
CONTINUOUS
10
12.3367
20
-83.8112
11
12.6827
21
-83.8772
0
LINE
8
BLACK
6
CONTINUOUS
10
12.6827
20
-83.8772
11
13.0339
21
-83.9043
0
LINE
8
BLACK
6
CONTINUOUS
10
13.0339
20
-83.9043
11
13.3859
21
-83.892
0
LINE
8
BLACK
6
CONTINUOUS
10
13.3859
20
-83.892
11
13.7344
21
-83.8405
0
LINE
8
BLACK
6
CONTINUOUS
10
13.7344
20
-83.8405
11
14.0749
21
-83.7505
0
LINE
8
BLACK
6
CONTINUOUS
10
14.0749
20
-83.7505
11
14.4033
21
-83.6232
0
LINE
8
BLACK
6
CONTINUOUS
10
14.4033
20
-83.6232
11
14.7155
21
-83.46
0
LINE
8
BLACK
6
CONTINUOUS
10
14.7155
20
-83.46
11
15.0075
21
-83.263
0
LINE
8
BLACK
6
CONTINUOUS
10
15.0075
20
-83.263
11
15.2757
21
-83.0347
0
LINE
8
BLACK
6
CONTINUOUS
10
15.2757
20
-83.0347
11
15.5168
21
-82.778
0
LINE
8
BLACK
6
CONTINUOUS
10
15.5168
20
-82.778
11
15.7278
21
-82.4959
0
LINE
8
BLACK
6
CONTINUOUS
10
15.7278
20
-82.4959
11
15.9061
21
-82.1921
0
LINE
8
BLACK
6
CONTINUOUS
10
15.9061
20
-82.1921
11
16.0493
21
-81.8703
0
LINE
8
BLACK
6
CONTINUOUS
10
16.0493
20
-81.8703
11
16.1558
21
-81.5346
0
LINE
8
BLACK
6
CONTINUOUS
10
16.1558
20
-81.5346
11
16.2243
21
-81.1891
0
LINE
8
BLACK
6
CONTINUOUS
10
16.2243
20
-81.1891
11
16.2537
21
-80.8381
0
LINE
8
BLACK
6
CONTINUOUS
10
16.2537
20
-80.8381
11
16.255
21
-80.75
0
LINE
8
BLACK
6
CONTINUOUS
10
16.255
20
-80.75
11
16.2353
21
-80.3983
0
LINE
8
BLACK
6
CONTINUOUS
10
16.2353
20
-80.3983
11
16.1766
21
-80.051
0
LINE
8
BLACK
6
CONTINUOUS
10
16.1766
20
-80.051
11
16.0795
21
-79.7124
0
LINE
8
BLACK
6
CONTINUOUS
10
16.0795
20
-79.7124
11
15.9452
21
-79.3868
0
LINE
8
BLACK
6
CONTINUOUS
10
15.9452
20
-79.3868
11
15.7756
21
-79.0781
0
LINE
8
BLACK
6
CONTINUOUS
10
15.7756
20
-79.0781
11
15.5725
21
-78.7903
0
LINE
8
BLACK
6
CONTINUOUS
10
15.5725
20
-78.7903
11
15.3387
21
-78.5269
0
LINE
8
BLACK
6
CONTINUOUS
10
15.3387
20
-78.5269
11
15.0769
21
-78.2912
0
LINE
8
BLACK
6
CONTINUOUS
10
15.0769
20
-78.2912
11
14.7905
21
-78.0862
0
LINE
8
BLACK
6
CONTINUOUS
10
14.7905
20
-78.0862
11
14.483
21
-77.9143
0
LINE
8
BLACK
6
CONTINUOUS
10
14.483
20
-77.9143
11
14.1583
21
-77.7778
0
LINE
8
BLACK
6
CONTINUOUS
10
14.1583
20
-77.7778
11
13.8204
21
-77.6784
0
LINE
8
BLACK
6
CONTINUOUS
10
13.8204
20
-77.6784
11
13.4736
21
-77.6172
0
LINE
8
BLACK
6
CONTINUOUS
10
13.4736
20
-77.6172
11
13.122
21
-77.5951
0
LINE
8
BLACK
6
CONTINUOUS
10
13.122
20
-77.5951
11
12.7702
21
-77.6123
0
LINE
8
BLACK
6
CONTINUOUS
10
12.7702
20
-77.6123
11
12.4225
21
-77.6686
0
LINE
8
BLACK
6
CONTINUOUS
10
12.4225
20
-77.6686
11
12.0833
21
-77.7634
0
LINE
8
BLACK
6
CONTINUOUS
10
12.0833
20
-77.7634
11
11.7567
21
-77.8953
0
LINE
8
BLACK
6
CONTINUOUS
10
11.7567
20
-77.8953
11
11.4468
21
-78.0628
0
LINE
8
BLACK
6
CONTINUOUS
10
11.4468
20
-78.0628
11
11.1576
21
-78.2639
0
LINE
8
BLACK
6
CONTINUOUS
10
11.1576
20
-78.2639
11
10.8926
21
-78.4959
0
LINE
8
BLACK
6
CONTINUOUS
10
10.8926
20
-78.4959
11
10.6551
21
-78.756
0
LINE
8
BLACK
6
CONTINUOUS
10
10.6551
20
-78.756
11
10.448
21
-79.0409
0
LINE
8
BLACK
6
CONTINUOUS
10
10.448
20
-79.0409
11
10.2741
21
-79.3472
0
LINE
8
BLACK
6
CONTINUOUS
10
10.2741
20
-79.3472
11
10.1353
21
-79.6709
0
LINE
8
BLACK
6
CONTINUOUS
10
10.1353
20
-79.6709
11
10.0335
21
-80.0081
0
LINE
8
BLACK
6
CONTINUOUS
10
10.0335
20
-80.0081
11
9.96992
21
-80.3546
0
LINE
8
BLACK
6
CONTINUOUS
10
9.96992
20
-80.3546
11
9.94534
21
-80.706
0
LINE
8
BLACK
6
CONTINUOUS
10
9.94534
20
-80.706
11
9.96009
21
-81.0579
0
LINE
8
BLACK
6
CONTINUOUS
10
9.96009
20
-81.0579
11
10.014
21
-81.406
0
LINE
8
BLACK
6
CONTINUOUS
10
64.9283
20
-80.041
11
65.0234
21
-79.7026
0
LINE
8
BLACK
6
CONTINUOUS
10
65.0234
20
-79.7026
11
65.1545
21
-79.3765
0
LINE
8
BLACK
6
CONTINUOUS
10
65.1545
20
-79.3765
11
65.3201
21
-79.0664
0
LINE
8
BLACK
6
CONTINUOUS
10
65.3201
20
-79.0664
11
65.5182
21
-78.776
0
LINE
8
BLACK
6
CONTINUOUS
10
65.5182
20
-78.776
11
65.7464
21
-78.5087
0
LINE
8
BLACK
6
CONTINUOUS
10
65.7464
20
-78.5087
11
66.0023
21
-78.2677
0
LINE
8
BLACK
6
CONTINUOUS
10
66.0023
20
-78.2677
11
66.2826
21
-78.0556
0
LINE
8
BLACK
6
CONTINUOUS
10
66.2826
20
-78.0556
11
66.5842
21
-77.8751
0
LINE
8
BLACK
6
CONTINUOUS
10
66.5842
20
-77.8751
11
66.9036
21
-77.7282
0
LINE
8
BLACK
6
CONTINUOUS
10
66.9036
20
-77.7282
11
67.2369
21
-77.6167
0
LINE
8
BLACK
6
CONTINUOUS
10
67.2369
20
-77.6167
11
67.5804
21
-77.5418
0
LINE
8
BLACK
6
CONTINUOUS
10
67.5804
20
-77.5418
11
67.9299
21
-77.5045
0
LINE
8
BLACK
6
CONTINUOUS
10
67.9299
20
-77.5045
11
68.2814
21
-77.5051
0
LINE
8
BLACK
6
CONTINUOUS
10
68.2814
20
-77.5051
11
68.6308
21
-77.5436
0
LINE
8
BLACK
6
CONTINUOUS
10
68.6308
20
-77.5436
11
68.974
21
-77.6197
0
LINE
8
BLACK
6
CONTINUOUS
10
68.974
20
-77.6197
11
69.3069
21
-77.7324
0
LINE
8
BLACK
6
CONTINUOUS
10
69.3069
20
-77.7324
11
69.6258
21
-77.8804
0
LINE
8
BLACK
6
CONTINUOUS
10
69.6258
20
-77.8804
11
69.9268
21
-78.062
0
LINE
8
BLACK
6
CONTINUOUS
10
69.9268
20
-78.062
11
70.2064
21
-78.275
0
LINE
8
BLACK
6
CONTINUOUS
10
70.2064
20
-78.275
11
70.4614
21
-78.517
0
LINE
8
BLACK
6
CONTINUOUS
10
70.4614
20
-78.517
11
70.6887
21
-78.7851
0
LINE
8
BLACK
6
CONTINUOUS
10
70.6887
20
-78.7851
11
70.8858
21
-79.0761
0
LINE
8
BLACK
6
CONTINUOUS
10
70.8858
20
-79.0761
11
71.0503
21
-79.3868
0
LINE
8
BLACK
6
CONTINUOUS
10
71.0503
20
-79.3868
11
71.1802
21
-79.7134
0
LINE
8
BLACK
6
CONTINUOUS
10
71.1802
20
-79.7134
11
71.2742
21
-80.0521
0
LINE
8
BLACK
6
CONTINUOUS
10
71.2742
20
-80.0521
11
71.331
21
-80.399
0
LINE
8
BLACK
6
CONTINUOUS
10
71.331
20
-80.399
11
71.35
21
-80.75
0
LINE
8
BLACK
6
CONTINUOUS
10
71.35
20
-80.75
11
71.3499
21
-80.7727
0
LINE
8
BLACK
6
CONTINUOUS
10
71.3499
20
-80.7727
11
71.3285
21
-81.1235
0
LINE
8
BLACK
6
CONTINUOUS
10
71.3285
20
-81.1235
11
71.2692
21
-81.47
0
LINE
8
BLACK
6
CONTINUOUS
10
71.2692
20
-81.47
11
71.1729
21
-81.8081
0
LINE
8
BLACK
6
CONTINUOUS
10
71.1729
20
-81.8081
11
71.0407
21
-82.1338
0
LINE
8
BLACK
6
CONTINUOUS
10
71.0407
20
-82.1338
11
70.874
21
-82.4433
0
LINE
8
BLACK
6
CONTINUOUS
10
70.874
20
-82.4433
11
70.6749
21
-82.733
0
LINE
8
BLACK
6
CONTINUOUS
10
70.6749
20
-82.733
11
70.4457
21
-82.9995
0
LINE
8
BLACK
6
CONTINUOUS
10
70.4457
20
-82.9995
11
70.1891
21
-83.2396
0
LINE
8
BLACK
6
CONTINUOUS
10
70.1891
20
-83.2396
11
69.908
21
-83.4507
0
LINE
8
BLACK
6
CONTINUOUS
10
69.908
20
-83.4507
11
69.6057
21
-83.6302
0
LINE
8
BLACK
6
CONTINUOUS
10
69.6057
20
-83.6302
11
69.2858
21
-83.7759
0
LINE
8
BLACK
6
CONTINUOUS
10
69.2858
20
-83.7759
11
68.9521
21
-83.8863
0
LINE
8
BLACK
6
CONTINUOUS
10
68.9521
20
-83.8863
11
68.6084
21
-83.96
0
LINE
8
BLACK
6
CONTINUOUS
10
68.6084
20
-83.96
11
68.2588
21
-83.9961
0
LINE
8
BLACK
6
CONTINUOUS
10
68.2588
20
-83.9961
11
67.9073
21
-83.9943
0
LINE
8
BLACK
6
CONTINUOUS
10
67.9073
20
-83.9943
11
67.558
21
-83.9545
0
LINE
8
BLACK
6
CONTINUOUS
10
67.558
20
-83.9545
11
67.2151
21
-83.8772
0
LINE
8
BLACK
6
CONTINUOUS
10
67.2151
20
-83.8772
11
66.8825
21
-83.7633
0
LINE
8
BLACK
6
CONTINUOUS
10
66.8825
20
-83.7633
11
66.5642
21
-83.6142
0
LINE
8
BLACK
6
CONTINUOUS
10
66.5642
20
-83.6142
11
66.2639
21
-83.4316
0
LINE
8
BLACK
6
CONTINUOUS
10
66.2639
20
-83.4316
11
65.985
21
-83.2176
0
LINE
8
BLACK
6
CONTINUOUS
10
65.985
20
-83.2176
11
65.7309
21
-82.9748
0
LINE
8
BLACK
6
CONTINUOUS
10
65.7309
20
-82.9748
11
65.5044
21
-82.7059
0
LINE
8
BLACK
6
CONTINUOUS
10
65.5044
20
-82.7059
11
65.3084
21
-82.4141
0
LINE
8
BLACK
6
CONTINUOUS
10
65.3084
20
-82.4141
11
65.145
21
-82.1029
0
LINE
8
BLACK
6
CONTINUOUS
10
65.145
20
-82.1029
11
65.0162
21
-81.7759
0
LINE
8
BLACK
6
CONTINUOUS
10
65.0162
20
-81.7759
11
64.9234
21
-81.4368
0
LINE
8
BLACK
6
CONTINUOUS
10
64.9234
20
-81.4368
11
64.8678
21
-81.0897
0
LINE
8
BLACK
6
CONTINUOUS
10
64.8678
20
-81.0897
11
64.85
21
-80.7387
0
LINE
8
BLACK
6
CONTINUOUS
10
64.85
20
-80.7387
11
64.8519
21
-80.706
0
LINE
8
BLACK
6
CONTINUOUS
10
64.8519
20
-80.706
11
64.8703
21
-80.3877
0
LINE
8
BLACK
6
CONTINUOUS
10
64.8703
20
-80.3877
11
64.9283
21
-80.041
0
LINE
8
BLACK
6
CONTINUOUS
10
65.014
20
-81.406
11
65.1063
21
-81.7459
0
LINE
8
BLACK
6
CONTINUOUS
10
65.1063
20
-81.7459
11
65.236
21
-82.0734
0
LINE
8
BLACK
6
CONTINUOUS
10
65.236
20
-82.0734
11
65.4014
21
-82.3844
0
LINE
8
BLACK
6
CONTINUOUS
10
65.4014
20
-82.3844
11
65.6004
21
-82.675
0
LINE
8
BLACK
6
CONTINUOUS
10
65.6004
20
-82.675
11
65.8305
21
-82.9416
0
LINE
8
BLACK
6
CONTINUOUS
10
65.8305
20
-82.9416
11
66.089
21
-83.1809
0
LINE
8
BLACK
6
CONTINUOUS
10
66.089
20
-83.1809
11
66.3725
21
-83.39
0
LINE
8
BLACK
6
CONTINUOUS
10
66.3725
20
-83.39
11
66.6775
21
-83.5661
0
LINE
8
BLACK
6
CONTINUOUS
10
66.6775
20
-83.5661
11
67.0003
21
-83.7071
0
LINE
8
BLACK
6
CONTINUOUS
10
67.0003
20
-83.7071
11
67.3367
21
-83.8112
0
LINE
8
BLACK
6
CONTINUOUS
10
67.3367
20
-83.8112
11
67.6827
21
-83.8772
0
LINE
8
BLACK
6
CONTINUOUS
10
67.6827
20
-83.8772
11
68.0339
21
-83.9043
0
LINE
8
BLACK
6
CONTINUOUS
10
68.0339
20
-83.9043
11
68.3859
21
-83.892
0
LINE
8
BLACK
6
CONTINUOUS
10
68.3859
20
-83.892
11
68.7344
21
-83.8405
0
LINE
8
BLACK
6
CONTINUOUS
10
68.7344
20
-83.8405
11
69.0749
21
-83.7505
0
LINE
8
BLACK
6
CONTINUOUS
10
69.0749
20
-83.7505
11
69.4033
21
-83.6232
0
LINE
8
BLACK
6
CONTINUOUS
10
69.4033
20
-83.6232
11
69.7155
21
-83.46
0
LINE
8
BLACK
6
CONTINUOUS
10
69.7155
20
-83.46
11
70.0075
21
-83.263
0
LINE
8
BLACK
6
CONTINUOUS
10
70.0075
20
-83.263
11
70.2757
21
-83.0347
0
LINE
8
BLACK
6
CONTINUOUS
10
70.2757
20
-83.0347
11
70.5168
21
-82.778
0
LINE
8
BLACK
6
CONTINUOUS
10
70.5168
20
-82.778
11
70.7278
21
-82.4959
0
LINE
8
BLACK
6
CONTINUOUS
10
70.7278
20
-82.4959
11
70.9061
21
-82.1921
0
LINE
8
BLACK
6
CONTINUOUS
10
70.9061
20
-82.1921
11
71.0493
21
-81.8703
0
LINE
8
BLACK
6
CONTINUOUS
10
71.0493
20
-81.8703
11
71.1558
21
-81.5346
0
LINE
8
BLACK
6
CONTINUOUS
10
71.1558
20
-81.5346
11
71.2243
21
-81.1891
0
LINE
8
BLACK
6
CONTINUOUS
10
71.2243
20
-81.1891
11
71.2537
21
-80.8381
0
LINE
8
BLACK
6
CONTINUOUS
10
71.2537
20
-80.8381
11
71.255
21
-80.75
0
LINE
8
BLACK
6
CONTINUOUS
10
71.255
20
-80.75
11
71.2353
21
-80.3983
0
LINE
8
BLACK
6
CONTINUOUS
10
71.2353
20
-80.3983
11
71.1766
21
-80.051
0
LINE
8
BLACK
6
CONTINUOUS
10
71.1766
20
-80.051
11
71.0795
21
-79.7124
0
LINE
8
BLACK
6
CONTINUOUS
10
71.0795
20
-79.7124
11
70.9452
21
-79.3868
0
LINE
8
BLACK
6
CONTINUOUS
10
70.9452
20
-79.3868
11
70.7756
21
-79.0781
0
LINE
8
BLACK
6
CONTINUOUS
10
70.7756
20
-79.0781
11
70.5725
21
-78.7903
0
LINE
8
BLACK
6
CONTINUOUS
10
70.5725
20
-78.7903
11
70.3387
21
-78.5269
0
LINE
8
BLACK
6
CONTINUOUS
10
70.3387
20
-78.5269
11
70.0769
21
-78.2912
0
LINE
8
BLACK
6
CONTINUOUS
10
70.0769
20
-78.2912
11
69.7905
21
-78.0862
0
LINE
8
BLACK
6
CONTINUOUS
10
69.7905
20
-78.0862
11
69.483
21
-77.9143
0
LINE
8
BLACK
6
CONTINUOUS
10
69.483
20
-77.9143
11
69.1583
21
-77.7778
0
LINE
8
BLACK
6
CONTINUOUS
10
69.1583
20
-77.7778
11
68.8204
21
-77.6784
0
LINE
8
BLACK
6
CONTINUOUS
10
68.8204
20
-77.6784
11
68.4736
21
-77.6172
0
LINE
8
BLACK
6
CONTINUOUS
10
68.4736
20
-77.6172
11
68.122
21
-77.5951
0
LINE
8
BLACK
6
CONTINUOUS
10
68.122
20
-77.5951
11
67.7702
21
-77.6123
0
LINE
8
BLACK
6
CONTINUOUS
10
67.7702
20
-77.6123
11
67.4225
21
-77.6686
0
LINE
8
BLACK
6
CONTINUOUS
10
67.4225
20
-77.6686
11
67.0833
21
-77.7634
0
LINE
8
BLACK
6
CONTINUOUS
10
67.0833
20
-77.7634
11
66.7567
21
-77.8953
0
LINE
8
BLACK
6
CONTINUOUS
10
66.7567
20
-77.8953
11
66.4468
21
-78.0628
0
LINE
8
BLACK
6
CONTINUOUS
10
66.4468
20
-78.0628
11
66.1576
21
-78.2639
0
LINE
8
BLACK
6
CONTINUOUS
10
66.1576
20
-78.2639
11
65.8926
21
-78.4959
0
LINE
8
BLACK
6
CONTINUOUS
10
65.8926
20
-78.4959
11
65.6551
21
-78.756
0
LINE
8
BLACK
6
CONTINUOUS
10
65.6551
20
-78.756
11
65.448
21
-79.0409
0
LINE
8
BLACK
6
CONTINUOUS
10
65.448
20
-79.0409
11
65.2741
21
-79.3472
0
LINE
8
BLACK
6
CONTINUOUS
10
65.2741
20
-79.3472
11
65.1353
21
-79.6709
0
LINE
8
BLACK
6
CONTINUOUS
10
65.1353
20
-79.6709
11
65.0335
21
-80.0081
0
LINE
8
BLACK
6
CONTINUOUS
10
65.0335
20
-80.0081
11
64.9699
21
-80.3546
0
LINE
8
BLACK
6
CONTINUOUS
10
64.9699
20
-80.3546
11
64.9453
21
-80.706
0
LINE
8
BLACK
6
CONTINUOUS
10
64.9453
20
-80.706
11
64.9601
21
-81.0579
0
LINE
8
BLACK
6
CONTINUOUS
10
64.9601
20
-81.0579
11
65.014
21
-81.406
0
LINE
8
BLACK
6
CONTINUOUS
10
46.5533
20
-80.041
11
46.6484
21
-79.7026
0
LINE
8
BLACK
6
CONTINUOUS
10
46.6484
20
-79.7026
11
46.7795
21
-79.3765
0
LINE
8
BLACK
6
CONTINUOUS
10
46.7795
20
-79.3765
11
46.9451
21
-79.0664
0
LINE
8
BLACK
6
CONTINUOUS
10
46.9451
20
-79.0664
11
47.1432
21
-78.776
0
LINE
8
BLACK
6
CONTINUOUS
10
47.1432
20
-78.776
11
47.3714
21
-78.5087
0
LINE
8
BLACK
6
CONTINUOUS
10
47.3714
20
-78.5087
11
47.6273
21
-78.2677
0
LINE
8
BLACK
6
CONTINUOUS
10
47.6273
20
-78.2677
11
47.9076
21
-78.0556
0
LINE
8
BLACK
6
CONTINUOUS
10
47.9076
20
-78.0556
11
48.2092
21
-77.8751
0
LINE
8
BLACK
6
CONTINUOUS
10
48.2092
20
-77.8751
11
48.5286
21
-77.7282
0
LINE
8
BLACK
6
CONTINUOUS
10
48.5286
20
-77.7282
11
48.8619
21
-77.6167
0
LINE
8
BLACK
6
CONTINUOUS
10
48.8619
20
-77.6167
11
49.2054
21
-77.5418
0
LINE
8
BLACK
6
CONTINUOUS
10
49.2054
20
-77.5418
11
49.5549
21
-77.5045
0
LINE
8
BLACK
6
CONTINUOUS
10
49.5549
20
-77.5045
11
49.9064
21
-77.5051
0
LINE
8
BLACK
6
CONTINUOUS
10
49.9064
20
-77.5051
11
50.2558
21
-77.5436
0
LINE
8
BLACK
6
CONTINUOUS
10
50.2558
20
-77.5436
11
50.599
21
-77.6197
0
LINE
8
BLACK
6
CONTINUOUS
10
50.599
20
-77.6197
11
50.9319
21
-77.7324
0
LINE
8
BLACK
6
CONTINUOUS
10
50.9319
20
-77.7324
11
51.2508
21
-77.8804
0
LINE
8
BLACK
6
CONTINUOUS
10
51.2508
20
-77.8804
11
51.5518
21
-78.062
0
LINE
8
BLACK
6
CONTINUOUS
10
51.5518
20
-78.062
11
51.8314
21
-78.275
0
LINE
8
BLACK
6
CONTINUOUS
10
51.8314
20
-78.275
11
52.0864
21
-78.517
0
LINE
8
BLACK
6
CONTINUOUS
10
52.0864
20
-78.517
11
52.3137
21
-78.7851
0
LINE
8
BLACK
6
CONTINUOUS
10
52.3137
20
-78.7851
11
52.5108
21
-79.0761
0
LINE
8
BLACK
6
CONTINUOUS
10
52.5108
20
-79.0761
11
52.6753
21
-79.3868
0
LINE
8
BLACK
6
CONTINUOUS
10
52.6753
20
-79.3868
11
52.8052
21
-79.7134
0
LINE
8
BLACK
6
CONTINUOUS
10
52.8052
20
-79.7134
11
52.8992
21
-80.0521
0
LINE
8
BLACK
6
CONTINUOUS
10
52.8992
20
-80.0521
11
52.956
21
-80.399
0
LINE
8
BLACK
6
CONTINUOUS
10
52.956
20
-80.399
11
52.975
21
-80.75
0
LINE
8
BLACK
6
CONTINUOUS
10
52.975
20
-80.75
11
52.9749
21
-80.7727
0
LINE
8
BLACK
6
CONTINUOUS
10
52.9749
20
-80.7727
11
52.9535
21
-81.1235
0
LINE
8
BLACK
6
CONTINUOUS
10
52.9535
20
-81.1235
11
52.8942
21
-81.47
0
LINE
8
BLACK
6
CONTINUOUS
10
52.8942
20
-81.47
11
52.7979
21
-81.8081
0
LINE
8
BLACK
6
CONTINUOUS
10
52.7979
20
-81.8081
11
52.6657
21
-82.1338
0
LINE
8
BLACK
6
CONTINUOUS
10
52.6657
20
-82.1338
11
52.499
21
-82.4433
0
LINE
8
BLACK
6
CONTINUOUS
10
52.499
20
-82.4433
11
52.2999
21
-82.733
0
LINE
8
BLACK
6
CONTINUOUS
10
52.2999
20
-82.733
11
52.0707
21
-82.9995
0
LINE
8
BLACK
6
CONTINUOUS
10
52.0707
20
-82.9995
11
51.8141
21
-83.2396
0
LINE
8
BLACK
6
CONTINUOUS
10
51.8141
20
-83.2396
11
51.533
21
-83.4507
0
LINE
8
BLACK
6
CONTINUOUS
10
51.533
20
-83.4507
11
51.2307
21
-83.6302
0
LINE
8
BLACK
6
CONTINUOUS
10
51.2307
20
-83.6302
11
50.9108
21
-83.7759
0
LINE
8
BLACK
6
CONTINUOUS
10
50.9108
20
-83.7759
11
50.5771
21
-83.8863
0
LINE
8
BLACK
6
CONTINUOUS
10
50.5771
20
-83.8863
11
50.2334
21
-83.96
0
LINE
8
BLACK
6
CONTINUOUS
10
50.2334
20
-83.96
11
49.8838
21
-83.9961
0
LINE
8
BLACK
6
CONTINUOUS
10
49.8838
20
-83.9961
11
49.5323
21
-83.9943
0
LINE
8
BLACK
6
CONTINUOUS
10
49.5323
20
-83.9943
11
49.183
21
-83.9545
0
LINE
8
BLACK
6
CONTINUOUS
10
49.183
20
-83.9545
11
48.8401
21
-83.8772
0
LINE
8
BLACK
6
CONTINUOUS
10
48.8401
20
-83.8772
11
48.5075
21
-83.7633
0
LINE
8
BLACK
6
CONTINUOUS
10
48.5075
20
-83.7633
11
48.1892
21
-83.6142
0
LINE
8
BLACK
6
CONTINUOUS
10
48.1892
20
-83.6142
11
47.8889
21
-83.4316
0
LINE
8
BLACK
6
CONTINUOUS
10
47.8889
20
-83.4316
11
47.61
21
-83.2176
0
LINE
8
BLACK
6
CONTINUOUS
10
47.61
20
-83.2176
11
47.3559
21
-82.9748
0
LINE
8
BLACK
6
CONTINUOUS
10
47.3559
20
-82.9748
11
47.1294
21
-82.7059
0
LINE
8
BLACK
6
CONTINUOUS
10
47.1294
20
-82.7059
11
46.9334
21
-82.4141
0
LINE
8
BLACK
6
CONTINUOUS
10
46.9334
20
-82.4141
11
46.77
21
-82.1029
0
LINE
8
BLACK
6
CONTINUOUS
10
46.77
20
-82.1029
11
46.6412
21
-81.7759
0
LINE
8
BLACK
6
CONTINUOUS
10
46.6412
20
-81.7759
11
46.5484
21
-81.4368
0
LINE
8
BLACK
6
CONTINUOUS
10
46.5484
20
-81.4368
11
46.4928
21
-81.0897
0
LINE
8
BLACK
6
CONTINUOUS
10
46.4928
20
-81.0897
11
46.475
21
-80.7387
0
LINE
8
BLACK
6
CONTINUOUS
10
46.475
20
-80.7387
11
46.4769
21
-80.706
0
LINE
8
BLACK
6
CONTINUOUS
10
46.4769
20
-80.706
11
46.4953
21
-80.3877
0
LINE
8
BLACK
6
CONTINUOUS
10
46.4953
20
-80.3877
11
46.5533
21
-80.041
0
LINE
8
BLACK
6
CONTINUOUS
10
46.639
20
-81.406
11
46.7313
21
-81.7459
0
LINE
8
BLACK
6
CONTINUOUS
10
46.7313
20
-81.7459
11
46.861
21
-82.0734
0
LINE
8
BLACK
6
CONTINUOUS
10
46.861
20
-82.0734
11
47.0264
21
-82.3844
0
LINE
8
BLACK
6
CONTINUOUS
10
47.0264
20
-82.3844
11
47.2254
21
-82.675
0
LINE
8
BLACK
6
CONTINUOUS
10
47.2254
20
-82.675
11
47.4555
21
-82.9416
0
LINE
8
BLACK
6
CONTINUOUS
10
47.4555
20
-82.9416
11
47.714
21
-83.1809
0
LINE
8
BLACK
6
CONTINUOUS
10
47.714
20
-83.1809
11
47.9975
21
-83.39
0
LINE
8
BLACK
6
CONTINUOUS
10
47.9975
20
-83.39
11
48.3025
21
-83.5661
0
LINE
8
BLACK
6
CONTINUOUS
10
48.3025
20
-83.5661
11
48.6253
21
-83.7071
0
LINE
8
BLACK
6
CONTINUOUS
10
48.6253
20
-83.7071
11
48.9617
21
-83.8112
0
LINE
8
BLACK
6
CONTINUOUS
10
48.9617
20
-83.8112
11
49.3077
21
-83.8772
0
LINE
8
BLACK
6
CONTINUOUS
10
49.3077
20
-83.8772
11
49.6589
21
-83.9043
0
LINE
8
BLACK
6
CONTINUOUS
10
49.6589
20
-83.9043
11
50.0109
21
-83.892
0
LINE
8
BLACK
6
CONTINUOUS
10
50.0109
20
-83.892
11
50.3594
21
-83.8405
0
LINE
8
BLACK
6
CONTINUOUS
10
50.3594
20
-83.8405
11
50.6999
21
-83.7505
0
LINE
8
BLACK
6
CONTINUOUS
10
50.6999
20
-83.7505
11
51.0283
21
-83.6232
0
LINE
8
BLACK
6
CONTINUOUS
10
51.0283
20
-83.6232
11
51.3405
21
-83.46
0
LINE
8
BLACK
6
CONTINUOUS
10
51.3405
20
-83.46
11
51.6325
21
-83.263
0
LINE
8
BLACK
6
CONTINUOUS
10
51.6325
20
-83.263
11
51.9007
21
-83.0347
0
LINE
8
BLACK
6
CONTINUOUS
10
51.9007
20
-83.0347
11
52.1418
21
-82.778
0
LINE
8
BLACK
6
CONTINUOUS
10
52.1418
20
-82.778
11
52.3528
21
-82.4959
0
LINE
8
BLACK
6
CONTINUOUS
10
52.3528
20
-82.4959
11
52.5311
21
-82.1921
0
LINE
8
BLACK
6
CONTINUOUS
10
52.5311
20
-82.1921
11
52.6743
21
-81.8703
0
LINE
8
BLACK
6
CONTINUOUS
10
52.6743
20
-81.8703
11
52.7808
21
-81.5346
0
LINE
8
BLACK
6
CONTINUOUS
10
52.7808
20
-81.5346
11
52.8493
21
-81.1891
0
LINE
8
BLACK
6
CONTINUOUS
10
52.8493
20
-81.1891
11
52.8787
21
-80.8381
0
LINE
8
BLACK
6
CONTINUOUS
10
52.8787
20
-80.8381
11
52.88
21
-80.75
0
LINE
8
BLACK
6
CONTINUOUS
10
52.88
20
-80.75
11
52.8603
21
-80.3983
0
LINE
8
BLACK
6
CONTINUOUS
10
52.8603
20
-80.3983
11
52.8016
21
-80.051
0
LINE
8
BLACK
6
CONTINUOUS
10
52.8016
20
-80.051
11
52.7045
21
-79.7124
0
LINE
8
BLACK
6
CONTINUOUS
10
52.7045
20
-79.7124
11
52.5702
21
-79.3868
0
LINE
8
BLACK
6
CONTINUOUS
10
52.5702
20
-79.3868
11
52.4006
21
-79.0781
0
LINE
8
BLACK
6
CONTINUOUS
10
52.4006
20
-79.0781
11
52.1975
21
-78.7903
0
LINE
8
BLACK
6
CONTINUOUS
10
52.1975
20
-78.7903
11
51.9637
21
-78.5269
0
LINE
8
BLACK
6
CONTINUOUS
10
51.9637
20
-78.5269
11
51.7019
21
-78.2912
0
LINE
8
BLACK
6
CONTINUOUS
10
51.7019
20
-78.2912
11
51.4155
21
-78.0862
0
LINE
8
BLACK
6
CONTINUOUS
10
51.4155
20
-78.0862
11
51.108
21
-77.9143
0
LINE
8
BLACK
6
CONTINUOUS
10
51.108
20
-77.9143
11
50.7833
21
-77.7778
0
LINE
8
BLACK
6
CONTINUOUS
10
50.7833
20
-77.7778
11
50.4454
21
-77.6784
0
LINE
8
BLACK
6
CONTINUOUS
10
50.4454
20
-77.6784
11
50.0986
21
-77.6172
0
LINE
8
BLACK
6
CONTINUOUS
10
50.0986
20
-77.6172
11
49.747
21
-77.5951
0
LINE
8
BLACK
6
CONTINUOUS
10
49.747
20
-77.5951
11
49.3952
21
-77.6123
0
LINE
8
BLACK
6
CONTINUOUS
10
49.3952
20
-77.6123
11
49.0475
21
-77.6686
0
LINE
8
BLACK
6
CONTINUOUS
10
49.0475
20
-77.6686
11
48.7083
21
-77.7634
0
LINE
8
BLACK
6
CONTINUOUS
10
48.7083
20
-77.7634
11
48.3817
21
-77.8953
0
LINE
8
BLACK
6
CONTINUOUS
10
48.3817
20
-77.8953
11
48.0718
21
-78.0628
0
LINE
8
BLACK
6
CONTINUOUS
10
48.0718
20
-78.0628
11
47.7826
21
-78.2639
0
LINE
8
BLACK
6
CONTINUOUS
10
47.7826
20
-78.2639
11
47.5176
21
-78.4959
0
LINE
8
BLACK
6
CONTINUOUS
10
47.5176
20
-78.4959
11
47.2801
21
-78.756
0
LINE
8
BLACK
6
CONTINUOUS
10
47.2801
20
-78.756
11
47.073
21
-79.0409
0
LINE
8
BLACK
6
CONTINUOUS
10
47.073
20
-79.0409
11
46.8991
21
-79.3472
0
LINE
8
BLACK
6
CONTINUOUS
10
46.8991
20
-79.3472
11
46.7603
21
-79.6709
0
LINE
8
BLACK
6
CONTINUOUS
10
46.7603
20
-79.6709
11
46.6585
21
-80.0081
0
LINE
8
BLACK
6
CONTINUOUS
10
46.6585
20
-80.0081
11
46.5949
21
-80.3546
0
LINE
8
BLACK
6
CONTINUOUS
10
46.5949
20
-80.3546
11
46.5703
21
-80.706
0
LINE
8
BLACK
6
CONTINUOUS
10
46.5703
20
-80.706
11
46.5851
21
-81.0579
0
LINE
8
BLACK
6
CONTINUOUS
10
46.5851
20
-81.0579
11
46.639
21
-81.406
0
LINE
8
BLACK
6
CONTINUOUS
10
46.5533
20
-60.041
11
46.6484
21
-59.7026
0
LINE
8
BLACK
6
CONTINUOUS
10
46.6484
20
-59.7026
11
46.7795
21
-59.3765
0
LINE
8
BLACK
6
CONTINUOUS
10
46.7795
20
-59.3765
11
46.9451
21
-59.0664
0
LINE
8
BLACK
6
CONTINUOUS
10
46.9451
20
-59.0664
11
47.1432
21
-58.776
0
LINE
8
BLACK
6
CONTINUOUS
10
47.1432
20
-58.776
11
47.3714
21
-58.5087
0
LINE
8
BLACK
6
CONTINUOUS
10
47.3714
20
-58.5087
11
47.6273
21
-58.2677
0
LINE
8
BLACK
6
CONTINUOUS
10
47.6273
20
-58.2677
11
47.9076
21
-58.0556
0
LINE
8
BLACK
6
CONTINUOUS
10
47.9076
20
-58.0556
11
48.2092
21
-57.8751
0
LINE
8
BLACK
6
CONTINUOUS
10
48.2092
20
-57.8751
11
48.5286
21
-57.7282
0
LINE
8
BLACK
6
CONTINUOUS
10
48.5286
20
-57.7282
11
48.8619
21
-57.6167
0
LINE
8
BLACK
6
CONTINUOUS
10
48.8619
20
-57.6167
11
49.2054
21
-57.5418
0
LINE
8
BLACK
6
CONTINUOUS
10
49.2054
20
-57.5418
11
49.5549
21
-57.5045
0
LINE
8
BLACK
6
CONTINUOUS
10
49.5549
20
-57.5045
11
49.9064
21
-57.5051
0
LINE
8
BLACK
6
CONTINUOUS
10
49.9064
20
-57.5051
11
50.2558
21
-57.5436
0
LINE
8
BLACK
6
CONTINUOUS
10
50.2558
20
-57.5436
11
50.599
21
-57.6197
0
LINE
8
BLACK
6
CONTINUOUS
10
50.599
20
-57.6197
11
50.9319
21
-57.7324
0
LINE
8
BLACK
6
CONTINUOUS
10
50.9319
20
-57.7324
11
51.2508
21
-57.8804
0
LINE
8
BLACK
6
CONTINUOUS
10
51.2508
20
-57.8804
11
51.5518
21
-58.062
0
LINE
8
BLACK
6
CONTINUOUS
10
51.5518
20
-58.062
11
51.8314
21
-58.275
0
LINE
8
BLACK
6
CONTINUOUS
10
51.8314
20
-58.275
11
52.0864
21
-58.517
0
LINE
8
BLACK
6
CONTINUOUS
10
52.0864
20
-58.517
11
52.3137
21
-58.7851
0
LINE
8
BLACK
6
CONTINUOUS
10
52.3137
20
-58.7851
11
52.5108
21
-59.0761
0
LINE
8
BLACK
6
CONTINUOUS
10
52.5108
20
-59.0761
11
52.6753
21
-59.3868
0
LINE
8
BLACK
6
CONTINUOUS
10
52.6753
20
-59.3868
11
52.8052
21
-59.7134
0
LINE
8
BLACK
6
CONTINUOUS
10
52.8052
20
-59.7134
11
52.8992
21
-60.0521
0
LINE
8
BLACK
6
CONTINUOUS
10
52.8992
20
-60.0521
11
52.956
21
-60.399
0
LINE
8
BLACK
6
CONTINUOUS
10
52.956
20
-60.399
11
52.975
21
-60.75
0
LINE
8
BLACK
6
CONTINUOUS
10
52.975
20
-60.75
11
52.9749
21
-60.7727
0
LINE
8
BLACK
6
CONTINUOUS
10
52.9749
20
-60.7727
11
52.9535
21
-61.1235
0
LINE
8
BLACK
6
CONTINUOUS
10
52.9535
20
-61.1235
11
52.8942
21
-61.47
0
LINE
8
BLACK
6
CONTINUOUS
10
52.8942
20
-61.47
11
52.7979
21
-61.8081
0
LINE
8
BLACK
6
CONTINUOUS
10
52.7979
20
-61.8081
11
52.6657
21
-62.1338
0
LINE
8
BLACK
6
CONTINUOUS
10
52.6657
20
-62.1338
11
52.499
21
-62.4433
0
LINE
8
BLACK
6
CONTINUOUS
10
52.499
20
-62.4433
11
52.2999
21
-62.733
0
LINE
8
BLACK
6
CONTINUOUS
10
52.2999
20
-62.733
11
52.0707
21
-62.9995
0
LINE
8
BLACK
6
CONTINUOUS
10
52.0707
20
-62.9995
11
51.8141
21
-63.2396
0
LINE
8
BLACK
6
CONTINUOUS
10
51.8141
20
-63.2396
11
51.533
21
-63.4507
0
LINE
8
BLACK
6
CONTINUOUS
10
51.533
20
-63.4507
11
51.2307
21
-63.6302
0
LINE
8
BLACK
6
CONTINUOUS
10
51.2307
20
-63.6302
11
50.9108
21
-63.7759
0
LINE
8
BLACK
6
CONTINUOUS
10
50.9108
20
-63.7759
11
50.5771
21
-63.8863
0
LINE
8
BLACK
6
CONTINUOUS
10
50.5771
20
-63.8863
11
50.2334
21
-63.96
0
LINE
8
BLACK
6
CONTINUOUS
10
50.2334
20
-63.96
11
49.8838
21
-63.9961
0
LINE
8
BLACK
6
CONTINUOUS
10
49.8838
20
-63.9961
11
49.5323
21
-63.9943
0
LINE
8
BLACK
6
CONTINUOUS
10
49.5323
20
-63.9943
11
49.183
21
-63.9545
0
LINE
8
BLACK
6
CONTINUOUS
10
49.183
20
-63.9545
11
48.8401
21
-63.8772
0
LINE
8
BLACK
6
CONTINUOUS
10
48.8401
20
-63.8772
11
48.5075
21
-63.7633
0
LINE
8
BLACK
6
CONTINUOUS
10
48.5075
20
-63.7633
11
48.1892
21
-63.6142
0
LINE
8
BLACK
6
CONTINUOUS
10
48.1892
20
-63.6142
11
47.8889
21
-63.4316
0
LINE
8
BLACK
6
CONTINUOUS
10
47.8889
20
-63.4316
11
47.61
21
-63.2176
0
LINE
8
BLACK
6
CONTINUOUS
10
47.61
20
-63.2176
11
47.3559
21
-62.9748
0
LINE
8
BLACK
6
CONTINUOUS
10
47.3559
20
-62.9748
11
47.1294
21
-62.7059
0
LINE
8
BLACK
6
CONTINUOUS
10
47.1294
20
-62.7059
11
46.9334
21
-62.4141
0
LINE
8
BLACK
6
CONTINUOUS
10
46.9334
20
-62.4141
11
46.77
21
-62.1029
0
LINE
8
BLACK
6
CONTINUOUS
10
46.77
20
-62.1029
11
46.6412
21
-61.7759
0
LINE
8
BLACK
6
CONTINUOUS
10
46.6412
20
-61.7759
11
46.5484
21
-61.4368
0
LINE
8
BLACK
6
CONTINUOUS
10
46.5484
20
-61.4368
11
46.4928
21
-61.0897
0
LINE
8
BLACK
6
CONTINUOUS
10
46.4928
20
-61.0897
11
46.475
21
-60.7387
0
LINE
8
BLACK
6
CONTINUOUS
10
46.475
20
-60.7387
11
46.4769
21
-60.7059
0
LINE
8
BLACK
6
CONTINUOUS
10
46.4769
20
-60.7059
11
46.4953
21
-60.3877
0
LINE
8
BLACK
6
CONTINUOUS
10
46.4953
20
-60.3877
11
46.5533
21
-60.041
0
LINE
8
BLACK
6
CONTINUOUS
10
46.639
20
-61.406
11
46.7313
21
-61.7459
0
LINE
8
BLACK
6
CONTINUOUS
10
46.7313
20
-61.7459
11
46.861
21
-62.0734
0
LINE
8
BLACK
6
CONTINUOUS
10
46.861
20
-62.0734
11
47.0264
21
-62.3844
0
LINE
8
BLACK
6
CONTINUOUS
10
47.0264
20
-62.3844
11
47.2254
21
-62.675
0
LINE
8
BLACK
6
CONTINUOUS
10
47.2254
20
-62.675
11
47.4555
21
-62.9416
0
LINE
8
BLACK
6
CONTINUOUS
10
47.4555
20
-62.9416
11
47.714
21
-63.1809
0
LINE
8
BLACK
6
CONTINUOUS
10
47.714
20
-63.1809
11
47.9975
21
-63.39
0
LINE
8
BLACK
6
CONTINUOUS
10
47.9975
20
-63.39
11
48.3025
21
-63.5661
0
LINE
8
BLACK
6
CONTINUOUS
10
48.3025
20
-63.5661
11
48.6253
21
-63.7071
0
LINE
8
BLACK
6
CONTINUOUS
10
48.6253
20
-63.7071
11
48.9617
21
-63.8112
0
LINE
8
BLACK
6
CONTINUOUS
10
48.9617
20
-63.8112
11
49.3077
21
-63.8772
0
LINE
8
BLACK
6
CONTINUOUS
10
49.3077
20
-63.8772
11
49.6589
21
-63.9043
0
LINE
8
BLACK
6
CONTINUOUS
10
49.6589
20
-63.9043
11
50.0109
21
-63.892
0
LINE
8
BLACK
6
CONTINUOUS
10
50.0109
20
-63.892
11
50.3594
21
-63.8405
0
LINE
8
BLACK
6
CONTINUOUS
10
50.3594
20
-63.8405
11
50.6999
21
-63.7505
0
LINE
8
BLACK
6
CONTINUOUS
10
50.6999
20
-63.7505
11
51.0283
21
-63.6232
0
LINE
8
BLACK
6
CONTINUOUS
10
51.0283
20
-63.6232
11
51.3405
21
-63.46
0
LINE
8
BLACK
6
CONTINUOUS
10
51.3405
20
-63.46
11
51.6325
21
-63.263
0
LINE
8
BLACK
6
CONTINUOUS
10
51.6325
20
-63.263
11
51.9007
21
-63.0347
0
LINE
8
BLACK
6
CONTINUOUS
10
51.9007
20
-63.0347
11
52.1418
21
-62.778
0
LINE
8
BLACK
6
CONTINUOUS
10
52.1418
20
-62.778
11
52.3528
21
-62.4959
0
LINE
8
BLACK
6
CONTINUOUS
10
52.3528
20
-62.4959
11
52.5311
21
-62.1921
0
LINE
8
BLACK
6
CONTINUOUS
10
52.5311
20
-62.1921
11
52.6743
21
-61.8703
0
LINE
8
BLACK
6
CONTINUOUS
10
52.6743
20
-61.8703
11
52.7808
21
-61.5346
0
LINE
8
BLACK
6
CONTINUOUS
10
52.7808
20
-61.5346
11
52.8493
21
-61.1891
0
LINE
8
BLACK
6
CONTINUOUS
10
52.8493
20
-61.1891
11
52.8787
21
-60.8381
0
LINE
8
BLACK
6
CONTINUOUS
10
52.8787
20
-60.8381
11
52.88
21
-60.75
0
LINE
8
BLACK
6
CONTINUOUS
10
52.88
20
-60.75
11
52.8603
21
-60.3983
0
LINE
8
BLACK
6
CONTINUOUS
10
52.8603
20
-60.3983
11
52.8016
21
-60.051
0
LINE
8
BLACK
6
CONTINUOUS
10
52.8016
20
-60.051
11
52.7045
21
-59.7124
0
LINE
8
BLACK
6
CONTINUOUS
10
52.7045
20
-59.7124
11
52.5702
21
-59.3868
0
LINE
8
BLACK
6
CONTINUOUS
10
52.5702
20
-59.3868
11
52.4006
21
-59.0781
0
LINE
8
BLACK
6
CONTINUOUS
10
52.4006
20
-59.0781
11
52.1975
21
-58.7903
0
LINE
8
BLACK
6
CONTINUOUS
10
52.1975
20
-58.7903
11
51.9637
21
-58.5269
0
LINE
8
BLACK
6
CONTINUOUS
10
51.9637
20
-58.5269
11
51.7019
21
-58.2912
0
LINE
8
BLACK
6
CONTINUOUS
10
51.7019
20
-58.2912
11
51.4155
21
-58.0862
0
LINE
8
BLACK
6
CONTINUOUS
10
51.4155
20
-58.0862
11
51.108
21
-57.9143
0
LINE
8
BLACK
6
CONTINUOUS
10
51.108
20
-57.9143
11
50.7833
21
-57.7778
0
LINE
8
BLACK
6
CONTINUOUS
10
50.7833
20
-57.7778
11
50.4454
21
-57.6784
0
LINE
8
BLACK
6
CONTINUOUS
10
50.4454
20
-57.6784
11
50.0986
21
-57.6172
0
LINE
8
BLACK
6
CONTINUOUS
10
50.0986
20
-57.6172
11
49.747
21
-57.5951
0
LINE
8
BLACK
6
CONTINUOUS
10
49.747
20
-57.5951
11
49.3952
21
-57.6123
0
LINE
8
BLACK
6
CONTINUOUS
10
49.3952
20
-57.6123
11
49.0475
21
-57.6686
0
LINE
8
BLACK
6
CONTINUOUS
10
49.0475
20
-57.6686
11
48.7083
21
-57.7634
0
LINE
8
BLACK
6
CONTINUOUS
10
48.7083
20
-57.7634
11
48.3817
21
-57.8953
0
LINE
8
BLACK
6
CONTINUOUS
10
48.3817
20
-57.8953
11
48.0718
21
-58.0628
0
LINE
8
BLACK
6
CONTINUOUS
10
48.0718
20
-58.0628
11
47.7826
21
-58.2639
0
LINE
8
BLACK
6
CONTINUOUS
10
47.7826
20
-58.2639
11
47.5176
21
-58.4959
0
LINE
8
BLACK
6
CONTINUOUS
10
47.5176
20
-58.4959
11
47.2801
21
-58.756
0
LINE
8
BLACK
6
CONTINUOUS
10
47.2801
20
-58.756
11
47.073
21
-59.0409
0
LINE
8
BLACK
6
CONTINUOUS
10
47.073
20
-59.0409
11
46.8991
21
-59.3472
0
LINE
8
BLACK
6
CONTINUOUS
10
46.8991
20
-59.3472
11
46.7603
21
-59.6709
0
LINE
8
BLACK
6
CONTINUOUS
10
46.7603
20
-59.6709
11
46.6585
21
-60.0081
0
LINE
8
BLACK
6
CONTINUOUS
10
46.6585
20
-60.0081
11
46.5949
21
-60.3546
0
LINE
8
BLACK
6
CONTINUOUS
10
46.5949
20
-60.3546
11
46.5703
21
-60.7059
0
LINE
8
BLACK
6
CONTINUOUS
10
46.5703
20
-60.7059
11
46.5851
21
-61.0579
0
LINE
8
BLACK
6
CONTINUOUS
10
46.5851
20
-61.0579
11
46.639
21
-61.406
0
LINE
8
BLACK
6
CONTINUOUS
10
64.9283
20
-60.041
11
65.0234
21
-59.7026
0
LINE
8
BLACK
6
CONTINUOUS
10
65.0234
20
-59.7026
11
65.1545
21
-59.3765
0
LINE
8
BLACK
6
CONTINUOUS
10
65.1545
20
-59.3765
11
65.3201
21
-59.0664
0
LINE
8
BLACK
6
CONTINUOUS
10
65.3201
20
-59.0664
11
65.5182
21
-58.776
0
LINE
8
BLACK
6
CONTINUOUS
10
65.5182
20
-58.776
11
65.7464
21
-58.5087
0
LINE
8
BLACK
6
CONTINUOUS
10
65.7464
20
-58.5087
11
66.0023
21
-58.2677
0
LINE
8
BLACK
6
CONTINUOUS
10
66.0023
20
-58.2677
11
66.2826
21
-58.0556
0
LINE
8
BLACK
6
CONTINUOUS
10
66.2826
20
-58.0556
11
66.5842
21
-57.8751
0
LINE
8
BLACK
6
CONTINUOUS
10
66.5842
20
-57.8751
11
66.9036
21
-57.7282
0
LINE
8
BLACK
6
CONTINUOUS
10
66.9036
20
-57.7282
11
67.2369
21
-57.6167
0
LINE
8
BLACK
6
CONTINUOUS
10
67.2369
20
-57.6167
11
67.5804
21
-57.5418
0
LINE
8
BLACK
6
CONTINUOUS
10
67.5804
20
-57.5418
11
67.9299
21
-57.5045
0
LINE
8
BLACK
6
CONTINUOUS
10
67.9299
20
-57.5045
11
68.2814
21
-57.5051
0
LINE
8
BLACK
6
CONTINUOUS
10
68.2814
20
-57.5051
11
68.6308
21
-57.5436
0
LINE
8
BLACK
6
CONTINUOUS
10
68.6308
20
-57.5436
11
68.974
21
-57.6197
0
LINE
8
BLACK
6
CONTINUOUS
10
68.974
20
-57.6197
11
69.3069
21
-57.7324
0
LINE
8
BLACK
6
CONTINUOUS
10
69.3069
20
-57.7324
11
69.6258
21
-57.8804
0
LINE
8
BLACK
6
CONTINUOUS
10
69.6258
20
-57.8804
11
69.9268
21
-58.062
0
LINE
8
BLACK
6
CONTINUOUS
10
69.9268
20
-58.062
11
70.2064
21
-58.275
0
LINE
8
BLACK
6
CONTINUOUS
10
70.2064
20
-58.275
11
70.4614
21
-58.517
0
LINE
8
BLACK
6
CONTINUOUS
10
70.4614
20
-58.517
11
70.6887
21
-58.7851
0
LINE
8
BLACK
6
CONTINUOUS
10
70.6887
20
-58.7851
11
70.8858
21
-59.0761
0
LINE
8
BLACK
6
CONTINUOUS
10
70.8858
20
-59.0761
11
71.0503
21
-59.3868
0
LINE
8
BLACK
6
CONTINUOUS
10
71.0503
20
-59.3868
11
71.1802
21
-59.7134
0
LINE
8
BLACK
6
CONTINUOUS
10
71.1802
20
-59.7134
11
71.2742
21
-60.0521
0
LINE
8
BLACK
6
CONTINUOUS
10
71.2742
20
-60.0521
11
71.331
21
-60.399
0
LINE
8
BLACK
6
CONTINUOUS
10
71.331
20
-60.399
11
71.35
21
-60.75
0
LINE
8
BLACK
6
CONTINUOUS
10
71.35
20
-60.75
11
71.3499
21
-60.7727
0
LINE
8
BLACK
6
CONTINUOUS
10
71.3499
20
-60.7727
11
71.3285
21
-61.1235
0
LINE
8
BLACK
6
CONTINUOUS
10
71.3285
20
-61.1235
11
71.2692
21
-61.47
0
LINE
8
BLACK
6
CONTINUOUS
10
71.2692
20
-61.47
11
71.1729
21
-61.8081
0
LINE
8
BLACK
6
CONTINUOUS
10
71.1729
20
-61.8081
11
71.0407
21
-62.1338
0
LINE
8
BLACK
6
CONTINUOUS
10
71.0407
20
-62.1338
11
70.874
21
-62.4433
0
LINE
8
BLACK
6
CONTINUOUS
10
70.874
20
-62.4433
11
70.6749
21
-62.733
0
LINE
8
BLACK
6
CONTINUOUS
10
70.6749
20
-62.733
11
70.4457
21
-62.9995
0
LINE
8
BLACK
6
CONTINUOUS
10
70.4457
20
-62.9995
11
70.1891
21
-63.2396
0
LINE
8
BLACK
6
CONTINUOUS
10
70.1891
20
-63.2396
11
69.908
21
-63.4507
0
LINE
8
BLACK
6
CONTINUOUS
10
69.908
20
-63.4507
11
69.6057
21
-63.6302
0
LINE
8
BLACK
6
CONTINUOUS
10
69.6057
20
-63.6302
11
69.2858
21
-63.7759
0
LINE
8
BLACK
6
CONTINUOUS
10
69.2858
20
-63.7759
11
68.9521
21
-63.8863
0
LINE
8
BLACK
6
CONTINUOUS
10
68.9521
20
-63.8863
11
68.6084
21
-63.96
0
LINE
8
BLACK
6
CONTINUOUS
10
68.6084
20
-63.96
11
68.2588
21
-63.9961
0
LINE
8
BLACK
6
CONTINUOUS
10
68.2588
20
-63.9961
11
67.9073
21
-63.9943
0
LINE
8
BLACK
6
CONTINUOUS
10
67.9073
20
-63.9943
11
67.558
21
-63.9545
0
LINE
8
BLACK
6
CONTINUOUS
10
67.558
20
-63.9545
11
67.2151
21
-63.8772
0
LINE
8
BLACK
6
CONTINUOUS
10
67.2151
20
-63.8772
11
66.8825
21
-63.7633
0
LINE
8
BLACK
6
CONTINUOUS
10
66.8825
20
-63.7633
11
66.5642
21
-63.6142
0
LINE
8
BLACK
6
CONTINUOUS
10
66.5642
20
-63.6142
11
66.2639
21
-63.4316
0
LINE
8
BLACK
6
CONTINUOUS
10
66.2639
20
-63.4316
11
65.985
21
-63.2176
0
LINE
8
BLACK
6
CONTINUOUS
10
65.985
20
-63.2176
11
65.7309
21
-62.9748
0
LINE
8
BLACK
6
CONTINUOUS
10
65.7309
20
-62.9748
11
65.5044
21
-62.7059
0
LINE
8
BLACK
6
CONTINUOUS
10
65.5044
20
-62.7059
11
65.3084
21
-62.4141
0
LINE
8
BLACK
6
CONTINUOUS
10
65.3084
20
-62.4141
11
65.145
21
-62.1029
0
LINE
8
BLACK
6
CONTINUOUS
10
65.145
20
-62.1029
11
65.0162
21
-61.7759
0
LINE
8
BLACK
6
CONTINUOUS
10
65.0162
20
-61.7759
11
64.9234
21
-61.4368
0
LINE
8
BLACK
6
CONTINUOUS
10
64.9234
20
-61.4368
11
64.8678
21
-61.0897
0
LINE
8
BLACK
6
CONTINUOUS
10
64.8678
20
-61.0897
11
64.85
21
-60.7387
0
LINE
8
BLACK
6
CONTINUOUS
10
64.85
20
-60.7387
11
64.8519
21
-60.7059
0
LINE
8
BLACK
6
CONTINUOUS
10
64.8519
20
-60.7059
11
64.8703
21
-60.3877
0
LINE
8
BLACK
6
CONTINUOUS
10
64.8703
20
-60.3877
11
64.9283
21
-60.041
0
LINE
8
BLACK
6
CONTINUOUS
10
65.014
20
-61.406
11
65.1063
21
-61.7459
0
LINE
8
BLACK
6
CONTINUOUS
10
65.1063
20
-61.7459
11
65.236
21
-62.0734
0
LINE
8
BLACK
6
CONTINUOUS
10
65.236
20
-62.0734
11
65.4014
21
-62.3844
0
LINE
8
BLACK
6
CONTINUOUS
10
65.4014
20
-62.3844
11
65.6004
21
-62.675
0
LINE
8
BLACK
6
CONTINUOUS
10
65.6004
20
-62.675
11
65.8305
21
-62.9416
0
LINE
8
BLACK
6
CONTINUOUS
10
65.8305
20
-62.9416
11
66.089
21
-63.1809
0
LINE
8
BLACK
6
CONTINUOUS
10
66.089
20
-63.1809
11
66.3725
21
-63.39
0
LINE
8
BLACK
6
CONTINUOUS
10
66.3725
20
-63.39
11
66.6775
21
-63.5661
0
LINE
8
BLACK
6
CONTINUOUS
10
66.6775
20
-63.5661
11
67.0003
21
-63.7071
0
LINE
8
BLACK
6
CONTINUOUS
10
67.0003
20
-63.7071
11
67.3367
21
-63.8112
0
LINE
8
BLACK
6
CONTINUOUS
10
67.3367
20
-63.8112
11
67.6827
21
-63.8772
0
LINE
8
BLACK
6
CONTINUOUS
10
67.6827
20
-63.8772
11
68.0339
21
-63.9043
0
LINE
8
BLACK
6
CONTINUOUS
10
68.0339
20
-63.9043
11
68.3859
21
-63.892
0
LINE
8
BLACK
6
CONTINUOUS
10
68.3859
20
-63.892
11
68.7344
21
-63.8405
0
LINE
8
BLACK
6
CONTINUOUS
10
68.7344
20
-63.8405
11
69.0749
21
-63.7505
0
LINE
8
BLACK
6
CONTINUOUS
10
69.0749
20
-63.7505
11
69.4033
21
-63.6232
0
LINE
8
BLACK
6
CONTINUOUS
10
69.4033
20
-63.6232
11
69.7155
21
-63.46
0
LINE
8
BLACK
6
CONTINUOUS
10
69.7155
20
-63.46
11
70.0075
21
-63.263
0
LINE
8
BLACK
6
CONTINUOUS
10
70.0075
20
-63.263
11
70.2757
21
-63.0347
0
LINE
8
BLACK
6
CONTINUOUS
10
70.2757
20
-63.0347
11
70.5168
21
-62.778
0
LINE
8
BLACK
6
CONTINUOUS
10
70.5168
20
-62.778
11
70.7278
21
-62.4959
0
LINE
8
BLACK
6
CONTINUOUS
10
70.7278
20
-62.4959
11
70.9061
21
-62.1921
0
LINE
8
BLACK
6
CONTINUOUS
10
70.9061
20
-62.1921
11
71.0493
21
-61.8703
0
LINE
8
BLACK
6
CONTINUOUS
10
71.0493
20
-61.8703
11
71.1558
21
-61.5346
0
LINE
8
BLACK
6
CONTINUOUS
10
71.1558
20
-61.5346
11
71.2243
21
-61.1891
0
LINE
8
BLACK
6
CONTINUOUS
10
71.2243
20
-61.1891
11
71.2537
21
-60.8381
0
LINE
8
BLACK
6
CONTINUOUS
10
71.2537
20
-60.8381
11
71.255
21
-60.75
0
LINE
8
BLACK
6
CONTINUOUS
10
71.255
20
-60.75
11
71.2353
21
-60.3983
0
LINE
8
BLACK
6
CONTINUOUS
10
71.2353
20
-60.3983
11
71.1766
21
-60.051
0
LINE
8
BLACK
6
CONTINUOUS
10
71.1766
20
-60.051
11
71.0795
21
-59.7124
0
LINE
8
BLACK
6
CONTINUOUS
10
71.0795
20
-59.7124
11
70.9452
21
-59.3868
0
LINE
8
BLACK
6
CONTINUOUS
10
70.9452
20
-59.3868
11
70.7756
21
-59.0781
0
LINE
8
BLACK
6
CONTINUOUS
10
70.7756
20
-59.0781
11
70.5725
21
-58.7903
0
LINE
8
BLACK
6
CONTINUOUS
10
70.5725
20
-58.7903
11
70.3387
21
-58.5269
0
LINE
8
BLACK
6
CONTINUOUS
10
70.3387
20
-58.5269
11
70.0769
21
-58.2912
0
LINE
8
BLACK
6
CONTINUOUS
10
70.0769
20
-58.2912
11
69.7905
21
-58.0862
0
LINE
8
BLACK
6
CONTINUOUS
10
69.7905
20
-58.0862
11
69.483
21
-57.9143
0
LINE
8
BLACK
6
CONTINUOUS
10
69.483
20
-57.9143
11
69.1583
21
-57.7778
0
LINE
8
BLACK
6
CONTINUOUS
10
69.1583
20
-57.7778
11
68.8204
21
-57.6784
0
LINE
8
BLACK
6
CONTINUOUS
10
68.8204
20
-57.6784
11
68.4736
21
-57.6172
0
LINE
8
BLACK
6
CONTINUOUS
10
68.4736
20
-57.6172
11
68.122
21
-57.5951
0
LINE
8
BLACK
6
CONTINUOUS
10
68.122
20
-57.5951
11
67.7702
21
-57.6123
0
LINE
8
BLACK
6
CONTINUOUS
10
67.7702
20
-57.6123
11
67.4225
21
-57.6686
0
LINE
8
BLACK
6
CONTINUOUS
10
67.4225
20
-57.6686
11
67.0833
21
-57.7634
0
LINE
8
BLACK
6
CONTINUOUS
10
67.0833
20
-57.7634
11
66.7567
21
-57.8953
0
LINE
8
BLACK
6
CONTINUOUS
10
66.7567
20
-57.8953
11
66.4468
21
-58.0628
0
LINE
8
BLACK
6
CONTINUOUS
10
66.4468
20
-58.0628
11
66.1576
21
-58.2639
0
LINE
8
BLACK
6
CONTINUOUS
10
66.1576
20
-58.2639
11
65.8926
21
-58.4959
0
LINE
8
BLACK
6
CONTINUOUS
10
65.8926
20
-58.4959
11
65.6551
21
-58.756
0
LINE
8
BLACK
6
CONTINUOUS
10
65.6551
20
-58.756
11
65.448
21
-59.0409
0
LINE
8
BLACK
6
CONTINUOUS
10
65.448
20
-59.0409
11
65.2741
21
-59.3472
0
LINE
8
BLACK
6
CONTINUOUS
10
65.2741
20
-59.3472
11
65.1353
21
-59.6709
0
LINE
8
BLACK
6
CONTINUOUS
10
65.1353
20
-59.6709
11
65.0335
21
-60.0081
0
LINE
8
BLACK
6
CONTINUOUS
10
65.0335
20
-60.0081
11
64.9699
21
-60.3546
0
LINE
8
BLACK
6
CONTINUOUS
10
64.9699
20
-60.3546
11
64.9453
21
-60.7059
0
LINE
8
BLACK
6
CONTINUOUS
10
64.9453
20
-60.7059
11
64.9601
21
-61.0579
0
LINE
8
BLACK
6
CONTINUOUS
10
64.9601
20
-61.0579
11
65.014
21
-61.406
0
LINE
8
BLACK
6
CONTINUOUS
10
9.92827
20
-60.041
11
10.0234
21
-59.7026
0
LINE
8
BLACK
6
CONTINUOUS
10
10.0234
20
-59.7026
11
10.1545
21
-59.3765
0
LINE
8
BLACK
6
CONTINUOUS
10
10.1545
20
-59.3765
11
10.3201
21
-59.0664
0
LINE
8
BLACK
6
CONTINUOUS
10
10.3201
20
-59.0664
11
10.5182
21
-58.776
0
LINE
8
BLACK
6
CONTINUOUS
10
10.5182
20
-58.776
11
10.7464
21
-58.5087
0
LINE
8
BLACK
6
CONTINUOUS
10
10.7464
20
-58.5087
11
11.0023
21
-58.2677
0
LINE
8
BLACK
6
CONTINUOUS
10
11.0023
20
-58.2677
11
11.2826
21
-58.0556
0
LINE
8
BLACK
6
CONTINUOUS
10
11.2826
20
-58.0556
11
11.5842
21
-57.8751
0
LINE
8
BLACK
6
CONTINUOUS
10
11.5842
20
-57.8751
11
11.9036
21
-57.7282
0
LINE
8
BLACK
6
CONTINUOUS
10
11.9036
20
-57.7282
11
12.2369
21
-57.6167
0
LINE
8
BLACK
6
CONTINUOUS
10
12.2369
20
-57.6167
11
12.5804
21
-57.5418
0
LINE
8
BLACK
6
CONTINUOUS
10
12.5804
20
-57.5418
11
12.9299
21
-57.5045
0
LINE
8
BLACK
6
CONTINUOUS
10
12.9299
20
-57.5045
11
13.2814
21
-57.5051
0
LINE
8
BLACK
6
CONTINUOUS
10
13.2814
20
-57.5051
11
13.6308
21
-57.5436
0
LINE
8
BLACK
6
CONTINUOUS
10
13.6308
20
-57.5436
11
13.974
21
-57.6197
0
LINE
8
BLACK
6
CONTINUOUS
10
13.974
20
-57.6197
11
14.3069
21
-57.7324
0
LINE
8
BLACK
6
CONTINUOUS
10
14.3069
20
-57.7324
11
14.6258
21
-57.8804
0
LINE
8
BLACK
6
CONTINUOUS
10
14.6258
20
-57.8804
11
14.9268
21
-58.062
0
LINE
8
BLACK
6
CONTINUOUS
10
14.9268
20
-58.062
11
15.2064
21
-58.275
0
LINE
8
BLACK
6
CONTINUOUS
10
15.2064
20
-58.275
11
15.4614
21
-58.517
0
LINE
8
BLACK
6
CONTINUOUS
10
15.4614
20
-58.517
11
15.6887
21
-58.7851
0
LINE
8
BLACK
6
CONTINUOUS
10
15.6887
20
-58.7851
11
15.8858
21
-59.0761
0
LINE
8
BLACK
6
CONTINUOUS
10
15.8858
20
-59.0761
11
16.0503
21
-59.3868
0
LINE
8
BLACK
6
CONTINUOUS
10
16.0503
20
-59.3868
11
16.1802
21
-59.7134
0
LINE
8
BLACK
6
CONTINUOUS
10
16.1802
20
-59.7134
11
16.2742
21
-60.0521
0
LINE
8
BLACK
6
CONTINUOUS
10
16.2742
20
-60.0521
11
16.331
21
-60.399
0
LINE
8
BLACK
6
CONTINUOUS
10
16.331
20
-60.399
11
16.35
21
-60.75
0
LINE
8
BLACK
6
CONTINUOUS
10
16.35
20
-60.75
11
16.3499
21
-60.7727
0
LINE
8
BLACK
6
CONTINUOUS
10
16.3499
20
-60.7727
11
16.3285
21
-61.1235
0
LINE
8
BLACK
6
CONTINUOUS
10
16.3285
20
-61.1235
11
16.2692
21
-61.47
0
LINE
8
BLACK
6
CONTINUOUS
10
16.2692
20
-61.47
11
16.1729
21
-61.8081
0
LINE
8
BLACK
6
CONTINUOUS
10
16.1729
20
-61.8081
11
16.0407
21
-62.1338
0
LINE
8
BLACK
6
CONTINUOUS
10
16.0407
20
-62.1338
11
15.874
21
-62.4433
0
LINE
8
BLACK
6
CONTINUOUS
10
15.874
20
-62.4433
11
15.6749
21
-62.733
0
LINE
8
BLACK
6
CONTINUOUS
10
15.6749
20
-62.733
11
15.4457
21
-62.9995
0
LINE
8
BLACK
6
CONTINUOUS
10
15.4457
20
-62.9995
11
15.1891
21
-63.2396
0
LINE
8
BLACK
6
CONTINUOUS
10
15.1891
20
-63.2396
11
14.908
21
-63.4507
0
LINE
8
BLACK
6
CONTINUOUS
10
14.908
20
-63.4507
11
14.6057
21
-63.6302
0
LINE
8
BLACK
6
CONTINUOUS
10
14.6057
20
-63.6302
11
14.2858
21
-63.7759
0
LINE
8
BLACK
6
CONTINUOUS
10
14.2858
20
-63.7759
11
13.9521
21
-63.8863
0
LINE
8
BLACK
6
CONTINUOUS
10
13.9521
20
-63.8863
11
13.6084
21
-63.96
0
LINE
8
BLACK
6
CONTINUOUS
10
13.6084
20
-63.96
11
13.2588
21
-63.9961
0
LINE
8
BLACK
6
CONTINUOUS
10
13.2588
20
-63.9961
11
12.9073
21
-63.9943
0
LINE
8
BLACK
6
CONTINUOUS
10
12.9073
20
-63.9943
11
12.558
21
-63.9545
0
LINE
8
BLACK
6
CONTINUOUS
10
12.558
20
-63.9545
11
12.2151
21
-63.8772
0
LINE
8
BLACK
6
CONTINUOUS
10
12.2151
20
-63.8772
11
11.8825
21
-63.7633
0
LINE
8
BLACK
6
CONTINUOUS
10
11.8825
20
-63.7633
11
11.5642
21
-63.6142
0
LINE
8
BLACK
6
CONTINUOUS
10
11.5642
20
-63.6142
11
11.2639
21
-63.4316
0
LINE
8
BLACK
6
CONTINUOUS
10
11.2639
20
-63.4316
11
10.985
21
-63.2176
0
LINE
8
BLACK
6
CONTINUOUS
10
10.985
20
-63.2176
11
10.7309
21
-62.9748
0
LINE
8
BLACK
6
CONTINUOUS
10
10.7309
20
-62.9748
11
10.5044
21
-62.7059
0
LINE
8
BLACK
6
CONTINUOUS
10
10.5044
20
-62.7059
11
10.3084
21
-62.4141
0
LINE
8
BLACK
6
CONTINUOUS
10
10.3084
20
-62.4141
11
10.145
21
-62.1029
0
LINE
8
BLACK
6
CONTINUOUS
10
10.145
20
-62.1029
11
10.0162
21
-61.7759
0
LINE
8
BLACK
6
CONTINUOUS
10
10.0162
20
-61.7759
11
9.9234
21
-61.4368
0
LINE
8
BLACK
6
CONTINUOUS
10
9.9234
20
-61.4368
11
9.8678
21
-61.0897
0
LINE
8
BLACK
6
CONTINUOUS
10
9.8678
20
-61.0897
11
9.85002
21
-60.7387
0
LINE
8
BLACK
6
CONTINUOUS
10
9.85002
20
-60.7387
11
9.85191
21
-60.7059
0
LINE
8
BLACK
6
CONTINUOUS
10
9.85191
20
-60.7059
11
9.87025
21
-60.3877
0
LINE
8
BLACK
6
CONTINUOUS
10
9.87025
20
-60.3877
11
9.92827
21
-60.041
0
LINE
8
BLACK
6
CONTINUOUS
10
10.014
20
-61.406
11
10.1063
21
-61.7459
0
LINE
8
BLACK
6
CONTINUOUS
10
10.1063
20
-61.7459
11
10.236
21
-62.0734
0
LINE
8
BLACK
6
CONTINUOUS
10
10.236
20
-62.0734
11
10.4014
21
-62.3844
0
LINE
8
BLACK
6
CONTINUOUS
10
10.4014
20
-62.3844
11
10.6004
21
-62.675
0
LINE
8
BLACK
6
CONTINUOUS
10
10.6004
20
-62.675
11
10.8305
21
-62.9416
0
LINE
8
BLACK
6
CONTINUOUS
10
10.8305
20
-62.9416
11
11.089
21
-63.1809
0
LINE
8
BLACK
6
CONTINUOUS
10
11.089
20
-63.1809
11
11.3725
21
-63.39
0
LINE
8
BLACK
6
CONTINUOUS
10
11.3725
20
-63.39
11
11.6775
21
-63.5661
0
LINE
8
BLACK
6
CONTINUOUS
10
11.6775
20
-63.5661
11
12.0003
21
-63.7071
0
LINE
8
BLACK
6
CONTINUOUS
10
12.0003
20
-63.7071
11
12.3367
21
-63.8112
0
LINE
8
BLACK
6
CONTINUOUS
10
12.3367
20
-63.8112
11
12.6827
21
-63.8772
0
LINE
8
BLACK
6
CONTINUOUS
10
12.6827
20
-63.8772
11
13.0339
21
-63.9043
0
LINE
8
BLACK
6
CONTINUOUS
10
13.0339
20
-63.9043
11
13.3859
21
-63.892
0
LINE
8
BLACK
6
CONTINUOUS
10
13.3859
20
-63.892
11
13.7344
21
-63.8405
0
LINE
8
BLACK
6
CONTINUOUS
10
13.7344
20
-63.8405
11
14.0749
21
-63.7505
0
LINE
8
BLACK
6
CONTINUOUS
10
14.0749
20
-63.7505
11
14.4033
21
-63.6232
0
LINE
8
BLACK
6
CONTINUOUS
10
14.4033
20
-63.6232
11
14.7155
21
-63.46
0
LINE
8
BLACK
6
CONTINUOUS
10
14.7155
20
-63.46
11
15.0075
21
-63.263
0
LINE
8
BLACK
6
CONTINUOUS
10
15.0075
20
-63.263
11
15.2757
21
-63.0347
0
LINE
8
BLACK
6
CONTINUOUS
10
15.2757
20
-63.0347
11
15.5168
21
-62.778
0
LINE
8
BLACK
6
CONTINUOUS
10
15.5168
20
-62.778
11
15.7278
21
-62.4959
0
LINE
8
BLACK
6
CONTINUOUS
10
15.7278
20
-62.4959
11
15.9061
21
-62.1921
0
LINE
8
BLACK
6
CONTINUOUS
10
15.9061
20
-62.1921
11
16.0493
21
-61.8703
0
LINE
8
BLACK
6
CONTINUOUS
10
16.0493
20
-61.8703
11
16.1558
21
-61.5346
0
LINE
8
BLACK
6
CONTINUOUS
10
16.1558
20
-61.5346
11
16.2243
21
-61.1891
0
LINE
8
BLACK
6
CONTINUOUS
10
16.2243
20
-61.1891
11
16.2537
21
-60.8381
0
LINE
8
BLACK
6
CONTINUOUS
10
16.2537
20
-60.8381
11
16.255
21
-60.75
0
LINE
8
BLACK
6
CONTINUOUS
10
16.255
20
-60.75
11
16.2353
21
-60.3983
0
LINE
8
BLACK
6
CONTINUOUS
10
16.2353
20
-60.3983
11
16.1766
21
-60.051
0
LINE
8
BLACK
6
CONTINUOUS
10
16.1766
20
-60.051
11
16.0795
21
-59.7124
0
LINE
8
BLACK
6
CONTINUOUS
10
16.0795
20
-59.7124
11
15.9452
21
-59.3868
0
LINE
8
BLACK
6
CONTINUOUS
10
15.9452
20
-59.3868
11
15.7756
21
-59.0781
0
LINE
8
BLACK
6
CONTINUOUS
10
15.7756
20
-59.0781
11
15.5725
21
-58.7903
0
LINE
8
BLACK
6
CONTINUOUS
10
15.5725
20
-58.7903
11
15.3387
21
-58.5269
0
LINE
8
BLACK
6
CONTINUOUS
10
15.3387
20
-58.5269
11
15.0769
21
-58.2912
0
LINE
8
BLACK
6
CONTINUOUS
10
15.0769
20
-58.2912
11
14.7905
21
-58.0862
0
LINE
8
BLACK
6
CONTINUOUS
10
14.7905
20
-58.0862
11
14.483
21
-57.9143
0
LINE
8
BLACK
6
CONTINUOUS
10
14.483
20
-57.9143
11
14.1583
21
-57.7778
0
LINE
8
BLACK
6
CONTINUOUS
10
14.1583
20
-57.7778
11
13.8204
21
-57.6784
0
LINE
8
BLACK
6
CONTINUOUS
10
13.8204
20
-57.6784
11
13.4736
21
-57.6172
0
LINE
8
BLACK
6
CONTINUOUS
10
13.4736
20
-57.6172
11
13.122
21
-57.5951
0
LINE
8
BLACK
6
CONTINUOUS
10
13.122
20
-57.5951
11
12.7702
21
-57.6123
0
LINE
8
BLACK
6
CONTINUOUS
10
12.7702
20
-57.6123
11
12.4225
21
-57.6686
0
LINE
8
BLACK
6
CONTINUOUS
10
12.4225
20
-57.6686
11
12.0833
21
-57.7634
0
LINE
8
BLACK
6
CONTINUOUS
10
12.0833
20
-57.7634
11
11.7567
21
-57.8953
0
LINE
8
BLACK
6
CONTINUOUS
10
11.7567
20
-57.8953
11
11.4468
21
-58.0628
0
LINE
8
BLACK
6
CONTINUOUS
10
11.4468
20
-58.0628
11
11.1576
21
-58.2639
0
LINE
8
BLACK
6
CONTINUOUS
10
11.1576
20
-58.2639
11
10.8926
21
-58.4959
0
LINE
8
BLACK
6
CONTINUOUS
10
10.8926
20
-58.4959
11
10.6551
21
-58.756
0
LINE
8
BLACK
6
CONTINUOUS
10
10.6551
20
-58.756
11
10.448
21
-59.0409
0
LINE
8
BLACK
6
CONTINUOUS
10
10.448
20
-59.0409
11
10.2741
21
-59.3472
0
LINE
8
BLACK
6
CONTINUOUS
10
10.2741
20
-59.3472
11
10.1353
21
-59.6709
0
LINE
8
BLACK
6
CONTINUOUS
10
10.1353
20
-59.6709
11
10.0335
21
-60.0081
0
LINE
8
BLACK
6
CONTINUOUS
10
10.0335
20
-60.0081
11
9.96992
21
-60.3546
0
LINE
8
BLACK
6
CONTINUOUS
10
9.96992
20
-60.3546
11
9.94534
21
-60.7059
0
LINE
8
BLACK
6
CONTINUOUS
10
9.94534
20
-60.7059
11
9.96009
21
-61.0579
0
LINE
8
BLACK
6
CONTINUOUS
10
9.96009
20
-61.0579
11
10.014
21
-61.406
0
LINE
8
BLACK
6
CONTINUOUS
10
28.3033
20
-60.041
11
28.3984
21
-59.7026
0
LINE
8
BLACK
6
CONTINUOUS
10
28.3984
20
-59.7026
11
28.5295
21
-59.3765
0
LINE
8
BLACK
6
CONTINUOUS
10
28.5295
20
-59.3765
11
28.6951
21
-59.0664
0
LINE
8
BLACK
6
CONTINUOUS
10
28.6951
20
-59.0664
11
28.8932
21
-58.776
0
LINE
8
BLACK
6
CONTINUOUS
10
28.8932
20
-58.776
11
29.1214
21
-58.5087
0
LINE
8
BLACK
6
CONTINUOUS
10
29.1214
20
-58.5087
11
29.3773
21
-58.2677
0
LINE
8
BLACK
6
CONTINUOUS
10
29.3773
20
-58.2677
11
29.6576
21
-58.0556
0
LINE
8
BLACK
6
CONTINUOUS
10
29.6576
20
-58.0556
11
29.9592
21
-57.8751
0
LINE
8
BLACK
6
CONTINUOUS
10
29.9592
20
-57.8751
11
30.2786
21
-57.7282
0
LINE
8
BLACK
6
CONTINUOUS
10
30.2786
20
-57.7282
11
30.6119
21
-57.6167
0
LINE
8
BLACK
6
CONTINUOUS
10
30.6119
20
-57.6167
11
30.9554
21
-57.5418
0
LINE
8
BLACK
6
CONTINUOUS
10
30.9554
20
-57.5418
11
31.3049
21
-57.5045
0
LINE
8
BLACK
6
CONTINUOUS
10
31.3049
20
-57.5045
11
31.6564
21
-57.5051
0
LINE
8
BLACK
6
CONTINUOUS
10
31.6564
20
-57.5051
11
32.0058
21
-57.5436
0
LINE
8
BLACK
6
CONTINUOUS
10
32.0058
20
-57.5436
11
32.349
21
-57.6197
0
LINE
8
BLACK
6
CONTINUOUS
10
32.349
20
-57.6197
11
32.6819
21
-57.7324
0
LINE
8
BLACK
6
CONTINUOUS
10
32.6819
20
-57.7324
11
33.0008
21
-57.8804
0
LINE
8
BLACK
6
CONTINUOUS
10
33.0008
20
-57.8804
11
33.3018
21
-58.062
0
LINE
8
BLACK
6
CONTINUOUS
10
33.3018
20
-58.062
11
33.5814
21
-58.275
0
LINE
8
BLACK
6
CONTINUOUS
10
33.5814
20
-58.275
11
33.8364
21
-58.517
0
LINE
8
BLACK
6
CONTINUOUS
10
33.8364
20
-58.517
11
34.0637
21
-58.7851
0
LINE
8
BLACK
6
CONTINUOUS
10
34.0637
20
-58.7851
11
34.2608
21
-59.0761
0
LINE
8
BLACK
6
CONTINUOUS
10
34.2608
20
-59.0761
11
34.4253
21
-59.3868
0
LINE
8
BLACK
6
CONTINUOUS
10
34.4253
20
-59.3868
11
34.5552
21
-59.7134
0
LINE
8
BLACK
6
CONTINUOUS
10
34.5552
20
-59.7134
11
34.6492
21
-60.0521
0
LINE
8
BLACK
6
CONTINUOUS
10
34.6492
20
-60.0521
11
34.706
21
-60.399
0
LINE
8
BLACK
6
CONTINUOUS
10
34.706
20
-60.399
11
34.725
21
-60.75
0
LINE
8
BLACK
6
CONTINUOUS
10
34.725
20
-60.75
11
34.7249
21
-60.7727
0
LINE
8
BLACK
6
CONTINUOUS
10
34.7249
20
-60.7727
11
34.7035
21
-61.1235
0
LINE
8
BLACK
6
CONTINUOUS
10
34.7035
20
-61.1235
11
34.6442
21
-61.47
0
LINE
8
BLACK
6
CONTINUOUS
10
34.6442
20
-61.47
11
34.5479
21
-61.8081
0
LINE
8
BLACK
6
CONTINUOUS
10
34.5479
20
-61.8081
11
34.4157
21
-62.1338
0
LINE
8
BLACK
6
CONTINUOUS
10
34.4157
20
-62.1338
11
34.249
21
-62.4433
0
LINE
8
BLACK
6
CONTINUOUS
10
34.249
20
-62.4433
11
34.0499
21
-62.733
0
LINE
8
BLACK
6
CONTINUOUS
10
34.0499
20
-62.733
11
33.8207
21
-62.9995
0
LINE
8
BLACK
6
CONTINUOUS
10
33.8207
20
-62.9995
11
33.5641
21
-63.2396
0
LINE
8
BLACK
6
CONTINUOUS
10
33.5641
20
-63.2396
11
33.283
21
-63.4507
0
LINE
8
BLACK
6
CONTINUOUS
10
33.283
20
-63.4507
11
32.9807
21
-63.6302
0
LINE
8
BLACK
6
CONTINUOUS
10
32.9807
20
-63.6302
11
32.6608
21
-63.7759
0
LINE
8
BLACK
6
CONTINUOUS
10
32.6608
20
-63.7759
11
32.3271
21
-63.8863
0
LINE
8
BLACK
6
CONTINUOUS
10
32.3271
20
-63.8863
11
31.9834
21
-63.96
0
LINE
8
BLACK
6
CONTINUOUS
10
31.9834
20
-63.96
11
31.6338
21
-63.9961
0
LINE
8
BLACK
6
CONTINUOUS
10
31.6338
20
-63.9961
11
31.2823
21
-63.9943
0
LINE
8
BLACK
6
CONTINUOUS
10
31.2823
20
-63.9943
11
30.933
21
-63.9545
0
LINE
8
BLACK
6
CONTINUOUS
10
30.933
20
-63.9545
11
30.5901
21
-63.8772
0
LINE
8
BLACK
6
CONTINUOUS
10
30.5901
20
-63.8772
11
30.2575
21
-63.7633
0
LINE
8
BLACK
6
CONTINUOUS
10
30.2575
20
-63.7633
11
29.9392
21
-63.6142
0
LINE
8
BLACK
6
CONTINUOUS
10
29.9392
20
-63.6142
11
29.6389
21
-63.4316
0
LINE
8
BLACK
6
CONTINUOUS
10
29.6389
20
-63.4316
11
29.36
21
-63.2176
0
LINE
8
BLACK
6
CONTINUOUS
10
29.36
20
-63.2176
11
29.1059
21
-62.9748
0
LINE
8
BLACK
6
CONTINUOUS
10
29.1059
20
-62.9748
11
28.8794
21
-62.7059
0
LINE
8
BLACK
6
CONTINUOUS
10
28.8794
20
-62.7059
11
28.6834
21
-62.4141
0
LINE
8
BLACK
6
CONTINUOUS
10
28.6834
20
-62.4141
11
28.52
21
-62.1029
0
LINE
8
BLACK
6
CONTINUOUS
10
28.52
20
-62.1029
11
28.3912
21
-61.7759
0
LINE
8
BLACK
6
CONTINUOUS
10
28.3912
20
-61.7759
11
28.2984
21
-61.4368
0
LINE
8
BLACK
6
CONTINUOUS
10
28.2984
20
-61.4368
11
28.2428
21
-61.0897
0
LINE
8
BLACK
6
CONTINUOUS
10
28.2428
20
-61.0897
11
28.225
21
-60.7387
0
LINE
8
BLACK
6
CONTINUOUS
10
28.225
20
-60.7387
11
28.2269
21
-60.7059
0
LINE
8
BLACK
6
CONTINUOUS
10
28.2269
20
-60.7059
11
28.2453
21
-60.3877
0
LINE
8
BLACK
6
CONTINUOUS
10
28.2453
20
-60.3877
11
28.3033
21
-60.041
0
LINE
8
BLACK
6
CONTINUOUS
10
28.389
20
-61.406
11
28.4813
21
-61.7459
0
LINE
8
BLACK
6
CONTINUOUS
10
28.4813
20
-61.7459
11
28.611
21
-62.0734
0
LINE
8
BLACK
6
CONTINUOUS
10
28.611
20
-62.0734
11
28.7764
21
-62.3844
0
LINE
8
BLACK
6
CONTINUOUS
10
28.7764
20
-62.3844
11
28.9754
21
-62.675
0
LINE
8
BLACK
6
CONTINUOUS
10
28.9754
20
-62.675
11
29.2055
21
-62.9416
0
LINE
8
BLACK
6
CONTINUOUS
10
29.2055
20
-62.9416
11
29.464
21
-63.1809
0
LINE
8
BLACK
6
CONTINUOUS
10
29.464
20
-63.1809
11
29.7475
21
-63.39
0
LINE
8
BLACK
6
CONTINUOUS
10
29.7475
20
-63.39
11
30.0525
21
-63.5661
0
LINE
8
BLACK
6
CONTINUOUS
10
30.0525
20
-63.5661
11
30.3753
21
-63.7071
0
LINE
8
BLACK
6
CONTINUOUS
10
30.3753
20
-63.7071
11
30.7117
21
-63.8112
0
LINE
8
BLACK
6
CONTINUOUS
10
30.7117
20
-63.8112
11
31.0577
21
-63.8772
0
LINE
8
BLACK
6
CONTINUOUS
10
31.0577
20
-63.8772
11
31.4089
21
-63.9043
0
LINE
8
BLACK
6
CONTINUOUS
10
31.4089
20
-63.9043
11
31.7609
21
-63.892
0
LINE
8
BLACK
6
CONTINUOUS
10
31.7609
20
-63.892
11
32.1094
21
-63.8405
0
LINE
8
BLACK
6
CONTINUOUS
10
32.1094
20
-63.8405
11
32.4499
21
-63.7505
0
LINE
8
BLACK
6
CONTINUOUS
10
32.4499
20
-63.7505
11
32.7783
21
-63.6232
0
LINE
8
BLACK
6
CONTINUOUS
10
32.7783
20
-63.6232
11
33.0905
21
-63.46
0
LINE
8
BLACK
6
CONTINUOUS
10
33.0905
20
-63.46
11
33.3825
21
-63.263
0
LINE
8
BLACK
6
CONTINUOUS
10
33.3825
20
-63.263
11
33.6507
21
-63.0347
0
LINE
8
BLACK
6
CONTINUOUS
10
33.6507
20
-63.0347
11
33.8918
21
-62.778
0
LINE
8
BLACK
6
CONTINUOUS
10
33.8918
20
-62.778
11
34.1028
21
-62.4959
0
LINE
8
BLACK
6
CONTINUOUS
10
34.1028
20
-62.4959
11
34.2811
21
-62.1921
0
LINE
8
BLACK
6
CONTINUOUS
10
34.2811
20
-62.1921
11
34.4243
21
-61.8703
0
LINE
8
BLACK
6
CONTINUOUS
10
34.4243
20
-61.8703
11
34.5308
21
-61.5346
0
LINE
8
BLACK
6
CONTINUOUS
10
34.5308
20
-61.5346
11
34.5993
21
-61.1891
0
LINE
8
BLACK
6
CONTINUOUS
10
34.5993
20
-61.1891
11
34.6287
21
-60.8381
0
LINE
8
BLACK
6
CONTINUOUS
10
34.6287
20
-60.8381
11
34.63
21
-60.75
0
LINE
8
BLACK
6
CONTINUOUS
10
34.63
20
-60.75
11
34.6103
21
-60.3983
0
LINE
8
BLACK
6
CONTINUOUS
10
34.6103
20
-60.3983
11
34.5516
21
-60.051
0
LINE
8
BLACK
6
CONTINUOUS
10
34.5516
20
-60.051
11
34.4545
21
-59.7124
0
LINE
8
BLACK
6
CONTINUOUS
10
34.4545
20
-59.7124
11
34.3202
21
-59.3868
0
LINE
8
BLACK
6
CONTINUOUS
10
34.3202
20
-59.3868
11
34.1506
21
-59.0781
0
LINE
8
BLACK
6
CONTINUOUS
10
34.1506
20
-59.0781
11
33.9475
21
-58.7903
0
LINE
8
BLACK
6
CONTINUOUS
10
33.9475
20
-58.7903
11
33.7137
21
-58.5269
0
LINE
8
BLACK
6
CONTINUOUS
10
33.7137
20
-58.5269
11
33.4519
21
-58.2912
0
LINE
8
BLACK
6
CONTINUOUS
10
33.4519
20
-58.2912
11
33.1655
21
-58.0862
0
LINE
8
BLACK
6
CONTINUOUS
10
33.1655
20
-58.0862
11
32.858
21
-57.9143
0
LINE
8
BLACK
6
CONTINUOUS
10
32.858
20
-57.9143
11
32.5333
21
-57.7778
0
LINE
8
BLACK
6
CONTINUOUS
10
32.5333
20
-57.7778
11
32.1954
21
-57.6784
0
LINE
8
BLACK
6
CONTINUOUS
10
32.1954
20
-57.6784
11
31.8486
21
-57.6172
0
LINE
8
BLACK
6
CONTINUOUS
10
31.8486
20
-57.6172
11
31.497
21
-57.5951
0
LINE
8
BLACK
6
CONTINUOUS
10
31.497
20
-57.5951
11
31.1452
21
-57.6123
0
LINE
8
BLACK
6
CONTINUOUS
10
31.1452
20
-57.6123
11
30.7975
21
-57.6686
0
LINE
8
BLACK
6
CONTINUOUS
10
30.7975
20
-57.6686
11
30.4583
21
-57.7634
0
LINE
8
BLACK
6
CONTINUOUS
10
30.4583
20
-57.7634
11
30.1317
21
-57.8953
0
LINE
8
BLACK
6
CONTINUOUS
10
30.1317
20
-57.8953
11
29.8218
21
-58.0628
0
LINE
8
BLACK
6
CONTINUOUS
10
29.8218
20
-58.0628
11
29.5326
21
-58.2639
0
LINE
8
BLACK
6
CONTINUOUS
10
29.5326
20
-58.2639
11
29.2676
21
-58.4959
0
LINE
8
BLACK
6
CONTINUOUS
10
29.2676
20
-58.4959
11
29.0301
21
-58.756
0
LINE
8
BLACK
6
CONTINUOUS
10
29.0301
20
-58.756
11
28.823
21
-59.0409
0
LINE
8
BLACK
6
CONTINUOUS
10
28.823
20
-59.0409
11
28.6491
21
-59.3472
0
LINE
8
BLACK
6
CONTINUOUS
10
28.6491
20
-59.3472
11
28.5103
21
-59.6709
0
LINE
8
BLACK
6
CONTINUOUS
10
28.5103
20
-59.6709
11
28.4085
21
-60.0081
0
LINE
8
BLACK
6
CONTINUOUS
10
28.4085
20
-60.0081
11
28.3449
21
-60.3546
0
LINE
8
BLACK
6
CONTINUOUS
10
28.3449
20
-60.3546
11
28.3203
21
-60.7059
0
LINE
8
BLACK
6
CONTINUOUS
10
28.3203
20
-60.7059
11
28.3351
21
-61.0579
0
LINE
8
BLACK
6
CONTINUOUS
10
28.3351
20
-61.0579
11
28.389
21
-61.406
0
LINE
8
BLACK
6
CONTINUOUS
10
28.3033
20
-40.041
11
28.3984
21
-39.7026
0
LINE
8
BLACK
6
CONTINUOUS
10
28.3984
20
-39.7026
11
28.5295
21
-39.3765
0
LINE
8
BLACK
6
CONTINUOUS
10
28.5295
20
-39.3765
11
28.6951
21
-39.0664
0
LINE
8
BLACK
6
CONTINUOUS
10
28.6951
20
-39.0664
11
28.8932
21
-38.776
0
LINE
8
BLACK
6
CONTINUOUS
10
28.8932
20
-38.776
11
29.1214
21
-38.5087
0
LINE
8
BLACK
6
CONTINUOUS
10
29.1214
20
-38.5087
11
29.3773
21
-38.2677
0
LINE
8
BLACK
6
CONTINUOUS
10
29.3773
20
-38.2677
11
29.6576
21
-38.0556
0
LINE
8
BLACK
6
CONTINUOUS
10
29.6576
20
-38.0556
11
29.9592
21
-37.8751
0
LINE
8
BLACK
6
CONTINUOUS
10
29.9592
20
-37.8751
11
30.2786
21
-37.7282
0
LINE
8
BLACK
6
CONTINUOUS
10
30.2786
20
-37.7282
11
30.6119
21
-37.6167
0
LINE
8
BLACK
6
CONTINUOUS
10
30.6119
20
-37.6167
11
30.9554
21
-37.5418
0
LINE
8
BLACK
6
CONTINUOUS
10
30.9554
20
-37.5418
11
31.3049
21
-37.5045
0
LINE
8
BLACK
6
CONTINUOUS
10
31.3049
20
-37.5045
11
31.6564
21
-37.5051
0
LINE
8
BLACK
6
CONTINUOUS
10
31.6564
20
-37.5051
11
32.0058
21
-37.5436
0
LINE
8
BLACK
6
CONTINUOUS
10
32.0058
20
-37.5436
11
32.349
21
-37.6197
0
LINE
8
BLACK
6
CONTINUOUS
10
32.349
20
-37.6197
11
32.6819
21
-37.7324
0
LINE
8
BLACK
6
CONTINUOUS
10
32.6819
20
-37.7324
11
33.0008
21
-37.8804
0
LINE
8
BLACK
6
CONTINUOUS
10
33.0008
20
-37.8804
11
33.3018
21
-38.062
0
LINE
8
BLACK
6
CONTINUOUS
10
33.3018
20
-38.062
11
33.5814
21
-38.275
0
LINE
8
BLACK
6
CONTINUOUS
10
33.5814
20
-38.275
11
33.8364
21
-38.517
0
LINE
8
BLACK
6
CONTINUOUS
10
33.8364
20
-38.517
11
34.0637
21
-38.7851
0
LINE
8
BLACK
6
CONTINUOUS
10
34.0637
20
-38.7851
11
34.2608
21
-39.0761
0
LINE
8
BLACK
6
CONTINUOUS
10
34.2608
20
-39.0761
11
34.4253
21
-39.3868
0
LINE
8
BLACK
6
CONTINUOUS
10
34.4253
20
-39.3868
11
34.5552
21
-39.7134
0
LINE
8
BLACK
6
CONTINUOUS
10
34.5552
20
-39.7134
11
34.6492
21
-40.0521
0
LINE
8
BLACK
6
CONTINUOUS
10
34.6492
20
-40.0521
11
34.706
21
-40.399
0
LINE
8
BLACK
6
CONTINUOUS
10
34.706
20
-40.399
11
34.725
21
-40.75
0
LINE
8
BLACK
6
CONTINUOUS
10
34.725
20
-40.75
11
34.7249
21
-40.7727
0
LINE
8
BLACK
6
CONTINUOUS
10
34.7249
20
-40.7727
11
34.7035
21
-41.1235
0
LINE
8
BLACK
6
CONTINUOUS
10
34.7035
20
-41.1235
11
34.6442
21
-41.47
0
LINE
8
BLACK
6
CONTINUOUS
10
34.6442
20
-41.47
11
34.5479
21
-41.8081
0
LINE
8
BLACK
6
CONTINUOUS
10
34.5479
20
-41.8081
11
34.4157
21
-42.1338
0
LINE
8
BLACK
6
CONTINUOUS
10
34.4157
20
-42.1338
11
34.249
21
-42.4433
0
LINE
8
BLACK
6
CONTINUOUS
10
34.249
20
-42.4433
11
34.0499
21
-42.733
0
LINE
8
BLACK
6
CONTINUOUS
10
34.0499
20
-42.733
11
33.8207
21
-42.9995
0
LINE
8
BLACK
6
CONTINUOUS
10
33.8207
20
-42.9995
11
33.5641
21
-43.2396
0
LINE
8
BLACK
6
CONTINUOUS
10
33.5641
20
-43.2396
11
33.283
21
-43.4507
0
LINE
8
BLACK
6
CONTINUOUS
10
33.283
20
-43.4507
11
32.9807
21
-43.6302
0
LINE
8
BLACK
6
CONTINUOUS
10
32.9807
20
-43.6302
11
32.6608
21
-43.7759
0
LINE
8
BLACK
6
CONTINUOUS
10
32.6608
20
-43.7759
11
32.3271
21
-43.8863
0
LINE
8
BLACK
6
CONTINUOUS
10
32.3271
20
-43.8863
11
31.9834
21
-43.96
0
LINE
8
BLACK
6
CONTINUOUS
10
31.9834
20
-43.96
11
31.6338
21
-43.9961
0
LINE
8
BLACK
6
CONTINUOUS
10
31.6338
20
-43.9961
11
31.2823
21
-43.9943
0
LINE
8
BLACK
6
CONTINUOUS
10
31.2823
20
-43.9943
11
30.933
21
-43.9545
0
LINE
8
BLACK
6
CONTINUOUS
10
30.933
20
-43.9545
11
30.5901
21
-43.8772
0
LINE
8
BLACK
6
CONTINUOUS
10
30.5901
20
-43.8772
11
30.2575
21
-43.7633
0
LINE
8
BLACK
6
CONTINUOUS
10
30.2575
20
-43.7633
11
29.9392
21
-43.6142
0
LINE
8
BLACK
6
CONTINUOUS
10
29.9392
20
-43.6142
11
29.6389
21
-43.4316
0
LINE
8
BLACK
6
CONTINUOUS
10
29.6389
20
-43.4316
11
29.36
21
-43.2176
0
LINE
8
BLACK
6
CONTINUOUS
10
29.36
20
-43.2176
11
29.1059
21
-42.9748
0
LINE
8
BLACK
6
CONTINUOUS
10
29.1059
20
-42.9748
11
28.8794
21
-42.7059
0
LINE
8
BLACK
6
CONTINUOUS
10
28.8794
20
-42.7059
11
28.6834
21
-42.4141
0
LINE
8
BLACK
6
CONTINUOUS
10
28.6834
20
-42.4141
11
28.52
21
-42.1029
0
LINE
8
BLACK
6
CONTINUOUS
10
28.52
20
-42.1029
11
28.3912
21
-41.7759
0
LINE
8
BLACK
6
CONTINUOUS
10
28.3912
20
-41.7759
11
28.2984
21
-41.4368
0
LINE
8
BLACK
6
CONTINUOUS
10
28.2984
20
-41.4368
11
28.2428
21
-41.0897
0
LINE
8
BLACK
6
CONTINUOUS
10
28.2428
20
-41.0897
11
28.225
21
-40.7387
0
LINE
8
BLACK
6
CONTINUOUS
10
28.225
20
-40.7387
11
28.2269
21
-40.706
0
LINE
8
BLACK
6
CONTINUOUS
10
28.2269
20
-40.706
11
28.2453
21
-40.3877
0
LINE
8
BLACK
6
CONTINUOUS
10
28.2453
20
-40.3877
11
28.3033
21
-40.041
0
LINE
8
BLACK
6
CONTINUOUS
10
28.389
20
-41.406
11
28.4813
21
-41.7459
0
LINE
8
BLACK
6
CONTINUOUS
10
28.4813
20
-41.7459
11
28.611
21
-42.0734
0
LINE
8
BLACK
6
CONTINUOUS
10
28.611
20
-42.0734
11
28.7764
21
-42.3844
0
LINE
8
BLACK
6
CONTINUOUS
10
28.7764
20
-42.3844
11
28.9754
21
-42.675
0
LINE
8
BLACK
6
CONTINUOUS
10
28.9754
20
-42.675
11
29.2055
21
-42.9416
0
LINE
8
BLACK
6
CONTINUOUS
10
29.2055
20
-42.9416
11
29.464
21
-43.1809
0
LINE
8
BLACK
6
CONTINUOUS
10
29.464
20
-43.1809
11
29.7475
21
-43.39
0
LINE
8
BLACK
6
CONTINUOUS
10
29.7475
20
-43.39
11
30.0525
21
-43.5661
0
LINE
8
BLACK
6
CONTINUOUS
10
30.0525
20
-43.5661
11
30.3753
21
-43.7071
0
LINE
8
BLACK
6
CONTINUOUS
10
30.3753
20
-43.7071
11
30.7117
21
-43.8112
0
LINE
8
BLACK
6
CONTINUOUS
10
30.7117
20
-43.8112
11
31.0577
21
-43.8772
0
LINE
8
BLACK
6
CONTINUOUS
10
31.0577
20
-43.8772
11
31.4089
21
-43.9043
0
LINE
8
BLACK
6
CONTINUOUS
10
31.4089
20
-43.9043
11
31.7609
21
-43.892
0
LINE
8
BLACK
6
CONTINUOUS
10
31.7609
20
-43.892
11
32.1094
21
-43.8405
0
LINE
8
BLACK
6
CONTINUOUS
10
32.1094
20
-43.8405
11
32.4499
21
-43.7505
0
LINE
8
BLACK
6
CONTINUOUS
10
32.4499
20
-43.7505
11
32.7783
21
-43.6232
0
LINE
8
BLACK
6
CONTINUOUS
10
32.7783
20
-43.6232
11
33.0905
21
-43.46
0
LINE
8
BLACK
6
CONTINUOUS
10
33.0905
20
-43.46
11
33.3825
21
-43.263
0
LINE
8
BLACK
6
CONTINUOUS
10
33.3825
20
-43.263
11
33.6507
21
-43.0347
0
LINE
8
BLACK
6
CONTINUOUS
10
33.6507
20
-43.0347
11
33.8918
21
-42.778
0
LINE
8
BLACK
6
CONTINUOUS
10
33.8918
20
-42.778
11
34.1028
21
-42.4959
0
LINE
8
BLACK
6
CONTINUOUS
10
34.1028
20
-42.4959
11
34.2811
21
-42.1921
0
LINE
8
BLACK
6
CONTINUOUS
10
34.2811
20
-42.1921
11
34.4243
21
-41.8703
0
LINE
8
BLACK
6
CONTINUOUS
10
34.4243
20
-41.8703
11
34.5308
21
-41.5346
0
LINE
8
BLACK
6
CONTINUOUS
10
34.5308
20
-41.5346
11
34.5993
21
-41.1891
0
LINE
8
BLACK
6
CONTINUOUS
10
34.5993
20
-41.1891
11
34.6287
21
-40.8381
0
LINE
8
BLACK
6
CONTINUOUS
10
34.6287
20
-40.8381
11
34.63
21
-40.75
0
LINE
8
BLACK
6
CONTINUOUS
10
34.63
20
-40.75
11
34.6103
21
-40.3983
0
LINE
8
BLACK
6
CONTINUOUS
10
34.6103
20
-40.3983
11
34.5516
21
-40.051
0
LINE
8
BLACK
6
CONTINUOUS
10
34.5516
20
-40.051
11
34.4545
21
-39.7124
0
LINE
8
BLACK
6
CONTINUOUS
10
34.4545
20
-39.7124
11
34.3202
21
-39.3868
0
LINE
8
BLACK
6
CONTINUOUS
10
34.3202
20
-39.3868
11
34.1506
21
-39.0781
0
LINE
8
BLACK
6
CONTINUOUS
10
34.1506
20
-39.0781
11
33.9475
21
-38.7903
0
LINE
8
BLACK
6
CONTINUOUS
10
33.9475
20
-38.7903
11
33.7137
21
-38.5269
0
LINE
8
BLACK
6
CONTINUOUS
10
33.7137
20
-38.5269
11
33.4519
21
-38.2912
0
LINE
8
BLACK
6
CONTINUOUS
10
33.4519
20
-38.2912
11
33.1655
21
-38.0862
0
LINE
8
BLACK
6
CONTINUOUS
10
33.1655
20
-38.0862
11
32.858
21
-37.9143
0
LINE
8
BLACK
6
CONTINUOUS
10
32.858
20
-37.9143
11
32.5333
21
-37.7778
0
LINE
8
BLACK
6
CONTINUOUS
10
32.5333
20
-37.7778
11
32.1954
21
-37.6784
0
LINE
8
BLACK
6
CONTINUOUS
10
32.1954
20
-37.6784
11
31.8486
21
-37.6172
0
LINE
8
BLACK
6
CONTINUOUS
10
31.8486
20
-37.6172
11
31.497
21
-37.5951
0
LINE
8
BLACK
6
CONTINUOUS
10
31.497
20
-37.5951
11
31.1452
21
-37.6123
0
LINE
8
BLACK
6
CONTINUOUS
10
31.1452
20
-37.6123
11
30.7975
21
-37.6686
0
LINE
8
BLACK
6
CONTINUOUS
10
30.7975
20
-37.6686
11
30.4583
21
-37.7634
0
LINE
8
BLACK
6
CONTINUOUS
10
30.4583
20
-37.7634
11
30.1317
21
-37.8953
0
LINE
8
BLACK
6
CONTINUOUS
10
30.1317
20
-37.8953
11
29.8218
21
-38.0628
0
LINE
8
BLACK
6
CONTINUOUS
10
29.8218
20
-38.0628
11
29.5326
21
-38.2639
0
LINE
8
BLACK
6
CONTINUOUS
10
29.5326
20
-38.2639
11
29.2676
21
-38.4959
0
LINE
8
BLACK
6
CONTINUOUS
10
29.2676
20
-38.4959
11
29.0301
21
-38.756
0
LINE
8
BLACK
6
CONTINUOUS
10
29.0301
20
-38.756
11
28.823
21
-39.0409
0
LINE
8
BLACK
6
CONTINUOUS
10
28.823
20
-39.0409
11
28.6491
21
-39.3472
0
LINE
8
BLACK
6
CONTINUOUS
10
28.6491
20
-39.3472
11
28.5103
21
-39.6709
0
LINE
8
BLACK
6
CONTINUOUS
10
28.5103
20
-39.6709
11
28.4085
21
-40.0081
0
LINE
8
BLACK
6
CONTINUOUS
10
28.4085
20
-40.0081
11
28.3449
21
-40.3546
0
LINE
8
BLACK
6
CONTINUOUS
10
28.3449
20
-40.3546
11
28.3203
21
-40.706
0
LINE
8
BLACK
6
CONTINUOUS
10
28.3203
20
-40.706
11
28.3351
21
-41.0579
0
LINE
8
BLACK
6
CONTINUOUS
10
28.3351
20
-41.0579
11
28.389
21
-41.406
0
LINE
8
BLACK
6
CONTINUOUS
10
9.92827
20
-40.041
11
10.0234
21
-39.7026
0
LINE
8
BLACK
6
CONTINUOUS
10
10.0234
20
-39.7026
11
10.1545
21
-39.3765
0
LINE
8
BLACK
6
CONTINUOUS
10
10.1545
20
-39.3765
11
10.3201
21
-39.0664
0
LINE
8
BLACK
6
CONTINUOUS
10
10.3201
20
-39.0664
11
10.5182
21
-38.776
0
LINE
8
BLACK
6
CONTINUOUS
10
10.5182
20
-38.776
11
10.7464
21
-38.5087
0
LINE
8
BLACK
6
CONTINUOUS
10
10.7464
20
-38.5087
11
11.0023
21
-38.2677
0
LINE
8
BLACK
6
CONTINUOUS
10
11.0023
20
-38.2677
11
11.2826
21
-38.0556
0
LINE
8
BLACK
6
CONTINUOUS
10
11.2826
20
-38.0556
11
11.5842
21
-37.8751
0
LINE
8
BLACK
6
CONTINUOUS
10
11.5842
20
-37.8751
11
11.9036
21
-37.7282
0
LINE
8
BLACK
6
CONTINUOUS
10
11.9036
20
-37.7282
11
12.2369
21
-37.6167
0
LINE
8
BLACK
6
CONTINUOUS
10
12.2369
20
-37.6167
11
12.5804
21
-37.5418
0
LINE
8
BLACK
6
CONTINUOUS
10
12.5804
20
-37.5418
11
12.9299
21
-37.5045
0
LINE
8
BLACK
6
CONTINUOUS
10
12.9299
20
-37.5045
11
13.2814
21
-37.5051
0
LINE
8
BLACK
6
CONTINUOUS
10
13.2814
20
-37.5051
11
13.6308
21
-37.5436
0
LINE
8
BLACK
6
CONTINUOUS
10
13.6308
20
-37.5436
11
13.974
21
-37.6197
0
LINE
8
BLACK
6
CONTINUOUS
10
13.974
20
-37.6197
11
14.3069
21
-37.7324
0
LINE
8
BLACK
6
CONTINUOUS
10
14.3069
20
-37.7324
11
14.6258
21
-37.8804
0
LINE
8
BLACK
6
CONTINUOUS
10
14.6258
20
-37.8804
11
14.9268
21
-38.062
0
LINE
8
BLACK
6
CONTINUOUS
10
14.9268
20
-38.062
11
15.2064
21
-38.275
0
LINE
8
BLACK
6
CONTINUOUS
10
15.2064
20
-38.275
11
15.4614
21
-38.517
0
LINE
8
BLACK
6
CONTINUOUS
10
15.4614
20
-38.517
11
15.6887
21
-38.7851
0
LINE
8
BLACK
6
CONTINUOUS
10
15.6887
20
-38.7851
11
15.8858
21
-39.0761
0
LINE
8
BLACK
6
CONTINUOUS
10
15.8858
20
-39.0761
11
16.0503
21
-39.3868
0
LINE
8
BLACK
6
CONTINUOUS
10
16.0503
20
-39.3868
11
16.1802
21
-39.7134
0
LINE
8
BLACK
6
CONTINUOUS
10
16.1802
20
-39.7134
11
16.2742
21
-40.0521
0
LINE
8
BLACK
6
CONTINUOUS
10
16.2742
20
-40.0521
11
16.331
21
-40.399
0
LINE
8
BLACK
6
CONTINUOUS
10
16.331
20
-40.399
11
16.35
21
-40.75
0
LINE
8
BLACK
6
CONTINUOUS
10
16.35
20
-40.75
11
16.3499
21
-40.7727
0
LINE
8
BLACK
6
CONTINUOUS
10
16.3499
20
-40.7727
11
16.3285
21
-41.1235
0
LINE
8
BLACK
6
CONTINUOUS
10
16.3285
20
-41.1235
11
16.2692
21
-41.47
0
LINE
8
BLACK
6
CONTINUOUS
10
16.2692
20
-41.47
11
16.1729
21
-41.8081
0
LINE
8
BLACK
6
CONTINUOUS
10
16.1729
20
-41.8081
11
16.0407
21
-42.1338
0
LINE
8
BLACK
6
CONTINUOUS
10
16.0407
20
-42.1338
11
15.874
21
-42.4433
0
LINE
8
BLACK
6
CONTINUOUS
10
15.874
20
-42.4433
11
15.6749
21
-42.733
0
LINE
8
BLACK
6
CONTINUOUS
10
15.6749
20
-42.733
11
15.4457
21
-42.9995
0
LINE
8
BLACK
6
CONTINUOUS
10
15.4457
20
-42.9995
11
15.1891
21
-43.2396
0
LINE
8
BLACK
6
CONTINUOUS
10
15.1891
20
-43.2396
11
14.908
21
-43.4507
0
LINE
8
BLACK
6
CONTINUOUS
10
14.908
20
-43.4507
11
14.6057
21
-43.6302
0
LINE
8
BLACK
6
CONTINUOUS
10
14.6057
20
-43.6302
11
14.2858
21
-43.7759
0
LINE
8
BLACK
6
CONTINUOUS
10
14.2858
20
-43.7759
11
13.9521
21
-43.8863
0
LINE
8
BLACK
6
CONTINUOUS
10
13.9521
20
-43.8863
11
13.6084
21
-43.96
0
LINE
8
BLACK
6
CONTINUOUS
10
13.6084
20
-43.96
11
13.2588
21
-43.9961
0
LINE
8
BLACK
6
CONTINUOUS
10
13.2588
20
-43.9961
11
12.9073
21
-43.9943
0
LINE
8
BLACK
6
CONTINUOUS
10
12.9073
20
-43.9943
11
12.558
21
-43.9545
0
LINE
8
BLACK
6
CONTINUOUS
10
12.558
20
-43.9545
11
12.2151
21
-43.8772
0
LINE
8
BLACK
6
CONTINUOUS
10
12.2151
20
-43.8772
11
11.8825
21
-43.7633
0
LINE
8
BLACK
6
CONTINUOUS
10
11.8825
20
-43.7633
11
11.5642
21
-43.6142
0
LINE
8
BLACK
6
CONTINUOUS
10
11.5642
20
-43.6142
11
11.2639
21
-43.4316
0
LINE
8
BLACK
6
CONTINUOUS
10
11.2639
20
-43.4316
11
10.985
21
-43.2176
0
LINE
8
BLACK
6
CONTINUOUS
10
10.985
20
-43.2176
11
10.7309
21
-42.9748
0
LINE
8
BLACK
6
CONTINUOUS
10
10.7309
20
-42.9748
11
10.5044
21
-42.7059
0
LINE
8
BLACK
6
CONTINUOUS
10
10.5044
20
-42.7059
11
10.3084
21
-42.4141
0
LINE
8
BLACK
6
CONTINUOUS
10
10.3084
20
-42.4141
11
10.145
21
-42.1029
0
LINE
8
BLACK
6
CONTINUOUS
10
10.145
20
-42.1029
11
10.0162
21
-41.7759
0
LINE
8
BLACK
6
CONTINUOUS
10
10.0162
20
-41.7759
11
9.9234
21
-41.4368
0
LINE
8
BLACK
6
CONTINUOUS
10
9.9234
20
-41.4368
11
9.8678
21
-41.0897
0
LINE
8
BLACK
6
CONTINUOUS
10
9.8678
20
-41.0897
11
9.85002
21
-40.7387
0
LINE
8
BLACK
6
CONTINUOUS
10
9.85002
20
-40.7387
11
9.85191
21
-40.706
0
LINE
8
BLACK
6
CONTINUOUS
10
9.85191
20
-40.706
11
9.87025
21
-40.3877
0
LINE
8
BLACK
6
CONTINUOUS
10
9.87025
20
-40.3877
11
9.92827
21
-40.041
0
LINE
8
BLACK
6
CONTINUOUS
10
10.014
20
-41.406
11
10.1063
21
-41.7459
0
LINE
8
BLACK
6
CONTINUOUS
10
10.1063
20
-41.7459
11
10.236
21
-42.0734
0
LINE
8
BLACK
6
CONTINUOUS
10
10.236
20
-42.0734
11
10.4014
21
-42.3844
0
LINE
8
BLACK
6
CONTINUOUS
10
10.4014
20
-42.3844
11
10.6004
21
-42.675
0
LINE
8
BLACK
6
CONTINUOUS
10
10.6004
20
-42.675
11
10.8305
21
-42.9416
0
LINE
8
BLACK
6
CONTINUOUS
10
10.8305
20
-42.9416
11
11.089
21
-43.1809
0
LINE
8
BLACK
6
CONTINUOUS
10
11.089
20
-43.1809
11
11.3725
21
-43.39
0
LINE
8
BLACK
6
CONTINUOUS
10
11.3725
20
-43.39
11
11.6775
21
-43.5661
0
LINE
8
BLACK
6
CONTINUOUS
10
11.6775
20
-43.5661
11
12.0003
21
-43.7071
0
LINE
8
BLACK
6
CONTINUOUS
10
12.0003
20
-43.7071
11
12.3367
21
-43.8112
0
LINE
8
BLACK
6
CONTINUOUS
10
12.3367
20
-43.8112
11
12.6827
21
-43.8772
0
LINE
8
BLACK
6
CONTINUOUS
10
12.6827
20
-43.8772
11
13.0339
21
-43.9043
0
LINE
8
BLACK
6
CONTINUOUS
10
13.0339
20
-43.9043
11
13.3859
21
-43.892
0
LINE
8
BLACK
6
CONTINUOUS
10
13.3859
20
-43.892
11
13.7344
21
-43.8405
0
LINE
8
BLACK
6
CONTINUOUS
10
13.7344
20
-43.8405
11
14.0749
21
-43.7505
0
LINE
8
BLACK
6
CONTINUOUS
10
14.0749
20
-43.7505
11
14.4033
21
-43.6232
0
LINE
8
BLACK
6
CONTINUOUS
10
14.4033
20
-43.6232
11
14.7155
21
-43.46
0
LINE
8
BLACK
6
CONTINUOUS
10
14.7155
20
-43.46
11
15.0075
21
-43.263
0
LINE
8
BLACK
6
CONTINUOUS
10
15.0075
20
-43.263
11
15.2757
21
-43.0347
0
LINE
8
BLACK
6
CONTINUOUS
10
15.2757
20
-43.0347
11
15.5168
21
-42.778
0
LINE
8
BLACK
6
CONTINUOUS
10
15.5168
20
-42.778
11
15.7278
21
-42.4959
0
LINE
8
BLACK
6
CONTINUOUS
10
15.7278
20
-42.4959
11
15.9061
21
-42.1921
0
LINE
8
BLACK
6
CONTINUOUS
10
15.9061
20
-42.1921
11
16.0493
21
-41.8703
0
LINE
8
BLACK
6
CONTINUOUS
10
16.0493
20
-41.8703
11
16.1558
21
-41.5346
0
LINE
8
BLACK
6
CONTINUOUS
10
16.1558
20
-41.5346
11
16.2243
21
-41.1891
0
LINE
8
BLACK
6
CONTINUOUS
10
16.2243
20
-41.1891
11
16.2537
21
-40.8381
0
LINE
8
BLACK
6
CONTINUOUS
10
16.2537
20
-40.8381
11
16.255
21
-40.75
0
LINE
8
BLACK
6
CONTINUOUS
10
16.255
20
-40.75
11
16.2353
21
-40.3983
0
LINE
8
BLACK
6
CONTINUOUS
10
16.2353
20
-40.3983
11
16.1766
21
-40.051
0
LINE
8
BLACK
6
CONTINUOUS
10
16.1766
20
-40.051
11
16.0795
21
-39.7124
0
LINE
8
BLACK
6
CONTINUOUS
10
16.0795
20
-39.7124
11
15.9452
21
-39.3868
0
LINE
8
BLACK
6
CONTINUOUS
10
15.9452
20
-39.3868
11
15.7756
21
-39.0781
0
LINE
8
BLACK
6
CONTINUOUS
10
15.7756
20
-39.0781
11
15.5725
21
-38.7903
0
LINE
8
BLACK
6
CONTINUOUS
10
15.5725
20
-38.7903
11
15.3387
21
-38.5269
0
LINE
8
BLACK
6
CONTINUOUS
10
15.3387
20
-38.5269
11
15.0769
21
-38.2912
0
LINE
8
BLACK
6
CONTINUOUS
10
15.0769
20
-38.2912
11
14.7905
21
-38.0862
0
LINE
8
BLACK
6
CONTINUOUS
10
14.7905
20
-38.0862
11
14.483
21
-37.9143
0
LINE
8
BLACK
6
CONTINUOUS
10
14.483
20
-37.9143
11
14.1583
21
-37.7778
0
LINE
8
BLACK
6
CONTINUOUS
10
14.1583
20
-37.7778
11
13.8204
21
-37.6784
0
LINE
8
BLACK
6
CONTINUOUS
10
13.8204
20
-37.6784
11
13.4736
21
-37.6172
0
LINE
8
BLACK
6
CONTINUOUS
10
13.4736
20
-37.6172
11
13.122
21
-37.5951
0
LINE
8
BLACK
6
CONTINUOUS
10
13.122
20
-37.5951
11
12.7702
21
-37.6123
0
LINE
8
BLACK
6
CONTINUOUS
10
12.7702
20
-37.6123
11
12.4225
21
-37.6686
0
LINE
8
BLACK
6
CONTINUOUS
10
12.4225
20
-37.6686
11
12.0833
21
-37.7634
0
LINE
8
BLACK
6
CONTINUOUS
10
12.0833
20
-37.7634
11
11.7567
21
-37.8953
0
LINE
8
BLACK
6
CONTINUOUS
10
11.7567
20
-37.8953
11
11.4468
21
-38.0628
0
LINE
8
BLACK
6
CONTINUOUS
10
11.4468
20
-38.0628
11
11.1576
21
-38.2639
0
LINE
8
BLACK
6
CONTINUOUS
10
11.1576
20
-38.2639
11
10.8926
21
-38.4959
0
LINE
8
BLACK
6
CONTINUOUS
10
10.8926
20
-38.4959
11
10.6551
21
-38.756
0
LINE
8
BLACK
6
CONTINUOUS
10
10.6551
20
-38.756
11
10.448
21
-39.0409
0
LINE
8
BLACK
6
CONTINUOUS
10
10.448
20
-39.0409
11
10.2741
21
-39.3472
0
LINE
8
BLACK
6
CONTINUOUS
10
10.2741
20
-39.3472
11
10.1353
21
-39.6709
0
LINE
8
BLACK
6
CONTINUOUS
10
10.1353
20
-39.6709
11
10.0335
21
-40.0081
0
LINE
8
BLACK
6
CONTINUOUS
10
10.0335
20
-40.0081
11
9.96992
21
-40.3546
0
LINE
8
BLACK
6
CONTINUOUS
10
9.96992
20
-40.3546
11
9.94534
21
-40.706
0
LINE
8
BLACK
6
CONTINUOUS
10
9.94534
20
-40.706
11
9.96009
21
-41.0579
0
LINE
8
BLACK
6
CONTINUOUS
10
9.96009
20
-41.0579
11
10.014
21
-41.406
0
LINE
8
BLACK
6
CONTINUOUS
10
64.9283
20
-40.041
11
65.0234
21
-39.7026
0
LINE
8
BLACK
6
CONTINUOUS
10
65.0234
20
-39.7026
11
65.1545
21
-39.3765
0
LINE
8
BLACK
6
CONTINUOUS
10
65.1545
20
-39.3765
11
65.3201
21
-39.0664
0
LINE
8
BLACK
6
CONTINUOUS
10
65.3201
20
-39.0664
11
65.5182
21
-38.776
0
LINE
8
BLACK
6
CONTINUOUS
10
65.5182
20
-38.776
11
65.7464
21
-38.5087
0
LINE
8
BLACK
6
CONTINUOUS
10
65.7464
20
-38.5087
11
66.0023
21
-38.2677
0
LINE
8
BLACK
6
CONTINUOUS
10
66.0023
20
-38.2677
11
66.2826
21
-38.0556
0
LINE
8
BLACK
6
CONTINUOUS
10
66.2826
20
-38.0556
11
66.5842
21
-37.8751
0
LINE
8
BLACK
6
CONTINUOUS
10
66.5842
20
-37.8751
11
66.9036
21
-37.7282
0
LINE
8
BLACK
6
CONTINUOUS
10
66.9036
20
-37.7282
11
67.2369
21
-37.6167
0
LINE
8
BLACK
6
CONTINUOUS
10
67.2369
20
-37.6167
11
67.5804
21
-37.5418
0
LINE
8
BLACK
6
CONTINUOUS
10
67.5804
20
-37.5418
11
67.9299
21
-37.5045
0
LINE
8
BLACK
6
CONTINUOUS
10
67.9299
20
-37.5045
11
68.2814
21
-37.5051
0
LINE
8
BLACK
6
CONTINUOUS
10
68.2814
20
-37.5051
11
68.6308
21
-37.5436
0
LINE
8
BLACK
6
CONTINUOUS
10
68.6308
20
-37.5436
11
68.974
21
-37.6197
0
LINE
8
BLACK
6
CONTINUOUS
10
68.974
20
-37.6197
11
69.3069
21
-37.7324
0
LINE
8
BLACK
6
CONTINUOUS
10
69.3069
20
-37.7324
11
69.6258
21
-37.8804
0
LINE
8
BLACK
6
CONTINUOUS
10
69.6258
20
-37.8804
11
69.9268
21
-38.062
0
LINE
8
BLACK
6
CONTINUOUS
10
69.9268
20
-38.062
11
70.2064
21
-38.275
0
LINE
8
BLACK
6
CONTINUOUS
10
70.2064
20
-38.275
11
70.4614
21
-38.517
0
LINE
8
BLACK
6
CONTINUOUS
10
70.4614
20
-38.517
11
70.6887
21
-38.7851
0
LINE
8
BLACK
6
CONTINUOUS
10
70.6887
20
-38.7851
11
70.8858
21
-39.0761
0
LINE
8
BLACK
6
CONTINUOUS
10
70.8858
20
-39.0761
11
71.0503
21
-39.3868
0
LINE
8
BLACK
6
CONTINUOUS
10
71.0503
20
-39.3868
11
71.1802
21
-39.7134
0
LINE
8
BLACK
6
CONTINUOUS
10
71.1802
20
-39.7134
11
71.2742
21
-40.0521
0
LINE
8
BLACK
6
CONTINUOUS
10
71.2742
20
-40.0521
11
71.331
21
-40.399
0
LINE
8
BLACK
6
CONTINUOUS
10
71.331
20
-40.399
11
71.35
21
-40.75
0
LINE
8
BLACK
6
CONTINUOUS
10
71.35
20
-40.75
11
71.3499
21
-40.7727
0
LINE
8
BLACK
6
CONTINUOUS
10
71.3499
20
-40.7727
11
71.3285
21
-41.1235
0
LINE
8
BLACK
6
CONTINUOUS
10
71.3285
20
-41.1235
11
71.2692
21
-41.47
0
LINE
8
BLACK
6
CONTINUOUS
10
71.2692
20
-41.47
11
71.1729
21
-41.8081
0
LINE
8
BLACK
6
CONTINUOUS
10
71.1729
20
-41.8081
11
71.0407
21
-42.1338
0
LINE
8
BLACK
6
CONTINUOUS
10
71.0407
20
-42.1338
11
70.874
21
-42.4433
0
LINE
8
BLACK
6
CONTINUOUS
10
70.874
20
-42.4433
11
70.6749
21
-42.733
0
LINE
8
BLACK
6
CONTINUOUS
10
70.6749
20
-42.733
11
70.4457
21
-42.9995
0
LINE
8
BLACK
6
CONTINUOUS
10
70.4457
20
-42.9995
11
70.1891
21
-43.2396
0
LINE
8
BLACK
6
CONTINUOUS
10
70.1891
20
-43.2396
11
69.908
21
-43.4507
0
LINE
8
BLACK
6
CONTINUOUS
10
69.908
20
-43.4507
11
69.6057
21
-43.6302
0
LINE
8
BLACK
6
CONTINUOUS
10
69.6057
20
-43.6302
11
69.2858
21
-43.7759
0
LINE
8
BLACK
6
CONTINUOUS
10
69.2858
20
-43.7759
11
68.9521
21
-43.8863
0
LINE
8
BLACK
6
CONTINUOUS
10
68.9521
20
-43.8863
11
68.6084
21
-43.96
0
LINE
8
BLACK
6
CONTINUOUS
10
68.6084
20
-43.96
11
68.2588
21
-43.9961
0
LINE
8
BLACK
6
CONTINUOUS
10
68.2588
20
-43.9961
11
67.9073
21
-43.9943
0
LINE
8
BLACK
6
CONTINUOUS
10
67.9073
20
-43.9943
11
67.558
21
-43.9545
0
LINE
8
BLACK
6
CONTINUOUS
10
67.558
20
-43.9545
11
67.2151
21
-43.8772
0
LINE
8
BLACK
6
CONTINUOUS
10
67.2151
20
-43.8772
11
66.8825
21
-43.7633
0
LINE
8
BLACK
6
CONTINUOUS
10
66.8825
20
-43.7633
11
66.5642
21
-43.6142
0
LINE
8
BLACK
6
CONTINUOUS
10
66.5642
20
-43.6142
11
66.2639
21
-43.4316
0
LINE
8
BLACK
6
CONTINUOUS
10
66.2639
20
-43.4316
11
65.985
21
-43.2176
0
LINE
8
BLACK
6
CONTINUOUS
10
65.985
20
-43.2176
11
65.7309
21
-42.9748
0
LINE
8
BLACK
6
CONTINUOUS
10
65.7309
20
-42.9748
11
65.5044
21
-42.7059
0
LINE
8
BLACK
6
CONTINUOUS
10
65.5044
20
-42.7059
11
65.3084
21
-42.4141
0
LINE
8
BLACK
6
CONTINUOUS
10
65.3084
20
-42.4141
11
65.145
21
-42.1029
0
LINE
8
BLACK
6
CONTINUOUS
10
65.145
20
-42.1029
11
65.0162
21
-41.7759
0
LINE
8
BLACK
6
CONTINUOUS
10
65.0162
20
-41.7759
11
64.9234
21
-41.4368
0
LINE
8
BLACK
6
CONTINUOUS
10
64.9234
20
-41.4368
11
64.8678
21
-41.0897
0
LINE
8
BLACK
6
CONTINUOUS
10
64.8678
20
-41.0897
11
64.85
21
-40.7387
0
LINE
8
BLACK
6
CONTINUOUS
10
64.85
20
-40.7387
11
64.8519
21
-40.706
0
LINE
8
BLACK
6
CONTINUOUS
10
64.8519
20
-40.706
11
64.8703
21
-40.3877
0
LINE
8
BLACK
6
CONTINUOUS
10
64.8703
20
-40.3877
11
64.9283
21
-40.041
0
LINE
8
BLACK
6
CONTINUOUS
10
65.014
20
-41.406
11
65.1063
21
-41.7459
0
LINE
8
BLACK
6
CONTINUOUS
10
65.1063
20
-41.7459
11
65.236
21
-42.0734
0
LINE
8
BLACK
6
CONTINUOUS
10
65.236
20
-42.0734
11
65.4014
21
-42.3844
0
LINE
8
BLACK
6
CONTINUOUS
10
65.4014
20
-42.3844
11
65.6004
21
-42.675
0
LINE
8
BLACK
6
CONTINUOUS
10
65.6004
20
-42.675
11
65.8305
21
-42.9416
0
LINE
8
BLACK
6
CONTINUOUS
10
65.8305
20
-42.9416
11
66.089
21
-43.1809
0
LINE
8
BLACK
6
CONTINUOUS
10
66.089
20
-43.1809
11
66.3725
21
-43.39
0
LINE
8
BLACK
6
CONTINUOUS
10
66.3725
20
-43.39
11
66.6775
21
-43.5661
0
LINE
8
BLACK
6
CONTINUOUS
10
66.6775
20
-43.5661
11
67.0003
21
-43.7071
0
LINE
8
BLACK
6
CONTINUOUS
10
67.0003
20
-43.7071
11
67.3367
21
-43.8112
0
LINE
8
BLACK
6
CONTINUOUS
10
67.3367
20
-43.8112
11
67.6827
21
-43.8772
0
LINE
8
BLACK
6
CONTINUOUS
10
67.6827
20
-43.8772
11
68.0339
21
-43.9043
0
LINE
8
BLACK
6
CONTINUOUS
10
68.0339
20
-43.9043
11
68.3859
21
-43.892
0
LINE
8
BLACK
6
CONTINUOUS
10
68.3859
20
-43.892
11
68.7344
21
-43.8405
0
LINE
8
BLACK
6
CONTINUOUS
10
68.7344
20
-43.8405
11
69.0749
21
-43.7505
0
LINE
8
BLACK
6
CONTINUOUS
10
69.0749
20
-43.7505
11
69.4033
21
-43.6232
0
LINE
8
BLACK
6
CONTINUOUS
10
69.4033
20
-43.6232
11
69.7155
21
-43.46
0
LINE
8
BLACK
6
CONTINUOUS
10
69.7155
20
-43.46
11
70.0075
21
-43.263
0
LINE
8
BLACK
6
CONTINUOUS
10
70.0075
20
-43.263
11
70.2757
21
-43.0347
0
LINE
8
BLACK
6
CONTINUOUS
10
70.2757
20
-43.0347
11
70.5168
21
-42.778
0
LINE
8
BLACK
6
CONTINUOUS
10
70.5168
20
-42.778
11
70.7278
21
-42.4959
0
LINE
8
BLACK
6
CONTINUOUS
10
70.7278
20
-42.4959
11
70.9061
21
-42.1921
0
LINE
8
BLACK
6
CONTINUOUS
10
70.9061
20
-42.1921
11
71.0493
21
-41.8703
0
LINE
8
BLACK
6
CONTINUOUS
10
71.0493
20
-41.8703
11
71.1558
21
-41.5346
0
LINE
8
BLACK
6
CONTINUOUS
10
71.1558
20
-41.5346
11
71.2243
21
-41.1891
0
LINE
8
BLACK
6
CONTINUOUS
10
71.2243
20
-41.1891
11
71.2537
21
-40.8381
0
LINE
8
BLACK
6
CONTINUOUS
10
71.2537
20
-40.8381
11
71.255
21
-40.75
0
LINE
8
BLACK
6
CONTINUOUS
10
71.255
20
-40.75
11
71.2353
21
-40.3983
0
LINE
8
BLACK
6
CONTINUOUS
10
71.2353
20
-40.3983
11
71.1766
21
-40.051
0
LINE
8
BLACK
6
CONTINUOUS
10
71.1766
20
-40.051
11
71.0795
21
-39.7124
0
LINE
8
BLACK
6
CONTINUOUS
10
71.0795
20
-39.7124
11
70.9452
21
-39.3868
0
LINE
8
BLACK
6
CONTINUOUS
10
70.9452
20
-39.3868
11
70.7756
21
-39.0781
0
LINE
8
BLACK
6
CONTINUOUS
10
70.7756
20
-39.0781
11
70.5725
21
-38.7903
0
LINE
8
BLACK
6
CONTINUOUS
10
70.5725
20
-38.7903
11
70.3387
21
-38.5269
0
LINE
8
BLACK
6
CONTINUOUS
10
70.3387
20
-38.5269
11
70.0769
21
-38.2912
0
LINE
8
BLACK
6
CONTINUOUS
10
70.0769
20
-38.2912
11
69.7905
21
-38.0862
0
LINE
8
BLACK
6
CONTINUOUS
10
69.7905
20
-38.0862
11
69.483
21
-37.9143
0
LINE
8
BLACK
6
CONTINUOUS
10
69.483
20
-37.9143
11
69.1583
21
-37.7778
0
LINE
8
BLACK
6
CONTINUOUS
10
69.1583
20
-37.7778
11
68.8204
21
-37.6784
0
LINE
8
BLACK
6
CONTINUOUS
10
68.8204
20
-37.6784
11
68.4736
21
-37.6172
0
LINE
8
BLACK
6
CONTINUOUS
10
68.4736
20
-37.6172
11
68.122
21
-37.5951
0
LINE
8
BLACK
6
CONTINUOUS
10
68.122
20
-37.5951
11
67.7702
21
-37.6123
0
LINE
8
BLACK
6
CONTINUOUS
10
67.7702
20
-37.6123
11
67.4225
21
-37.6686
0
LINE
8
BLACK
6
CONTINUOUS
10
67.4225
20
-37.6686
11
67.0833
21
-37.7634
0
LINE
8
BLACK
6
CONTINUOUS
10
67.0833
20
-37.7634
11
66.7567
21
-37.8953
0
LINE
8
BLACK
6
CONTINUOUS
10
66.7567
20
-37.8953
11
66.4468
21
-38.0628
0
LINE
8
BLACK
6
CONTINUOUS
10
66.4468
20
-38.0628
11
66.1576
21
-38.2639
0
LINE
8
BLACK
6
CONTINUOUS
10
66.1576
20
-38.2639
11
65.8926
21
-38.4959
0
LINE
8
BLACK
6
CONTINUOUS
10
65.8926
20
-38.4959
11
65.6551
21
-38.756
0
LINE
8
BLACK
6
CONTINUOUS
10
65.6551
20
-38.756
11
65.448
21
-39.0409
0
LINE
8
BLACK
6
CONTINUOUS
10
65.448
20
-39.0409
11
65.2741
21
-39.3472
0
LINE
8
BLACK
6
CONTINUOUS
10
65.2741
20
-39.3472
11
65.1353
21
-39.6709
0
LINE
8
BLACK
6
CONTINUOUS
10
65.1353
20
-39.6709
11
65.0335
21
-40.0081
0
LINE
8
BLACK
6
CONTINUOUS
10
65.0335
20
-40.0081
11
64.9699
21
-40.3546
0
LINE
8
BLACK
6
CONTINUOUS
10
64.9699
20
-40.3546
11
64.9453
21
-40.706
0
LINE
8
BLACK
6
CONTINUOUS
10
64.9453
20
-40.706
11
64.9601
21
-41.0579
0
LINE
8
BLACK
6
CONTINUOUS
10
64.9601
20
-41.0579
11
65.014
21
-41.406
0
LINE
8
BLACK
6
CONTINUOUS
10
46.5533
20
-40.041
11
46.6484
21
-39.7026
0
LINE
8
BLACK
6
CONTINUOUS
10
46.6484
20
-39.7026
11
46.7795
21
-39.3765
0
LINE
8
BLACK
6
CONTINUOUS
10
46.7795
20
-39.3765
11
46.9451
21
-39.0664
0
LINE
8
BLACK
6
CONTINUOUS
10
46.9451
20
-39.0664
11
47.1432
21
-38.776
0
LINE
8
BLACK
6
CONTINUOUS
10
47.1432
20
-38.776
11
47.3714
21
-38.5087
0
LINE
8
BLACK
6
CONTINUOUS
10
47.3714
20
-38.5087
11
47.6273
21
-38.2677
0
LINE
8
BLACK
6
CONTINUOUS
10
47.6273
20
-38.2677
11
47.9076
21
-38.0556
0
LINE
8
BLACK
6
CONTINUOUS
10
47.9076
20
-38.0556
11
48.2092
21
-37.8751
0
LINE
8
BLACK
6
CONTINUOUS
10
48.2092
20
-37.8751
11
48.5286
21
-37.7282
0
LINE
8
BLACK
6
CONTINUOUS
10
48.5286
20
-37.7282
11
48.8619
21
-37.6167
0
LINE
8
BLACK
6
CONTINUOUS
10
48.8619
20
-37.6167
11
49.2054
21
-37.5418
0
LINE
8
BLACK
6
CONTINUOUS
10
49.2054
20
-37.5418
11
49.5549
21
-37.5045
0
LINE
8
BLACK
6
CONTINUOUS
10
49.5549
20
-37.5045
11
49.9064
21
-37.5051
0
LINE
8
BLACK
6
CONTINUOUS
10
49.9064
20
-37.5051
11
50.2558
21
-37.5436
0
LINE
8
BLACK
6
CONTINUOUS
10
50.2558
20
-37.5436
11
50.599
21
-37.6197
0
LINE
8
BLACK
6
CONTINUOUS
10
50.599
20
-37.6197
11
50.9319
21
-37.7324
0
LINE
8
BLACK
6
CONTINUOUS
10
50.9319
20
-37.7324
11
51.2508
21
-37.8804
0
LINE
8
BLACK
6
CONTINUOUS
10
51.2508
20
-37.8804
11
51.5518
21
-38.062
0
LINE
8
BLACK
6
CONTINUOUS
10
51.5518
20
-38.062
11
51.8314
21
-38.275
0
LINE
8
BLACK
6
CONTINUOUS
10
51.8314
20
-38.275
11
52.0864
21
-38.517
0
LINE
8
BLACK
6
CONTINUOUS
10
52.0864
20
-38.517
11
52.3137
21
-38.7851
0
LINE
8
BLACK
6
CONTINUOUS
10
52.3137
20
-38.7851
11
52.5108
21
-39.0761
0
LINE
8
BLACK
6
CONTINUOUS
10
52.5108
20
-39.0761
11
52.6753
21
-39.3868
0
LINE
8
BLACK
6
CONTINUOUS
10
52.6753
20
-39.3868
11
52.8052
21
-39.7134
0
LINE
8
BLACK
6
CONTINUOUS
10
52.8052
20
-39.7134
11
52.8992
21
-40.0521
0
LINE
8
BLACK
6
CONTINUOUS
10
52.8992
20
-40.0521
11
52.956
21
-40.399
0
LINE
8
BLACK
6
CONTINUOUS
10
52.956
20
-40.399
11
52.975
21
-40.75
0
LINE
8
BLACK
6
CONTINUOUS
10
52.975
20
-40.75
11
52.9749
21
-40.7727
0
LINE
8
BLACK
6
CONTINUOUS
10
52.9749
20
-40.7727
11
52.9535
21
-41.1235
0
LINE
8
BLACK
6
CONTINUOUS
10
52.9535
20
-41.1235
11
52.8942
21
-41.47
0
LINE
8
BLACK
6
CONTINUOUS
10
52.8942
20
-41.47
11
52.7979
21
-41.8081
0
LINE
8
BLACK
6
CONTINUOUS
10
52.7979
20
-41.8081
11
52.6657
21
-42.1338
0
LINE
8
BLACK
6
CONTINUOUS
10
52.6657
20
-42.1338
11
52.499
21
-42.4433
0
LINE
8
BLACK
6
CONTINUOUS
10
52.499
20
-42.4433
11
52.2999
21
-42.733
0
LINE
8
BLACK
6
CONTINUOUS
10
52.2999
20
-42.733
11
52.0707
21
-42.9995
0
LINE
8
BLACK
6
CONTINUOUS
10
52.0707
20
-42.9995
11
51.8141
21
-43.2396
0
LINE
8
BLACK
6
CONTINUOUS
10
51.8141
20
-43.2396
11
51.533
21
-43.4507
0
LINE
8
BLACK
6
CONTINUOUS
10
51.533
20
-43.4507
11
51.2307
21
-43.6302
0
LINE
8
BLACK
6
CONTINUOUS
10
51.2307
20
-43.6302
11
50.9108
21
-43.7759
0
LINE
8
BLACK
6
CONTINUOUS
10
50.9108
20
-43.7759
11
50.5771
21
-43.8863
0
LINE
8
BLACK
6
CONTINUOUS
10
50.5771
20
-43.8863
11
50.2334
21
-43.96
0
LINE
8
BLACK
6
CONTINUOUS
10
50.2334
20
-43.96
11
49.8838
21
-43.9961
0
LINE
8
BLACK
6
CONTINUOUS
10
49.8838
20
-43.9961
11
49.5323
21
-43.9943
0
LINE
8
BLACK
6
CONTINUOUS
10
49.5323
20
-43.9943
11
49.183
21
-43.9545
0
LINE
8
BLACK
6
CONTINUOUS
10
49.183
20
-43.9545
11
48.8401
21
-43.8772
0
LINE
8
BLACK
6
CONTINUOUS
10
48.8401
20
-43.8772
11
48.5075
21
-43.7633
0
LINE
8
BLACK
6
CONTINUOUS
10
48.5075
20
-43.7633
11
48.1892
21
-43.6142
0
LINE
8
BLACK
6
CONTINUOUS
10
48.1892
20
-43.6142
11
47.8889
21
-43.4316
0
LINE
8
BLACK
6
CONTINUOUS
10
47.8889
20
-43.4316
11
47.61
21
-43.2176
0
LINE
8
BLACK
6
CONTINUOUS
10
47.61
20
-43.2176
11
47.3559
21
-42.9748
0
LINE
8
BLACK
6
CONTINUOUS
10
47.3559
20
-42.9748
11
47.1294
21
-42.7059
0
LINE
8
BLACK
6
CONTINUOUS
10
47.1294
20
-42.7059
11
46.9334
21
-42.4141
0
LINE
8
BLACK
6
CONTINUOUS
10
46.9334
20
-42.4141
11
46.77
21
-42.1029
0
LINE
8
BLACK
6
CONTINUOUS
10
46.77
20
-42.1029
11
46.6412
21
-41.7759
0
LINE
8
BLACK
6
CONTINUOUS
10
46.6412
20
-41.7759
11
46.5484
21
-41.4368
0
LINE
8
BLACK
6
CONTINUOUS
10
46.5484
20
-41.4368
11
46.4928
21
-41.0897
0
LINE
8
BLACK
6
CONTINUOUS
10
46.4928
20
-41.0897
11
46.475
21
-40.7387
0
LINE
8
BLACK
6
CONTINUOUS
10
46.475
20
-40.7387
11
46.4769
21
-40.706
0
LINE
8
BLACK
6
CONTINUOUS
10
46.4769
20
-40.706
11
46.4953
21
-40.3877
0
LINE
8
BLACK
6
CONTINUOUS
10
46.4953
20
-40.3877
11
46.5533
21
-40.041
0
LINE
8
BLACK
6
CONTINUOUS
10
46.639
20
-41.406
11
46.7313
21
-41.7459
0
LINE
8
BLACK
6
CONTINUOUS
10
46.7313
20
-41.7459
11
46.861
21
-42.0734
0
LINE
8
BLACK
6
CONTINUOUS
10
46.861
20
-42.0734
11
47.0264
21
-42.3844
0
LINE
8
BLACK
6
CONTINUOUS
10
47.0264
20
-42.3844
11
47.2254
21
-42.675
0
LINE
8
BLACK
6
CONTINUOUS
10
47.2254
20
-42.675
11
47.4555
21
-42.9416
0
LINE
8
BLACK
6
CONTINUOUS
10
47.4555
20
-42.9416
11
47.714
21
-43.1809
0
LINE
8
BLACK
6
CONTINUOUS
10
47.714
20
-43.1809
11
47.9975
21
-43.39
0
LINE
8
BLACK
6
CONTINUOUS
10
47.9975
20
-43.39
11
48.3025
21
-43.5661
0
LINE
8
BLACK
6
CONTINUOUS
10
48.3025
20
-43.5661
11
48.6253
21
-43.7071
0
LINE
8
BLACK
6
CONTINUOUS
10
48.6253
20
-43.7071
11
48.9617
21
-43.8112
0
LINE
8
BLACK
6
CONTINUOUS
10
48.9617
20
-43.8112
11
49.3077
21
-43.8772
0
LINE
8
BLACK
6
CONTINUOUS
10
49.3077
20
-43.8772
11
49.6589
21
-43.9043
0
LINE
8
BLACK
6
CONTINUOUS
10
49.6589
20
-43.9043
11
50.0109
21
-43.892
0
LINE
8
BLACK
6
CONTINUOUS
10
50.0109
20
-43.892
11
50.3594
21
-43.8405
0
LINE
8
BLACK
6
CONTINUOUS
10
50.3594
20
-43.8405
11
50.6999
21
-43.7505
0
LINE
8
BLACK
6
CONTINUOUS
10
50.6999
20
-43.7505
11
51.0283
21
-43.6232
0
LINE
8
BLACK
6
CONTINUOUS
10
51.0283
20
-43.6232
11
51.3405
21
-43.46
0
LINE
8
BLACK
6
CONTINUOUS
10
51.3405
20
-43.46
11
51.6325
21
-43.263
0
LINE
8
BLACK
6
CONTINUOUS
10
51.6325
20
-43.263
11
51.9007
21
-43.0347
0
LINE
8
BLACK
6
CONTINUOUS
10
51.9007
20
-43.0347
11
52.1418
21
-42.778
0
LINE
8
BLACK
6
CONTINUOUS
10
52.1418
20
-42.778
11
52.3528
21
-42.4959
0
LINE
8
BLACK
6
CONTINUOUS
10
52.3528
20
-42.4959
11
52.5311
21
-42.1921
0
LINE
8
BLACK
6
CONTINUOUS
10
52.5311
20
-42.1921
11
52.6743
21
-41.8703
0
LINE
8
BLACK
6
CONTINUOUS
10
52.6743
20
-41.8703
11
52.7808
21
-41.5346
0
LINE
8
BLACK
6
CONTINUOUS
10
52.7808
20
-41.5346
11
52.8493
21
-41.1891
0
LINE
8
BLACK
6
CONTINUOUS
10
52.8493
20
-41.1891
11
52.8787
21
-40.8381
0
LINE
8
BLACK
6
CONTINUOUS
10
52.8787
20
-40.8381
11
52.88
21
-40.75
0
LINE
8
BLACK
6
CONTINUOUS
10
52.88
20
-40.75
11
52.8603
21
-40.3983
0
LINE
8
BLACK
6
CONTINUOUS
10
52.8603
20
-40.3983
11
52.8016
21
-40.051
0
LINE
8
BLACK
6
CONTINUOUS
10
52.8016
20
-40.051
11
52.7045
21
-39.7124
0
LINE
8
BLACK
6
CONTINUOUS
10
52.7045
20
-39.7124
11
52.5702
21
-39.3868
0
LINE
8
BLACK
6
CONTINUOUS
10
52.5702
20
-39.3868
11
52.4006
21
-39.0781
0
LINE
8
BLACK
6
CONTINUOUS
10
52.4006
20
-39.0781
11
52.1975
21
-38.7903
0
LINE
8
BLACK
6
CONTINUOUS
10
52.1975
20
-38.7903
11
51.9637
21
-38.5269
0
LINE
8
BLACK
6
CONTINUOUS
10
51.9637
20
-38.5269
11
51.7019
21
-38.2912
0
LINE
8
BLACK
6
CONTINUOUS
10
51.7019
20
-38.2912
11
51.4155
21
-38.0862
0
LINE
8
BLACK
6
CONTINUOUS
10
51.4155
20
-38.0862
11
51.108
21
-37.9143
0
LINE
8
BLACK
6
CONTINUOUS
10
51.108
20
-37.9143
11
50.7833
21
-37.7778
0
LINE
8
BLACK
6
CONTINUOUS
10
50.7833
20
-37.7778
11
50.4454
21
-37.6784
0
LINE
8
BLACK
6
CONTINUOUS
10
50.4454
20
-37.6784
11
50.0986
21
-37.6172
0
LINE
8
BLACK
6
CONTINUOUS
10
50.0986
20
-37.6172
11
49.747
21
-37.5951
0
LINE
8
BLACK
6
CONTINUOUS
10
49.747
20
-37.5951
11
49.3952
21
-37.6123
0
LINE
8
BLACK
6
CONTINUOUS
10
49.3952
20
-37.6123
11
49.0475
21
-37.6686
0
LINE
8
BLACK
6
CONTINUOUS
10
49.0475
20
-37.6686
11
48.7083
21
-37.7634
0
LINE
8
BLACK
6
CONTINUOUS
10
48.7083
20
-37.7634
11
48.3817
21
-37.8953
0
LINE
8
BLACK
6
CONTINUOUS
10
48.3817
20
-37.8953
11
48.0718
21
-38.0628
0
LINE
8
BLACK
6
CONTINUOUS
10
48.0718
20
-38.0628
11
47.7826
21
-38.2639
0
LINE
8
BLACK
6
CONTINUOUS
10
47.7826
20
-38.2639
11
47.5176
21
-38.4959
0
LINE
8
BLACK
6
CONTINUOUS
10
47.5176
20
-38.4959
11
47.2801
21
-38.756
0
LINE
8
BLACK
6
CONTINUOUS
10
47.2801
20
-38.756
11
47.073
21
-39.0409
0
LINE
8
BLACK
6
CONTINUOUS
10
47.073
20
-39.0409
11
46.8991
21
-39.3472
0
LINE
8
BLACK
6
CONTINUOUS
10
46.8991
20
-39.3472
11
46.7603
21
-39.6709
0
LINE
8
BLACK
6
CONTINUOUS
10
46.7603
20
-39.6709
11
46.6585
21
-40.0081
0
LINE
8
BLACK
6
CONTINUOUS
10
46.6585
20
-40.0081
11
46.5949
21
-40.3546
0
LINE
8
BLACK
6
CONTINUOUS
10
46.5949
20
-40.3546
11
46.5703
21
-40.706
0
LINE
8
BLACK
6
CONTINUOUS
10
46.5703
20
-40.706
11
46.5851
21
-41.0579
0
LINE
8
BLACK
6
CONTINUOUS
10
46.5851
20
-41.0579
11
46.639
21
-41.406
0
LINE
8
BLACK
6
CONTINUOUS
10
64.9283
20
-20.041
11
65.0234
21
-19.7026
0
LINE
8
BLACK
6
CONTINUOUS
10
65.0234
20
-19.7026
11
65.1545
21
-19.3765
0
LINE
8
BLACK
6
CONTINUOUS
10
65.1545
20
-19.3765
11
65.3201
21
-19.0664
0
LINE
8
BLACK
6
CONTINUOUS
10
65.3201
20
-19.0664
11
65.5182
21
-18.776
0
LINE
8
BLACK
6
CONTINUOUS
10
65.5182
20
-18.776
11
65.7464
21
-18.5087
0
LINE
8
BLACK
6
CONTINUOUS
10
65.7464
20
-18.5087
11
66.0023
21
-18.2677
0
LINE
8
BLACK
6
CONTINUOUS
10
66.0023
20
-18.2677
11
66.2826
21
-18.0556
0
LINE
8
BLACK
6
CONTINUOUS
10
66.2826
20
-18.0556
11
66.5842
21
-17.8751
0
LINE
8
BLACK
6
CONTINUOUS
10
66.5842
20
-17.8751
11
66.9036
21
-17.7282
0
LINE
8
BLACK
6
CONTINUOUS
10
66.9036
20
-17.7282
11
67.2369
21
-17.6167
0
LINE
8
BLACK
6
CONTINUOUS
10
67.2369
20
-17.6167
11
67.5804
21
-17.5418
0
LINE
8
BLACK
6
CONTINUOUS
10
67.5804
20
-17.5418
11
67.9299
21
-17.5045
0
LINE
8
BLACK
6
CONTINUOUS
10
67.9299
20
-17.5045
11
68.2814
21
-17.5051
0
LINE
8
BLACK
6
CONTINUOUS
10
68.2814
20
-17.5051
11
68.6308
21
-17.5436
0
LINE
8
BLACK
6
CONTINUOUS
10
68.6308
20
-17.5436
11
68.974
21
-17.6197
0
LINE
8
BLACK
6
CONTINUOUS
10
68.974
20
-17.6197
11
69.3069
21
-17.7324
0
LINE
8
BLACK
6
CONTINUOUS
10
69.3069
20
-17.7324
11
69.6258
21
-17.8804
0
LINE
8
BLACK
6
CONTINUOUS
10
69.6258
20
-17.8804
11
69.9268
21
-18.062
0
LINE
8
BLACK
6
CONTINUOUS
10
69.9268
20
-18.062
11
70.2064
21
-18.275
0
LINE
8
BLACK
6
CONTINUOUS
10
70.2064
20
-18.275
11
70.4614
21
-18.517
0
LINE
8
BLACK
6
CONTINUOUS
10
70.4614
20
-18.517
11
70.6887
21
-18.7851
0
LINE
8
BLACK
6
CONTINUOUS
10
70.6887
20
-18.7851
11
70.8858
21
-19.0761
0
LINE
8
BLACK
6
CONTINUOUS
10
70.8858
20
-19.0761
11
71.0503
21
-19.3868
0
LINE
8
BLACK
6
CONTINUOUS
10
71.0503
20
-19.3868
11
71.1802
21
-19.7134
0
LINE
8
BLACK
6
CONTINUOUS
10
71.1802
20
-19.7134
11
71.2742
21
-20.0521
0
LINE
8
BLACK
6
CONTINUOUS
10
71.2742
20
-20.0521
11
71.331
21
-20.399
0
LINE
8
BLACK
6
CONTINUOUS
10
71.331
20
-20.399
11
71.35
21
-20.75
0
LINE
8
BLACK
6
CONTINUOUS
10
71.35
20
-20.75
11
71.3499
21
-20.7727
0
LINE
8
BLACK
6
CONTINUOUS
10
71.3499
20
-20.7727
11
71.3285
21
-21.1235
0
LINE
8
BLACK
6
CONTINUOUS
10
71.3285
20
-21.1235
11
71.2692
21
-21.47
0
LINE
8
BLACK
6
CONTINUOUS
10
71.2692
20
-21.47
11
71.1729
21
-21.8081
0
LINE
8
BLACK
6
CONTINUOUS
10
71.1729
20
-21.8081
11
71.0407
21
-22.1338
0
LINE
8
BLACK
6
CONTINUOUS
10
71.0407
20
-22.1338
11
70.874
21
-22.4433
0
LINE
8
BLACK
6
CONTINUOUS
10
70.874
20
-22.4433
11
70.6749
21
-22.733
0
LINE
8
BLACK
6
CONTINUOUS
10
70.6749
20
-22.733
11
70.4457
21
-22.9995
0
LINE
8
BLACK
6
CONTINUOUS
10
70.4457
20
-22.9995
11
70.1891
21
-23.2396
0
LINE
8
BLACK
6
CONTINUOUS
10
70.1891
20
-23.2396
11
69.908
21
-23.4507
0
LINE
8
BLACK
6
CONTINUOUS
10
69.908
20
-23.4507
11
69.6057
21
-23.6302
0
LINE
8
BLACK
6
CONTINUOUS
10
69.6057
20
-23.6302
11
69.2858
21
-23.7759
0
LINE
8
BLACK
6
CONTINUOUS
10
69.2858
20
-23.7759
11
68.9521
21
-23.8863
0
LINE
8
BLACK
6
CONTINUOUS
10
68.9521
20
-23.8863
11
68.6084
21
-23.96
0
LINE
8
BLACK
6
CONTINUOUS
10
68.6084
20
-23.96
11
68.2588
21
-23.9961
0
LINE
8
BLACK
6
CONTINUOUS
10
68.2588
20
-23.9961
11
67.9073
21
-23.9943
0
LINE
8
BLACK
6
CONTINUOUS
10
67.9073
20
-23.9943
11
67.558
21
-23.9545
0
LINE
8
BLACK
6
CONTINUOUS
10
67.558
20
-23.9545
11
67.2151
21
-23.8772
0
LINE
8
BLACK
6
CONTINUOUS
10
67.2151
20
-23.8772
11
66.8825
21
-23.7633
0
LINE
8
BLACK
6
CONTINUOUS
10
66.8825
20
-23.7633
11
66.5642
21
-23.6142
0
LINE
8
BLACK
6
CONTINUOUS
10
66.5642
20
-23.6142
11
66.2639
21
-23.4316
0
LINE
8
BLACK
6
CONTINUOUS
10
66.2639
20
-23.4316
11
65.985
21
-23.2176
0
LINE
8
BLACK
6
CONTINUOUS
10
65.985
20
-23.2176
11
65.7309
21
-22.9748
0
LINE
8
BLACK
6
CONTINUOUS
10
65.7309
20
-22.9748
11
65.5044
21
-22.7059
0
LINE
8
BLACK
6
CONTINUOUS
10
65.5044
20
-22.7059
11
65.3084
21
-22.4141
0
LINE
8
BLACK
6
CONTINUOUS
10
65.3084
20
-22.4141
11
65.145
21
-22.1029
0
LINE
8
BLACK
6
CONTINUOUS
10
65.145
20
-22.1029
11
65.0162
21
-21.7759
0
LINE
8
BLACK
6
CONTINUOUS
10
65.0162
20
-21.7759
11
64.9234
21
-21.4368
0
LINE
8
BLACK
6
CONTINUOUS
10
64.9234
20
-21.4368
11
64.8678
21
-21.0897
0
LINE
8
BLACK
6
CONTINUOUS
10
64.8678
20
-21.0897
11
64.85
21
-20.7387
0
LINE
8
BLACK
6
CONTINUOUS
10
64.85
20
-20.7387
11
64.8519
21
-20.7059
0
LINE
8
BLACK
6
CONTINUOUS
10
64.8519
20
-20.7059
11
64.8703
21
-20.3877
0
LINE
8
BLACK
6
CONTINUOUS
10
64.8703
20
-20.3877
11
64.9283
21
-20.041
0
LINE
8
BLACK
6
CONTINUOUS
10
65.014
20
-21.406
11
65.1063
21
-21.7459
0
LINE
8
BLACK
6
CONTINUOUS
10
65.1063
20
-21.7459
11
65.236
21
-22.0734
0
LINE
8
BLACK
6
CONTINUOUS
10
65.236
20
-22.0734
11
65.4014
21
-22.3844
0
LINE
8
BLACK
6
CONTINUOUS
10
65.4014
20
-22.3844
11
65.6004
21
-22.675
0
LINE
8
BLACK
6
CONTINUOUS
10
65.6004
20
-22.675
11
65.8305
21
-22.9416
0
LINE
8
BLACK
6
CONTINUOUS
10
65.8305
20
-22.9416
11
66.089
21
-23.1809
0
LINE
8
BLACK
6
CONTINUOUS
10
66.089
20
-23.1809
11
66.3725
21
-23.39
0
LINE
8
BLACK
6
CONTINUOUS
10
66.3725
20
-23.39
11
66.6775
21
-23.5661
0
LINE
8
BLACK
6
CONTINUOUS
10
66.6775
20
-23.5661
11
67.0003
21
-23.7071
0
LINE
8
BLACK
6
CONTINUOUS
10
67.0003
20
-23.7071
11
67.3367
21
-23.8112
0
LINE
8
BLACK
6
CONTINUOUS
10
67.3367
20
-23.8112
11
67.6827
21
-23.8772
0
LINE
8
BLACK
6
CONTINUOUS
10
67.6827
20
-23.8772
11
68.0339
21
-23.9043
0
LINE
8
BLACK
6
CONTINUOUS
10
68.0339
20
-23.9043
11
68.3859
21
-23.892
0
LINE
8
BLACK
6
CONTINUOUS
10
68.3859
20
-23.892
11
68.7344
21
-23.8405
0
LINE
8
BLACK
6
CONTINUOUS
10
68.7344
20
-23.8405
11
69.0749
21
-23.7505
0
LINE
8
BLACK
6
CONTINUOUS
10
69.0749
20
-23.7505
11
69.4033
21
-23.6232
0
LINE
8
BLACK
6
CONTINUOUS
10
69.4033
20
-23.6232
11
69.7155
21
-23.46
0
LINE
8
BLACK
6
CONTINUOUS
10
69.7155
20
-23.46
11
70.0075
21
-23.263
0
LINE
8
BLACK
6
CONTINUOUS
10
70.0075
20
-23.263
11
70.2757
21
-23.0347
0
LINE
8
BLACK
6
CONTINUOUS
10
70.2757
20
-23.0347
11
70.5168
21
-22.778
0
LINE
8
BLACK
6
CONTINUOUS
10
70.5168
20
-22.778
11
70.7278
21
-22.4959
0
LINE
8
BLACK
6
CONTINUOUS
10
70.7278
20
-22.4959
11
70.9061
21
-22.1921
0
LINE
8
BLACK
6
CONTINUOUS
10
70.9061
20
-22.1921
11
71.0493
21
-21.8703
0
LINE
8
BLACK
6
CONTINUOUS
10
71.0493
20
-21.8703
11
71.1558
21
-21.5346
0
LINE
8
BLACK
6
CONTINUOUS
10
71.1558
20
-21.5346
11
71.2243
21
-21.1891
0
LINE
8
BLACK
6
CONTINUOUS
10
71.2243
20
-21.1891
11
71.2537
21
-20.8381
0
LINE
8
BLACK
6
CONTINUOUS
10
71.2537
20
-20.8381
11
71.255
21
-20.75
0
LINE
8
BLACK
6
CONTINUOUS
10
71.255
20
-20.75
11
71.2353
21
-20.3983
0
LINE
8
BLACK
6
CONTINUOUS
10
71.2353
20
-20.3983
11
71.1766
21
-20.051
0
LINE
8
BLACK
6
CONTINUOUS
10
71.1766
20
-20.051
11
71.0795
21
-19.7124
0
LINE
8
BLACK
6
CONTINUOUS
10
71.0795
20
-19.7124
11
70.9452
21
-19.3868
0
LINE
8
BLACK
6
CONTINUOUS
10
70.9452
20
-19.3868
11
70.7756
21
-19.0781
0
LINE
8
BLACK
6
CONTINUOUS
10
70.7756
20
-19.0781
11
70.5725
21
-18.7903
0
LINE
8
BLACK
6
CONTINUOUS
10
70.5725
20
-18.7903
11
70.3387
21
-18.5269
0
LINE
8
BLACK
6
CONTINUOUS
10
70.3387
20
-18.5269
11
70.0769
21
-18.2912
0
LINE
8
BLACK
6
CONTINUOUS
10
70.0769
20
-18.2912
11
69.7905
21
-18.0862
0
LINE
8
BLACK
6
CONTINUOUS
10
69.7905
20
-18.0862
11
69.483
21
-17.9143
0
LINE
8
BLACK
6
CONTINUOUS
10
69.483
20
-17.9143
11
69.1583
21
-17.7778
0
LINE
8
BLACK
6
CONTINUOUS
10
69.1583
20
-17.7778
11
68.8204
21
-17.6784
0
LINE
8
BLACK
6
CONTINUOUS
10
68.8204
20
-17.6784
11
68.4736
21
-17.6172
0
LINE
8
BLACK
6
CONTINUOUS
10
68.4736
20
-17.6172
11
68.122
21
-17.5951
0
LINE
8
BLACK
6
CONTINUOUS
10
68.122
20
-17.5951
11
67.7702
21
-17.6123
0
LINE
8
BLACK
6
CONTINUOUS
10
67.7702
20
-17.6123
11
67.4225
21
-17.6686
0
LINE
8
BLACK
6
CONTINUOUS
10
67.4225
20
-17.6686
11
67.0833
21
-17.7634
0
LINE
8
BLACK
6
CONTINUOUS
10
67.0833
20
-17.7634
11
66.7567
21
-17.8953
0
LINE
8
BLACK
6
CONTINUOUS
10
66.7567
20
-17.8953
11
66.4468
21
-18.0628
0
LINE
8
BLACK
6
CONTINUOUS
10
66.4468
20
-18.0628
11
66.1576
21
-18.2639
0
LINE
8
BLACK
6
CONTINUOUS
10
66.1576
20
-18.2639
11
65.8926
21
-18.4959
0
LINE
8
BLACK
6
CONTINUOUS
10
65.8926
20
-18.4959
11
65.6551
21
-18.756
0
LINE
8
BLACK
6
CONTINUOUS
10
65.6551
20
-18.756
11
65.448
21
-19.0409
0
LINE
8
BLACK
6
CONTINUOUS
10
65.448
20
-19.0409
11
65.2741
21
-19.3472
0
LINE
8
BLACK
6
CONTINUOUS
10
65.2741
20
-19.3472
11
65.1353
21
-19.6709
0
LINE
8
BLACK
6
CONTINUOUS
10
65.1353
20
-19.6709
11
65.0335
21
-20.0081
0
LINE
8
BLACK
6
CONTINUOUS
10
65.0335
20
-20.0081
11
64.9699
21
-20.3546
0
LINE
8
BLACK
6
CONTINUOUS
10
64.9699
20
-20.3546
11
64.9453
21
-20.7059
0
LINE
8
BLACK
6
CONTINUOUS
10
64.9453
20
-20.7059
11
64.9601
21
-21.0579
0
LINE
8
BLACK
6
CONTINUOUS
10
64.9601
20
-21.0579
11
65.014
21
-21.406
0
LINE
8
BLACK
6
CONTINUOUS
10
28.3033
20
-20.041
11
28.3984
21
-19.7026
0
LINE
8
BLACK
6
CONTINUOUS
10
28.3984
20
-19.7026
11
28.5295
21
-19.3765
0
LINE
8
BLACK
6
CONTINUOUS
10
28.5295
20
-19.3765
11
28.6951
21
-19.0664
0
LINE
8
BLACK
6
CONTINUOUS
10
28.6951
20
-19.0664
11
28.8932
21
-18.776
0
LINE
8
BLACK
6
CONTINUOUS
10
28.8932
20
-18.776
11
29.1214
21
-18.5087
0
LINE
8
BLACK
6
CONTINUOUS
10
29.1214
20
-18.5087
11
29.3773
21
-18.2677
0
LINE
8
BLACK
6
CONTINUOUS
10
29.3773
20
-18.2677
11
29.6576
21
-18.0556
0
LINE
8
BLACK
6
CONTINUOUS
10
29.6576
20
-18.0556
11
29.9592
21
-17.8751
0
LINE
8
BLACK
6
CONTINUOUS
10
29.9592
20
-17.8751
11
30.2786
21
-17.7282
0
LINE
8
BLACK
6
CONTINUOUS
10
30.2786
20
-17.7282
11
30.6119
21
-17.6167
0
LINE
8
BLACK
6
CONTINUOUS
10
30.6119
20
-17.6167
11
30.9554
21
-17.5418
0
LINE
8
BLACK
6
CONTINUOUS
10
30.9554
20
-17.5418
11
31.3049
21
-17.5045
0
LINE
8
BLACK
6
CONTINUOUS
10
31.3049
20
-17.5045
11
31.6564
21
-17.5051
0
LINE
8
BLACK
6
CONTINUOUS
10
31.6564
20
-17.5051
11
32.0058
21
-17.5436
0
LINE
8
BLACK
6
CONTINUOUS
10
32.0058
20
-17.5436
11
32.349
21
-17.6197
0
LINE
8
BLACK
6
CONTINUOUS
10
32.349
20
-17.6197
11
32.6819
21
-17.7324
0
LINE
8
BLACK
6
CONTINUOUS
10
32.6819
20
-17.7324
11
33.0008
21
-17.8804
0
LINE
8
BLACK
6
CONTINUOUS
10
33.0008
20
-17.8804
11
33.3018
21
-18.062
0
LINE
8
BLACK
6
CONTINUOUS
10
33.3018
20
-18.062
11
33.5814
21
-18.275
0
LINE
8
BLACK
6
CONTINUOUS
10
33.5814
20
-18.275
11
33.8364
21
-18.517
0
LINE
8
BLACK
6
CONTINUOUS
10
33.8364
20
-18.517
11
34.0637
21
-18.7851
0
LINE
8
BLACK
6
CONTINUOUS
10
34.0637
20
-18.7851
11
34.2608
21
-19.0761
0
LINE
8
BLACK
6
CONTINUOUS
10
34.2608
20
-19.0761
11
34.4253
21
-19.3868
0
LINE
8
BLACK
6
CONTINUOUS
10
34.4253
20
-19.3868
11
34.5552
21
-19.7134
0
LINE
8
BLACK
6
CONTINUOUS
10
34.5552
20
-19.7134
11
34.6492
21
-20.0521
0
LINE
8
BLACK
6
CONTINUOUS
10
34.6492
20
-20.0521
11
34.706
21
-20.399
0
LINE
8
BLACK
6
CONTINUOUS
10
34.706
20
-20.399
11
34.725
21
-20.75
0
LINE
8
BLACK
6
CONTINUOUS
10
34.725
20
-20.75
11
34.7249
21
-20.7727
0
LINE
8
BLACK
6
CONTINUOUS
10
34.7249
20
-20.7727
11
34.7035
21
-21.1235
0
LINE
8
BLACK
6
CONTINUOUS
10
34.7035
20
-21.1235
11
34.6442
21
-21.47
0
LINE
8
BLACK
6
CONTINUOUS
10
34.6442
20
-21.47
11
34.5479
21
-21.8081
0
LINE
8
BLACK
6
CONTINUOUS
10
34.5479
20
-21.8081
11
34.4157
21
-22.1338
0
LINE
8
BLACK
6
CONTINUOUS
10
34.4157
20
-22.1338
11
34.249
21
-22.4433
0
LINE
8
BLACK
6
CONTINUOUS
10
34.249
20
-22.4433
11
34.0499
21
-22.733
0
LINE
8
BLACK
6
CONTINUOUS
10
34.0499
20
-22.733
11
33.8207
21
-22.9995
0
LINE
8
BLACK
6
CONTINUOUS
10
33.8207
20
-22.9995
11
33.5641
21
-23.2396
0
LINE
8
BLACK
6
CONTINUOUS
10
33.5641
20
-23.2396
11
33.283
21
-23.4507
0
LINE
8
BLACK
6
CONTINUOUS
10
33.283
20
-23.4507
11
32.9807
21
-23.6302
0
LINE
8
BLACK
6
CONTINUOUS
10
32.9807
20
-23.6302
11
32.6608
21
-23.7759
0
LINE
8
BLACK
6
CONTINUOUS
10
32.6608
20
-23.7759
11
32.3271
21
-23.8863
0
LINE
8
BLACK
6
CONTINUOUS
10
32.3271
20
-23.8863
11
31.9834
21
-23.96
0
LINE
8
BLACK
6
CONTINUOUS
10
31.9834
20
-23.96
11
31.6338
21
-23.9961
0
LINE
8
BLACK
6
CONTINUOUS
10
31.6338
20
-23.9961
11
31.2823
21
-23.9943
0
LINE
8
BLACK
6
CONTINUOUS
10
31.2823
20
-23.9943
11
30.933
21
-23.9545
0
LINE
8
BLACK
6
CONTINUOUS
10
30.933
20
-23.9545
11
30.5901
21
-23.8772
0
LINE
8
BLACK
6
CONTINUOUS
10
30.5901
20
-23.8772
11
30.2575
21
-23.7633
0
LINE
8
BLACK
6
CONTINUOUS
10
30.2575
20
-23.7633
11
29.9392
21
-23.6142
0
LINE
8
BLACK
6
CONTINUOUS
10
29.9392
20
-23.6142
11
29.6389
21
-23.4316
0
LINE
8
BLACK
6
CONTINUOUS
10
29.6389
20
-23.4316
11
29.36
21
-23.2176
0
LINE
8
BLACK
6
CONTINUOUS
10
29.36
20
-23.2176
11
29.1059
21
-22.9748
0
LINE
8
BLACK
6
CONTINUOUS
10
29.1059
20
-22.9748
11
28.8794
21
-22.7059
0
LINE
8
BLACK
6
CONTINUOUS
10
28.8794
20
-22.7059
11
28.6834
21
-22.4141
0
LINE
8
BLACK
6
CONTINUOUS
10
28.6834
20
-22.4141
11
28.52
21
-22.1029
0
LINE
8
BLACK
6
CONTINUOUS
10
28.52
20
-22.1029
11
28.3912
21
-21.7759
0
LINE
8
BLACK
6
CONTINUOUS
10
28.3912
20
-21.7759
11
28.2984
21
-21.4368
0
LINE
8
BLACK
6
CONTINUOUS
10
28.2984
20
-21.4368
11
28.2428
21
-21.0897
0
LINE
8
BLACK
6
CONTINUOUS
10
28.2428
20
-21.0897
11
28.225
21
-20.7387
0
LINE
8
BLACK
6
CONTINUOUS
10
28.225
20
-20.7387
11
28.2269
21
-20.7059
0
LINE
8
BLACK
6
CONTINUOUS
10
28.2269
20
-20.7059
11
28.2453
21
-20.3877
0
LINE
8
BLACK
6
CONTINUOUS
10
28.2453
20
-20.3877
11
28.3033
21
-20.041
0
LINE
8
BLACK
6
CONTINUOUS
10
28.389
20
-21.406
11
28.4813
21
-21.7459
0
LINE
8
BLACK
6
CONTINUOUS
10
28.4813
20
-21.7459
11
28.611
21
-22.0734
0
LINE
8
BLACK
6
CONTINUOUS
10
28.611
20
-22.0734
11
28.7764
21
-22.3844
0
LINE
8
BLACK
6
CONTINUOUS
10
28.7764
20
-22.3844
11
28.9754
21
-22.675
0
LINE
8
BLACK
6
CONTINUOUS
10
28.9754
20
-22.675
11
29.2055
21
-22.9416
0
LINE
8
BLACK
6
CONTINUOUS
10
29.2055
20
-22.9416
11
29.464
21
-23.1809
0
LINE
8
BLACK
6
CONTINUOUS
10
29.464
20
-23.1809
11
29.7475
21
-23.39
0
LINE
8
BLACK
6
CONTINUOUS
10
29.7475
20
-23.39
11
30.0525
21
-23.5661
0
LINE
8
BLACK
6
CONTINUOUS
10
30.0525
20
-23.5661
11
30.3753
21
-23.7071
0
LINE
8
BLACK
6
CONTINUOUS
10
30.3753
20
-23.7071
11
30.7117
21
-23.8112
0
LINE
8
BLACK
6
CONTINUOUS
10
30.7117
20
-23.8112
11
31.0577
21
-23.8772
0
LINE
8
BLACK
6
CONTINUOUS
10
31.0577
20
-23.8772
11
31.4089
21
-23.9043
0
LINE
8
BLACK
6
CONTINUOUS
10
31.4089
20
-23.9043
11
31.7609
21
-23.892
0
LINE
8
BLACK
6
CONTINUOUS
10
31.7609
20
-23.892
11
32.1094
21
-23.8405
0
LINE
8
BLACK
6
CONTINUOUS
10
32.1094
20
-23.8405
11
32.4499
21
-23.7505
0
LINE
8
BLACK
6
CONTINUOUS
10
32.4499
20
-23.7505
11
32.7783
21
-23.6232
0
LINE
8
BLACK
6
CONTINUOUS
10
32.7783
20
-23.6232
11
33.0905
21
-23.46
0
LINE
8
BLACK
6
CONTINUOUS
10
33.0905
20
-23.46
11
33.3825
21
-23.263
0
LINE
8
BLACK
6
CONTINUOUS
10
33.3825
20
-23.263
11
33.6507
21
-23.0347
0
LINE
8
BLACK
6
CONTINUOUS
10
33.6507
20
-23.0347
11
33.8918
21
-22.778
0
LINE
8
BLACK
6
CONTINUOUS
10
33.8918
20
-22.778
11
34.1028
21
-22.4959
0
LINE
8
BLACK
6
CONTINUOUS
10
34.1028
20
-22.4959
11
34.2811
21
-22.1921
0
LINE
8
BLACK
6
CONTINUOUS
10
34.2811
20
-22.1921
11
34.4243
21
-21.8703
0
LINE
8
BLACK
6
CONTINUOUS
10
34.4243
20
-21.8703
11
34.5308
21
-21.5346
0
LINE
8
BLACK
6
CONTINUOUS
10
34.5308
20
-21.5346
11
34.5993
21
-21.1891
0
LINE
8
BLACK
6
CONTINUOUS
10
34.5993
20
-21.1891
11
34.6287
21
-20.8381
0
LINE
8
BLACK
6
CONTINUOUS
10
34.6287
20
-20.8381
11
34.63
21
-20.75
0
LINE
8
BLACK
6
CONTINUOUS
10
34.63
20
-20.75
11
34.6103
21
-20.3983
0
LINE
8
BLACK
6
CONTINUOUS
10
34.6103
20
-20.3983
11
34.5516
21
-20.051
0
LINE
8
BLACK
6
CONTINUOUS
10
34.5516
20
-20.051
11
34.4545
21
-19.7124
0
LINE
8
BLACK
6
CONTINUOUS
10
34.4545
20
-19.7124
11
34.3202
21
-19.3868
0
LINE
8
BLACK
6
CONTINUOUS
10
34.3202
20
-19.3868
11
34.1506
21
-19.0781
0
LINE
8
BLACK
6
CONTINUOUS
10
34.1506
20
-19.0781
11
33.9475
21
-18.7903
0
LINE
8
BLACK
6
CONTINUOUS
10
33.9475
20
-18.7903
11
33.7137
21
-18.5269
0
LINE
8
BLACK
6
CONTINUOUS
10
33.7137
20
-18.5269
11
33.4519
21
-18.2912
0
LINE
8
BLACK
6
CONTINUOUS
10
33.4519
20
-18.2912
11
33.1655
21
-18.0862
0
LINE
8
BLACK
6
CONTINUOUS
10
33.1655
20
-18.0862
11
32.858
21
-17.9143
0
LINE
8
BLACK
6
CONTINUOUS
10
32.858
20
-17.9143
11
32.5333
21
-17.7778
0
LINE
8
BLACK
6
CONTINUOUS
10
32.5333
20
-17.7778
11
32.1954
21
-17.6784
0
LINE
8
BLACK
6
CONTINUOUS
10
32.1954
20
-17.6784
11
31.8486
21
-17.6172
0
LINE
8
BLACK
6
CONTINUOUS
10
31.8486
20
-17.6172
11
31.497
21
-17.5951
0
LINE
8
BLACK
6
CONTINUOUS
10
31.497
20
-17.5951
11
31.1452
21
-17.6123
0
LINE
8
BLACK
6
CONTINUOUS
10
31.1452
20
-17.6123
11
30.7975
21
-17.6686
0
LINE
8
BLACK
6
CONTINUOUS
10
30.7975
20
-17.6686
11
30.4583
21
-17.7634
0
LINE
8
BLACK
6
CONTINUOUS
10
30.4583
20
-17.7634
11
30.1317
21
-17.8953
0
LINE
8
BLACK
6
CONTINUOUS
10
30.1317
20
-17.8953
11
29.8218
21
-18.0628
0
LINE
8
BLACK
6
CONTINUOUS
10
29.8218
20
-18.0628
11
29.5326
21
-18.2639
0
LINE
8
BLACK
6
CONTINUOUS
10
29.5326
20
-18.2639
11
29.2676
21
-18.4959
0
LINE
8
BLACK
6
CONTINUOUS
10
29.2676
20
-18.4959
11
29.0301
21
-18.756
0
LINE
8
BLACK
6
CONTINUOUS
10
29.0301
20
-18.756
11
28.823
21
-19.0409
0
LINE
8
BLACK
6
CONTINUOUS
10
28.823
20
-19.0409
11
28.6491
21
-19.3472
0
LINE
8
BLACK
6
CONTINUOUS
10
28.6491
20
-19.3472
11
28.5103
21
-19.6709
0
LINE
8
BLACK
6
CONTINUOUS
10
28.5103
20
-19.6709
11
28.4085
21
-20.0081
0
LINE
8
BLACK
6
CONTINUOUS
10
28.4085
20
-20.0081
11
28.3449
21
-20.3546
0
LINE
8
BLACK
6
CONTINUOUS
10
28.3449
20
-20.3546
11
28.3203
21
-20.7059
0
LINE
8
BLACK
6
CONTINUOUS
10
28.3203
20
-20.7059
11
28.3351
21
-21.0579
0
LINE
8
BLACK
6
CONTINUOUS
10
28.3351
20
-21.0579
11
28.389
21
-21.406
0
LINE
8
BLACK
6
CONTINUOUS
10
9.92827
20
-20.041
11
10.0234
21
-19.7026
0
LINE
8
BLACK
6
CONTINUOUS
10
10.0234
20
-19.7026
11
10.1545
21
-19.3765
0
LINE
8
BLACK
6
CONTINUOUS
10
10.1545
20
-19.3765
11
10.3201
21
-19.0664
0
LINE
8
BLACK
6
CONTINUOUS
10
10.3201
20
-19.0664
11
10.5182
21
-18.776
0
LINE
8
BLACK
6
CONTINUOUS
10
10.5182
20
-18.776
11
10.7464
21
-18.5087
0
LINE
8
BLACK
6
CONTINUOUS
10
10.7464
20
-18.5087
11
11.0023
21
-18.2677
0
LINE
8
BLACK
6
CONTINUOUS
10
11.0023
20
-18.2677
11
11.2826
21
-18.0556
0
LINE
8
BLACK
6
CONTINUOUS
10
11.2826
20
-18.0556
11
11.5842
21
-17.8751
0
LINE
8
BLACK
6
CONTINUOUS
10
11.5842
20
-17.8751
11
11.9036
21
-17.7282
0
LINE
8
BLACK
6
CONTINUOUS
10
11.9036
20
-17.7282
11
12.2369
21
-17.6167
0
LINE
8
BLACK
6
CONTINUOUS
10
12.2369
20
-17.6167
11
12.5804
21
-17.5418
0
LINE
8
BLACK
6
CONTINUOUS
10
12.5804
20
-17.5418
11
12.9299
21
-17.5045
0
LINE
8
BLACK
6
CONTINUOUS
10
12.9299
20
-17.5045
11
13.2814
21
-17.5051
0
LINE
8
BLACK
6
CONTINUOUS
10
13.2814
20
-17.5051
11
13.6308
21
-17.5436
0
LINE
8
BLACK
6
CONTINUOUS
10
13.6308
20
-17.5436
11
13.974
21
-17.6197
0
LINE
8
BLACK
6
CONTINUOUS
10
13.974
20
-17.6197
11
14.3069
21
-17.7324
0
LINE
8
BLACK
6
CONTINUOUS
10
14.3069
20
-17.7324
11
14.6258
21
-17.8804
0
LINE
8
BLACK
6
CONTINUOUS
10
14.6258
20
-17.8804
11
14.9268
21
-18.062
0
LINE
8
BLACK
6
CONTINUOUS
10
14.9268
20
-18.062
11
15.2064
21
-18.275
0
LINE
8
BLACK
6
CONTINUOUS
10
15.2064
20
-18.275
11
15.4614
21
-18.517
0
LINE
8
BLACK
6
CONTINUOUS
10
15.4614
20
-18.517
11
15.6887
21
-18.7851
0
LINE
8
BLACK
6
CONTINUOUS
10
15.6887
20
-18.7851
11
15.8858
21
-19.0761
0
LINE
8
BLACK
6
CONTINUOUS
10
15.8858
20
-19.0761
11
16.0503
21
-19.3868
0
LINE
8
BLACK
6
CONTINUOUS
10
16.0503
20
-19.3868
11
16.1802
21
-19.7134
0
LINE
8
BLACK
6
CONTINUOUS
10
16.1802
20
-19.7134
11
16.2742
21
-20.0521
0
LINE
8
BLACK
6
CONTINUOUS
10
16.2742
20
-20.0521
11
16.331
21
-20.399
0
LINE
8
BLACK
6
CONTINUOUS
10
16.331
20
-20.399
11
16.35
21
-20.75
0
LINE
8
BLACK
6
CONTINUOUS
10
16.35
20
-20.75
11
16.3499
21
-20.7727
0
LINE
8
BLACK
6
CONTINUOUS
10
16.3499
20
-20.7727
11
16.3285
21
-21.1235
0
LINE
8
BLACK
6
CONTINUOUS
10
16.3285
20
-21.1235
11
16.2692
21
-21.47
0
LINE
8
BLACK
6
CONTINUOUS
10
16.2692
20
-21.47
11
16.1729
21
-21.8081
0
LINE
8
BLACK
6
CONTINUOUS
10
16.1729
20
-21.8081
11
16.0407
21
-22.1338
0
LINE
8
BLACK
6
CONTINUOUS
10
16.0407
20
-22.1338
11
15.874
21
-22.4433
0
LINE
8
BLACK
6
CONTINUOUS
10
15.874
20
-22.4433
11
15.6749
21
-22.733
0
LINE
8
BLACK
6
CONTINUOUS
10
15.6749
20
-22.733
11
15.4457
21
-22.9995
0
LINE
8
BLACK
6
CONTINUOUS
10
15.4457
20
-22.9995
11
15.1891
21
-23.2396
0
LINE
8
BLACK
6
CONTINUOUS
10
15.1891
20
-23.2396
11
14.908
21
-23.4507
0
LINE
8
BLACK
6
CONTINUOUS
10
14.908
20
-23.4507
11
14.6057
21
-23.6302
0
LINE
8
BLACK
6
CONTINUOUS
10
14.6057
20
-23.6302
11
14.2858
21
-23.7759
0
LINE
8
BLACK
6
CONTINUOUS
10
14.2858
20
-23.7759
11
13.9521
21
-23.8863
0
LINE
8
BLACK
6
CONTINUOUS
10
13.9521
20
-23.8863
11
13.6084
21
-23.96
0
LINE
8
BLACK
6
CONTINUOUS
10
13.6084
20
-23.96
11
13.2588
21
-23.9961
0
LINE
8
BLACK
6
CONTINUOUS
10
13.2588
20
-23.9961
11
12.9073
21
-23.9943
0
LINE
8
BLACK
6
CONTINUOUS
10
12.9073
20
-23.9943
11
12.558
21
-23.9545
0
LINE
8
BLACK
6
CONTINUOUS
10
12.558
20
-23.9545
11
12.2151
21
-23.8772
0
LINE
8
BLACK
6
CONTINUOUS
10
12.2151
20
-23.8772
11
11.8825
21
-23.7633
0
LINE
8
BLACK
6
CONTINUOUS
10
11.8825
20
-23.7633
11
11.5642
21
-23.6142
0
LINE
8
BLACK
6
CONTINUOUS
10
11.5642
20
-23.6142
11
11.2639
21
-23.4316
0
LINE
8
BLACK
6
CONTINUOUS
10
11.2639
20
-23.4316
11
10.985
21
-23.2176
0
LINE
8
BLACK
6
CONTINUOUS
10
10.985
20
-23.2176
11
10.7309
21
-22.9748
0
LINE
8
BLACK
6
CONTINUOUS
10
10.7309
20
-22.9748
11
10.5044
21
-22.7059
0
LINE
8
BLACK
6
CONTINUOUS
10
10.5044
20
-22.7059
11
10.3084
21
-22.4141
0
LINE
8
BLACK
6
CONTINUOUS
10
10.3084
20
-22.4141
11
10.145
21
-22.1029
0
LINE
8
BLACK
6
CONTINUOUS
10
10.145
20
-22.1029
11
10.0162
21
-21.7759
0
LINE
8
BLACK
6
CONTINUOUS
10
10.0162
20
-21.7759
11
9.9234
21
-21.4368
0
LINE
8
BLACK
6
CONTINUOUS
10
9.9234
20
-21.4368
11
9.8678
21
-21.0897
0
LINE
8
BLACK
6
CONTINUOUS
10
9.8678
20
-21.0897
11
9.85002
21
-20.7387
0
LINE
8
BLACK
6
CONTINUOUS
10
9.85002
20
-20.7387
11
9.85191
21
-20.7059
0
LINE
8
BLACK
6
CONTINUOUS
10
9.85191
20
-20.7059
11
9.87025
21
-20.3877
0
LINE
8
BLACK
6
CONTINUOUS
10
9.87025
20
-20.3877
11
9.92827
21
-20.041
0
LINE
8
BLACK
6
CONTINUOUS
10
10.014
20
-21.406
11
10.1063
21
-21.7459
0
LINE
8
BLACK
6
CONTINUOUS
10
10.1063
20
-21.7459
11
10.236
21
-22.0734
0
LINE
8
BLACK
6
CONTINUOUS
10
10.236
20
-22.0734
11
10.4014
21
-22.3844
0
LINE
8
BLACK
6
CONTINUOUS
10
10.4014
20
-22.3844
11
10.6004
21
-22.675
0
LINE
8
BLACK
6
CONTINUOUS
10
10.6004
20
-22.675
11
10.8305
21
-22.9416
0
LINE
8
BLACK
6
CONTINUOUS
10
10.8305
20
-22.9416
11
11.089
21
-23.1809
0
LINE
8
BLACK
6
CONTINUOUS
10
11.089
20
-23.1809
11
11.3725
21
-23.39
0
LINE
8
BLACK
6
CONTINUOUS
10
11.3725
20
-23.39
11
11.6775
21
-23.5661
0
LINE
8
BLACK
6
CONTINUOUS
10
11.6775
20
-23.5661
11
12.0003
21
-23.7071
0
LINE
8
BLACK
6
CONTINUOUS
10
12.0003
20
-23.7071
11
12.3367
21
-23.8112
0
LINE
8
BLACK
6
CONTINUOUS
10
12.3367
20
-23.8112
11
12.6827
21
-23.8772
0
LINE
8
BLACK
6
CONTINUOUS
10
12.6827
20
-23.8772
11
13.0339
21
-23.9043
0
LINE
8
BLACK
6
CONTINUOUS
10
13.0339
20
-23.9043
11
13.3859
21
-23.892
0
LINE
8
BLACK
6
CONTINUOUS
10
13.3859
20
-23.892
11
13.7344
21
-23.8405
0
LINE
8
BLACK
6
CONTINUOUS
10
13.7344
20
-23.8405
11
14.0749
21
-23.7505
0
LINE
8
BLACK
6
CONTINUOUS
10
14.0749
20
-23.7505
11
14.4033
21
-23.6232
0
LINE
8
BLACK
6
CONTINUOUS
10
14.4033
20
-23.6232
11
14.7155
21
-23.46
0
LINE
8
BLACK
6
CONTINUOUS
10
14.7155
20
-23.46
11
15.0075
21
-23.263
0
LINE
8
BLACK
6
CONTINUOUS
10
15.0075
20
-23.263
11
15.2757
21
-23.0347
0
LINE
8
BLACK
6
CONTINUOUS
10
15.2757
20
-23.0347
11
15.5168
21
-22.778
0
LINE
8
BLACK
6
CONTINUOUS
10
15.5168
20
-22.778
11
15.7278
21
-22.4959
0
LINE
8
BLACK
6
CONTINUOUS
10
15.7278
20
-22.4959
11
15.9061
21
-22.1921
0
LINE
8
BLACK
6
CONTINUOUS
10
15.9061
20
-22.1921
11
16.0493
21
-21.8703
0
LINE
8
BLACK
6
CONTINUOUS
10
16.0493
20
-21.8703
11
16.1558
21
-21.5346
0
LINE
8
BLACK
6
CONTINUOUS
10
16.1558
20
-21.5346
11
16.2243
21
-21.1891
0
LINE
8
BLACK
6
CONTINUOUS
10
16.2243
20
-21.1891
11
16.2537
21
-20.8381
0
LINE
8
BLACK
6
CONTINUOUS
10
16.2537
20
-20.8381
11
16.255
21
-20.75
0
LINE
8
BLACK
6
CONTINUOUS
10
16.255
20
-20.75
11
16.2353
21
-20.3983
0
LINE
8
BLACK
6
CONTINUOUS
10
16.2353
20
-20.3983
11
16.1766
21
-20.051
0
LINE
8
BLACK
6
CONTINUOUS
10
16.1766
20
-20.051
11
16.0795
21
-19.7124
0
LINE
8
BLACK
6
CONTINUOUS
10
16.0795
20
-19.7124
11
15.9452
21
-19.3868
0
LINE
8
BLACK
6
CONTINUOUS
10
15.9452
20
-19.3868
11
15.7756
21
-19.0781
0
LINE
8
BLACK
6
CONTINUOUS
10
15.7756
20
-19.0781
11
15.5725
21
-18.7903
0
LINE
8
BLACK
6
CONTINUOUS
10
15.5725
20
-18.7903
11
15.3387
21
-18.5269
0
LINE
8
BLACK
6
CONTINUOUS
10
15.3387
20
-18.5269
11
15.0769
21
-18.2912
0
LINE
8
BLACK
6
CONTINUOUS
10
15.0769
20
-18.2912
11
14.7905
21
-18.0862
0
LINE
8
BLACK
6
CONTINUOUS
10
14.7905
20
-18.0862
11
14.483
21
-17.9143
0
LINE
8
BLACK
6
CONTINUOUS
10
14.483
20
-17.9143
11
14.1583
21
-17.7778
0
LINE
8
BLACK
6
CONTINUOUS
10
14.1583
20
-17.7778
11
13.8204
21
-17.6784
0
LINE
8
BLACK
6
CONTINUOUS
10
13.8204
20
-17.6784
11
13.4736
21
-17.6172
0
LINE
8
BLACK
6
CONTINUOUS
10
13.4736
20
-17.6172
11
13.122
21
-17.5951
0
LINE
8
BLACK
6
CONTINUOUS
10
13.122
20
-17.5951
11
12.7702
21
-17.6123
0
LINE
8
BLACK
6
CONTINUOUS
10
12.7702
20
-17.6123
11
12.4225
21
-17.6686
0
LINE
8
BLACK
6
CONTINUOUS
10
12.4225
20
-17.6686
11
12.0833
21
-17.7634
0
LINE
8
BLACK
6
CONTINUOUS
10
12.0833
20
-17.7634
11
11.7567
21
-17.8953
0
LINE
8
BLACK
6
CONTINUOUS
10
11.7567
20
-17.8953
11
11.4468
21
-18.0628
0
LINE
8
BLACK
6
CONTINUOUS
10
11.4468
20
-18.0628
11
11.1576
21
-18.2639
0
LINE
8
BLACK
6
CONTINUOUS
10
11.1576
20
-18.2639
11
10.8926
21
-18.4959
0
LINE
8
BLACK
6
CONTINUOUS
10
10.8926
20
-18.4959
11
10.6551
21
-18.756
0
LINE
8
BLACK
6
CONTINUOUS
10
10.6551
20
-18.756
11
10.448
21
-19.0409
0
LINE
8
BLACK
6
CONTINUOUS
10
10.448
20
-19.0409
11
10.2741
21
-19.3472
0
LINE
8
BLACK
6
CONTINUOUS
10
10.2741
20
-19.3472
11
10.1353
21
-19.6709
0
LINE
8
BLACK
6
CONTINUOUS
10
10.1353
20
-19.6709
11
10.0335
21
-20.0081
0
LINE
8
BLACK
6
CONTINUOUS
10
10.0335
20
-20.0081
11
9.96992
21
-20.3546
0
LINE
8
BLACK
6
CONTINUOUS
10
9.96992
20
-20.3546
11
9.94534
21
-20.7059
0
LINE
8
BLACK
6
CONTINUOUS
10
9.94534
20
-20.7059
11
9.96009
21
-21.0579
0
LINE
8
BLACK
6
CONTINUOUS
10
9.96009
20
-21.0579
11
10.014
21
-21.406
0
LINE
8
BLACK
6
CONTINUOUS
10
46.5533
20
-20.041
11
46.6484
21
-19.7026
0
LINE
8
BLACK
6
CONTINUOUS
10
46.6484
20
-19.7026
11
46.7795
21
-19.3765
0
LINE
8
BLACK
6
CONTINUOUS
10
46.7795
20
-19.3765
11
46.9451
21
-19.0664
0
LINE
8
BLACK
6
CONTINUOUS
10
46.9451
20
-19.0664
11
47.1432
21
-18.776
0
LINE
8
BLACK
6
CONTINUOUS
10
47.1432
20
-18.776
11
47.3714
21
-18.5087
0
LINE
8
BLACK
6
CONTINUOUS
10
47.3714
20
-18.5087
11
47.6273
21
-18.2677
0
LINE
8
BLACK
6
CONTINUOUS
10
47.6273
20
-18.2677
11
47.9076
21
-18.0556
0
LINE
8
BLACK
6
CONTINUOUS
10
47.9076
20
-18.0556
11
48.2092
21
-17.8751
0
LINE
8
BLACK
6
CONTINUOUS
10
48.2092
20
-17.8751
11
48.5286
21
-17.7282
0
LINE
8
BLACK
6
CONTINUOUS
10
48.5286
20
-17.7282
11
48.8619
21
-17.6167
0
LINE
8
BLACK
6
CONTINUOUS
10
48.8619
20
-17.6167
11
49.2054
21
-17.5418
0
LINE
8
BLACK
6
CONTINUOUS
10
49.2054
20
-17.5418
11
49.5549
21
-17.5045
0
LINE
8
BLACK
6
CONTINUOUS
10
49.5549
20
-17.5045
11
49.9064
21
-17.5051
0
LINE
8
BLACK
6
CONTINUOUS
10
49.9064
20
-17.5051
11
50.2558
21
-17.5436
0
LINE
8
BLACK
6
CONTINUOUS
10
50.2558
20
-17.5436
11
50.599
21
-17.6197
0
LINE
8
BLACK
6
CONTINUOUS
10
50.599
20
-17.6197
11
50.9319
21
-17.7324
0
LINE
8
BLACK
6
CONTINUOUS
10
50.9319
20
-17.7324
11
51.2508
21
-17.8804
0
LINE
8
BLACK
6
CONTINUOUS
10
51.2508
20
-17.8804
11
51.5518
21
-18.062
0
LINE
8
BLACK
6
CONTINUOUS
10
51.5518
20
-18.062
11
51.8314
21
-18.275
0
LINE
8
BLACK
6
CONTINUOUS
10
51.8314
20
-18.275
11
52.0864
21
-18.517
0
LINE
8
BLACK
6
CONTINUOUS
10
52.0864
20
-18.517
11
52.3137
21
-18.7851
0
LINE
8
BLACK
6
CONTINUOUS
10
52.3137
20
-18.7851
11
52.5108
21
-19.0761
0
LINE
8
BLACK
6
CONTINUOUS
10
52.5108
20
-19.0761
11
52.6753
21
-19.3868
0
LINE
8
BLACK
6
CONTINUOUS
10
52.6753
20
-19.3868
11
52.8052
21
-19.7134
0
LINE
8
BLACK
6
CONTINUOUS
10
52.8052
20
-19.7134
11
52.8992
21
-20.0521
0
LINE
8
BLACK
6
CONTINUOUS
10
52.8992
20
-20.0521
11
52.956
21
-20.399
0
LINE
8
BLACK
6
CONTINUOUS
10
52.956
20
-20.399
11
52.975
21
-20.75
0
LINE
8
BLACK
6
CONTINUOUS
10
52.975
20
-20.75
11
52.9749
21
-20.7727
0
LINE
8
BLACK
6
CONTINUOUS
10
52.9749
20
-20.7727
11
52.9535
21
-21.1235
0
LINE
8
BLACK
6
CONTINUOUS
10
52.9535
20
-21.1235
11
52.8942
21
-21.47
0
LINE
8
BLACK
6
CONTINUOUS
10
52.8942
20
-21.47
11
52.7979
21
-21.8081
0
LINE
8
BLACK
6
CONTINUOUS
10
52.7979
20
-21.8081
11
52.6657
21
-22.1338
0
LINE
8
BLACK
6
CONTINUOUS
10
52.6657
20
-22.1338
11
52.499
21
-22.4433
0
LINE
8
BLACK
6
CONTINUOUS
10
52.499
20
-22.4433
11
52.2999
21
-22.733
0
LINE
8
BLACK
6
CONTINUOUS
10
52.2999
20
-22.733
11
52.0707
21
-22.9995
0
LINE
8
BLACK
6
CONTINUOUS
10
52.0707
20
-22.9995
11
51.8141
21
-23.2396
0
LINE
8
BLACK
6
CONTINUOUS
10
51.8141
20
-23.2396
11
51.533
21
-23.4507
0
LINE
8
BLACK
6
CONTINUOUS
10
51.533
20
-23.4507
11
51.2307
21
-23.6302
0
LINE
8
BLACK
6
CONTINUOUS
10
51.2307
20
-23.6302
11
50.9108
21
-23.7759
0
LINE
8
BLACK
6
CONTINUOUS
10
50.9108
20
-23.7759
11
50.5771
21
-23.8863
0
LINE
8
BLACK
6
CONTINUOUS
10
50.5771
20
-23.8863
11
50.2334
21
-23.96
0
LINE
8
BLACK
6
CONTINUOUS
10
50.2334
20
-23.96
11
49.8838
21
-23.9961
0
LINE
8
BLACK
6
CONTINUOUS
10
49.8838
20
-23.9961
11
49.5323
21
-23.9943
0
LINE
8
BLACK
6
CONTINUOUS
10
49.5323
20
-23.9943
11
49.183
21
-23.9545
0
LINE
8
BLACK
6
CONTINUOUS
10
49.183
20
-23.9545
11
48.8401
21
-23.8772
0
LINE
8
BLACK
6
CONTINUOUS
10
48.8401
20
-23.8772
11
48.5075
21
-23.7633
0
LINE
8
BLACK
6
CONTINUOUS
10
48.5075
20
-23.7633
11
48.1892
21
-23.6142
0
LINE
8
BLACK
6
CONTINUOUS
10
48.1892
20
-23.6142
11
47.8889
21
-23.4316
0
LINE
8
BLACK
6
CONTINUOUS
10
47.8889
20
-23.4316
11
47.61
21
-23.2176
0
LINE
8
BLACK
6
CONTINUOUS
10
47.61
20
-23.2176
11
47.3559
21
-22.9748
0
LINE
8
BLACK
6
CONTINUOUS
10
47.3559
20
-22.9748
11
47.1294
21
-22.7059
0
LINE
8
BLACK
6
CONTINUOUS
10
47.1294
20
-22.7059
11
46.9334
21
-22.4141
0
LINE
8
BLACK
6
CONTINUOUS
10
46.9334
20
-22.4141
11
46.77
21
-22.1029
0
LINE
8
BLACK
6
CONTINUOUS
10
46.77
20
-22.1029
11
46.6412
21
-21.7759
0
LINE
8
BLACK
6
CONTINUOUS
10
46.6412
20
-21.7759
11
46.5484
21
-21.4368
0
LINE
8
BLACK
6
CONTINUOUS
10
46.5484
20
-21.4368
11
46.4928
21
-21.0897
0
LINE
8
BLACK
6
CONTINUOUS
10
46.4928
20
-21.0897
11
46.475
21
-20.7387
0
LINE
8
BLACK
6
CONTINUOUS
10
46.475
20
-20.7387
11
46.4769
21
-20.7059
0
LINE
8
BLACK
6
CONTINUOUS
10
46.4769
20
-20.7059
11
46.4953
21
-20.3877
0
LINE
8
BLACK
6
CONTINUOUS
10
46.4953
20
-20.3877
11
46.5533
21
-20.041
0
LINE
8
BLACK
6
CONTINUOUS
10
46.639
20
-21.406
11
46.7313
21
-21.7459
0
LINE
8
BLACK
6
CONTINUOUS
10
46.7313
20
-21.7459
11
46.861
21
-22.0734
0
LINE
8
BLACK
6
CONTINUOUS
10
46.861
20
-22.0734
11
47.0264
21
-22.3844
0
LINE
8
BLACK
6
CONTINUOUS
10
47.0264
20
-22.3844
11
47.2254
21
-22.675
0
LINE
8
BLACK
6
CONTINUOUS
10
47.2254
20
-22.675
11
47.4555
21
-22.9416
0
LINE
8
BLACK
6
CONTINUOUS
10
47.4555
20
-22.9416
11
47.714
21
-23.1809
0
LINE
8
BLACK
6
CONTINUOUS
10
47.714
20
-23.1809
11
47.9975
21
-23.39
0
LINE
8
BLACK
6
CONTINUOUS
10
47.9975
20
-23.39
11
48.3025
21
-23.5661
0
LINE
8
BLACK
6
CONTINUOUS
10
48.3025
20
-23.5661
11
48.6253
21
-23.7071
0
LINE
8
BLACK
6
CONTINUOUS
10
48.6253
20
-23.7071
11
48.9617
21
-23.8112
0
LINE
8
BLACK
6
CONTINUOUS
10
48.9617
20
-23.8112
11
49.3077
21
-23.8772
0
LINE
8
BLACK
6
CONTINUOUS
10
49.3077
20
-23.8772
11
49.6589
21
-23.9043
0
LINE
8
BLACK
6
CONTINUOUS
10
49.6589
20
-23.9043
11
50.0109
21
-23.892
0
LINE
8
BLACK
6
CONTINUOUS
10
50.0109
20
-23.892
11
50.3594
21
-23.8405
0
LINE
8
BLACK
6
CONTINUOUS
10
50.3594
20
-23.8405
11
50.6999
21
-23.7505
0
LINE
8
BLACK
6
CONTINUOUS
10
50.6999
20
-23.7505
11
51.0283
21
-23.6232
0
LINE
8
BLACK
6
CONTINUOUS
10
51.0283
20
-23.6232
11
51.3405
21
-23.46
0
LINE
8
BLACK
6
CONTINUOUS
10
51.3405
20
-23.46
11
51.6325
21
-23.263
0
LINE
8
BLACK
6
CONTINUOUS
10
51.6325
20
-23.263
11
51.9007
21
-23.0347
0
LINE
8
BLACK
6
CONTINUOUS
10
51.9007
20
-23.0347
11
52.1418
21
-22.778
0
LINE
8
BLACK
6
CONTINUOUS
10
52.1418
20
-22.778
11
52.3528
21
-22.4959
0
LINE
8
BLACK
6
CONTINUOUS
10
52.3528
20
-22.4959
11
52.5311
21
-22.1921
0
LINE
8
BLACK
6
CONTINUOUS
10
52.5311
20
-22.1921
11
52.6743
21
-21.8703
0
LINE
8
BLACK
6
CONTINUOUS
10
52.6743
20
-21.8703
11
52.7808
21
-21.5346
0
LINE
8
BLACK
6
CONTINUOUS
10
52.7808
20
-21.5346
11
52.8493
21
-21.1891
0
LINE
8
BLACK
6
CONTINUOUS
10
52.8493
20
-21.1891
11
52.8787
21
-20.8381
0
LINE
8
BLACK
6
CONTINUOUS
10
52.8787
20
-20.8381
11
52.88
21
-20.75
0
LINE
8
BLACK
6
CONTINUOUS
10
52.88
20
-20.75
11
52.8603
21
-20.3983
0
LINE
8
BLACK
6
CONTINUOUS
10
52.8603
20
-20.3983
11
52.8016
21
-20.051
0
LINE
8
BLACK
6
CONTINUOUS
10
52.8016
20
-20.051
11
52.7045
21
-19.7124
0
LINE
8
BLACK
6
CONTINUOUS
10
52.7045
20
-19.7124
11
52.5702
21
-19.3868
0
LINE
8
BLACK
6
CONTINUOUS
10
52.5702
20
-19.3868
11
52.4006
21
-19.0781
0
LINE
8
BLACK
6
CONTINUOUS
10
52.4006
20
-19.0781
11
52.1975
21
-18.7903
0
LINE
8
BLACK
6
CONTINUOUS
10
52.1975
20
-18.7903
11
51.9637
21
-18.5269
0
LINE
8
BLACK
6
CONTINUOUS
10
51.9637
20
-18.5269
11
51.7019
21
-18.2912
0
LINE
8
BLACK
6
CONTINUOUS
10
51.7019
20
-18.2912
11
51.4155
21
-18.0862
0
LINE
8
BLACK
6
CONTINUOUS
10
51.4155
20
-18.0862
11
51.108
21
-17.9143
0
LINE
8
BLACK
6
CONTINUOUS
10
51.108
20
-17.9143
11
50.7833
21
-17.7778
0
LINE
8
BLACK
6
CONTINUOUS
10
50.7833
20
-17.7778
11
50.4454
21
-17.6784
0
LINE
8
BLACK
6
CONTINUOUS
10
50.4454
20
-17.6784
11
50.0986
21
-17.6172
0
LINE
8
BLACK
6
CONTINUOUS
10
50.0986
20
-17.6172
11
49.747
21
-17.5951
0
LINE
8
BLACK
6
CONTINUOUS
10
49.747
20
-17.5951
11
49.3952
21
-17.6123
0
LINE
8
BLACK
6
CONTINUOUS
10
49.3952
20
-17.6123
11
49.0475
21
-17.6686
0
LINE
8
BLACK
6
CONTINUOUS
10
49.0475
20
-17.6686
11
48.7083
21
-17.7634
0
LINE
8
BLACK
6
CONTINUOUS
10
48.7083
20
-17.7634
11
48.3817
21
-17.8953
0
LINE
8
BLACK
6
CONTINUOUS
10
48.3817
20
-17.8953
11
48.0718
21
-18.0628
0
LINE
8
BLACK
6
CONTINUOUS
10
48.0718
20
-18.0628
11
47.7826
21
-18.2639
0
LINE
8
BLACK
6
CONTINUOUS
10
47.7826
20
-18.2639
11
47.5176
21
-18.4959
0
LINE
8
BLACK
6
CONTINUOUS
10
47.5176
20
-18.4959
11
47.2801
21
-18.756
0
LINE
8
BLACK
6
CONTINUOUS
10
47.2801
20
-18.756
11
47.073
21
-19.0409
0
LINE
8
BLACK
6
CONTINUOUS
10
47.073
20
-19.0409
11
46.8991
21
-19.3472
0
LINE
8
BLACK
6
CONTINUOUS
10
46.8991
20
-19.3472
11
46.7603
21
-19.6709
0
LINE
8
BLACK
6
CONTINUOUS
10
46.7603
20
-19.6709
11
46.6585
21
-20.0081
0
LINE
8
BLACK
6
CONTINUOUS
10
46.6585
20
-20.0081
11
46.5949
21
-20.3546
0
LINE
8
BLACK
6
CONTINUOUS
10
46.5949
20
-20.3546
11
46.5703
21
-20.7059
0
LINE
8
BLACK
6
CONTINUOUS
10
46.5703
20
-20.7059
11
46.5851
21
-21.0579
0
LINE
8
BLACK
6
CONTINUOUS
10
46.5851
20
-21.0579
11
46.639
21
-21.406
0
LINE
8
BLACK
6
CONTINUOUS
10
2.03076
20
-16.7401
11
2.12984
21
-16.5009
0
LINE
8
BLACK
6
CONTINUOUS
10
2.12984
20
-16.5009
11
2.26512
21
-16.2802
0
LINE
8
BLACK
6
CONTINUOUS
10
2.26512
20
-16.2802
11
2.43327
21
-16.0833
0
LINE
8
BLACK
6
CONTINUOUS
10
2.43327
20
-16.0833
11
2.63015
21
-15.9151
0
LINE
8
BLACK
6
CONTINUOUS
10
2.63015
20
-15.9151
11
2.85092
21
-15.7798
0
LINE
8
BLACK
6
CONTINUOUS
10
2.85092
20
-15.7798
11
3.09012
21
-15.6808
0
LINE
8
BLACK
6
CONTINUOUS
10
3.09012
20
-15.6808
11
3.34188
21
-15.6203
0
LINE
8
BLACK
6
CONTINUOUS
10
3.34188
20
-15.6203
11
3.6
21
-15.6
0
LINE
8
BLACK
6
CONTINUOUS
10
3.6
20
-15.6
11
3.85812
21
-15.6203
0
LINE
8
BLACK
6
CONTINUOUS
10
3.85812
20
-15.6203
11
4.10988
21
-15.6808
0
LINE
8
BLACK
6
CONTINUOUS
10
4.10988
20
-15.6808
11
4.34908
21
-15.7798
0
LINE
8
BLACK
6
CONTINUOUS
10
4.34908
20
-15.7798
11
4.56985
21
-15.9151
0
LINE
8
BLACK
6
CONTINUOUS
10
4.56985
20
-15.9151
11
4.76673
21
-16.0833
0
LINE
8
BLACK
6
CONTINUOUS
10
4.76673
20
-16.0833
11
4.93488
21
-16.2802
0
LINE
8
BLACK
6
CONTINUOUS
10
4.93488
20
-16.2802
11
5.07016
21
-16.5009
0
LINE
8
BLACK
6
CONTINUOUS
10
5.07016
20
-16.5009
11
5.16924
21
-16.7401
0
LINE
8
BLACK
6
CONTINUOUS
10
5.16924
20
-16.7401
11
5.22969
21
-16.9919
0
LINE
8
BLACK
6
CONTINUOUS
10
5.22969
20
-16.9919
11
5.25
21
-17.25
0
LINE
8
BLACK
6
CONTINUOUS
10
5.25
20
-17.25
11
5.22969
21
-17.5081
0
LINE
8
BLACK
6
CONTINUOUS
10
5.22969
20
-17.5081
11
5.16924
21
-17.7599
0
LINE
8
BLACK
6
CONTINUOUS
10
5.16924
20
-17.7599
11
5.07016
21
-17.9991
0
LINE
8
BLACK
6
CONTINUOUS
10
5.07016
20
-17.9991
11
4.93488
21
-18.2198
0
LINE
8
BLACK
6
CONTINUOUS
10
4.93488
20
-18.2198
11
4.76673
21
-18.4167
0
LINE
8
BLACK
6
CONTINUOUS
10
4.76673
20
-18.4167
11
4.56985
21
-18.5849
0
LINE
8
BLACK
6
CONTINUOUS
10
4.56985
20
-18.5849
11
4.34908
21
-18.7202
0
LINE
8
BLACK
6
CONTINUOUS
10
4.34908
20
-18.7202
11
4.10988
21
-18.8192
0
LINE
8
BLACK
6
CONTINUOUS
10
4.10988
20
-18.8192
11
3.85812
21
-18.8797
0
LINE
8
BLACK
6
CONTINUOUS
10
3.85812
20
-18.8797
11
3.6
21
-18.9
0
LINE
8
BLACK
6
CONTINUOUS
10
3.6
20
-18.9
11
3.34188
21
-18.8797
0
LINE
8
BLACK
6
CONTINUOUS
10
3.34188
20
-18.8797
11
3.09012
21
-18.8192
0
LINE
8
BLACK
6
CONTINUOUS
10
3.09012
20
-18.8192
11
2.85092
21
-18.7202
0
LINE
8
BLACK
6
CONTINUOUS
10
2.85092
20
-18.7202
11
2.63015
21
-18.5849
0
LINE
8
BLACK
6
CONTINUOUS
10
2.63015
20
-18.5849
11
2.43327
21
-18.4167
0
LINE
8
BLACK
6
CONTINUOUS
10
2.43327
20
-18.4167
11
2.26512
21
-18.2198
0
LINE
8
BLACK
6
CONTINUOUS
10
2.26512
20
-18.2198
11
2.12984
21
-17.9991
0
LINE
8
BLACK
6
CONTINUOUS
10
2.12984
20
-17.9991
11
2.03076
21
-17.7599
0
LINE
8
BLACK
6
CONTINUOUS
10
2.03076
20
-17.7599
11
1.97031
21
-17.5081
0
LINE
8
BLACK
6
CONTINUOUS
10
1.97031
20
-17.5081
11
1.95
21
-17.25
0
LINE
8
BLACK
6
CONTINUOUS
10
1.95
20
-17.25
11
1.97031
21
-16.9919
0
LINE
8
BLACK
6
CONTINUOUS
10
1.97031
20
-16.9919
11
2.03076
21
-16.7401
0
LINE
8
BLACK
6
CONTINUOUS
10
2.1213
20
-17.7305
11
2.21467
21
-17.9559
0
LINE
8
BLACK
6
CONTINUOUS
10
2.21467
20
-17.9559
11
2.34215
21
-18.1639
0
LINE
8
BLACK
6
CONTINUOUS
10
2.34215
20
-18.1639
11
2.50059
21
-18.3494
0
LINE
8
BLACK
6
CONTINUOUS
10
2.50059
20
-18.3494
11
2.68612
21
-18.5079
0
LINE
8
BLACK
6
CONTINUOUS
10
2.68612
20
-18.5079
11
2.89414
21
-18.6353
0
LINE
8
BLACK
6
CONTINUOUS
10
2.89414
20
-18.6353
11
3.11954
21
-18.7287
0
LINE
8
BLACK
6
CONTINUOUS
10
3.11954
20
-18.7287
11
3.35678
21
-18.7857
0
LINE
8
BLACK
6
CONTINUOUS
10
3.35678
20
-18.7857
11
3.6
21
-18.8048
0
LINE
8
BLACK
6
CONTINUOUS
10
3.6
20
-18.8048
11
3.84322
21
-18.7857
0
LINE
8
BLACK
6
CONTINUOUS
10
3.84322
20
-18.7857
11
4.08046
21
-18.7287
0
LINE
8
BLACK
6
CONTINUOUS
10
4.08046
20
-18.7287
11
4.30586
21
-18.6353
0
LINE
8
BLACK
6
CONTINUOUS
10
4.30586
20
-18.6353
11
4.51388
21
-18.5079
0
LINE
8
BLACK
6
CONTINUOUS
10
4.51388
20
-18.5079
11
4.6994
21
-18.3494
0
LINE
8
BLACK
6
CONTINUOUS
10
4.6994
20
-18.3494
11
4.85785
21
-18.1639
0
LINE
8
BLACK
6
CONTINUOUS
10
4.85785
20
-18.1639
11
4.98533
21
-17.9559
0
LINE
8
BLACK
6
CONTINUOUS
10
4.98533
20
-17.9559
11
5.0787
21
-17.7305
0
LINE
8
BLACK
6
CONTINUOUS
10
5.0787
20
-17.7305
11
5.13565
21
-17.4932
0
LINE
8
BLACK
6
CONTINUOUS
10
5.13565
20
-17.4932
11
5.15479
21
-17.25
0
LINE
8
BLACK
6
CONTINUOUS
10
5.15479
20
-17.25
11
5.13565
21
-17.0068
0
LINE
8
BLACK
6
CONTINUOUS
10
5.13565
20
-17.0068
11
5.0787
21
-16.7695
0
LINE
8
BLACK
6
CONTINUOUS
10
5.0787
20
-16.7695
11
4.98533
21
-16.5441
0
LINE
8
BLACK
6
CONTINUOUS
10
4.98533
20
-16.5441
11
4.85785
21
-16.3361
0
LINE
8
BLACK
6
CONTINUOUS
10
4.85785
20
-16.3361
11
4.6994
21
-16.1506
0
LINE
8
BLACK
6
CONTINUOUS
10
4.6994
20
-16.1506
11
4.51388
21
-15.9921
0
LINE
8
BLACK
6
CONTINUOUS
10
4.51388
20
-15.9921
11
4.30586
21
-15.8647
0
LINE
8
BLACK
6
CONTINUOUS
10
4.30586
20
-15.8647
11
4.08046
21
-15.7713
0
LINE
8
BLACK
6
CONTINUOUS
10
4.08046
20
-15.7713
11
3.84322
21
-15.7143
0
LINE
8
BLACK
6
CONTINUOUS
10
3.84322
20
-15.7143
11
3.6
21
-15.6952
0
LINE
8
BLACK
6
CONTINUOUS
10
3.6
20
-15.6952
11
3.35678
21
-15.7143
0
LINE
8
BLACK
6
CONTINUOUS
10
3.35678
20
-15.7143
11
3.11954
21
-15.7713
0
LINE
8
BLACK
6
CONTINUOUS
10
3.11954
20
-15.7713
11
2.89414
21
-15.8647
0
LINE
8
BLACK
6
CONTINUOUS
10
2.89414
20
-15.8647
11
2.68612
21
-15.9921
0
LINE
8
BLACK
6
CONTINUOUS
10
2.68612
20
-15.9921
11
2.50059
21
-16.1506
0
LINE
8
BLACK
6
CONTINUOUS
10
2.50059
20
-16.1506
11
2.34215
21
-16.3361
0
LINE
8
BLACK
6
CONTINUOUS
10
2.34215
20
-16.3361
11
2.21467
21
-16.5441
0
LINE
8
BLACK
6
CONTINUOUS
10
2.21467
20
-16.5441
11
2.1213
21
-16.7695
0
LINE
8
BLACK
6
CONTINUOUS
10
2.1213
20
-16.7695
11
2.06435
21
-17.0068
0
LINE
8
BLACK
6
CONTINUOUS
10
2.06435
20
-17.0068
11
2.04521
21
-17.25
0
LINE
8
BLACK
6
CONTINUOUS
10
2.04521
20
-17.25
11
2.06435
21
-17.4932
0
LINE
8
BLACK
6
CONTINUOUS
10
2.06435
20
-17.4932
11
2.1213
21
-17.7305
0
LINE
8
BLACK
6
CONTINUOUS
10
76.0308
20
-16.7401
11
76.1298
21
-16.5009
0
LINE
8
BLACK
6
CONTINUOUS
10
76.1298
20
-16.5009
11
76.2651
21
-16.2802
0
LINE
8
BLACK
6
CONTINUOUS
10
76.2651
20
-16.2802
11
76.4333
21
-16.0833
0
LINE
8
BLACK
6
CONTINUOUS
10
76.4333
20
-16.0833
11
76.6302
21
-15.9151
0
LINE
8
BLACK
6
CONTINUOUS
10
76.6302
20
-15.9151
11
76.8509
21
-15.7798
0
LINE
8
BLACK
6
CONTINUOUS
10
76.8509
20
-15.7798
11
77.0901
21
-15.6808
0
LINE
8
BLACK
6
CONTINUOUS
10
77.0901
20
-15.6808
11
77.3419
21
-15.6203
0
LINE
8
BLACK
6
CONTINUOUS
10
77.3419
20
-15.6203
11
77.6
21
-15.6
0
LINE
8
BLACK
6
CONTINUOUS
10
77.6
20
-15.6
11
77.8581
21
-15.6203
0
LINE
8
BLACK
6
CONTINUOUS
10
77.8581
20
-15.6203
11
78.1099
21
-15.6808
0
LINE
8
BLACK
6
CONTINUOUS
10
78.1099
20
-15.6808
11
78.3491
21
-15.7798
0
LINE
8
BLACK
6
CONTINUOUS
10
78.3491
20
-15.7798
11
78.5698
21
-15.9151
0
LINE
8
BLACK
6
CONTINUOUS
10
78.5698
20
-15.9151
11
78.7667
21
-16.0833
0
LINE
8
BLACK
6
CONTINUOUS
10
78.7667
20
-16.0833
11
78.9349
21
-16.2802
0
LINE
8
BLACK
6
CONTINUOUS
10
78.9349
20
-16.2802
11
79.0702
21
-16.5009
0
LINE
8
BLACK
6
CONTINUOUS
10
79.0702
20
-16.5009
11
79.1692
21
-16.7401
0
LINE
8
BLACK
6
CONTINUOUS
10
79.1692
20
-16.7401
11
79.2297
21
-16.9919
0
LINE
8
BLACK
6
CONTINUOUS
10
79.2297
20
-16.9919
11
79.25
21
-17.25
0
LINE
8
BLACK
6
CONTINUOUS
10
79.25
20
-17.25
11
79.2297
21
-17.5081
0
LINE
8
BLACK
6
CONTINUOUS
10
79.2297
20
-17.5081
11
79.1692
21
-17.7599
0
LINE
8
BLACK
6
CONTINUOUS
10
79.1692
20
-17.7599
11
79.0702
21
-17.9991
0
LINE
8
BLACK
6
CONTINUOUS
10
79.0702
20
-17.9991
11
78.9349
21
-18.2198
0
LINE
8
BLACK
6
CONTINUOUS
10
78.9349
20
-18.2198
11
78.7667
21
-18.4167
0
LINE
8
BLACK
6
CONTINUOUS
10
78.7667
20
-18.4167
11
78.5698
21
-18.5849
0
LINE
8
BLACK
6
CONTINUOUS
10
78.5698
20
-18.5849
11
78.3491
21
-18.7202
0
LINE
8
BLACK
6
CONTINUOUS
10
78.3491
20
-18.7202
11
78.1099
21
-18.8192
0
LINE
8
BLACK
6
CONTINUOUS
10
78.1099
20
-18.8192
11
77.8581
21
-18.8797
0
LINE
8
BLACK
6
CONTINUOUS
10
77.8581
20
-18.8797
11
77.6
21
-18.9
0
LINE
8
BLACK
6
CONTINUOUS
10
77.6
20
-18.9
11
77.3419
21
-18.8797
0
LINE
8
BLACK
6
CONTINUOUS
10
77.3419
20
-18.8797
11
77.0901
21
-18.8192
0
LINE
8
BLACK
6
CONTINUOUS
10
77.0901
20
-18.8192
11
76.8509
21
-18.7202
0
LINE
8
BLACK
6
CONTINUOUS
10
76.8509
20
-18.7202
11
76.6302
21
-18.5849
0
LINE
8
BLACK
6
CONTINUOUS
10
76.6302
20
-18.5849
11
76.4333
21
-18.4167
0
LINE
8
BLACK
6
CONTINUOUS
10
76.4333
20
-18.4167
11
76.2651
21
-18.2198
0
LINE
8
BLACK
6
CONTINUOUS
10
76.2651
20
-18.2198
11
76.1298
21
-17.9991
0
LINE
8
BLACK
6
CONTINUOUS
10
76.1298
20
-17.9991
11
76.0308
21
-17.7599
0
LINE
8
BLACK
6
CONTINUOUS
10
76.0308
20
-17.7599
11
75.9703
21
-17.5081
0
LINE
8
BLACK
6
CONTINUOUS
10
75.9703
20
-17.5081
11
75.95
21
-17.25
0
LINE
8
BLACK
6
CONTINUOUS
10
75.95
20
-17.25
11
75.9703
21
-16.9919
0
LINE
8
BLACK
6
CONTINUOUS
10
75.9703
20
-16.9919
11
76.0308
21
-16.7401
0
LINE
8
BLACK
6
CONTINUOUS
10
76.1213
20
-17.7305
11
76.2147
21
-17.9559
0
LINE
8
BLACK
6
CONTINUOUS
10
76.2147
20
-17.9559
11
76.3421
21
-18.1639
0
LINE
8
BLACK
6
CONTINUOUS
10
76.3421
20
-18.1639
11
76.5006
21
-18.3494
0
LINE
8
BLACK
6
CONTINUOUS
10
76.5006
20
-18.3494
11
76.6861
21
-18.5079
0
LINE
8
BLACK
6
CONTINUOUS
10
76.6861
20
-18.5079
11
76.8941
21
-18.6353
0
LINE
8
BLACK
6
CONTINUOUS
10
76.8941
20
-18.6353
11
77.1195
21
-18.7287
0
LINE
8
BLACK
6
CONTINUOUS
10
77.1195
20
-18.7287
11
77.3568
21
-18.7857
0
LINE
8
BLACK
6
CONTINUOUS
10
77.3568
20
-18.7857
11
77.6
21
-18.8048
0
LINE
8
BLACK
6
CONTINUOUS
10
77.6
20
-18.8048
11
77.8432
21
-18.7857
0
LINE
8
BLACK
6
CONTINUOUS
10
77.8432
20
-18.7857
11
78.0805
21
-18.7287
0
LINE
8
BLACK
6
CONTINUOUS
10
78.0805
20
-18.7287
11
78.3059
21
-18.6353
0
LINE
8
BLACK
6
CONTINUOUS
10
78.3059
20
-18.6353
11
78.5139
21
-18.5079
0
LINE
8
BLACK
6
CONTINUOUS
10
78.5139
20
-18.5079
11
78.6994
21
-18.3494
0
LINE
8
BLACK
6
CONTINUOUS
10
78.6994
20
-18.3494
11
78.8579
21
-18.1639
0
LINE
8
BLACK
6
CONTINUOUS
10
78.8579
20
-18.1639
11
78.9853
21
-17.9559
0
LINE
8
BLACK
6
CONTINUOUS
10
78.9853
20
-17.9559
11
79.0787
21
-17.7305
0
LINE
8
BLACK
6
CONTINUOUS
10
79.0787
20
-17.7305
11
79.1357
21
-17.4932
0
LINE
8
BLACK
6
CONTINUOUS
10
79.1357
20
-17.4932
11
79.1548
21
-17.25
0
LINE
8
BLACK
6
CONTINUOUS
10
79.1548
20
-17.25
11
79.1357
21
-17.0068
0
LINE
8
BLACK
6
CONTINUOUS
10
79.1357
20
-17.0068
11
79.0787
21
-16.7695
0
LINE
8
BLACK
6
CONTINUOUS
10
79.0787
20
-16.7695
11
78.9853
21
-16.5441
0
LINE
8
BLACK
6
CONTINUOUS
10
78.9853
20
-16.5441
11
78.8579
21
-16.3361
0
LINE
8
BLACK
6
CONTINUOUS
10
78.8579
20
-16.3361
11
78.6994
21
-16.1506
0
LINE
8
BLACK
6
CONTINUOUS
10
78.6994
20
-16.1506
11
78.5139
21
-15.9921
0
LINE
8
BLACK
6
CONTINUOUS
10
78.5139
20
-15.9921
11
78.3059
21
-15.8647
0
LINE
8
BLACK
6
CONTINUOUS
10
78.3059
20
-15.8647
11
78.0805
21
-15.7713
0
LINE
8
BLACK
6
CONTINUOUS
10
78.0805
20
-15.7713
11
77.8432
21
-15.7143
0
LINE
8
BLACK
6
CONTINUOUS
10
77.8432
20
-15.7143
11
77.6
21
-15.6952
0
LINE
8
BLACK
6
CONTINUOUS
10
77.6
20
-15.6952
11
77.3568
21
-15.7143
0
LINE
8
BLACK
6
CONTINUOUS
10
77.3568
20
-15.7143
11
77.1195
21
-15.7713
0
LINE
8
BLACK
6
CONTINUOUS
10
77.1195
20
-15.7713
11
76.8941
21
-15.8647
0
LINE
8
BLACK
6
CONTINUOUS
10
76.8941
20
-15.8647
11
76.6861
21
-15.9921
0
LINE
8
BLACK
6
CONTINUOUS
10
76.6861
20
-15.9921
11
76.5006
21
-16.1506
0
LINE
8
BLACK
6
CONTINUOUS
10
76.5006
20
-16.1506
11
76.3421
21
-16.3361
0
LINE
8
BLACK
6
CONTINUOUS
10
76.3421
20
-16.3361
11
76.2147
21
-16.5441
0
LINE
8
BLACK
6
CONTINUOUS
10
76.2147
20
-16.5441
11
76.1213
21
-16.7695
0
LINE
8
BLACK
6
CONTINUOUS
10
76.1213
20
-16.7695
11
76.0643
21
-17.0068
0
LINE
8
BLACK
6
CONTINUOUS
10
76.0643
20
-17.0068
11
76.0452
21
-17.25
0
LINE
8
BLACK
6
CONTINUOUS
10
76.0452
20
-17.25
11
76.0643
21
-17.4932
0
LINE
8
BLACK
6
CONTINUOUS
10
76.0643
20
-17.4932
11
76.1213
21
-17.7305
  0
ENDSEC
  0
EOF
