%TF.GenerationSoftware,KiCad,Pcbnew,(6.0.11-0)*%
%TF.CreationDate,2023-03-26T21:43:21+01:00*%
%TF.ProjectId,ioboard,696f626f-6172-4642-9e6b-696361645f70,rev?*%
%TF.SameCoordinates,Original*%
%TF.FileFunction,Drillmap*%
%TF.FilePolarity,Positive*%
%FSLAX45Y45*%
G04 Gerber Fmt 4.5, Leading zero omitted, Abs format (unit mm)*
G04 Created by KiCad (PCBNEW (6.0.11-0)) date 2023-03-26 21:43:21*
%MOMM*%
%LPD*%
G01*
G04 APERTURE LIST*
%ADD10C,0.100000*%
%ADD11C,0.200000*%
G04 APERTURE END LIST*
D10*
X450000Y-9700000D02*
G75*
G03*
X450000Y-9700000I-150000J0D01*
G01*
X7860000Y-300000D02*
G75*
G03*
X7860000Y-300000I-160000J0D01*
G01*
X7860000Y-9700000D02*
G75*
G03*
X7860000Y-9700000I-160000J0D01*
G01*
X0Y0D02*
X8000000Y0D01*
X8000000Y0D02*
X8000000Y-10000000D01*
X8000000Y-10000000D02*
X0Y-10000000D01*
X0Y-10000000D02*
X0Y0D01*
X460000Y-300000D02*
G75*
G03*
X460000Y-300000I-160000J0D01*
G01*
D11*
X252619Y-10315476D02*
X252619Y-10115476D01*
X300238Y-10115476D01*
X328810Y-10125000D01*
X347857Y-10144048D01*
X357381Y-10163095D01*
X366905Y-10201190D01*
X366905Y-10229762D01*
X357381Y-10267857D01*
X347857Y-10286905D01*
X328810Y-10305952D01*
X300238Y-10315476D01*
X252619Y-10315476D01*
X452619Y-10315476D02*
X452619Y-10182143D01*
X452619Y-10220238D02*
X462143Y-10201190D01*
X471667Y-10191667D01*
X490714Y-10182143D01*
X509762Y-10182143D01*
X576429Y-10315476D02*
X576429Y-10182143D01*
X576429Y-10115476D02*
X566905Y-10125000D01*
X576429Y-10134524D01*
X585952Y-10125000D01*
X576429Y-10115476D01*
X576429Y-10134524D01*
X700238Y-10315476D02*
X681190Y-10305952D01*
X671667Y-10286905D01*
X671667Y-10115476D01*
X805000Y-10315476D02*
X785952Y-10305952D01*
X776428Y-10286905D01*
X776428Y-10115476D01*
X1033571Y-10315476D02*
X1033571Y-10115476D01*
X1100238Y-10258333D01*
X1166905Y-10115476D01*
X1166905Y-10315476D01*
X1347857Y-10315476D02*
X1347857Y-10210714D01*
X1338333Y-10191667D01*
X1319286Y-10182143D01*
X1281190Y-10182143D01*
X1262143Y-10191667D01*
X1347857Y-10305952D02*
X1328810Y-10315476D01*
X1281190Y-10315476D01*
X1262143Y-10305952D01*
X1252619Y-10286905D01*
X1252619Y-10267857D01*
X1262143Y-10248810D01*
X1281190Y-10239286D01*
X1328810Y-10239286D01*
X1347857Y-10229762D01*
X1443095Y-10182143D02*
X1443095Y-10382143D01*
X1443095Y-10191667D02*
X1462143Y-10182143D01*
X1500238Y-10182143D01*
X1519286Y-10191667D01*
X1528809Y-10201190D01*
X1538333Y-10220238D01*
X1538333Y-10277381D01*
X1528809Y-10296429D01*
X1519286Y-10305952D01*
X1500238Y-10315476D01*
X1462143Y-10315476D01*
X1443095Y-10305952D01*
X1624048Y-10296429D02*
X1633571Y-10305952D01*
X1624048Y-10315476D01*
X1614524Y-10305952D01*
X1624048Y-10296429D01*
X1624048Y-10315476D01*
X1624048Y-10191667D02*
X1633571Y-10201190D01*
X1624048Y-10210714D01*
X1614524Y-10201190D01*
X1624048Y-10191667D01*
X1624048Y-10210714D01*
M02*
