M48
; DRILL file {KiCad (6.0.11-0)} date Sunday, 26 March 2023 at 21:43:22
; FORMAT={-:-/ absolute / metric / decimal}
; #@! TF.CreationDate,2023-03-26T21:43:22+01:00
; #@! TF.GenerationSoftware,Kicad,Pcbnew,(6.0.11-0)
; #@! TF.FileFunction,Plated,1,2,PTH
FMAT,2
METRIC
; #@! TA.AperFunction,Plated,PTH,ViaDrill
T1C0.400
; #@! TA.AperFunction,Plated,PTH,ComponentDrill
T2C0.700
; #@! TA.AperFunction,Plated,PTH,ComponentDrill
T3C1.000
; #@! TA.AperFunction,Plated,PTH,ComponentDrill
T4C1.100
%
G90
G05
T1
X12.2Y-80.8
X12.219Y-40.8
X12.3Y-60.5
T2
X20.5Y-9.38
X20.5Y-17.0
X20.5Y-29.38
X20.5Y-37.0
X20.5Y-49.38
X20.5Y-57.0
X20.5Y-70.38
X20.5Y-78.0
X20.5Y-89.38
X20.5Y-97.0
X23.0Y-9.38
X23.0Y-17.0
X23.0Y-29.38
X23.0Y-37.0
X23.0Y-49.38
X23.0Y-57.0
X23.0Y-70.38
X23.0Y-78.0
X23.0Y-89.38
X23.0Y-97.0
X57.0Y-9.38
X57.0Y-17.0
X57.0Y-29.38
X57.0Y-37.0
X57.0Y-49.38
X57.0Y-57.0
X57.0Y-69.38
X57.0Y-77.0
X57.0Y-89.48
X57.0Y-97.1
X59.5Y-9.38
X59.5Y-17.0
X59.5Y-29.38
X59.5Y-37.0
X59.5Y-49.38
X59.5Y-57.0
X59.5Y-69.38
X59.5Y-77.0
X59.5Y-89.48
X59.5Y-97.1
T3
X2.54Y-10.16
X2.54Y-12.7
X2.54Y-15.24
X2.54Y-17.78
X2.54Y-20.32
X2.54Y-22.86
X2.54Y-25.4
X2.54Y-27.94
X2.54Y-30.48
X2.54Y-33.02
X2.54Y-35.56
X2.54Y-38.1
X2.54Y-40.64
X2.54Y-43.18
X2.54Y-45.72
X2.54Y-48.26
X2.54Y-53.34
X2.54Y-55.88
X2.54Y-58.42
X2.54Y-60.96
X2.54Y-63.5
X2.54Y-66.04
X2.54Y-68.58
X2.54Y-71.12
X2.54Y-73.66
X2.54Y-76.2
X2.54Y-78.74
X2.54Y-81.28
X2.54Y-83.82
X2.54Y-86.36
X2.54Y-88.9
X2.54Y-91.44
X10.0Y-14.0
X10.0Y-34.0
X10.0Y-54.0
X10.0Y-74.0
X10.0Y-94.0
X12.5Y-14.0
X12.5Y-34.0
X12.5Y-54.0
X12.5Y-74.0
X12.5Y-94.0
X15.0Y-14.0
X15.0Y-34.0
X15.0Y-54.0
X15.0Y-74.0
X15.0Y-94.0
X28.35Y-14.0
X28.35Y-34.0
X28.35Y-54.0
X28.35Y-74.0
X28.35Y-94.0
X30.85Y-14.0
X30.85Y-34.0
X30.85Y-54.0
X30.85Y-74.0
X30.85Y-94.0
X33.35Y-14.0
X33.35Y-34.0
X33.35Y-54.0
X33.35Y-74.0
X33.35Y-94.0
X46.65Y-14.0
X46.65Y-34.0
X46.65Y-54.0
X46.65Y-74.0
X46.65Y-94.0
X49.15Y-14.0
X49.15Y-34.0
X49.15Y-54.0
X49.15Y-74.0
X49.15Y-94.0
X51.65Y-14.0
X51.65Y-34.0
X51.65Y-54.0
X51.65Y-74.0
X51.65Y-94.0
X64.5Y-17.0
X65.0Y-14.0
X65.0Y-34.0
X65.0Y-54.0
X65.0Y-74.0
X65.0Y-94.0
X67.5Y-14.0
X67.5Y-17.0
X67.5Y-34.0
X67.5Y-54.0
X67.5Y-74.0
X67.5Y-94.0
X70.0Y-14.0
X70.0Y-34.0
X70.0Y-54.0
X70.0Y-74.0
X70.0Y-94.0
X70.5Y-17.0
X77.46Y-10.16
X77.46Y-12.7
X77.46Y-15.24
X77.46Y-17.78
X77.46Y-20.32
X77.46Y-22.86
X77.46Y-25.4
X77.46Y-27.94
X77.46Y-30.48
X77.46Y-33.02
X77.46Y-35.56
X77.46Y-38.1
X77.46Y-40.64
X77.46Y-43.18
X77.46Y-45.72
X77.46Y-48.26
X77.46Y-53.34
X77.46Y-55.88
X77.46Y-58.42
X77.46Y-60.96
X77.46Y-63.5
X77.46Y-66.04
X77.46Y-68.58
X77.46Y-71.12
X77.46Y-73.66
X77.46Y-76.2
X77.46Y-78.74
X77.46Y-81.28
X77.46Y-83.82
X77.46Y-86.36
X77.46Y-88.9
X77.46Y-91.44
T4
X8.03Y-1.781
X8.03Y-21.781
X8.03Y-41.781
X8.03Y-61.781
X8.03Y-81.781
X9.5Y-17.0
X9.5Y-37.0
X9.5Y-57.0
X9.5Y-77.0
X9.5Y-97.0
X10.093Y-3.959
X10.093Y-23.959
X10.093Y-43.959
X10.093Y-63.959
X10.093Y-83.959
X12.5Y-3.96
X12.5Y-6.5
X12.5Y-9.04
X12.5Y-17.0
X12.5Y-23.96
X12.5Y-26.5
X12.5Y-29.04
X12.5Y-37.0
X12.5Y-43.96
X12.5Y-46.5
X12.5Y-49.04
X12.5Y-57.0
X12.5Y-63.96
X12.5Y-66.5
X12.5Y-69.04
X12.5Y-77.0
X12.5Y-83.96
X12.5Y-86.5
X12.5Y-89.04
X12.5Y-97.0
X15.5Y-17.0
X15.5Y-37.0
X15.5Y-57.0
X15.5Y-77.0
X15.5Y-97.0
X15.939Y-10.13
X15.939Y-30.13
X15.939Y-50.13
X15.939Y-70.13
X15.939Y-90.13
X26.38Y-1.781
X26.38Y-21.781
X26.38Y-41.781
X26.38Y-61.781
X26.38Y-81.781
X27.52Y-97.0
X27.85Y-17.0
X27.85Y-37.0
X27.85Y-57.0
X27.85Y-77.0
X28.443Y-3.959
X28.443Y-23.959
X28.443Y-43.959
X28.443Y-63.959
X28.443Y-83.959
X30.52Y-97.0
X30.85Y-3.96
X30.85Y-6.5
X30.85Y-9.04
X30.85Y-17.0
X30.85Y-23.96
X30.85Y-26.5
X30.85Y-29.04
X30.85Y-37.0
X30.85Y-43.96
X30.85Y-46.5
X30.85Y-49.04
X30.85Y-57.0
X30.85Y-63.96
X30.85Y-66.5
X30.85Y-69.04
X30.85Y-77.0
X30.85Y-83.96
X30.85Y-86.5
X30.85Y-89.04
X33.52Y-97.0
X33.85Y-17.0
X33.85Y-37.0
X33.85Y-57.0
X33.85Y-77.0
X34.289Y-10.13
X34.289Y-30.13
X34.289Y-50.13
X34.289Y-70.13
X34.289Y-90.13
X44.68Y-1.781
X44.68Y-21.781
X44.68Y-41.781
X44.68Y-61.781
X44.68Y-81.781
X46.15Y-17.0
X46.15Y-37.0
X46.15Y-57.0
X46.15Y-77.0
X46.15Y-97.0
X46.743Y-3.959
X46.743Y-23.959
X46.743Y-43.959
X46.743Y-63.959
X46.743Y-83.959
X49.15Y-3.96
X49.15Y-6.5
X49.15Y-9.04
X49.15Y-17.0
X49.15Y-23.96
X49.15Y-26.5
X49.15Y-29.04
X49.15Y-37.0
X49.15Y-43.96
X49.15Y-46.5
X49.15Y-49.04
X49.15Y-57.0
X49.15Y-63.96
X49.15Y-66.5
X49.15Y-69.04
X49.15Y-77.0
X49.15Y-83.96
X49.15Y-86.5
X49.15Y-89.04
X49.15Y-97.0
X52.15Y-17.0
X52.15Y-37.0
X52.15Y-57.0
X52.15Y-77.0
X52.15Y-97.0
X52.589Y-10.13
X52.589Y-30.13
X52.589Y-50.13
X52.589Y-70.13
X52.589Y-90.13
X63.03Y-1.781
X63.03Y-21.781
X63.03Y-41.781
X63.03Y-61.781
X63.03Y-81.781
X64.5Y-37.0
X64.5Y-57.0
X64.5Y-77.0
X64.5Y-97.0
X65.093Y-3.959
X65.093Y-23.959
X65.093Y-43.959
X65.093Y-63.959
X65.093Y-83.959
X67.5Y-3.96
X67.5Y-6.5
X67.5Y-9.04
X67.5Y-23.96
X67.5Y-26.5
X67.5Y-29.04
X67.5Y-37.0
X67.5Y-43.96
X67.5Y-46.5
X67.5Y-49.04
X67.5Y-57.0
X67.5Y-63.96
X67.5Y-66.5
X67.5Y-69.04
X67.5Y-77.0
X67.5Y-83.96
X67.5Y-86.5
X67.5Y-89.04
X67.5Y-97.0
X70.5Y-37.0
X70.5Y-57.0
X70.5Y-77.0
X70.5Y-97.0
X70.939Y-10.13
X70.939Y-30.13
X70.939Y-50.13
X70.939Y-70.13
X70.939Y-90.13
T4
X7.7Y-7.45G85X7.7Y-5.55
G05
X7.7Y-27.45G85X7.7Y-25.55
G05
X7.7Y-47.45G85X7.7Y-45.55
G05
X7.7Y-67.45G85X7.7Y-65.55
G05
X7.7Y-87.45G85X7.7Y-85.55
G05
X17.3Y-7.45G85X17.3Y-5.55
G05
X17.3Y-27.45G85X17.3Y-25.55
G05
X17.3Y-47.45G85X17.3Y-45.55
G05
X17.3Y-67.45G85X17.3Y-65.55
G05
X17.3Y-87.45G85X17.3Y-85.55
G05
X26.05Y-7.45G85X26.05Y-5.55
G05
X26.05Y-27.45G85X26.05Y-25.55
G05
X26.05Y-47.45G85X26.05Y-45.55
G05
X26.05Y-67.45G85X26.05Y-65.55
G05
X26.05Y-87.45G85X26.05Y-85.55
G05
X35.65Y-7.45G85X35.65Y-5.55
G05
X35.65Y-27.45G85X35.65Y-25.55
G05
X35.65Y-47.45G85X35.65Y-45.55
G05
X35.65Y-67.45G85X35.65Y-65.55
G05
X35.65Y-87.45G85X35.65Y-85.55
G05
X44.35Y-7.45G85X44.35Y-5.55
G05
X44.35Y-27.45G85X44.35Y-25.55
G05
X44.35Y-47.45G85X44.35Y-45.55
G05
X44.35Y-67.45G85X44.35Y-65.55
G05
X44.35Y-87.45G85X44.35Y-85.55
G05
X53.95Y-7.45G85X53.95Y-5.55
G05
X53.95Y-27.45G85X53.95Y-25.55
G05
X53.95Y-47.45G85X53.95Y-45.55
G05
X53.95Y-67.45G85X53.95Y-65.55
G05
X53.95Y-87.45G85X53.95Y-85.55
G05
X62.7Y-7.45G85X62.7Y-5.55
G05
X62.7Y-27.45G85X62.7Y-25.55
G05
X62.7Y-47.45G85X62.7Y-45.55
G05
X62.7Y-67.45G85X62.7Y-65.55
G05
X62.7Y-87.45G85X62.7Y-85.55
G05
X72.3Y-7.45G85X72.3Y-5.55
G05
X72.3Y-27.45G85X72.3Y-25.55
G05
X72.3Y-47.45G85X72.3Y-45.55
G05
X72.3Y-67.45G85X72.3Y-65.55
G05
X72.3Y-87.45G85X72.3Y-85.55
G05
T0
M30
