G04 #@! TF.GenerationSoftware,KiCad,Pcbnew,(6.0.11-0)*
G04 #@! TF.CreationDate,2023-03-26T21:42:55+01:00*
G04 #@! TF.ProjectId,ioboard,696f626f-6172-4642-9e6b-696361645f70,rev?*
G04 #@! TF.SameCoordinates,Original*
G04 #@! TF.FileFunction,Copper,L1,Top*
G04 #@! TF.FilePolarity,Positive*
%FSLAX46Y46*%
G04 Gerber Fmt 4.6, Leading zero omitted, Abs format (unit mm)*
G04 Created by KiCad (PCBNEW (6.0.11-0)) date 2023-03-26 21:42:55*
%MOMM*%
%LPD*%
G01*
G04 APERTURE LIST*
G04 #@! TA.AperFunction,ComponentPad*
%ADD10O,2.500000X4.500000*%
G04 #@! TD*
G04 #@! TA.AperFunction,ComponentPad*
%ADD11R,1.800000X1.800000*%
G04 #@! TD*
G04 #@! TA.AperFunction,ComponentPad*
%ADD12C,1.800000*%
G04 #@! TD*
G04 #@! TA.AperFunction,ComponentPad*
%ADD13C,2.000000*%
G04 #@! TD*
G04 #@! TA.AperFunction,ComponentPad*
%ADD14C,1.400000*%
G04 #@! TD*
G04 #@! TA.AperFunction,ComponentPad*
%ADD15O,1.400000X1.400000*%
G04 #@! TD*
G04 #@! TA.AperFunction,ComponentPad*
%ADD16C,1.700000*%
G04 #@! TD*
G04 #@! TA.AperFunction,ComponentPad*
%ADD17O,1.700000X1.700000*%
G04 #@! TD*
G04 #@! TA.AperFunction,ViaPad*
%ADD18C,0.800000*%
G04 #@! TD*
G04 #@! TA.AperFunction,Conductor*
%ADD19C,0.500000*%
G04 #@! TD*
G04 #@! TA.AperFunction,Conductor*
%ADD20C,0.250000*%
G04 #@! TD*
G04 #@! TA.AperFunction,Conductor*
%ADD21C,0.200000*%
G04 #@! TD*
G04 APERTURE END LIST*
D10*
X26050000Y-46500000D03*
X35650000Y-46500000D03*
D11*
X28350000Y-54000000D03*
D12*
X30850000Y-54000000D03*
X33350000Y-54000000D03*
D13*
X12500000Y-97000000D03*
X33850000Y-37000000D03*
X30850000Y-43960000D03*
X30850000Y-46500000D03*
X30850000Y-49040000D03*
D10*
X44350000Y-86500000D03*
X53950000Y-86500000D03*
D11*
X46650000Y-94000000D03*
D12*
X49150000Y-94000000D03*
X51650000Y-94000000D03*
D13*
X67500000Y-97000000D03*
D10*
X7700000Y-46500000D03*
X17300000Y-46500000D03*
D11*
X10000000Y-54000000D03*
D12*
X12500000Y-54000000D03*
X15000000Y-54000000D03*
D14*
X57000000Y-97100000D03*
D15*
X57000000Y-89480000D03*
D10*
X62700000Y-6500000D03*
X72300000Y-6500000D03*
D11*
X65000000Y-14000000D03*
D12*
X67500000Y-14000000D03*
X70000000Y-14000000D03*
D13*
X30850000Y-17000000D03*
X67500000Y-23960000D03*
X67500000Y-26500000D03*
X67500000Y-29040000D03*
X67500000Y-63960000D03*
X67500000Y-66500000D03*
X67500000Y-69040000D03*
X9500000Y-97000000D03*
X9500000Y-57000000D03*
X12500000Y-23960000D03*
X12500000Y-26500000D03*
X12500000Y-29040000D03*
X67500000Y-43960000D03*
X67500000Y-46500000D03*
X67500000Y-49040000D03*
D10*
X17300000Y-26500000D03*
X7700000Y-26500000D03*
D11*
X10000000Y-34000000D03*
D12*
X12500000Y-34000000D03*
X15000000Y-34000000D03*
D13*
X67500000Y-17000000D03*
X30850000Y-77000000D03*
D14*
X59500000Y-97100000D03*
D15*
X59500000Y-89480000D03*
D13*
X27520000Y-97000000D03*
X27850000Y-37000000D03*
X64500000Y-17000000D03*
X12500000Y-63960000D03*
X12500000Y-66500000D03*
X12500000Y-69040000D03*
D14*
X20500000Y-78000000D03*
D15*
X20500000Y-70380000D03*
D10*
X7700000Y-66500000D03*
X17300000Y-66500000D03*
D11*
X10000000Y-74000000D03*
D12*
X12500000Y-74000000D03*
X15000000Y-74000000D03*
D13*
X70500000Y-77000000D03*
D10*
X35650000Y-26500000D03*
X26050000Y-26500000D03*
D11*
X28350000Y-34000000D03*
D12*
X30850000Y-34000000D03*
X33350000Y-34000000D03*
D10*
X7700000Y-86500000D03*
X17300000Y-86500000D03*
D11*
X10000000Y-94000000D03*
D12*
X12500000Y-94000000D03*
X15000000Y-94000000D03*
D10*
X35650000Y-66500000D03*
X26050000Y-66500000D03*
D11*
X28350000Y-74000000D03*
D12*
X30850000Y-74000000D03*
X33350000Y-74000000D03*
D14*
X59500000Y-17000000D03*
D15*
X59500000Y-9380000D03*
D14*
X23000000Y-37000000D03*
D15*
X23000000Y-29380000D03*
D13*
X33520000Y-97000000D03*
X52150000Y-77000000D03*
D14*
X57000000Y-77000000D03*
D15*
X57000000Y-69380000D03*
D13*
X67500000Y-83960000D03*
X67500000Y-86500000D03*
X67500000Y-89040000D03*
D14*
X20500000Y-57000000D03*
D15*
X20500000Y-49380000D03*
D13*
X49150000Y-97000000D03*
X9500000Y-17000000D03*
X44679812Y-21781164D03*
X52588607Y-30129874D03*
X46742975Y-23959088D03*
X49150000Y-3960000D03*
X49150000Y-6500000D03*
X49150000Y-9040000D03*
X44679812Y-61781164D03*
X52588607Y-70129874D03*
X46742975Y-63959088D03*
D14*
X20500000Y-37000000D03*
D15*
X20500000Y-29380000D03*
D13*
X30850000Y-37000000D03*
X46150000Y-57000000D03*
X30850000Y-3960000D03*
X30850000Y-6500000D03*
X30850000Y-9040000D03*
X8029812Y-61781164D03*
X15938607Y-70129874D03*
X10092975Y-63959088D03*
X52150000Y-17000000D03*
X46150000Y-77000000D03*
X8029812Y-21781164D03*
X15938607Y-30129874D03*
X10092975Y-23959088D03*
X46150000Y-97000000D03*
D14*
X23000000Y-57000000D03*
D15*
X23000000Y-49380000D03*
D14*
X23000000Y-78000000D03*
D15*
X23000000Y-70380000D03*
D10*
X72300000Y-46500000D03*
X62700000Y-46500000D03*
D11*
X65000000Y-54000000D03*
D12*
X67500000Y-54000000D03*
X70000000Y-54000000D03*
D13*
X9500000Y-37000000D03*
X70500000Y-37000000D03*
X44679812Y-1781164D03*
X52588607Y-10129874D03*
X46742975Y-3959088D03*
X12500000Y-37000000D03*
X27850000Y-77000000D03*
X67500000Y-77000000D03*
D14*
X23000000Y-97000000D03*
D15*
X23000000Y-89380000D03*
D10*
X44350000Y-26500000D03*
X53950000Y-26500000D03*
D11*
X46650000Y-34000000D03*
D12*
X49150000Y-34000000D03*
X51650000Y-34000000D03*
D13*
X52150000Y-57000000D03*
X46150000Y-37000000D03*
D10*
X62700000Y-66500000D03*
X72300000Y-66500000D03*
D11*
X65000000Y-74000000D03*
D12*
X67500000Y-74000000D03*
X70000000Y-74000000D03*
D13*
X67500000Y-57000000D03*
X44679812Y-81781164D03*
X52588607Y-90129874D03*
X46742975Y-83959088D03*
X70500000Y-97000000D03*
X12500000Y-3960000D03*
X12500000Y-6500000D03*
X12500000Y-9040000D03*
X33850000Y-77000000D03*
X15500000Y-77000000D03*
X49150000Y-57000000D03*
X63029812Y-81781164D03*
X70938607Y-90129874D03*
X65092975Y-83959088D03*
X8029812Y-1781164D03*
X15938607Y-10129874D03*
X10092975Y-3959088D03*
X9500000Y-77000000D03*
X27850000Y-57000000D03*
X70500000Y-57000000D03*
X46150000Y-17000000D03*
X63029812Y-21781164D03*
X70938607Y-30129874D03*
X65092975Y-23959088D03*
X63029812Y-61781164D03*
X70938607Y-70129874D03*
X65092975Y-63959088D03*
X30850000Y-57000000D03*
X63029812Y-1781164D03*
X70938607Y-10129874D03*
X65092975Y-3959088D03*
X26379812Y-21781164D03*
X34288607Y-30129874D03*
X28442975Y-23959088D03*
D10*
X35650000Y-86500000D03*
X26050000Y-86500000D03*
D11*
X28350000Y-94000000D03*
D12*
X30850000Y-94000000D03*
X33350000Y-94000000D03*
D13*
X63029812Y-41781164D03*
X70938607Y-50129874D03*
X65092975Y-43959088D03*
D14*
X57000000Y-57000000D03*
D15*
X57000000Y-49380000D03*
D13*
X49150000Y-63960000D03*
X49150000Y-66500000D03*
X49150000Y-69040000D03*
X26379812Y-81781164D03*
X34288607Y-90129874D03*
X28442975Y-83959088D03*
D14*
X23000000Y-17000000D03*
D15*
X23000000Y-9380000D03*
D13*
X49150000Y-83960000D03*
X49150000Y-86500000D03*
X49150000Y-89040000D03*
X49150000Y-17000000D03*
D10*
X62700000Y-86500000D03*
X72300000Y-86500000D03*
D11*
X65000000Y-94000000D03*
D12*
X67500000Y-94000000D03*
X70000000Y-94000000D03*
D13*
X12500000Y-77000000D03*
X27850000Y-17000000D03*
X49150000Y-37000000D03*
D14*
X59500000Y-57000000D03*
D15*
X59500000Y-49380000D03*
D13*
X33850000Y-57000000D03*
X26379812Y-41781164D03*
X34288607Y-50129874D03*
X28442975Y-43959088D03*
X33850000Y-17000000D03*
X12500000Y-83960000D03*
X12500000Y-86500000D03*
X12500000Y-89040000D03*
D14*
X57000000Y-37000000D03*
D15*
X57000000Y-29380000D03*
D13*
X12500000Y-57000000D03*
D14*
X20500000Y-97000000D03*
D15*
X20500000Y-89380000D03*
D13*
X12500000Y-17000000D03*
X8029812Y-41781164D03*
X15938607Y-50129874D03*
X10092975Y-43959088D03*
D14*
X20500000Y-17000000D03*
D15*
X20500000Y-9380000D03*
D10*
X26050000Y-6500000D03*
X35650000Y-6500000D03*
D11*
X28350000Y-14000000D03*
D12*
X30850000Y-14000000D03*
X33350000Y-14000000D03*
D13*
X30850000Y-83960000D03*
X30850000Y-86500000D03*
X30850000Y-89040000D03*
X64500000Y-97000000D03*
X52150000Y-97000000D03*
X52150000Y-37000000D03*
X15500000Y-97000000D03*
X15500000Y-37000000D03*
D10*
X53950000Y-6500000D03*
X44350000Y-6500000D03*
D11*
X46650000Y-14000000D03*
D12*
X49150000Y-14000000D03*
X51650000Y-14000000D03*
D13*
X12500000Y-43960000D03*
X12500000Y-46500000D03*
X12500000Y-49040000D03*
X8029812Y-81781164D03*
X15938607Y-90129874D03*
X10092975Y-83959088D03*
D10*
X44350000Y-46500000D03*
X53950000Y-46500000D03*
D11*
X46650000Y-54000000D03*
D12*
X49150000Y-54000000D03*
X51650000Y-54000000D03*
D13*
X49150000Y-77000000D03*
X49150000Y-43960000D03*
X49150000Y-46500000D03*
X49150000Y-49040000D03*
X64500000Y-77000000D03*
X64500000Y-57000000D03*
X26379812Y-1781164D03*
X34288607Y-10129874D03*
X28442975Y-3959088D03*
X49150000Y-23960000D03*
X49150000Y-26500000D03*
X49150000Y-29040000D03*
X70500000Y-17000000D03*
D14*
X59500000Y-77000000D03*
D15*
X59500000Y-69380000D03*
D13*
X67500000Y-3960000D03*
X67500000Y-6500000D03*
X67500000Y-9040000D03*
D10*
X7700000Y-6500000D03*
X17300000Y-6500000D03*
D11*
X10000000Y-14000000D03*
D12*
X12500000Y-14000000D03*
X15000000Y-14000000D03*
D14*
X57000000Y-17000000D03*
D15*
X57000000Y-9380000D03*
D13*
X30850000Y-63960000D03*
X30850000Y-66500000D03*
X30850000Y-69040000D03*
X15500000Y-57000000D03*
D10*
X53950000Y-66500000D03*
X44350000Y-66500000D03*
D11*
X46650000Y-74000000D03*
D12*
X49150000Y-74000000D03*
X51650000Y-74000000D03*
D13*
X15500000Y-17000000D03*
X30520000Y-97000000D03*
X64500000Y-37000000D03*
X67500000Y-37000000D03*
D14*
X59500000Y-37000000D03*
D15*
X59500000Y-29380000D03*
D13*
X30850000Y-23960000D03*
X30850000Y-26500000D03*
X30850000Y-29040000D03*
D10*
X62700000Y-26500000D03*
X72300000Y-26500000D03*
D11*
X65000000Y-34000000D03*
D12*
X67500000Y-34000000D03*
X70000000Y-34000000D03*
D13*
X26379812Y-61781164D03*
X34288607Y-70129874D03*
X28442975Y-63959088D03*
X44679812Y-41781164D03*
X52588607Y-50129874D03*
X46742975Y-43959088D03*
D16*
X2540000Y-53340000D03*
D17*
X2540000Y-55880000D03*
X2540000Y-58420000D03*
X2540000Y-60960000D03*
X2540000Y-63500000D03*
X2540000Y-66040000D03*
X2540000Y-68580000D03*
X2540000Y-71120000D03*
X2540000Y-73660000D03*
X2540000Y-76200000D03*
X2540000Y-78740000D03*
X2540000Y-81280000D03*
X2540000Y-83820000D03*
X2540000Y-86360000D03*
X2540000Y-88900000D03*
X2540000Y-91440000D03*
D16*
X77460000Y-53340000D03*
D17*
X77460000Y-55880000D03*
X77460000Y-58420000D03*
X77460000Y-60960000D03*
X77460000Y-63500000D03*
X77460000Y-66040000D03*
X77460000Y-68580000D03*
X77460000Y-71120000D03*
X77460000Y-73660000D03*
X77460000Y-76200000D03*
X77460000Y-78740000D03*
X77460000Y-81280000D03*
X77460000Y-83820000D03*
X77460000Y-86360000D03*
X77460000Y-88900000D03*
X77460000Y-91440000D03*
D16*
X77460000Y-10160000D03*
D17*
X77460000Y-12700000D03*
X77460000Y-15240000D03*
X77460000Y-17780000D03*
X77460000Y-20320000D03*
X77460000Y-22860000D03*
X77460000Y-25400000D03*
X77460000Y-27940000D03*
X77460000Y-30480000D03*
X77460000Y-33020000D03*
X77460000Y-35560000D03*
X77460000Y-38100000D03*
X77460000Y-40640000D03*
X77460000Y-43180000D03*
X77460000Y-45720000D03*
X77460000Y-48260000D03*
D16*
X2540000Y-10160000D03*
D17*
X2540000Y-12700000D03*
X2540000Y-15240000D03*
X2540000Y-17780000D03*
X2540000Y-20320000D03*
X2540000Y-22860000D03*
X2540000Y-25400000D03*
X2540000Y-27940000D03*
X2540000Y-30480000D03*
X2540000Y-33020000D03*
X2540000Y-35560000D03*
X2540000Y-38100000D03*
X2540000Y-40640000D03*
X2540000Y-43180000D03*
X2540000Y-45720000D03*
X2540000Y-48260000D03*
D18*
X12218835Y-40800000D03*
X12200000Y-80800000D03*
X12300000Y-60500000D03*
D19*
X11237671Y-41781164D02*
X12218835Y-40800000D01*
X8029812Y-41781164D02*
X11237671Y-41781164D01*
X8029812Y-81781164D02*
X11218836Y-81781164D01*
X11018836Y-61781164D02*
X12300000Y-60500000D01*
X11218836Y-81781164D02*
X12200000Y-80800000D01*
X8029812Y-61781164D02*
X11018836Y-61781164D01*
D20*
X11552063Y-2500000D02*
X10092975Y-3959088D01*
X15500000Y-17000000D02*
X19100000Y-13400000D01*
X16700000Y-2500000D02*
X11552063Y-2500000D01*
X19100000Y-13400000D02*
X19100000Y-4900000D01*
X19100000Y-4900000D02*
X16700000Y-2500000D01*
X10000000Y-14000000D02*
X10000000Y-6460000D01*
X8700000Y-12700000D02*
X2540000Y-12700000D01*
X10000000Y-6460000D02*
X12500000Y-3960000D01*
X10000000Y-14000000D02*
X8700000Y-12700000D01*
X3390000Y-18630000D02*
X10870000Y-18630000D01*
X15000000Y-14500000D02*
X15000000Y-14000000D01*
X12500000Y-17000000D02*
X15000000Y-14500000D01*
X2540000Y-17780000D02*
X3390000Y-18630000D01*
X10870000Y-18630000D02*
X12500000Y-17000000D01*
X15938607Y-10561393D02*
X15938607Y-10129874D01*
X9500000Y-17000000D02*
X12500000Y-14000000D01*
X12500000Y-6500000D02*
X15938607Y-9938607D01*
X15938607Y-9938607D02*
X15938607Y-10129874D01*
X12500000Y-14000000D02*
X15938607Y-10561393D01*
X15938607Y-30561393D02*
X15938607Y-30129874D01*
X12500000Y-34000000D02*
X15938607Y-30561393D01*
X15938607Y-29938607D02*
X15938607Y-30129874D01*
X9500000Y-37000000D02*
X12500000Y-34000000D01*
X12500000Y-26500000D02*
X15938607Y-29938607D01*
X19000000Y-24800000D02*
X19000000Y-33500000D01*
X16700000Y-22500000D02*
X19000000Y-24800000D01*
X19000000Y-33500000D02*
X15500000Y-37000000D01*
X11552063Y-22500000D02*
X16700000Y-22500000D01*
X10092975Y-23959088D02*
X11552063Y-22500000D01*
X15938607Y-50561393D02*
X15938607Y-50129874D01*
X9500000Y-57000000D02*
X12500000Y-54000000D01*
X15938607Y-49938607D02*
X15938607Y-50129874D01*
X12500000Y-54000000D02*
X15938607Y-50561393D01*
X12500000Y-46500000D02*
X15938607Y-49938607D01*
X10092975Y-43959088D02*
X11546398Y-42505665D01*
X11546398Y-42505665D02*
X16605665Y-42505665D01*
X19000000Y-53500000D02*
X15500000Y-57000000D01*
X19000000Y-44900000D02*
X19000000Y-53500000D01*
X16605665Y-42505665D02*
X19000000Y-44900000D01*
X15938607Y-70129874D02*
X12500000Y-66691267D01*
X9500000Y-77000000D02*
X12500000Y-74000000D01*
X12500000Y-66691267D02*
X12500000Y-66500000D01*
X11552063Y-62500000D02*
X16527386Y-62500000D01*
X18875000Y-73625000D02*
X15500000Y-77000000D01*
X10092975Y-63959088D02*
X11552063Y-62500000D01*
X16527386Y-62500000D02*
X18875000Y-64847614D01*
X18875000Y-64847614D02*
X18875000Y-73625000D01*
X15938607Y-90129874D02*
X12500000Y-86691267D01*
X9500000Y-97000000D02*
X12500000Y-94000000D01*
X12500000Y-86691267D02*
X12500000Y-86500000D01*
X19000000Y-84800000D02*
X19000000Y-93500000D01*
X19000000Y-93500000D02*
X15500000Y-97000000D01*
X11552063Y-82500000D02*
X16700000Y-82500000D01*
X10092975Y-83959088D02*
X11552063Y-82500000D01*
X16700000Y-82500000D02*
X19000000Y-84800000D01*
X27850000Y-77000000D02*
X30850000Y-74000000D01*
X34288607Y-70561393D02*
X34288607Y-70129874D01*
X34288607Y-69938607D02*
X34288607Y-70129874D01*
X30850000Y-66500000D02*
X34288607Y-69938607D01*
X30850000Y-74000000D02*
X34288607Y-70561393D01*
X29902063Y-62500000D02*
X35050000Y-62500000D01*
X37350000Y-64800000D02*
X37350000Y-73500000D01*
X28442975Y-63959088D02*
X29902063Y-62500000D01*
X35050000Y-62500000D02*
X37350000Y-64800000D01*
X37350000Y-73500000D02*
X33850000Y-77000000D01*
X27520000Y-97000000D02*
X27850000Y-97000000D01*
X34288607Y-90561393D02*
X34288607Y-90129874D01*
X30850000Y-94000000D02*
X34288607Y-90561393D01*
X27850000Y-97000000D02*
X30850000Y-94000000D01*
X34288607Y-89938607D02*
X34288607Y-90129874D01*
X30850000Y-86500000D02*
X34288607Y-89938607D01*
X37350000Y-84500000D02*
X37350000Y-93170000D01*
X37350000Y-93170000D02*
X33520000Y-97000000D01*
X35250000Y-82400000D02*
X37350000Y-84500000D01*
X30002063Y-82400000D02*
X35250000Y-82400000D01*
X28442975Y-83959088D02*
X30002063Y-82400000D01*
X34288607Y-9938607D02*
X34288607Y-10129874D01*
X27850000Y-17000000D02*
X30850000Y-14000000D01*
X30850000Y-14000000D02*
X34288607Y-10561393D01*
X30850000Y-6500000D02*
X34288607Y-9938607D01*
X34288607Y-10561393D02*
X34288607Y-10129874D01*
X37350000Y-3700000D02*
X37350000Y-13500000D01*
X36150000Y-2500000D02*
X37350000Y-3700000D01*
X29902063Y-2500000D02*
X36150000Y-2500000D01*
X37350000Y-13500000D02*
X33850000Y-17000000D01*
X28442975Y-3959088D02*
X29902063Y-2500000D01*
X10000000Y-86460000D02*
X12500000Y-83960000D01*
X10000000Y-94000000D02*
X10000000Y-86460000D01*
X3875500Y-80075500D02*
X14975500Y-80075500D01*
X14975500Y-80075500D02*
X19449501Y-84549501D01*
X2540000Y-78740000D02*
X3875500Y-80075500D01*
X19449501Y-84549501D02*
X19449501Y-95949501D01*
X19449501Y-95949501D02*
X20500000Y-97000000D01*
X12500000Y-97000000D02*
X15000000Y-94500000D01*
X12500000Y-89040000D02*
X12500000Y-91500000D01*
X12500000Y-91500000D02*
X15000000Y-94000000D01*
X15000000Y-94500000D02*
X15000000Y-94000000D01*
X10000000Y-26460000D02*
X12500000Y-23960000D01*
X2940000Y-27940000D02*
X2540000Y-27940000D01*
X10000000Y-34000000D02*
X10000000Y-26460000D01*
X9000000Y-34000000D02*
X2940000Y-27940000D01*
X4700000Y-34500000D02*
X8775499Y-38575499D01*
X4700000Y-32640000D02*
X4700000Y-34500000D01*
X2540000Y-30480000D02*
X4700000Y-32640000D01*
X18924501Y-38575499D02*
X20500000Y-37000000D01*
X8775499Y-38575499D02*
X18924501Y-38575499D01*
X15000000Y-34500000D02*
X15000000Y-34000000D01*
X12500000Y-37000000D02*
X15000000Y-34500000D01*
X2540000Y-20320000D02*
X3660000Y-19200000D01*
X28350000Y-14000000D02*
X28350000Y-6460000D01*
X28350000Y-14300000D02*
X28350000Y-14000000D01*
X28350000Y-6460000D02*
X30850000Y-3960000D01*
X23450000Y-19200000D02*
X28350000Y-14300000D01*
X3660000Y-19200000D02*
X23450000Y-19200000D01*
X4100000Y-23840000D02*
X4100000Y-21900000D01*
X33350000Y-14500000D02*
X33350000Y-14000000D01*
X30850000Y-17000000D02*
X33350000Y-14500000D01*
X2540000Y-25400000D02*
X4100000Y-23840000D01*
X4100000Y-21900000D02*
X6200000Y-19800000D01*
X6200000Y-19800000D02*
X28050000Y-19800000D01*
X28050000Y-19800000D02*
X30850000Y-17000000D01*
X10000000Y-46460000D02*
X12500000Y-43960000D01*
X10000000Y-54000000D02*
X10000000Y-46460000D01*
X6724500Y-40075500D02*
X4500000Y-42300000D01*
X4500000Y-42300000D02*
X4500000Y-43760000D01*
X4500000Y-43760000D02*
X2540000Y-45720000D01*
X14811190Y-40075500D02*
X6724500Y-40075500D01*
X20500000Y-57000000D02*
X21700000Y-55800000D01*
X21700000Y-46964310D02*
X14811190Y-40075500D01*
X21700000Y-55800000D02*
X21700000Y-46964310D01*
X15000000Y-54500000D02*
X15000000Y-54000000D01*
X12500000Y-57000000D02*
X15000000Y-54500000D01*
X28350000Y-26460000D02*
X30850000Y-23960000D01*
X28500000Y-34000000D02*
X23323502Y-39176498D01*
X23323502Y-39176498D02*
X6156498Y-39176498D01*
X6156498Y-39176498D02*
X2540000Y-35560000D01*
X28350000Y-34000000D02*
X28350000Y-26460000D01*
X30850000Y-37000000D02*
X33350000Y-34500000D01*
X2540000Y-40640000D02*
X3554001Y-39625999D01*
X28224001Y-39625999D02*
X30850000Y-37000000D01*
X3554001Y-39625999D02*
X28224001Y-39625999D01*
X33350000Y-34500000D02*
X33350000Y-34000000D01*
X14438576Y-59775500D02*
X6264500Y-59775500D01*
X19324501Y-76824501D02*
X19324501Y-64661425D01*
X19324501Y-64661425D02*
X14438576Y-59775500D01*
X20500000Y-78000000D02*
X19324501Y-76824501D01*
X6264500Y-59775500D02*
X2540000Y-63500000D01*
X2540000Y-66040000D02*
X6540000Y-70040000D01*
X6540000Y-70040000D02*
X11500000Y-70040000D01*
X15000000Y-74500000D02*
X15000000Y-74000000D01*
X15000000Y-74000000D02*
X12500000Y-71500000D01*
X11500000Y-70040000D02*
X12500000Y-69040000D01*
X12500000Y-77000000D02*
X15000000Y-74500000D01*
X12500000Y-71500000D02*
X12500000Y-69040000D01*
X2540000Y-53340000D02*
X8076498Y-58876498D01*
X28350000Y-54000000D02*
X28350000Y-46460000D01*
X23473502Y-58876498D02*
X28350000Y-54000000D01*
X8076498Y-58876498D02*
X23473502Y-58876498D01*
X28350000Y-46460000D02*
X30850000Y-43960000D01*
X33350000Y-54500000D02*
X33350000Y-54000000D01*
X3445999Y-59325999D02*
X28524001Y-59325999D01*
X28524001Y-59325999D02*
X30850000Y-57000000D01*
X30850000Y-57000000D02*
X33350000Y-54500000D01*
X2540000Y-58420000D02*
X3445999Y-59325999D01*
X27850000Y-37000000D02*
X30850000Y-34000000D01*
X34288607Y-29938607D02*
X34288607Y-30129874D01*
X34288607Y-30561393D02*
X34288607Y-30129874D01*
X30850000Y-26500000D02*
X34288607Y-29938607D01*
X30850000Y-34000000D02*
X34288607Y-30561393D01*
X35250000Y-22500000D02*
X29902063Y-22500000D01*
X29902063Y-22500000D02*
X28442975Y-23959088D01*
X33850000Y-37000000D02*
X37350000Y-33500000D01*
X37350000Y-24600000D02*
X35250000Y-22500000D01*
X37350000Y-33500000D02*
X37350000Y-24600000D01*
X30850000Y-54000000D02*
X34288607Y-50561393D01*
X27850000Y-57000000D02*
X30850000Y-54000000D01*
X34288607Y-50561393D02*
X34288607Y-50129874D01*
X30850000Y-46691267D02*
X30850000Y-46500000D01*
X34288607Y-50129874D02*
X30850000Y-46691267D01*
X37250000Y-53600000D02*
X33850000Y-57000000D01*
X37250000Y-44700000D02*
X37250000Y-53600000D01*
X35050000Y-42500000D02*
X37250000Y-44700000D01*
X29902063Y-42500000D02*
X35050000Y-42500000D01*
X28442975Y-43959088D02*
X29902063Y-42500000D01*
X4000000Y-74900000D02*
X4000000Y-70040000D01*
X8276498Y-79176498D02*
X4000000Y-74900000D01*
X28350000Y-66460000D02*
X30850000Y-63960000D01*
X28350000Y-74000000D02*
X28350000Y-66460000D01*
X23323502Y-79176498D02*
X8276498Y-79176498D01*
X4000000Y-70040000D02*
X2540000Y-68580000D01*
X28500000Y-74000000D02*
X23323502Y-79176498D01*
X2540000Y-74075690D02*
X2540000Y-73660000D01*
X30850000Y-77000000D02*
X28224001Y-79625999D01*
X8090309Y-79625999D02*
X2540000Y-74075690D01*
X28224001Y-79625999D02*
X8090309Y-79625999D01*
X33350000Y-74500000D02*
X33350000Y-74000000D01*
X30850000Y-77000000D02*
X33350000Y-74500000D01*
X2540000Y-83820000D02*
X5749501Y-87029501D01*
X28350000Y-86460000D02*
X30850000Y-83960000D01*
X5749501Y-87029501D02*
X5749501Y-95649501D01*
X8900000Y-98800000D02*
X23550000Y-98800000D01*
X5749501Y-95649501D02*
X8900000Y-98800000D01*
X23550000Y-98800000D02*
X28350000Y-94000000D01*
X28350000Y-94000000D02*
X28350000Y-86460000D01*
X33350000Y-94170000D02*
X33350000Y-94000000D01*
X8713811Y-99249501D02*
X28270499Y-99249501D01*
X30520000Y-97000000D02*
X33350000Y-94170000D01*
X5300000Y-95835690D02*
X8713811Y-99249501D01*
X5300000Y-91660000D02*
X5300000Y-95835690D01*
X28270499Y-99249501D02*
X30520000Y-97000000D01*
X2540000Y-88900000D02*
X5300000Y-91660000D01*
X46150000Y-57000000D02*
X49150000Y-54000000D01*
X52588607Y-50561393D02*
X52588607Y-50129874D01*
X49150000Y-46500000D02*
X52588607Y-49938607D01*
X52588607Y-49938607D02*
X52588607Y-50129874D01*
X49150000Y-54000000D02*
X52588607Y-50561393D01*
X55700000Y-53450000D02*
X52150000Y-57000000D01*
X55700000Y-44600000D02*
X55700000Y-53450000D01*
X48102063Y-42600000D02*
X53700000Y-42600000D01*
X46742975Y-43959088D02*
X48102063Y-42600000D01*
X53700000Y-42600000D02*
X55700000Y-44600000D01*
X52588607Y-70129874D02*
X49150000Y-66691267D01*
X49150000Y-66691267D02*
X49150000Y-66500000D01*
X52588607Y-70561393D02*
X52588607Y-70129874D01*
X49150000Y-74000000D02*
X52588607Y-70561393D01*
X46150000Y-77000000D02*
X49150000Y-74000000D01*
X55600000Y-64900000D02*
X53100000Y-62400000D01*
X48302063Y-62400000D02*
X46742975Y-63959088D01*
X55600000Y-73550000D02*
X55600000Y-64900000D01*
X53100000Y-62400000D02*
X48302063Y-62400000D01*
X52150000Y-77000000D02*
X55600000Y-73550000D01*
X52588607Y-89938607D02*
X52588607Y-90129874D01*
X46150000Y-97000000D02*
X49150000Y-94000000D01*
X49150000Y-94000000D02*
X52588607Y-90561393D01*
X52588607Y-90561393D02*
X52588607Y-90129874D01*
X49150000Y-86500000D02*
X52588607Y-89938607D01*
X55700000Y-93450000D02*
X52150000Y-97000000D01*
X46742975Y-83959088D02*
X48302063Y-82400000D01*
X55700000Y-84800000D02*
X55700000Y-93450000D01*
X53300000Y-82400000D02*
X55700000Y-84800000D01*
X48302063Y-82400000D02*
X53300000Y-82400000D01*
X59500000Y-69380000D02*
X64620000Y-69380000D01*
X64620000Y-69380000D02*
X67500000Y-66500000D01*
X67500000Y-66500000D02*
X70938607Y-69938607D01*
X64500000Y-77000000D02*
X67500000Y-74000000D01*
X70938607Y-69938607D02*
X70938607Y-70129874D01*
X74000000Y-64900000D02*
X74000000Y-73500000D01*
X65092975Y-63959088D02*
X66552063Y-62500000D01*
X71600000Y-62500000D02*
X74000000Y-64900000D01*
X66552063Y-62500000D02*
X71600000Y-62500000D01*
X74000000Y-73500000D02*
X70500000Y-77000000D01*
X64520000Y-89480000D02*
X67500000Y-86500000D01*
X67500000Y-86691267D02*
X67500000Y-86500000D01*
X59500000Y-89480000D02*
X64520000Y-89480000D01*
X64500000Y-97000000D02*
X67500000Y-94000000D01*
X67500000Y-94000000D02*
X70938607Y-90561393D01*
X70938607Y-90561393D02*
X70938607Y-90129874D01*
X70938607Y-90129874D02*
X67500000Y-86691267D01*
X66552063Y-82500000D02*
X71700000Y-82500000D01*
X74000000Y-93500000D02*
X70500000Y-97000000D01*
X74000000Y-84800000D02*
X74000000Y-93500000D01*
X65092975Y-83959088D02*
X66552063Y-82500000D01*
X71700000Y-82500000D02*
X74000000Y-84800000D01*
X64500000Y-17000000D02*
X67500000Y-14000000D01*
X70938607Y-9938607D02*
X70938607Y-10129874D01*
X59500000Y-9380000D02*
X64620000Y-9380000D01*
X67500000Y-6500000D02*
X70938607Y-9938607D01*
X64620000Y-9380000D02*
X67500000Y-6500000D01*
X74200000Y-13300000D02*
X74200000Y-5000000D01*
X74200000Y-5000000D02*
X71835000Y-2635000D01*
X70500000Y-17000000D02*
X74200000Y-13300000D01*
X71835000Y-2635000D02*
X66417063Y-2635000D01*
X66417063Y-2635000D02*
X65092975Y-3959088D01*
X64500000Y-37000000D02*
X67500000Y-34000000D01*
X64620000Y-29380000D02*
X67500000Y-26500000D01*
X59500000Y-29380000D02*
X64620000Y-29380000D01*
X70938607Y-29938607D02*
X70938607Y-30129874D01*
X67500000Y-26500000D02*
X70938607Y-29938607D01*
X65092975Y-23959088D02*
X66552063Y-22500000D01*
X74000000Y-33500000D02*
X70500000Y-37000000D01*
X66552063Y-22500000D02*
X71600000Y-22500000D01*
X74000000Y-24900000D02*
X74000000Y-33500000D01*
X71600000Y-22500000D02*
X74000000Y-24900000D01*
X64500000Y-57000000D02*
X67500000Y-54000000D01*
X67500000Y-46500000D02*
X70938607Y-49938607D01*
X70938607Y-49938607D02*
X70938607Y-50129874D01*
X64620000Y-49380000D02*
X67500000Y-46500000D01*
X59500000Y-49380000D02*
X64620000Y-49380000D01*
X65092975Y-43959088D02*
X66417063Y-42635000D01*
X66417063Y-42635000D02*
X72235000Y-42635000D01*
X73950499Y-53549501D02*
X70500000Y-57000000D01*
X73950499Y-44350499D02*
X73950499Y-53549501D01*
X72235000Y-42635000D02*
X73950499Y-44350499D01*
X46650000Y-6460000D02*
X49150000Y-3960000D01*
X46650000Y-14000000D02*
X46650000Y-6460000D01*
X57000000Y-17000000D02*
X59224501Y-19224501D01*
X59224501Y-19224501D02*
X73824501Y-19224501D01*
X73824501Y-19224501D02*
X77460000Y-22860000D01*
X71860000Y-19800000D02*
X77460000Y-25400000D01*
X51650000Y-14500000D02*
X51650000Y-14000000D01*
X49150000Y-17000000D02*
X51950000Y-19800000D01*
X49150000Y-17000000D02*
X51650000Y-14500000D01*
X51950000Y-19800000D02*
X71860000Y-19800000D01*
D21*
X67500000Y-11500000D02*
X70000000Y-14000000D01*
X67500000Y-17000000D02*
X70000000Y-14500000D01*
X67500000Y-17000000D02*
X69200000Y-18700000D01*
X69200000Y-18700000D02*
X76540000Y-18700000D01*
X76540000Y-18700000D02*
X77460000Y-17780000D01*
X70000000Y-14500000D02*
X70000000Y-14000000D01*
X67500000Y-9040000D02*
X67500000Y-11500000D01*
D20*
X46650000Y-34000000D02*
X46650000Y-26460000D01*
X46650000Y-26460000D02*
X49150000Y-23960000D01*
X59050499Y-39050499D02*
X76509501Y-39050499D01*
X76509501Y-39050499D02*
X77460000Y-38100000D01*
X57000000Y-37000000D02*
X59050499Y-39050499D01*
X49150000Y-37000000D02*
X51650000Y-34500000D01*
X51650000Y-39500000D02*
X76320000Y-39500000D01*
X76320000Y-39500000D02*
X77460000Y-40640000D01*
X49150000Y-37000000D02*
X51650000Y-39500000D01*
X51650000Y-34500000D02*
X51650000Y-34000000D01*
X74500000Y-33440000D02*
X74500000Y-35200000D01*
X61100000Y-38600000D02*
X59500000Y-37000000D01*
X77460000Y-30480000D02*
X74500000Y-33440000D01*
X71100000Y-38600000D02*
X61100000Y-38600000D01*
X74500000Y-35200000D02*
X71100000Y-38600000D01*
X67500000Y-31500000D02*
X70000000Y-34000000D01*
X67500000Y-29040000D02*
X67500000Y-31500000D01*
X70000000Y-34500000D02*
X70000000Y-34000000D01*
X67500000Y-37000000D02*
X70000000Y-34500000D01*
X46650000Y-46460000D02*
X49150000Y-43960000D01*
X46650000Y-54000000D02*
X46650000Y-46460000D01*
X59100000Y-59100000D02*
X74240000Y-59100000D01*
X74240000Y-59100000D02*
X77460000Y-55880000D01*
X57000000Y-57000000D02*
X59100000Y-59100000D01*
X51750000Y-59600000D02*
X49150000Y-57000000D01*
X49150000Y-57000000D02*
X51650000Y-54500000D01*
X51650000Y-54500000D02*
X51650000Y-54000000D01*
X77460000Y-58420000D02*
X76280000Y-59600000D01*
X76280000Y-59600000D02*
X51750000Y-59600000D01*
X59500000Y-57000000D02*
X61000000Y-58500000D01*
X74400000Y-48780000D02*
X77460000Y-45720000D01*
X71900000Y-58500000D02*
X74400000Y-56000000D01*
X61000000Y-58500000D02*
X71900000Y-58500000D01*
X74400000Y-56000000D02*
X74400000Y-48780000D01*
X67500000Y-49040000D02*
X67500000Y-51500000D01*
X67500000Y-51500000D02*
X70000000Y-54000000D01*
X70000000Y-54500000D02*
X70000000Y-54000000D01*
X67500000Y-57000000D02*
X70000000Y-54500000D01*
D21*
X46650000Y-74000000D02*
X46650000Y-66460000D01*
X46650000Y-66460000D02*
X49150000Y-63960000D01*
X74700000Y-75100000D02*
X74700000Y-73900000D01*
X71200000Y-78600000D02*
X74700000Y-75100000D01*
X74700000Y-73900000D02*
X77460000Y-71140000D01*
X58600000Y-78600000D02*
X71200000Y-78600000D01*
X57000000Y-77000000D02*
X58600000Y-78600000D01*
X77460000Y-71140000D02*
X77460000Y-71120000D01*
X51225499Y-79075499D02*
X72044501Y-79075499D01*
X49150000Y-77000000D02*
X51650000Y-74500000D01*
X72044501Y-79075499D02*
X77460000Y-73660000D01*
X51650000Y-74500000D02*
X51650000Y-74000000D01*
X49150000Y-77000000D02*
X51225499Y-79075499D01*
D20*
X58300000Y-64200000D02*
X62043836Y-60456164D01*
X62043836Y-60456164D02*
X74416164Y-60456164D01*
X74416164Y-60456164D02*
X77460000Y-63500000D01*
X59500000Y-77000000D02*
X58300000Y-75800000D01*
X58300000Y-75800000D02*
X58300000Y-64200000D01*
X67500000Y-71500000D02*
X70000000Y-74000000D01*
X67500000Y-77000000D02*
X70000000Y-74500000D01*
X67500000Y-69040000D02*
X67500000Y-71500000D01*
X70000000Y-74500000D02*
X70000000Y-74000000D01*
X46650000Y-86460000D02*
X49150000Y-83960000D01*
X46650000Y-94000000D02*
X46650000Y-86460000D01*
X57000000Y-97100000D02*
X58600000Y-98700000D01*
X74550499Y-95313811D02*
X74550499Y-89269501D01*
X58600000Y-98700000D02*
X71164310Y-98700000D01*
X71164310Y-98700000D02*
X74550499Y-95313811D01*
X74550499Y-89269501D02*
X77460000Y-86360000D01*
X71350499Y-99149501D02*
X75000000Y-95500000D01*
X51299501Y-99149501D02*
X71350499Y-99149501D01*
X51650000Y-94500000D02*
X51650000Y-94000000D01*
X75000000Y-95500000D02*
X75000000Y-91360000D01*
X75000000Y-91360000D02*
X77460000Y-88900000D01*
X49150000Y-97000000D02*
X51299501Y-99149501D01*
X49150000Y-97000000D02*
X51650000Y-94500000D01*
X58300000Y-84500000D02*
X63300000Y-79500000D01*
X59500000Y-97100000D02*
X58300000Y-95900000D01*
X58300000Y-95900000D02*
X58300000Y-84500000D01*
X76700000Y-79500000D02*
X77460000Y-78740000D01*
X63300000Y-79500000D02*
X76700000Y-79500000D01*
X67500000Y-97000000D02*
X70000000Y-94500000D01*
X70000000Y-94500000D02*
X70000000Y-94000000D01*
X46150000Y-17000000D02*
X49150000Y-14000000D01*
X52588607Y-9938607D02*
X52588607Y-10129874D01*
X49150000Y-14000000D02*
X52588607Y-10561393D01*
X52588607Y-10561393D02*
X52588607Y-10129874D01*
X49150000Y-6500000D02*
X52588607Y-9938607D01*
X52150000Y-17000000D02*
X55700000Y-13450000D01*
X48202063Y-2500000D02*
X46742975Y-3959088D01*
X55700000Y-13450000D02*
X55700000Y-4900000D01*
X53300000Y-2500000D02*
X48202063Y-2500000D01*
X55700000Y-4900000D02*
X53300000Y-2500000D01*
X52588607Y-30561393D02*
X52588607Y-30129874D01*
X49150000Y-34000000D02*
X52588607Y-30561393D01*
X46150000Y-37000000D02*
X49150000Y-34000000D01*
X52588607Y-29938607D02*
X52588607Y-30129874D01*
X49150000Y-26500000D02*
X52588607Y-29938607D01*
X53300000Y-22500000D02*
X55700000Y-24900000D01*
X48202063Y-22500000D02*
X53300000Y-22500000D01*
X55700000Y-24900000D02*
X55700000Y-33450000D01*
X46742975Y-23959088D02*
X48202063Y-22500000D01*
X55700000Y-33450000D02*
X52150000Y-37000000D01*
M02*
