G04 #@! TF.GenerationSoftware,KiCad,Pcbnew,(6.0.11-0)*
G04 #@! TF.CreationDate,2023-03-26T21:42:55+01:00*
G04 #@! TF.ProjectId,ioboard,696f626f-6172-4642-9e6b-696361645f70,rev?*
G04 #@! TF.SameCoordinates,Original*
G04 #@! TF.FileFunction,Legend,Top*
G04 #@! TF.FilePolarity,Positive*
%FSLAX46Y46*%
G04 Gerber Fmt 4.6, Leading zero omitted, Abs format (unit mm)*
G04 Created by KiCad (PCBNEW (6.0.11-0)) date 2023-03-26 21:42:55*
%MOMM*%
%LPD*%
G01*
G04 APERTURE LIST*
%ADD10C,0.150000*%
%ADD11C,0.120000*%
%ADD12C,0.420555*%
%ADD13O,2.500000X4.500000*%
%ADD14R,1.800000X1.800000*%
%ADD15C,1.800000*%
%ADD16C,2.000000*%
%ADD17C,1.400000*%
%ADD18O,1.400000X1.400000*%
%ADD19C,1.700000*%
%ADD20O,1.700000X1.700000*%
G04 APERTURE END LIST*
D10*
X39023571Y-52047619D02*
X39023571Y-51714285D01*
X39547380Y-51571428D02*
X39547380Y-52047619D01*
X38547380Y-52047619D01*
X38547380Y-51571428D01*
X38880714Y-50714285D02*
X39547380Y-50714285D01*
X38880714Y-51142857D02*
X39404523Y-51142857D01*
X39499761Y-51095238D01*
X39547380Y-50999999D01*
X39547380Y-50857142D01*
X39499761Y-50761904D01*
X39452142Y-50714285D01*
X39547380Y-50238095D02*
X38880714Y-50238095D01*
X39071190Y-50238095D02*
X38975952Y-50190476D01*
X38928333Y-50142857D01*
X38880714Y-50047619D01*
X38880714Y-49952380D01*
X39547380Y-49476190D02*
X39499761Y-49571428D01*
X39452142Y-49619047D01*
X39356904Y-49666666D01*
X39071190Y-49666666D01*
X38975952Y-49619047D01*
X38928333Y-49571428D01*
X38880714Y-49476190D01*
X38880714Y-49333333D01*
X38928333Y-49238095D01*
X38975952Y-49190476D01*
X39071190Y-49142857D01*
X39356904Y-49142857D01*
X39452142Y-49190476D01*
X39499761Y-49238095D01*
X39547380Y-49333333D01*
X39547380Y-49476190D01*
X39547380Y-48714285D02*
X38880714Y-48714285D01*
X39071190Y-48714285D02*
X38975952Y-48666666D01*
X38928333Y-48619047D01*
X38880714Y-48523809D01*
X38880714Y-48428571D01*
X39547380Y-47666666D02*
X39023571Y-47666666D01*
X38928333Y-47714285D01*
X38880714Y-47809523D01*
X38880714Y-47999999D01*
X38928333Y-48095238D01*
X39499761Y-47666666D02*
X39547380Y-47761904D01*
X39547380Y-47999999D01*
X39499761Y-48095238D01*
X39404523Y-48142857D01*
X39309285Y-48142857D01*
X39214047Y-48095238D01*
X39166428Y-47999999D01*
X39166428Y-47761904D01*
X39118809Y-47666666D01*
X39499761Y-46761904D02*
X39547380Y-46857142D01*
X39547380Y-47047619D01*
X39499761Y-47142857D01*
X39452142Y-47190476D01*
X39356904Y-47238095D01*
X39071190Y-47238095D01*
X38975952Y-47190476D01*
X38928333Y-47142857D01*
X38880714Y-47047619D01*
X38880714Y-46857142D01*
X38928333Y-46761904D01*
X39547380Y-46333333D02*
X38547380Y-46333333D01*
X39166428Y-46238095D02*
X39547380Y-45952380D01*
X38880714Y-45952380D02*
X39261666Y-46333333D01*
X39547380Y-44761904D02*
X38547380Y-44761904D01*
X38547380Y-44380952D01*
X38595000Y-44285714D01*
X38642619Y-44238095D01*
X38737857Y-44190476D01*
X38880714Y-44190476D01*
X38975952Y-44238095D01*
X39023571Y-44285714D01*
X39071190Y-44380952D01*
X39071190Y-44761904D01*
X39547380Y-43761904D02*
X38880714Y-43761904D01*
X39071190Y-43761904D02*
X38975952Y-43714285D01*
X38928333Y-43666666D01*
X38880714Y-43571428D01*
X38880714Y-43476190D01*
X39547380Y-42999999D02*
X39499761Y-43095238D01*
X39452142Y-43142857D01*
X39356904Y-43190476D01*
X39071190Y-43190476D01*
X38975952Y-43142857D01*
X38928333Y-43095238D01*
X38880714Y-42999999D01*
X38880714Y-42857142D01*
X38928333Y-42761904D01*
X38975952Y-42714285D01*
X39071190Y-42666666D01*
X39356904Y-42666666D01*
X39452142Y-42714285D01*
X39499761Y-42761904D01*
X39547380Y-42857142D01*
X39547380Y-42999999D01*
X38880714Y-42380952D02*
X38880714Y-41999999D01*
X38547380Y-42238095D02*
X39404523Y-42238095D01*
X39499761Y-42190476D01*
X39547380Y-42095238D01*
X39547380Y-41999999D01*
X39547380Y-41523809D02*
X39499761Y-41619047D01*
X39452142Y-41666666D01*
X39356904Y-41714285D01*
X39071190Y-41714285D01*
X38975952Y-41666666D01*
X38928333Y-41619047D01*
X38880714Y-41523809D01*
X38880714Y-41380952D01*
X38928333Y-41285714D01*
X38975952Y-41238095D01*
X39071190Y-41190476D01*
X39356904Y-41190476D01*
X39452142Y-41238095D01*
X39499761Y-41285714D01*
X39547380Y-41380952D01*
X39547380Y-41523809D01*
X39547380Y-40761904D02*
X38547380Y-40761904D01*
X38928333Y-40761904D02*
X38880714Y-40666666D01*
X38880714Y-40476190D01*
X38928333Y-40380952D01*
X38975952Y-40333333D01*
X39071190Y-40285714D01*
X39356904Y-40285714D01*
X39452142Y-40333333D01*
X39499761Y-40380952D01*
X39547380Y-40476190D01*
X39547380Y-40666666D01*
X39499761Y-40761904D01*
X39547380Y-39714285D02*
X39499761Y-39809523D01*
X39452142Y-39857142D01*
X39356904Y-39904761D01*
X39071190Y-39904761D01*
X38975952Y-39857142D01*
X38928333Y-39809523D01*
X38880714Y-39714285D01*
X38880714Y-39571428D01*
X38928333Y-39476190D01*
X38975952Y-39428571D01*
X39071190Y-39380952D01*
X39356904Y-39380952D01*
X39452142Y-39428571D01*
X39499761Y-39476190D01*
X39547380Y-39571428D01*
X39547380Y-39714285D01*
X39547380Y-38523809D02*
X39023571Y-38523809D01*
X38928333Y-38571428D01*
X38880714Y-38666666D01*
X38880714Y-38857142D01*
X38928333Y-38952380D01*
X39499761Y-38523809D02*
X39547380Y-38619047D01*
X39547380Y-38857142D01*
X39499761Y-38952380D01*
X39404523Y-38999999D01*
X39309285Y-38999999D01*
X39214047Y-38952380D01*
X39166428Y-38857142D01*
X39166428Y-38619047D01*
X39118809Y-38523809D01*
X39547380Y-38047619D02*
X38880714Y-38047619D01*
X39071190Y-38047619D02*
X38975952Y-37999999D01*
X38928333Y-37952380D01*
X38880714Y-37857142D01*
X38880714Y-37761904D01*
X39547380Y-36999999D02*
X38547380Y-36999999D01*
X39499761Y-36999999D02*
X39547380Y-37095238D01*
X39547380Y-37285714D01*
X39499761Y-37380952D01*
X39452142Y-37428571D01*
X39356904Y-37476190D01*
X39071190Y-37476190D01*
X38975952Y-37428571D01*
X38928333Y-37380952D01*
X38880714Y-37285714D01*
X38880714Y-37095238D01*
X38928333Y-36999999D01*
X39166428Y-35761904D02*
X39166428Y-34999999D01*
X39547380Y-33238095D02*
X39547380Y-33809523D01*
X39547380Y-33523809D02*
X38547380Y-33523809D01*
X38690238Y-33619047D01*
X38785476Y-33714285D01*
X38833095Y-33809523D01*
X38547380Y-32380952D02*
X38547380Y-32571428D01*
X38595000Y-32666666D01*
X38642619Y-32714285D01*
X38785476Y-32809523D01*
X38975952Y-32857142D01*
X39356904Y-32857142D01*
X39452142Y-32809523D01*
X39499761Y-32761904D01*
X39547380Y-32666666D01*
X39547380Y-32476190D01*
X39499761Y-32380952D01*
X39452142Y-32333333D01*
X39356904Y-32285714D01*
X39118809Y-32285714D01*
X39023571Y-32333333D01*
X38975952Y-32380952D01*
X38928333Y-32476190D01*
X38928333Y-32666666D01*
X38975952Y-32761904D01*
X39023571Y-32809523D01*
X39118809Y-32857142D01*
X39547380Y-31857142D02*
X38547380Y-31857142D01*
X39547380Y-31428571D02*
X39023571Y-31428571D01*
X38928333Y-31476190D01*
X38880714Y-31571428D01*
X38880714Y-31714285D01*
X38928333Y-31809523D01*
X38975952Y-31857142D01*
X38880714Y-30952380D02*
X39880714Y-30952380D01*
X38928333Y-30952380D02*
X38880714Y-30857142D01*
X38880714Y-30666666D01*
X38928333Y-30571428D01*
X38975952Y-30523809D01*
X39071190Y-30476190D01*
X39356904Y-30476190D01*
X39452142Y-30523809D01*
X39499761Y-30571428D01*
X39547380Y-30666666D01*
X39547380Y-30857142D01*
X39499761Y-30952380D01*
X39452142Y-30047619D02*
X39499761Y-30000000D01*
X39547380Y-30047619D01*
X39499761Y-30095238D01*
X39452142Y-30047619D01*
X39547380Y-30047619D01*
X39547380Y-28809523D02*
X38547380Y-28809523D01*
X38547380Y-28571428D01*
X38595000Y-28428571D01*
X38690238Y-28333333D01*
X38785476Y-28285714D01*
X38975952Y-28238095D01*
X39118809Y-28238095D01*
X39309285Y-28285714D01*
X39404523Y-28333333D01*
X39499761Y-28428571D01*
X39547380Y-28571428D01*
X39547380Y-28809523D01*
X39499761Y-27428571D02*
X39547380Y-27523809D01*
X39547380Y-27714285D01*
X39499761Y-27809523D01*
X39404523Y-27857142D01*
X39023571Y-27857142D01*
X38928333Y-27809523D01*
X38880714Y-27714285D01*
X38880714Y-27523809D01*
X38928333Y-27428571D01*
X39023571Y-27380952D01*
X39118809Y-27380952D01*
X39214047Y-27857142D01*
X39499761Y-27000000D02*
X39547380Y-26904761D01*
X39547380Y-26714285D01*
X39499761Y-26619047D01*
X39404523Y-26571428D01*
X39356904Y-26571428D01*
X39261666Y-26619047D01*
X39214047Y-26714285D01*
X39214047Y-26857142D01*
X39166428Y-26952380D01*
X39071190Y-27000000D01*
X39023571Y-27000000D01*
X38928333Y-26952380D01*
X38880714Y-26857142D01*
X38880714Y-26714285D01*
X38928333Y-26619047D01*
X39547380Y-26142857D02*
X38880714Y-26142857D01*
X38547380Y-26142857D02*
X38595000Y-26190476D01*
X38642619Y-26142857D01*
X38595000Y-26095238D01*
X38547380Y-26142857D01*
X38642619Y-26142857D01*
X38880714Y-25238095D02*
X39690238Y-25238095D01*
X39785476Y-25285714D01*
X39833095Y-25333333D01*
X39880714Y-25428571D01*
X39880714Y-25571428D01*
X39833095Y-25666666D01*
X39499761Y-25238095D02*
X39547380Y-25333333D01*
X39547380Y-25523809D01*
X39499761Y-25619047D01*
X39452142Y-25666666D01*
X39356904Y-25714285D01*
X39071190Y-25714285D01*
X38975952Y-25666666D01*
X38928333Y-25619047D01*
X38880714Y-25523809D01*
X38880714Y-25333333D01*
X38928333Y-25238095D01*
X38880714Y-24761904D02*
X39547380Y-24761904D01*
X38975952Y-24761904D02*
X38928333Y-24714285D01*
X38880714Y-24619047D01*
X38880714Y-24476190D01*
X38928333Y-24380952D01*
X39023571Y-24333333D01*
X39547380Y-24333333D01*
X39547380Y-22666666D02*
X39023571Y-22666666D01*
X38928333Y-22714285D01*
X38880714Y-22809523D01*
X38880714Y-23000000D01*
X38928333Y-23095238D01*
X39499761Y-22666666D02*
X39547380Y-22761904D01*
X39547380Y-23000000D01*
X39499761Y-23095238D01*
X39404523Y-23142857D01*
X39309285Y-23142857D01*
X39214047Y-23095238D01*
X39166428Y-23000000D01*
X39166428Y-22761904D01*
X39118809Y-22666666D01*
X38880714Y-22190476D02*
X39547380Y-22190476D01*
X38975952Y-22190476D02*
X38928333Y-22142857D01*
X38880714Y-22047619D01*
X38880714Y-21904761D01*
X38928333Y-21809523D01*
X39023571Y-21761904D01*
X39547380Y-21761904D01*
X39547380Y-20857142D02*
X38547380Y-20857142D01*
X39499761Y-20857142D02*
X39547380Y-20952380D01*
X39547380Y-21142857D01*
X39499761Y-21238095D01*
X39452142Y-21285714D01*
X39356904Y-21333333D01*
X39071190Y-21333333D01*
X38975952Y-21285714D01*
X38928333Y-21238095D01*
X38880714Y-21142857D01*
X38880714Y-20952380D01*
X38928333Y-20857142D01*
X39547380Y-19619047D02*
X38547380Y-19619047D01*
X38547380Y-19238095D01*
X38595000Y-19142857D01*
X38642619Y-19095238D01*
X38737857Y-19047619D01*
X38880714Y-19047619D01*
X38975952Y-19095238D01*
X39023571Y-19142857D01*
X39071190Y-19238095D01*
X39071190Y-19619047D01*
X39452142Y-18047619D02*
X39499761Y-18095238D01*
X39547380Y-18238095D01*
X39547380Y-18333333D01*
X39499761Y-18476190D01*
X39404523Y-18571428D01*
X39309285Y-18619047D01*
X39118809Y-18666666D01*
X38975952Y-18666666D01*
X38785476Y-18619047D01*
X38690238Y-18571428D01*
X38595000Y-18476190D01*
X38547380Y-18333333D01*
X38547380Y-18238095D01*
X38595000Y-18095238D01*
X38642619Y-18047619D01*
X39023571Y-17285714D02*
X39071190Y-17142857D01*
X39118809Y-17095238D01*
X39214047Y-17047619D01*
X39356904Y-17047619D01*
X39452142Y-17095238D01*
X39499761Y-17142857D01*
X39547380Y-17238095D01*
X39547380Y-17619047D01*
X38547380Y-17619047D01*
X38547380Y-17285714D01*
X38595000Y-17190476D01*
X38642619Y-17142857D01*
X38737857Y-17095238D01*
X38833095Y-17095238D01*
X38928333Y-17142857D01*
X38975952Y-17190476D01*
X39023571Y-17285714D01*
X39023571Y-17619047D01*
X39547380Y-15857142D02*
X38547380Y-15857142D01*
X38928333Y-15857142D02*
X38880714Y-15761904D01*
X38880714Y-15571428D01*
X38928333Y-15476190D01*
X38975952Y-15428571D01*
X39071190Y-15380952D01*
X39356904Y-15380952D01*
X39452142Y-15428571D01*
X39499761Y-15476190D01*
X39547380Y-15571428D01*
X39547380Y-15761904D01*
X39499761Y-15857142D01*
X38880714Y-15047619D02*
X39547380Y-14809523D01*
X38880714Y-14571428D02*
X39547380Y-14809523D01*
X39785476Y-14904761D01*
X39833095Y-14952380D01*
X39880714Y-15047619D01*
X39547380Y-13428571D02*
X38547380Y-13428571D01*
X39547380Y-12857142D01*
X38547380Y-12857142D01*
X39499761Y-12000000D02*
X39547380Y-12095238D01*
X39547380Y-12285714D01*
X39499761Y-12380952D01*
X39404523Y-12428571D01*
X39023571Y-12428571D01*
X38928333Y-12380952D01*
X38880714Y-12285714D01*
X38880714Y-12095238D01*
X38928333Y-12000000D01*
X39023571Y-11952380D01*
X39118809Y-11952380D01*
X39214047Y-12428571D01*
X39547380Y-11523809D02*
X38880714Y-11523809D01*
X38547380Y-11523809D02*
X38595000Y-11571428D01*
X38642619Y-11523809D01*
X38595000Y-11476190D01*
X38547380Y-11523809D01*
X38642619Y-11523809D01*
X39547380Y-10904761D02*
X39499761Y-11000000D01*
X39404523Y-11047619D01*
X38547380Y-11047619D01*
X39547380Y-9761904D02*
X38547380Y-9761904D01*
X39261666Y-9428571D01*
X38547380Y-9095238D01*
X39547380Y-9095238D01*
X39547380Y-8190476D02*
X39023571Y-8190476D01*
X38928333Y-8238095D01*
X38880714Y-8333333D01*
X38880714Y-8523809D01*
X38928333Y-8619047D01*
X39499761Y-8190476D02*
X39547380Y-8285714D01*
X39547380Y-8523809D01*
X39499761Y-8619047D01*
X39404523Y-8666666D01*
X39309285Y-8666666D01*
X39214047Y-8619047D01*
X39166428Y-8523809D01*
X39166428Y-8285714D01*
X39118809Y-8190476D01*
X39499761Y-7761904D02*
X39547380Y-7666666D01*
X39547380Y-7476190D01*
X39499761Y-7380952D01*
X39404523Y-7333333D01*
X39356904Y-7333333D01*
X39261666Y-7380952D01*
X39214047Y-7476190D01*
X39214047Y-7619047D01*
X39166428Y-7714285D01*
X39071190Y-7761904D01*
X39023571Y-7761904D01*
X38928333Y-7714285D01*
X38880714Y-7619047D01*
X38880714Y-7476190D01*
X38928333Y-7380952D01*
X39499761Y-6952380D02*
X39547380Y-6857142D01*
X39547380Y-6666666D01*
X39499761Y-6571428D01*
X39404523Y-6523809D01*
X39356904Y-6523809D01*
X39261666Y-6571428D01*
X39214047Y-6666666D01*
X39214047Y-6809523D01*
X39166428Y-6904761D01*
X39071190Y-6952380D01*
X39023571Y-6952380D01*
X38928333Y-6904761D01*
X38880714Y-6809523D01*
X38880714Y-6666666D01*
X38928333Y-6571428D01*
X39499761Y-5714285D02*
X39547380Y-5809523D01*
X39547380Y-6000000D01*
X39499761Y-6095238D01*
X39404523Y-6142857D01*
X39023571Y-6142857D01*
X38928333Y-6095238D01*
X38880714Y-6000000D01*
X38880714Y-5809523D01*
X38928333Y-5714285D01*
X39023571Y-5666666D01*
X39118809Y-5666666D01*
X39214047Y-6142857D01*
X38880714Y-5333333D02*
X39547380Y-5095238D01*
X38880714Y-4857142D02*
X39547380Y-5095238D01*
X39785476Y-5190476D01*
X39833095Y-5238095D01*
X39880714Y-5333333D01*
X41062142Y-39809523D02*
X41109761Y-39857142D01*
X41157380Y-40000000D01*
X41157380Y-40095238D01*
X41109761Y-40238095D01*
X41014523Y-40333333D01*
X40919285Y-40380952D01*
X40728809Y-40428571D01*
X40585952Y-40428571D01*
X40395476Y-40380952D01*
X40300238Y-40333333D01*
X40205000Y-40238095D01*
X40157380Y-40095238D01*
X40157380Y-40000000D01*
X40205000Y-39857142D01*
X40252619Y-39809523D01*
X41062142Y-38809523D02*
X41109761Y-38857142D01*
X41157380Y-39000000D01*
X41157380Y-39095238D01*
X41109761Y-39238095D01*
X41014523Y-39333333D01*
X40919285Y-39380952D01*
X40728809Y-39428571D01*
X40585952Y-39428571D01*
X40395476Y-39380952D01*
X40300238Y-39333333D01*
X40205000Y-39238095D01*
X40157380Y-39095238D01*
X40157380Y-39000000D01*
X40205000Y-38857142D01*
X40252619Y-38809523D01*
X40633571Y-37285714D02*
X40681190Y-37142857D01*
X40728809Y-37095238D01*
X40824047Y-37047619D01*
X40966904Y-37047619D01*
X41062142Y-37095238D01*
X41109761Y-37142857D01*
X41157380Y-37238095D01*
X41157380Y-37619047D01*
X40157380Y-37619047D01*
X40157380Y-37285714D01*
X40205000Y-37190476D01*
X40252619Y-37142857D01*
X40347857Y-37095238D01*
X40443095Y-37095238D01*
X40538333Y-37142857D01*
X40585952Y-37190476D01*
X40633571Y-37285714D01*
X40633571Y-37619047D01*
X40681190Y-36428571D02*
X41157380Y-36428571D01*
X40157380Y-36761904D02*
X40681190Y-36428571D01*
X40157380Y-36095238D01*
X40776428Y-35761904D02*
X40776428Y-35000000D01*
X41157380Y-34523809D02*
X40157380Y-34523809D01*
X41157380Y-33952380D01*
X40157380Y-33952380D01*
X41062142Y-32904761D02*
X41109761Y-32952380D01*
X41157380Y-33095238D01*
X41157380Y-33190476D01*
X41109761Y-33333333D01*
X41014523Y-33428571D01*
X40919285Y-33476190D01*
X40728809Y-33523809D01*
X40585952Y-33523809D01*
X40395476Y-33476190D01*
X40300238Y-33428571D01*
X40205000Y-33333333D01*
X40157380Y-33190476D01*
X40157380Y-33095238D01*
X40205000Y-32952380D01*
X40252619Y-32904761D01*
X40776428Y-32476190D02*
X40776428Y-31714285D01*
X41109761Y-31285714D02*
X41157380Y-31142857D01*
X41157380Y-30904761D01*
X41109761Y-30809523D01*
X41062142Y-30761904D01*
X40966904Y-30714285D01*
X40871666Y-30714285D01*
X40776428Y-30761904D01*
X40728809Y-30809523D01*
X40681190Y-30904761D01*
X40633571Y-31095238D01*
X40585952Y-31190476D01*
X40538333Y-31238095D01*
X40443095Y-31285714D01*
X40347857Y-31285714D01*
X40252619Y-31238095D01*
X40205000Y-31190476D01*
X40157380Y-31095238D01*
X40157380Y-30857142D01*
X40205000Y-30714285D01*
X40871666Y-30333333D02*
X40871666Y-29857142D01*
X41157380Y-30428571D02*
X40157380Y-30095238D01*
X41157380Y-29761904D01*
X40490714Y-28238095D02*
X41157380Y-28238095D01*
X40109761Y-28476190D02*
X40824047Y-28714285D01*
X40824047Y-28095238D01*
X41062142Y-27714285D02*
X41109761Y-27666666D01*
X41157380Y-27714285D01*
X41109761Y-27761904D01*
X41062142Y-27714285D01*
X41157380Y-27714285D01*
X40157380Y-27047619D02*
X40157380Y-26952380D01*
X40205000Y-26857142D01*
X40252619Y-26809523D01*
X40347857Y-26761904D01*
X40538333Y-26714285D01*
X40776428Y-26714285D01*
X40966904Y-26761904D01*
X41062142Y-26809523D01*
X41109761Y-26857142D01*
X41157380Y-26952380D01*
X41157380Y-27047619D01*
X41109761Y-27142857D01*
X41062142Y-27190476D01*
X40966904Y-27238095D01*
X40776428Y-27285714D01*
X40538333Y-27285714D01*
X40347857Y-27238095D01*
X40252619Y-27190476D01*
X40205000Y-27142857D01*
X40157380Y-27047619D01*
X41062142Y-26285714D02*
X41109761Y-26238095D01*
X41157380Y-26285714D01*
X41109761Y-26333333D01*
X41062142Y-26285714D01*
X41157380Y-26285714D01*
X41157380Y-24476190D02*
X40681190Y-24809523D01*
X41157380Y-25047619D02*
X40157380Y-25047619D01*
X40157380Y-24666666D01*
X40205000Y-24571428D01*
X40252619Y-24523809D01*
X40347857Y-24476190D01*
X40490714Y-24476190D01*
X40585952Y-24523809D01*
X40633571Y-24571428D01*
X40681190Y-24666666D01*
X40681190Y-25047619D01*
X41109761Y-23666666D02*
X41157380Y-23761904D01*
X41157380Y-23952380D01*
X41109761Y-24047619D01*
X41014523Y-24095238D01*
X40633571Y-24095238D01*
X40538333Y-24047619D01*
X40490714Y-23952380D01*
X40490714Y-23761904D01*
X40538333Y-23666666D01*
X40633571Y-23619047D01*
X40728809Y-23619047D01*
X40824047Y-24095238D01*
X40490714Y-23285714D02*
X41157380Y-23047619D01*
X40490714Y-22809523D01*
X40157380Y-21476190D02*
X40157380Y-21380952D01*
X40205000Y-21285714D01*
X40252619Y-21238095D01*
X40347857Y-21190476D01*
X40538333Y-21142857D01*
X40776428Y-21142857D01*
X40966904Y-21190476D01*
X41062142Y-21238095D01*
X41109761Y-21285714D01*
X41157380Y-21380952D01*
X41157380Y-21476190D01*
X41109761Y-21571428D01*
X41062142Y-21619047D01*
X40966904Y-21666666D01*
X40776428Y-21714285D01*
X40538333Y-21714285D01*
X40347857Y-21666666D01*
X40252619Y-21619047D01*
X40205000Y-21571428D01*
X40157380Y-21476190D01*
X40252619Y-20000000D02*
X40205000Y-19952380D01*
X40157380Y-19857142D01*
X40157380Y-19619047D01*
X40205000Y-19523809D01*
X40252619Y-19476190D01*
X40347857Y-19428571D01*
X40443095Y-19428571D01*
X40585952Y-19476190D01*
X41157380Y-20047619D01*
X41157380Y-19428571D01*
X40157380Y-18809523D02*
X40157380Y-18714285D01*
X40205000Y-18619047D01*
X40252619Y-18571428D01*
X40347857Y-18523809D01*
X40538333Y-18476190D01*
X40776428Y-18476190D01*
X40966904Y-18523809D01*
X41062142Y-18571428D01*
X41109761Y-18619047D01*
X41157380Y-18714285D01*
X41157380Y-18809523D01*
X41109761Y-18904761D01*
X41062142Y-18952380D01*
X40966904Y-19000000D01*
X40776428Y-19047619D01*
X40538333Y-19047619D01*
X40347857Y-19000000D01*
X40252619Y-18952380D01*
X40205000Y-18904761D01*
X40157380Y-18809523D01*
X40252619Y-18095238D02*
X40205000Y-18047619D01*
X40157380Y-17952380D01*
X40157380Y-17714285D01*
X40205000Y-17619047D01*
X40252619Y-17571428D01*
X40347857Y-17523809D01*
X40443095Y-17523809D01*
X40585952Y-17571428D01*
X41157380Y-18142857D01*
X41157380Y-17523809D01*
X40157380Y-17190476D02*
X40157380Y-16571428D01*
X40538333Y-16904761D01*
X40538333Y-16761904D01*
X40585952Y-16666666D01*
X40633571Y-16619047D01*
X40728809Y-16571428D01*
X40966904Y-16571428D01*
X41062142Y-16619047D01*
X41109761Y-16666666D01*
X41157380Y-16761904D01*
X41157380Y-17047619D01*
X41109761Y-17142857D01*
X41062142Y-17190476D01*
X57452380Y-93932857D02*
X56976190Y-94266190D01*
X57452380Y-94504285D02*
X56452380Y-94504285D01*
X56452380Y-94123333D01*
X56500000Y-94028095D01*
X56547619Y-93980476D01*
X56642857Y-93932857D01*
X56785714Y-93932857D01*
X56880952Y-93980476D01*
X56928571Y-94028095D01*
X56976190Y-94123333D01*
X56976190Y-94504285D01*
X57452380Y-92980476D02*
X57452380Y-93551904D01*
X57452380Y-93266190D02*
X56452380Y-93266190D01*
X56595238Y-93361428D01*
X56690476Y-93456666D01*
X56738095Y-93551904D01*
X56452380Y-92075714D02*
X56452380Y-92551904D01*
X56928571Y-92599523D01*
X56880952Y-92551904D01*
X56833333Y-92456666D01*
X56833333Y-92218571D01*
X56880952Y-92123333D01*
X56928571Y-92075714D01*
X57023809Y-92028095D01*
X57261904Y-92028095D01*
X57357142Y-92075714D01*
X57404761Y-92123333D01*
X57452380Y-92218571D01*
X57452380Y-92456666D01*
X57404761Y-92551904D01*
X57357142Y-92599523D01*
X59952380Y-93932857D02*
X59476190Y-94266190D01*
X59952380Y-94504285D02*
X58952380Y-94504285D01*
X58952380Y-94123333D01*
X59000000Y-94028095D01*
X59047619Y-93980476D01*
X59142857Y-93932857D01*
X59285714Y-93932857D01*
X59380952Y-93980476D01*
X59428571Y-94028095D01*
X59476190Y-94123333D01*
X59476190Y-94504285D01*
X59952380Y-92980476D02*
X59952380Y-93551904D01*
X59952380Y-93266190D02*
X58952380Y-93266190D01*
X59095238Y-93361428D01*
X59190476Y-93456666D01*
X59238095Y-93551904D01*
X58952380Y-92647142D02*
X58952380Y-91980476D01*
X59952380Y-92409047D01*
X20952380Y-74356666D02*
X20476190Y-74690000D01*
X20952380Y-74928095D02*
X19952380Y-74928095D01*
X19952380Y-74547142D01*
X20000000Y-74451904D01*
X20047619Y-74404285D01*
X20142857Y-74356666D01*
X20285714Y-74356666D01*
X20380952Y-74404285D01*
X20428571Y-74451904D01*
X20476190Y-74547142D01*
X20476190Y-74928095D01*
X20285714Y-73499523D02*
X20952380Y-73499523D01*
X19904761Y-73737619D02*
X20619047Y-73975714D01*
X20619047Y-73356666D01*
X59952380Y-13832857D02*
X59476190Y-14166190D01*
X59952380Y-14404285D02*
X58952380Y-14404285D01*
X58952380Y-14023333D01*
X59000000Y-13928095D01*
X59047619Y-13880476D01*
X59142857Y-13832857D01*
X59285714Y-13832857D01*
X59380952Y-13880476D01*
X59428571Y-13928095D01*
X59476190Y-14023333D01*
X59476190Y-14404285D01*
X59952380Y-12880476D02*
X59952380Y-13451904D01*
X59952380Y-13166190D02*
X58952380Y-13166190D01*
X59095238Y-13261428D01*
X59190476Y-13356666D01*
X59238095Y-13451904D01*
X59380952Y-12309047D02*
X59333333Y-12404285D01*
X59285714Y-12451904D01*
X59190476Y-12499523D01*
X59142857Y-12499523D01*
X59047619Y-12451904D01*
X59000000Y-12404285D01*
X58952380Y-12309047D01*
X58952380Y-12118571D01*
X59000000Y-12023333D01*
X59047619Y-11975714D01*
X59142857Y-11928095D01*
X59190476Y-11928095D01*
X59285714Y-11975714D01*
X59333333Y-12023333D01*
X59380952Y-12118571D01*
X59380952Y-12309047D01*
X59428571Y-12404285D01*
X59476190Y-12451904D01*
X59571428Y-12499523D01*
X59761904Y-12499523D01*
X59857142Y-12451904D01*
X59904761Y-12404285D01*
X59952380Y-12309047D01*
X59952380Y-12118571D01*
X59904761Y-12023333D01*
X59857142Y-11975714D01*
X59761904Y-11928095D01*
X59571428Y-11928095D01*
X59476190Y-11975714D01*
X59428571Y-12023333D01*
X59380952Y-12118571D01*
X23452380Y-33356666D02*
X22976190Y-33690000D01*
X23452380Y-33928095D02*
X22452380Y-33928095D01*
X22452380Y-33547142D01*
X22500000Y-33451904D01*
X22547619Y-33404285D01*
X22642857Y-33356666D01*
X22785714Y-33356666D01*
X22880952Y-33404285D01*
X22928571Y-33451904D01*
X22976190Y-33547142D01*
X22976190Y-33928095D01*
X22452380Y-33023333D02*
X22452380Y-32356666D01*
X23452380Y-32785238D01*
X57452380Y-73832857D02*
X56976190Y-74166190D01*
X57452380Y-74404285D02*
X56452380Y-74404285D01*
X56452380Y-74023333D01*
X56500000Y-73928095D01*
X56547619Y-73880476D01*
X56642857Y-73832857D01*
X56785714Y-73832857D01*
X56880952Y-73880476D01*
X56928571Y-73928095D01*
X56976190Y-74023333D01*
X56976190Y-74404285D01*
X57452380Y-72880476D02*
X57452380Y-73451904D01*
X57452380Y-73166190D02*
X56452380Y-73166190D01*
X56595238Y-73261428D01*
X56690476Y-73356666D01*
X56738095Y-73451904D01*
X56785714Y-72023333D02*
X57452380Y-72023333D01*
X56404761Y-72261428D02*
X57119047Y-72499523D01*
X57119047Y-71880476D01*
X20952380Y-53356666D02*
X20476190Y-53690000D01*
X20952380Y-53928095D02*
X19952380Y-53928095D01*
X19952380Y-53547142D01*
X20000000Y-53451904D01*
X20047619Y-53404285D01*
X20142857Y-53356666D01*
X20285714Y-53356666D01*
X20380952Y-53404285D01*
X20428571Y-53451904D01*
X20476190Y-53547142D01*
X20476190Y-53928095D01*
X19952380Y-53023333D02*
X19952380Y-52404285D01*
X20333333Y-52737619D01*
X20333333Y-52594761D01*
X20380952Y-52499523D01*
X20428571Y-52451904D01*
X20523809Y-52404285D01*
X20761904Y-52404285D01*
X20857142Y-52451904D01*
X20904761Y-52499523D01*
X20952380Y-52594761D01*
X20952380Y-52880476D01*
X20904761Y-52975714D01*
X20857142Y-53023333D01*
X20952380Y-33356666D02*
X20476190Y-33690000D01*
X20952380Y-33928095D02*
X19952380Y-33928095D01*
X19952380Y-33547142D01*
X20000000Y-33451904D01*
X20047619Y-33404285D01*
X20142857Y-33356666D01*
X20285714Y-33356666D01*
X20380952Y-33404285D01*
X20428571Y-33451904D01*
X20476190Y-33547142D01*
X20476190Y-33928095D01*
X20047619Y-32975714D02*
X20000000Y-32928095D01*
X19952380Y-32832857D01*
X19952380Y-32594761D01*
X20000000Y-32499523D01*
X20047619Y-32451904D01*
X20142857Y-32404285D01*
X20238095Y-32404285D01*
X20380952Y-32451904D01*
X20952380Y-33023333D01*
X20952380Y-32404285D01*
X23452380Y-53356666D02*
X22976190Y-53690000D01*
X23452380Y-53928095D02*
X22452380Y-53928095D01*
X22452380Y-53547142D01*
X22500000Y-53451904D01*
X22547619Y-53404285D01*
X22642857Y-53356666D01*
X22785714Y-53356666D01*
X22880952Y-53404285D01*
X22928571Y-53451904D01*
X22976190Y-53547142D01*
X22976190Y-53928095D01*
X22880952Y-52785238D02*
X22833333Y-52880476D01*
X22785714Y-52928095D01*
X22690476Y-52975714D01*
X22642857Y-52975714D01*
X22547619Y-52928095D01*
X22500000Y-52880476D01*
X22452380Y-52785238D01*
X22452380Y-52594761D01*
X22500000Y-52499523D01*
X22547619Y-52451904D01*
X22642857Y-52404285D01*
X22690476Y-52404285D01*
X22785714Y-52451904D01*
X22833333Y-52499523D01*
X22880952Y-52594761D01*
X22880952Y-52785238D01*
X22928571Y-52880476D01*
X22976190Y-52928095D01*
X23071428Y-52975714D01*
X23261904Y-52975714D01*
X23357142Y-52928095D01*
X23404761Y-52880476D01*
X23452380Y-52785238D01*
X23452380Y-52594761D01*
X23404761Y-52499523D01*
X23357142Y-52451904D01*
X23261904Y-52404285D01*
X23071428Y-52404285D01*
X22976190Y-52451904D01*
X22928571Y-52499523D01*
X22880952Y-52594761D01*
X23452380Y-74356666D02*
X22976190Y-74690000D01*
X23452380Y-74928095D02*
X22452380Y-74928095D01*
X22452380Y-74547142D01*
X22500000Y-74451904D01*
X22547619Y-74404285D01*
X22642857Y-74356666D01*
X22785714Y-74356666D01*
X22880952Y-74404285D01*
X22928571Y-74451904D01*
X22976190Y-74547142D01*
X22976190Y-74928095D01*
X23452380Y-73880476D02*
X23452380Y-73690000D01*
X23404761Y-73594761D01*
X23357142Y-73547142D01*
X23214285Y-73451904D01*
X23023809Y-73404285D01*
X22642857Y-73404285D01*
X22547619Y-73451904D01*
X22500000Y-73499523D01*
X22452380Y-73594761D01*
X22452380Y-73785238D01*
X22500000Y-73880476D01*
X22547619Y-73928095D01*
X22642857Y-73975714D01*
X22880952Y-73975714D01*
X22976190Y-73928095D01*
X23023809Y-73880476D01*
X23071428Y-73785238D01*
X23071428Y-73594761D01*
X23023809Y-73499523D01*
X22976190Y-73451904D01*
X22880952Y-73404285D01*
X23452380Y-93832857D02*
X22976190Y-94166190D01*
X23452380Y-94404285D02*
X22452380Y-94404285D01*
X22452380Y-94023333D01*
X22500000Y-93928095D01*
X22547619Y-93880476D01*
X22642857Y-93832857D01*
X22785714Y-93832857D01*
X22880952Y-93880476D01*
X22928571Y-93928095D01*
X22976190Y-94023333D01*
X22976190Y-94404285D01*
X23452380Y-92880476D02*
X23452380Y-93451904D01*
X23452380Y-93166190D02*
X22452380Y-93166190D01*
X22595238Y-93261428D01*
X22690476Y-93356666D01*
X22738095Y-93451904D01*
X22452380Y-92261428D02*
X22452380Y-92166190D01*
X22500000Y-92070952D01*
X22547619Y-92023333D01*
X22642857Y-91975714D01*
X22833333Y-91928095D01*
X23071428Y-91928095D01*
X23261904Y-91975714D01*
X23357142Y-92023333D01*
X23404761Y-92070952D01*
X23452380Y-92166190D01*
X23452380Y-92261428D01*
X23404761Y-92356666D01*
X23357142Y-92404285D01*
X23261904Y-92451904D01*
X23071428Y-92499523D01*
X22833333Y-92499523D01*
X22642857Y-92451904D01*
X22547619Y-92404285D01*
X22500000Y-92356666D01*
X22452380Y-92261428D01*
X57452380Y-53832857D02*
X56976190Y-54166190D01*
X57452380Y-54404285D02*
X56452380Y-54404285D01*
X56452380Y-54023333D01*
X56500000Y-53928095D01*
X56547619Y-53880476D01*
X56642857Y-53832857D01*
X56785714Y-53832857D01*
X56880952Y-53880476D01*
X56928571Y-53928095D01*
X56976190Y-54023333D01*
X56976190Y-54404285D01*
X57452380Y-52880476D02*
X57452380Y-53451904D01*
X57452380Y-53166190D02*
X56452380Y-53166190D01*
X56595238Y-53261428D01*
X56690476Y-53356666D01*
X56738095Y-53451904D01*
X56452380Y-52547142D02*
X56452380Y-51928095D01*
X56833333Y-52261428D01*
X56833333Y-52118571D01*
X56880952Y-52023333D01*
X56928571Y-51975714D01*
X57023809Y-51928095D01*
X57261904Y-51928095D01*
X57357142Y-51975714D01*
X57404761Y-52023333D01*
X57452380Y-52118571D01*
X57452380Y-52404285D01*
X57404761Y-52499523D01*
X57357142Y-52547142D01*
X23452380Y-13356666D02*
X22976190Y-13690000D01*
X23452380Y-13928095D02*
X22452380Y-13928095D01*
X22452380Y-13547142D01*
X22500000Y-13451904D01*
X22547619Y-13404285D01*
X22642857Y-13356666D01*
X22785714Y-13356666D01*
X22880952Y-13404285D01*
X22928571Y-13451904D01*
X22976190Y-13547142D01*
X22976190Y-13928095D01*
X22452380Y-12499523D02*
X22452380Y-12690000D01*
X22500000Y-12785238D01*
X22547619Y-12832857D01*
X22690476Y-12928095D01*
X22880952Y-12975714D01*
X23261904Y-12975714D01*
X23357142Y-12928095D01*
X23404761Y-12880476D01*
X23452380Y-12785238D01*
X23452380Y-12594761D01*
X23404761Y-12499523D01*
X23357142Y-12451904D01*
X23261904Y-12404285D01*
X23023809Y-12404285D01*
X22928571Y-12451904D01*
X22880952Y-12499523D01*
X22833333Y-12594761D01*
X22833333Y-12785238D01*
X22880952Y-12880476D01*
X22928571Y-12928095D01*
X23023809Y-12975714D01*
X59952380Y-53832857D02*
X59476190Y-54166190D01*
X59952380Y-54404285D02*
X58952380Y-54404285D01*
X58952380Y-54023333D01*
X59000000Y-53928095D01*
X59047619Y-53880476D01*
X59142857Y-53832857D01*
X59285714Y-53832857D01*
X59380952Y-53880476D01*
X59428571Y-53928095D01*
X59476190Y-54023333D01*
X59476190Y-54404285D01*
X59047619Y-53451904D02*
X59000000Y-53404285D01*
X58952380Y-53309047D01*
X58952380Y-53070952D01*
X59000000Y-52975714D01*
X59047619Y-52928095D01*
X59142857Y-52880476D01*
X59238095Y-52880476D01*
X59380952Y-52928095D01*
X59952380Y-53499523D01*
X59952380Y-52880476D01*
X58952380Y-52261428D02*
X58952380Y-52166190D01*
X59000000Y-52070952D01*
X59047619Y-52023333D01*
X59142857Y-51975714D01*
X59333333Y-51928095D01*
X59571428Y-51928095D01*
X59761904Y-51975714D01*
X59857142Y-52023333D01*
X59904761Y-52070952D01*
X59952380Y-52166190D01*
X59952380Y-52261428D01*
X59904761Y-52356666D01*
X59857142Y-52404285D01*
X59761904Y-52451904D01*
X59571428Y-52499523D01*
X59333333Y-52499523D01*
X59142857Y-52451904D01*
X59047619Y-52404285D01*
X59000000Y-52356666D01*
X58952380Y-52261428D01*
X57452380Y-33832857D02*
X56976190Y-34166190D01*
X57452380Y-34404285D02*
X56452380Y-34404285D01*
X56452380Y-34023333D01*
X56500000Y-33928095D01*
X56547619Y-33880476D01*
X56642857Y-33832857D01*
X56785714Y-33832857D01*
X56880952Y-33880476D01*
X56928571Y-33928095D01*
X56976190Y-34023333D01*
X56976190Y-34404285D01*
X57452380Y-32880476D02*
X57452380Y-33451904D01*
X57452380Y-33166190D02*
X56452380Y-33166190D01*
X56595238Y-33261428D01*
X56690476Y-33356666D01*
X56738095Y-33451904D01*
X56547619Y-32499523D02*
X56500000Y-32451904D01*
X56452380Y-32356666D01*
X56452380Y-32118571D01*
X56500000Y-32023333D01*
X56547619Y-31975714D01*
X56642857Y-31928095D01*
X56738095Y-31928095D01*
X56880952Y-31975714D01*
X57452380Y-32547142D01*
X57452380Y-31928095D01*
X20952380Y-93356666D02*
X20476190Y-93690000D01*
X20952380Y-93928095D02*
X19952380Y-93928095D01*
X19952380Y-93547142D01*
X20000000Y-93451904D01*
X20047619Y-93404285D01*
X20142857Y-93356666D01*
X20285714Y-93356666D01*
X20380952Y-93404285D01*
X20428571Y-93451904D01*
X20476190Y-93547142D01*
X20476190Y-93928095D01*
X19952380Y-92451904D02*
X19952380Y-92928095D01*
X20428571Y-92975714D01*
X20380952Y-92928095D01*
X20333333Y-92832857D01*
X20333333Y-92594761D01*
X20380952Y-92499523D01*
X20428571Y-92451904D01*
X20523809Y-92404285D01*
X20761904Y-92404285D01*
X20857142Y-92451904D01*
X20904761Y-92499523D01*
X20952380Y-92594761D01*
X20952380Y-92832857D01*
X20904761Y-92928095D01*
X20857142Y-92975714D01*
X20952380Y-13356666D02*
X20476190Y-13690000D01*
X20952380Y-13928095D02*
X19952380Y-13928095D01*
X19952380Y-13547142D01*
X20000000Y-13451904D01*
X20047619Y-13404285D01*
X20142857Y-13356666D01*
X20285714Y-13356666D01*
X20380952Y-13404285D01*
X20428571Y-13451904D01*
X20476190Y-13547142D01*
X20476190Y-13928095D01*
X20952380Y-12404285D02*
X20952380Y-12975714D01*
X20952380Y-12690000D02*
X19952380Y-12690000D01*
X20095238Y-12785238D01*
X20190476Y-12880476D01*
X20238095Y-12975714D01*
X59952380Y-73832857D02*
X59476190Y-74166190D01*
X59952380Y-74404285D02*
X58952380Y-74404285D01*
X58952380Y-74023333D01*
X59000000Y-73928095D01*
X59047619Y-73880476D01*
X59142857Y-73832857D01*
X59285714Y-73832857D01*
X59380952Y-73880476D01*
X59428571Y-73928095D01*
X59476190Y-74023333D01*
X59476190Y-74404285D01*
X59952380Y-72880476D02*
X59952380Y-73451904D01*
X59952380Y-73166190D02*
X58952380Y-73166190D01*
X59095238Y-73261428D01*
X59190476Y-73356666D01*
X59238095Y-73451904D01*
X58952380Y-72023333D02*
X58952380Y-72213809D01*
X59000000Y-72309047D01*
X59047619Y-72356666D01*
X59190476Y-72451904D01*
X59380952Y-72499523D01*
X59761904Y-72499523D01*
X59857142Y-72451904D01*
X59904761Y-72404285D01*
X59952380Y-72309047D01*
X59952380Y-72118571D01*
X59904761Y-72023333D01*
X59857142Y-71975714D01*
X59761904Y-71928095D01*
X59523809Y-71928095D01*
X59428571Y-71975714D01*
X59380952Y-72023333D01*
X59333333Y-72118571D01*
X59333333Y-72309047D01*
X59380952Y-72404285D01*
X59428571Y-72451904D01*
X59523809Y-72499523D01*
X57452380Y-13832857D02*
X56976190Y-14166190D01*
X57452380Y-14404285D02*
X56452380Y-14404285D01*
X56452380Y-14023333D01*
X56500000Y-13928095D01*
X56547619Y-13880476D01*
X56642857Y-13832857D01*
X56785714Y-13832857D01*
X56880952Y-13880476D01*
X56928571Y-13928095D01*
X56976190Y-14023333D01*
X56976190Y-14404285D01*
X57452380Y-12880476D02*
X57452380Y-13451904D01*
X57452380Y-13166190D02*
X56452380Y-13166190D01*
X56595238Y-13261428D01*
X56690476Y-13356666D01*
X56738095Y-13451904D01*
X57452380Y-11928095D02*
X57452380Y-12499523D01*
X57452380Y-12213809D02*
X56452380Y-12213809D01*
X56595238Y-12309047D01*
X56690476Y-12404285D01*
X56738095Y-12499523D01*
X59952380Y-33832857D02*
X59476190Y-34166190D01*
X59952380Y-34404285D02*
X58952380Y-34404285D01*
X58952380Y-34023333D01*
X59000000Y-33928095D01*
X59047619Y-33880476D01*
X59142857Y-33832857D01*
X59285714Y-33832857D01*
X59380952Y-33880476D01*
X59428571Y-33928095D01*
X59476190Y-34023333D01*
X59476190Y-34404285D01*
X59952380Y-32880476D02*
X59952380Y-33451904D01*
X59952380Y-33166190D02*
X58952380Y-33166190D01*
X59095238Y-33261428D01*
X59190476Y-33356666D01*
X59238095Y-33451904D01*
X59952380Y-32404285D02*
X59952380Y-32213809D01*
X59904761Y-32118571D01*
X59857142Y-32070952D01*
X59714285Y-31975714D01*
X59523809Y-31928095D01*
X59142857Y-31928095D01*
X59047619Y-31975714D01*
X59000000Y-32023333D01*
X58952380Y-32118571D01*
X58952380Y-32309047D01*
X59000000Y-32404285D01*
X59047619Y-32451904D01*
X59142857Y-32499523D01*
X59380952Y-32499523D01*
X59476190Y-32451904D01*
X59523809Y-32404285D01*
X59571428Y-32309047D01*
X59571428Y-32118571D01*
X59523809Y-32023333D01*
X59476190Y-31975714D01*
X59380952Y-31928095D01*
D11*
X27160000Y-53120000D02*
X25980000Y-53120000D01*
X30060000Y-53120000D02*
X29530000Y-53120000D01*
X25970000Y-53120000D02*
X25970000Y-48846340D01*
X35720000Y-41530000D02*
X25980000Y-41530000D01*
X35720000Y-53120000D02*
X35720000Y-48826020D01*
X35720000Y-44170200D02*
X35720000Y-41530000D01*
X32510000Y-53120000D02*
X31680000Y-53120000D01*
X35720000Y-53120000D02*
X34230000Y-53120000D01*
X25980000Y-44154960D02*
X25980000Y-41530000D01*
X13700000Y-97000000D02*
G75*
G03*
X13700000Y-97000000I-1200000J0D01*
G01*
X35050000Y-37000000D02*
G75*
G03*
X35050000Y-37000000I-1200000J0D01*
G01*
X28310000Y-42430000D02*
X33390000Y-42430000D01*
X28310000Y-42430000D02*
X28310000Y-44880000D01*
X28310000Y-50560000D02*
X28310000Y-48120000D01*
X33390000Y-42430000D02*
X33390000Y-44910000D01*
X28310000Y-50560000D02*
X33390000Y-50560000D01*
X33390000Y-50560000D02*
X33390000Y-48110000D01*
X33850000Y-46500000D02*
G75*
G03*
X33850000Y-46500000I-3000000J0D01*
G01*
D12*
X33060277Y-43000000D02*
G75*
G03*
X33060277Y-43000000I-210277J0D01*
G01*
D11*
X54020000Y-81530000D02*
X44280000Y-81530000D01*
X54020000Y-84170200D02*
X54020000Y-81530000D01*
X50810000Y-93120000D02*
X49980000Y-93120000D01*
X44270000Y-93120000D02*
X44270000Y-88846340D01*
X54020000Y-93120000D02*
X54020000Y-88826020D01*
X45460000Y-93120000D02*
X44280000Y-93120000D01*
X44280000Y-84154960D02*
X44280000Y-81530000D01*
X48360000Y-93120000D02*
X47830000Y-93120000D01*
X54020000Y-93120000D02*
X52530000Y-93120000D01*
X68700000Y-97000000D02*
G75*
G03*
X68700000Y-97000000I-1200000J0D01*
G01*
X17370000Y-53120000D02*
X17370000Y-48826020D01*
X7620000Y-53120000D02*
X7620000Y-48846340D01*
X17370000Y-41530000D02*
X7630000Y-41530000D01*
X17370000Y-44170200D02*
X17370000Y-41530000D01*
X17370000Y-53120000D02*
X15880000Y-53120000D01*
X14160000Y-53120000D02*
X13330000Y-53120000D01*
X7630000Y-44154960D02*
X7630000Y-41530000D01*
X8810000Y-53120000D02*
X7630000Y-53120000D01*
X11710000Y-53120000D02*
X11180000Y-53120000D01*
X57000000Y-96160000D02*
X57000000Y-95210000D01*
X56080000Y-95210000D02*
X57920000Y-95210000D01*
X57920000Y-95210000D02*
X57920000Y-91370000D01*
X56080000Y-91370000D02*
X56080000Y-95210000D01*
X57000000Y-90420000D02*
X57000000Y-91370000D01*
X57920000Y-91370000D02*
X56080000Y-91370000D01*
X69160000Y-13120000D02*
X68330000Y-13120000D01*
X66710000Y-13120000D02*
X66180000Y-13120000D01*
X72370000Y-1530000D02*
X62630000Y-1530000D01*
X62620000Y-13120000D02*
X62620000Y-8846340D01*
X63810000Y-13120000D02*
X62630000Y-13120000D01*
X72370000Y-13120000D02*
X70880000Y-13120000D01*
X72370000Y-13120000D02*
X72370000Y-8826020D01*
X62630000Y-4154960D02*
X62630000Y-1530000D01*
X72370000Y-4170200D02*
X72370000Y-1530000D01*
X32050000Y-17000000D02*
G75*
G03*
X32050000Y-17000000I-1200000J0D01*
G01*
X64960000Y-30560000D02*
X70040000Y-30560000D01*
X64960000Y-30560000D02*
X64960000Y-28120000D01*
X70040000Y-22430000D02*
X70040000Y-24910000D01*
X64960000Y-22430000D02*
X70040000Y-22430000D01*
X64960000Y-22430000D02*
X64960000Y-24880000D01*
X70040000Y-30560000D02*
X70040000Y-28110000D01*
D12*
X69710277Y-23000000D02*
G75*
G03*
X69710277Y-23000000I-210277J0D01*
G01*
D11*
X70500000Y-26500000D02*
G75*
G03*
X70500000Y-26500000I-3000000J0D01*
G01*
X64960000Y-62430000D02*
X64960000Y-64880000D01*
X64960000Y-70560000D02*
X64960000Y-68120000D01*
X64960000Y-70560000D02*
X70040000Y-70560000D01*
X64960000Y-62430000D02*
X70040000Y-62430000D01*
X70040000Y-62430000D02*
X70040000Y-64910000D01*
X70040000Y-70560000D02*
X70040000Y-68110000D01*
D12*
X69710277Y-63000000D02*
G75*
G03*
X69710277Y-63000000I-210277J0D01*
G01*
D11*
X70500000Y-66500000D02*
G75*
G03*
X70500000Y-66500000I-3000000J0D01*
G01*
X10700000Y-97000000D02*
G75*
G03*
X10700000Y-97000000I-1200000J0D01*
G01*
X10700000Y-57000000D02*
G75*
G03*
X10700000Y-57000000I-1200000J0D01*
G01*
X9960000Y-30560000D02*
X9960000Y-28120000D01*
X15040000Y-30560000D02*
X15040000Y-28110000D01*
X15040000Y-22430000D02*
X15040000Y-24910000D01*
X9960000Y-22430000D02*
X9960000Y-24880000D01*
X9960000Y-22430000D02*
X15040000Y-22430000D01*
X9960000Y-30560000D02*
X15040000Y-30560000D01*
D12*
X14710277Y-23000000D02*
G75*
G03*
X14710277Y-23000000I-210277J0D01*
G01*
D11*
X15500000Y-26500000D02*
G75*
G03*
X15500000Y-26500000I-3000000J0D01*
G01*
X64960000Y-50560000D02*
X64960000Y-48120000D01*
X70040000Y-42430000D02*
X70040000Y-44910000D01*
X64960000Y-50560000D02*
X70040000Y-50560000D01*
X70040000Y-50560000D02*
X70040000Y-48110000D01*
X64960000Y-42430000D02*
X64960000Y-44880000D01*
X64960000Y-42430000D02*
X70040000Y-42430000D01*
X70500000Y-46500000D02*
G75*
G03*
X70500000Y-46500000I-3000000J0D01*
G01*
D12*
X69710277Y-43000000D02*
G75*
G03*
X69710277Y-43000000I-210277J0D01*
G01*
D11*
X7630000Y-24154960D02*
X7630000Y-21530000D01*
X17370000Y-33120000D02*
X15880000Y-33120000D01*
X8810000Y-33120000D02*
X7630000Y-33120000D01*
X14160000Y-33120000D02*
X13330000Y-33120000D01*
X17370000Y-21530000D02*
X7630000Y-21530000D01*
X17370000Y-24170200D02*
X17370000Y-21530000D01*
X11710000Y-33120000D02*
X11180000Y-33120000D01*
X7620000Y-33120000D02*
X7620000Y-28846340D01*
X17370000Y-33120000D02*
X17370000Y-28826020D01*
X68700000Y-17000000D02*
G75*
G03*
X68700000Y-17000000I-1200000J0D01*
G01*
X32050000Y-77000000D02*
G75*
G03*
X32050000Y-77000000I-1200000J0D01*
G01*
X59500000Y-96160000D02*
X59500000Y-95210000D01*
X59500000Y-90420000D02*
X59500000Y-91370000D01*
X60420000Y-91370000D02*
X58580000Y-91370000D01*
X58580000Y-95210000D02*
X60420000Y-95210000D01*
X58580000Y-91370000D02*
X58580000Y-95210000D01*
X60420000Y-95210000D02*
X60420000Y-91370000D01*
X28720000Y-97000000D02*
G75*
G03*
X28720000Y-97000000I-1200000J0D01*
G01*
X29050000Y-37000000D02*
G75*
G03*
X29050000Y-37000000I-1200000J0D01*
G01*
X65700000Y-17000000D02*
G75*
G03*
X65700000Y-17000000I-1200000J0D01*
G01*
X15040000Y-70560000D02*
X15040000Y-68110000D01*
X9960000Y-70560000D02*
X9960000Y-68120000D01*
X9960000Y-62430000D02*
X9960000Y-64880000D01*
X9960000Y-70560000D02*
X15040000Y-70560000D01*
X9960000Y-62430000D02*
X15040000Y-62430000D01*
X15040000Y-62430000D02*
X15040000Y-64910000D01*
X15500000Y-66500000D02*
G75*
G03*
X15500000Y-66500000I-3000000J0D01*
G01*
D12*
X14710277Y-63000000D02*
G75*
G03*
X14710277Y-63000000I-210277J0D01*
G01*
D11*
X21420000Y-76110000D02*
X21420000Y-72270000D01*
X20500000Y-71320000D02*
X20500000Y-72270000D01*
X19580000Y-76110000D02*
X21420000Y-76110000D01*
X20500000Y-77060000D02*
X20500000Y-76110000D01*
X19580000Y-72270000D02*
X19580000Y-76110000D01*
X21420000Y-72270000D02*
X19580000Y-72270000D01*
X17370000Y-73120000D02*
X17370000Y-68826020D01*
X7630000Y-64154960D02*
X7630000Y-61530000D01*
X17370000Y-64170200D02*
X17370000Y-61530000D01*
X14160000Y-73120000D02*
X13330000Y-73120000D01*
X7620000Y-73120000D02*
X7620000Y-68846340D01*
X17370000Y-61530000D02*
X7630000Y-61530000D01*
X17370000Y-73120000D02*
X15880000Y-73120000D01*
X8810000Y-73120000D02*
X7630000Y-73120000D01*
X11710000Y-73120000D02*
X11180000Y-73120000D01*
X71700000Y-77000000D02*
G75*
G03*
X71700000Y-77000000I-1200000J0D01*
G01*
X32510000Y-33120000D02*
X31680000Y-33120000D01*
X25970000Y-33120000D02*
X25970000Y-28846340D01*
X35720000Y-21530000D02*
X25980000Y-21530000D01*
X25980000Y-24154960D02*
X25980000Y-21530000D01*
X35720000Y-33120000D02*
X34230000Y-33120000D01*
X35720000Y-24170200D02*
X35720000Y-21530000D01*
X30060000Y-33120000D02*
X29530000Y-33120000D01*
X27160000Y-33120000D02*
X25980000Y-33120000D01*
X35720000Y-33120000D02*
X35720000Y-28826020D01*
X7620000Y-93120000D02*
X7620000Y-88846340D01*
X14160000Y-93120000D02*
X13330000Y-93120000D01*
X7630000Y-84154960D02*
X7630000Y-81530000D01*
X17370000Y-84170200D02*
X17370000Y-81530000D01*
X17370000Y-93120000D02*
X15880000Y-93120000D01*
X17370000Y-81530000D02*
X7630000Y-81530000D01*
X17370000Y-93120000D02*
X17370000Y-88826020D01*
X8810000Y-93120000D02*
X7630000Y-93120000D01*
X11710000Y-93120000D02*
X11180000Y-93120000D01*
X32510000Y-73120000D02*
X31680000Y-73120000D01*
X35720000Y-64170200D02*
X35720000Y-61530000D01*
X35720000Y-73120000D02*
X34230000Y-73120000D01*
X35720000Y-73120000D02*
X35720000Y-68826020D01*
X30060000Y-73120000D02*
X29530000Y-73120000D01*
X27160000Y-73120000D02*
X25980000Y-73120000D01*
X25970000Y-73120000D02*
X25970000Y-68846340D01*
X35720000Y-61530000D02*
X25980000Y-61530000D01*
X25980000Y-64154960D02*
X25980000Y-61530000D01*
X58580000Y-11270000D02*
X58580000Y-15110000D01*
X59500000Y-10320000D02*
X59500000Y-11270000D01*
X60420000Y-11270000D02*
X58580000Y-11270000D01*
X58580000Y-15110000D02*
X60420000Y-15110000D01*
X60420000Y-15110000D02*
X60420000Y-11270000D01*
X59500000Y-16060000D02*
X59500000Y-15110000D01*
X22080000Y-35110000D02*
X23920000Y-35110000D01*
X22080000Y-31270000D02*
X22080000Y-35110000D01*
X23000000Y-36060000D02*
X23000000Y-35110000D01*
X23000000Y-30320000D02*
X23000000Y-31270000D01*
X23920000Y-31270000D02*
X22080000Y-31270000D01*
X23920000Y-35110000D02*
X23920000Y-31270000D01*
X34720000Y-97000000D02*
G75*
G03*
X34720000Y-97000000I-1200000J0D01*
G01*
X53350000Y-77000000D02*
G75*
G03*
X53350000Y-77000000I-1200000J0D01*
G01*
X56080000Y-75110000D02*
X57920000Y-75110000D01*
X57000000Y-76060000D02*
X57000000Y-75110000D01*
X57920000Y-75110000D02*
X57920000Y-71270000D01*
X56080000Y-71270000D02*
X56080000Y-75110000D01*
X57920000Y-71270000D02*
X56080000Y-71270000D01*
X57000000Y-70320000D02*
X57000000Y-71270000D01*
X64960000Y-90560000D02*
X70040000Y-90560000D01*
X70040000Y-82430000D02*
X70040000Y-84910000D01*
X64960000Y-82430000D02*
X70040000Y-82430000D01*
X70040000Y-90560000D02*
X70040000Y-88110000D01*
X64960000Y-82430000D02*
X64960000Y-84880000D01*
X64960000Y-90560000D02*
X64960000Y-88120000D01*
D12*
X69710277Y-83000000D02*
G75*
G03*
X69710277Y-83000000I-210277J0D01*
G01*
D11*
X70500000Y-86500000D02*
G75*
G03*
X70500000Y-86500000I-3000000J0D01*
G01*
X21420000Y-51270000D02*
X19580000Y-51270000D01*
X21420000Y-55110000D02*
X21420000Y-51270000D01*
X19580000Y-55110000D02*
X21420000Y-55110000D01*
X19580000Y-51270000D02*
X19580000Y-55110000D01*
X20500000Y-50320000D02*
X20500000Y-51270000D01*
X20500000Y-56060000D02*
X20500000Y-55110000D01*
X50350000Y-97000000D02*
G75*
G03*
X50350000Y-97000000I-1200000J0D01*
G01*
X10700000Y-17000000D02*
G75*
G03*
X10700000Y-17000000I-1200000J0D01*
G01*
X46610000Y-10560000D02*
X46610000Y-8120000D01*
X46610000Y-2430000D02*
X46610000Y-4880000D01*
X51690000Y-2430000D02*
X51690000Y-4910000D01*
X46610000Y-10560000D02*
X51690000Y-10560000D01*
X51690000Y-10560000D02*
X51690000Y-8110000D01*
X46610000Y-2430000D02*
X51690000Y-2430000D01*
D12*
X51360277Y-3000000D02*
G75*
G03*
X51360277Y-3000000I-210277J0D01*
G01*
D11*
X52150000Y-6500000D02*
G75*
G03*
X52150000Y-6500000I-3000000J0D01*
G01*
X21420000Y-31270000D02*
X19580000Y-31270000D01*
X20500000Y-30320000D02*
X20500000Y-31270000D01*
X20500000Y-36060000D02*
X20500000Y-35110000D01*
X19580000Y-35110000D02*
X21420000Y-35110000D01*
X19580000Y-31270000D02*
X19580000Y-35110000D01*
X21420000Y-35110000D02*
X21420000Y-31270000D01*
X32050000Y-37000000D02*
G75*
G03*
X32050000Y-37000000I-1200000J0D01*
G01*
X47350000Y-57000000D02*
G75*
G03*
X47350000Y-57000000I-1200000J0D01*
G01*
X28310000Y-2430000D02*
X28310000Y-4880000D01*
X28310000Y-10560000D02*
X33390000Y-10560000D01*
X33390000Y-2430000D02*
X33390000Y-4910000D01*
X28310000Y-2430000D02*
X33390000Y-2430000D01*
X28310000Y-10560000D02*
X28310000Y-8120000D01*
X33390000Y-10560000D02*
X33390000Y-8110000D01*
X33850000Y-6500000D02*
G75*
G03*
X33850000Y-6500000I-3000000J0D01*
G01*
D12*
X33060277Y-3000000D02*
G75*
G03*
X33060277Y-3000000I-210277J0D01*
G01*
D11*
X53350000Y-17000000D02*
G75*
G03*
X53350000Y-17000000I-1200000J0D01*
G01*
X47350000Y-77000000D02*
G75*
G03*
X47350000Y-77000000I-1200000J0D01*
G01*
X47350000Y-97000000D02*
G75*
G03*
X47350000Y-97000000I-1200000J0D01*
G01*
X23000000Y-56060000D02*
X23000000Y-55110000D01*
X23920000Y-55110000D02*
X23920000Y-51270000D01*
X23000000Y-50320000D02*
X23000000Y-51270000D01*
X22080000Y-55110000D02*
X23920000Y-55110000D01*
X23920000Y-51270000D02*
X22080000Y-51270000D01*
X22080000Y-51270000D02*
X22080000Y-55110000D01*
X23000000Y-71320000D02*
X23000000Y-72270000D01*
X22080000Y-72270000D02*
X22080000Y-76110000D01*
X23920000Y-76110000D02*
X23920000Y-72270000D01*
X23000000Y-77060000D02*
X23000000Y-76110000D01*
X22080000Y-76110000D02*
X23920000Y-76110000D01*
X23920000Y-72270000D02*
X22080000Y-72270000D01*
X63810000Y-53120000D02*
X62630000Y-53120000D01*
X72370000Y-44170200D02*
X72370000Y-41530000D01*
X72370000Y-53120000D02*
X72370000Y-48826020D01*
X66710000Y-53120000D02*
X66180000Y-53120000D01*
X72370000Y-41530000D02*
X62630000Y-41530000D01*
X62620000Y-53120000D02*
X62620000Y-48846340D01*
X72370000Y-53120000D02*
X70880000Y-53120000D01*
X69160000Y-53120000D02*
X68330000Y-53120000D01*
X62630000Y-44154960D02*
X62630000Y-41530000D01*
X10700000Y-37000000D02*
G75*
G03*
X10700000Y-37000000I-1200000J0D01*
G01*
X71700000Y-37000000D02*
G75*
G03*
X71700000Y-37000000I-1200000J0D01*
G01*
X13700000Y-37000000D02*
G75*
G03*
X13700000Y-37000000I-1200000J0D01*
G01*
X29050000Y-77000000D02*
G75*
G03*
X29050000Y-77000000I-1200000J0D01*
G01*
X68700000Y-77000000D02*
G75*
G03*
X68700000Y-77000000I-1200000J0D01*
G01*
X23920000Y-91270000D02*
X22080000Y-91270000D01*
X22080000Y-95110000D02*
X23920000Y-95110000D01*
X23000000Y-90320000D02*
X23000000Y-91270000D01*
X23000000Y-96060000D02*
X23000000Y-95110000D01*
X22080000Y-91270000D02*
X22080000Y-95110000D01*
X23920000Y-95110000D02*
X23920000Y-91270000D01*
X54020000Y-33120000D02*
X52530000Y-33120000D01*
X54020000Y-24170200D02*
X54020000Y-21530000D01*
X54020000Y-21530000D02*
X44280000Y-21530000D01*
X50810000Y-33120000D02*
X49980000Y-33120000D01*
X48360000Y-33120000D02*
X47830000Y-33120000D01*
X54020000Y-33120000D02*
X54020000Y-28826020D01*
X44270000Y-33120000D02*
X44270000Y-28846340D01*
X44280000Y-24154960D02*
X44280000Y-21530000D01*
X45460000Y-33120000D02*
X44280000Y-33120000D01*
X53350000Y-57000000D02*
G75*
G03*
X53350000Y-57000000I-1200000J0D01*
G01*
X47350000Y-37000000D02*
G75*
G03*
X47350000Y-37000000I-1200000J0D01*
G01*
X63810000Y-73120000D02*
X62630000Y-73120000D01*
X62620000Y-73120000D02*
X62620000Y-68846340D01*
X66710000Y-73120000D02*
X66180000Y-73120000D01*
X69160000Y-73120000D02*
X68330000Y-73120000D01*
X72370000Y-73120000D02*
X70880000Y-73120000D01*
X72370000Y-61530000D02*
X62630000Y-61530000D01*
X72370000Y-73120000D02*
X72370000Y-68826020D01*
X62630000Y-64154960D02*
X62630000Y-61530000D01*
X72370000Y-64170200D02*
X72370000Y-61530000D01*
X68700000Y-57000000D02*
G75*
G03*
X68700000Y-57000000I-1200000J0D01*
G01*
X71700000Y-97000000D02*
G75*
G03*
X71700000Y-97000000I-1200000J0D01*
G01*
X9960000Y-2430000D02*
X9960000Y-4880000D01*
X15040000Y-2430000D02*
X15040000Y-4910000D01*
X9960000Y-2430000D02*
X15040000Y-2430000D01*
X15040000Y-10560000D02*
X15040000Y-8110000D01*
X9960000Y-10560000D02*
X15040000Y-10560000D01*
X9960000Y-10560000D02*
X9960000Y-8120000D01*
X15500000Y-6500000D02*
G75*
G03*
X15500000Y-6500000I-3000000J0D01*
G01*
D12*
X14710277Y-3000000D02*
G75*
G03*
X14710277Y-3000000I-210277J0D01*
G01*
D11*
X35050000Y-77000000D02*
G75*
G03*
X35050000Y-77000000I-1200000J0D01*
G01*
X16700000Y-77000000D02*
G75*
G03*
X16700000Y-77000000I-1200000J0D01*
G01*
X50350000Y-57000000D02*
G75*
G03*
X50350000Y-57000000I-1200000J0D01*
G01*
X10700000Y-77000000D02*
G75*
G03*
X10700000Y-77000000I-1200000J0D01*
G01*
X29050000Y-57000000D02*
G75*
G03*
X29050000Y-57000000I-1200000J0D01*
G01*
X71700000Y-57000000D02*
G75*
G03*
X71700000Y-57000000I-1200000J0D01*
G01*
X47350000Y-17000000D02*
G75*
G03*
X47350000Y-17000000I-1200000J0D01*
G01*
X32050000Y-57000000D02*
G75*
G03*
X32050000Y-57000000I-1200000J0D01*
G01*
X25980000Y-84154960D02*
X25980000Y-81530000D01*
X35720000Y-93120000D02*
X34230000Y-93120000D01*
X32510000Y-93120000D02*
X31680000Y-93120000D01*
X30060000Y-93120000D02*
X29530000Y-93120000D01*
X25970000Y-93120000D02*
X25970000Y-88846340D01*
X35720000Y-84170200D02*
X35720000Y-81530000D01*
X35720000Y-81530000D02*
X25980000Y-81530000D01*
X27160000Y-93120000D02*
X25980000Y-93120000D01*
X35720000Y-93120000D02*
X35720000Y-88826020D01*
X57000000Y-50320000D02*
X57000000Y-51270000D01*
X57000000Y-56060000D02*
X57000000Y-55110000D01*
X57920000Y-55110000D02*
X57920000Y-51270000D01*
X57920000Y-51270000D02*
X56080000Y-51270000D01*
X56080000Y-51270000D02*
X56080000Y-55110000D01*
X56080000Y-55110000D02*
X57920000Y-55110000D01*
X46610000Y-70560000D02*
X51690000Y-70560000D01*
X46610000Y-62430000D02*
X51690000Y-62430000D01*
X51690000Y-62430000D02*
X51690000Y-64910000D01*
X51690000Y-70560000D02*
X51690000Y-68110000D01*
X46610000Y-62430000D02*
X46610000Y-64880000D01*
X46610000Y-70560000D02*
X46610000Y-68120000D01*
X52150000Y-66500000D02*
G75*
G03*
X52150000Y-66500000I-3000000J0D01*
G01*
D12*
X51360277Y-63000000D02*
G75*
G03*
X51360277Y-63000000I-210277J0D01*
G01*
D11*
X23000000Y-10320000D02*
X23000000Y-11270000D01*
X23920000Y-15110000D02*
X23920000Y-11270000D01*
X23920000Y-11270000D02*
X22080000Y-11270000D01*
X22080000Y-11270000D02*
X22080000Y-15110000D01*
X22080000Y-15110000D02*
X23920000Y-15110000D01*
X23000000Y-16060000D02*
X23000000Y-15110000D01*
X46610000Y-82430000D02*
X46610000Y-84880000D01*
X51690000Y-82430000D02*
X51690000Y-84910000D01*
X51690000Y-90560000D02*
X51690000Y-88110000D01*
X46610000Y-90560000D02*
X51690000Y-90560000D01*
X46610000Y-82430000D02*
X51690000Y-82430000D01*
X46610000Y-90560000D02*
X46610000Y-88120000D01*
X52150000Y-86500000D02*
G75*
G03*
X52150000Y-86500000I-3000000J0D01*
G01*
D12*
X51360277Y-83000000D02*
G75*
G03*
X51360277Y-83000000I-210277J0D01*
G01*
D11*
X50350000Y-17000000D02*
G75*
G03*
X50350000Y-17000000I-1200000J0D01*
G01*
X69160000Y-93120000D02*
X68330000Y-93120000D01*
X72370000Y-93120000D02*
X70880000Y-93120000D01*
X72370000Y-84170200D02*
X72370000Y-81530000D01*
X72370000Y-81530000D02*
X62630000Y-81530000D01*
X62620000Y-93120000D02*
X62620000Y-88846340D01*
X72370000Y-93120000D02*
X72370000Y-88826020D01*
X66710000Y-93120000D02*
X66180000Y-93120000D01*
X62630000Y-84154960D02*
X62630000Y-81530000D01*
X63810000Y-93120000D02*
X62630000Y-93120000D01*
X13700000Y-77000000D02*
G75*
G03*
X13700000Y-77000000I-1200000J0D01*
G01*
X29050000Y-17000000D02*
G75*
G03*
X29050000Y-17000000I-1200000J0D01*
G01*
X50350000Y-37000000D02*
G75*
G03*
X50350000Y-37000000I-1200000J0D01*
G01*
X60420000Y-55110000D02*
X60420000Y-51270000D01*
X60420000Y-51270000D02*
X58580000Y-51270000D01*
X59500000Y-56060000D02*
X59500000Y-55110000D01*
X59500000Y-50320000D02*
X59500000Y-51270000D01*
X58580000Y-51270000D02*
X58580000Y-55110000D01*
X58580000Y-55110000D02*
X60420000Y-55110000D01*
X35050000Y-57000000D02*
G75*
G03*
X35050000Y-57000000I-1200000J0D01*
G01*
X35050000Y-17000000D02*
G75*
G03*
X35050000Y-17000000I-1200000J0D01*
G01*
X9960000Y-82430000D02*
X15040000Y-82430000D01*
X9960000Y-82430000D02*
X9960000Y-84880000D01*
X15040000Y-90560000D02*
X15040000Y-88110000D01*
X9960000Y-90560000D02*
X9960000Y-88120000D01*
X15040000Y-82430000D02*
X15040000Y-84910000D01*
X9960000Y-90560000D02*
X15040000Y-90560000D01*
X15500000Y-86500000D02*
G75*
G03*
X15500000Y-86500000I-3000000J0D01*
G01*
D12*
X14710277Y-83000000D02*
G75*
G03*
X14710277Y-83000000I-210277J0D01*
G01*
D11*
X56080000Y-31270000D02*
X56080000Y-35110000D01*
X57920000Y-31270000D02*
X56080000Y-31270000D01*
X57000000Y-30320000D02*
X57000000Y-31270000D01*
X57000000Y-36060000D02*
X57000000Y-35110000D01*
X56080000Y-35110000D02*
X57920000Y-35110000D01*
X57920000Y-35110000D02*
X57920000Y-31270000D01*
X13700000Y-57000000D02*
G75*
G03*
X13700000Y-57000000I-1200000J0D01*
G01*
X20500000Y-90320000D02*
X20500000Y-91270000D01*
X21420000Y-95110000D02*
X21420000Y-91270000D01*
X20500000Y-96060000D02*
X20500000Y-95110000D01*
X21420000Y-91270000D02*
X19580000Y-91270000D01*
X19580000Y-95110000D02*
X21420000Y-95110000D01*
X19580000Y-91270000D02*
X19580000Y-95110000D01*
X13700000Y-17000000D02*
G75*
G03*
X13700000Y-17000000I-1200000J0D01*
G01*
X21420000Y-11270000D02*
X19580000Y-11270000D01*
X21420000Y-15110000D02*
X21420000Y-11270000D01*
X20500000Y-10320000D02*
X20500000Y-11270000D01*
X19580000Y-15110000D02*
X21420000Y-15110000D01*
X19580000Y-11270000D02*
X19580000Y-15110000D01*
X20500000Y-16060000D02*
X20500000Y-15110000D01*
X25970000Y-13120000D02*
X25970000Y-8846340D01*
X32510000Y-13120000D02*
X31680000Y-13120000D01*
X30060000Y-13120000D02*
X29530000Y-13120000D01*
X35720000Y-13120000D02*
X35720000Y-8826020D01*
X35720000Y-1530000D02*
X25980000Y-1530000D01*
X35720000Y-13120000D02*
X34230000Y-13120000D01*
X25980000Y-4154960D02*
X25980000Y-1530000D01*
X35720000Y-4170200D02*
X35720000Y-1530000D01*
X27160000Y-13120000D02*
X25980000Y-13120000D01*
X33390000Y-90560000D02*
X33390000Y-88110000D01*
X28310000Y-90560000D02*
X28310000Y-88120000D01*
X28310000Y-82430000D02*
X28310000Y-84880000D01*
X28310000Y-90560000D02*
X33390000Y-90560000D01*
X33390000Y-82430000D02*
X33390000Y-84910000D01*
X28310000Y-82430000D02*
X33390000Y-82430000D01*
X33850000Y-86500000D02*
G75*
G03*
X33850000Y-86500000I-3000000J0D01*
G01*
D12*
X33060277Y-83000000D02*
G75*
G03*
X33060277Y-83000000I-210277J0D01*
G01*
D11*
X65700000Y-97000000D02*
G75*
G03*
X65700000Y-97000000I-1200000J0D01*
G01*
X53350000Y-97000000D02*
G75*
G03*
X53350000Y-97000000I-1200000J0D01*
G01*
X53350000Y-37000000D02*
G75*
G03*
X53350000Y-37000000I-1200000J0D01*
G01*
X16700000Y-97000000D02*
G75*
G03*
X16700000Y-97000000I-1200000J0D01*
G01*
X16700000Y-37000000D02*
G75*
G03*
X16700000Y-37000000I-1200000J0D01*
G01*
X45460000Y-13120000D02*
X44280000Y-13120000D01*
X54020000Y-13120000D02*
X54020000Y-8826020D01*
X54020000Y-4170200D02*
X54020000Y-1530000D01*
X48360000Y-13120000D02*
X47830000Y-13120000D01*
X50810000Y-13120000D02*
X49980000Y-13120000D01*
X44280000Y-4154960D02*
X44280000Y-1530000D01*
X54020000Y-13120000D02*
X52530000Y-13120000D01*
X44270000Y-13120000D02*
X44270000Y-8846340D01*
X54020000Y-1530000D02*
X44280000Y-1530000D01*
X9960000Y-42430000D02*
X9960000Y-44880000D01*
X9960000Y-42430000D02*
X15040000Y-42430000D01*
X9960000Y-50560000D02*
X9960000Y-48120000D01*
X15040000Y-50560000D02*
X15040000Y-48110000D01*
X15040000Y-42430000D02*
X15040000Y-44910000D01*
X9960000Y-50560000D02*
X15040000Y-50560000D01*
X15500000Y-46500000D02*
G75*
G03*
X15500000Y-46500000I-3000000J0D01*
G01*
D12*
X14710277Y-43000000D02*
G75*
G03*
X14710277Y-43000000I-210277J0D01*
G01*
D11*
X54020000Y-44170200D02*
X54020000Y-41530000D01*
X48360000Y-53120000D02*
X47830000Y-53120000D01*
X54020000Y-41530000D02*
X44280000Y-41530000D01*
X45460000Y-53120000D02*
X44280000Y-53120000D01*
X50810000Y-53120000D02*
X49980000Y-53120000D01*
X54020000Y-53120000D02*
X52530000Y-53120000D01*
X54020000Y-53120000D02*
X54020000Y-48826020D01*
X44280000Y-44154960D02*
X44280000Y-41530000D01*
X44270000Y-53120000D02*
X44270000Y-48846340D01*
X50350000Y-77000000D02*
G75*
G03*
X50350000Y-77000000I-1200000J0D01*
G01*
X51690000Y-42430000D02*
X51690000Y-44910000D01*
X51690000Y-50560000D02*
X51690000Y-48110000D01*
X46610000Y-42430000D02*
X46610000Y-44880000D01*
X46610000Y-42430000D02*
X51690000Y-42430000D01*
X46610000Y-50560000D02*
X46610000Y-48120000D01*
X46610000Y-50560000D02*
X51690000Y-50560000D01*
X52150000Y-46500000D02*
G75*
G03*
X52150000Y-46500000I-3000000J0D01*
G01*
D12*
X51360277Y-43000000D02*
G75*
G03*
X51360277Y-43000000I-210277J0D01*
G01*
D11*
X65700000Y-77000000D02*
G75*
G03*
X65700000Y-77000000I-1200000J0D01*
G01*
X65700000Y-57000000D02*
G75*
G03*
X65700000Y-57000000I-1200000J0D01*
G01*
X51690000Y-30560000D02*
X51690000Y-28110000D01*
X46610000Y-30560000D02*
X51690000Y-30560000D01*
X46610000Y-30560000D02*
X46610000Y-28120000D01*
X46610000Y-22430000D02*
X51690000Y-22430000D01*
X46610000Y-22430000D02*
X46610000Y-24880000D01*
X51690000Y-22430000D02*
X51690000Y-24910000D01*
X52150000Y-26500000D02*
G75*
G03*
X52150000Y-26500000I-3000000J0D01*
G01*
D12*
X51360277Y-23000000D02*
G75*
G03*
X51360277Y-23000000I-210277J0D01*
G01*
D11*
X71700000Y-17000000D02*
G75*
G03*
X71700000Y-17000000I-1200000J0D01*
G01*
X60420000Y-71270000D02*
X58580000Y-71270000D01*
X59500000Y-70320000D02*
X59500000Y-71270000D01*
X58580000Y-75110000D02*
X60420000Y-75110000D01*
X60420000Y-75110000D02*
X60420000Y-71270000D01*
X59500000Y-76060000D02*
X59500000Y-75110000D01*
X58580000Y-71270000D02*
X58580000Y-75110000D01*
X70040000Y-10560000D02*
X70040000Y-8110000D01*
X70040000Y-2430000D02*
X70040000Y-4910000D01*
X64960000Y-10560000D02*
X70040000Y-10560000D01*
X64960000Y-10560000D02*
X64960000Y-8120000D01*
X64960000Y-2430000D02*
X70040000Y-2430000D01*
X64960000Y-2430000D02*
X64960000Y-4880000D01*
X70500000Y-6500000D02*
G75*
G03*
X70500000Y-6500000I-3000000J0D01*
G01*
D12*
X69710277Y-3000000D02*
G75*
G03*
X69710277Y-3000000I-210277J0D01*
G01*
D11*
X8810000Y-13120000D02*
X7630000Y-13120000D01*
X17370000Y-1530000D02*
X7630000Y-1530000D01*
X7620000Y-13120000D02*
X7620000Y-8846340D01*
X11710000Y-13120000D02*
X11180000Y-13120000D01*
X17370000Y-4170200D02*
X17370000Y-1530000D01*
X17370000Y-13120000D02*
X15880000Y-13120000D01*
X14160000Y-13120000D02*
X13330000Y-13120000D01*
X7630000Y-4154960D02*
X7630000Y-1530000D01*
X17370000Y-13120000D02*
X17370000Y-8826020D01*
X57920000Y-15110000D02*
X57920000Y-11270000D01*
X57920000Y-11270000D02*
X56080000Y-11270000D01*
X56080000Y-11270000D02*
X56080000Y-15110000D01*
X56080000Y-15110000D02*
X57920000Y-15110000D01*
X57000000Y-16060000D02*
X57000000Y-15110000D01*
X57000000Y-10320000D02*
X57000000Y-11270000D01*
X28310000Y-62430000D02*
X33390000Y-62430000D01*
X33390000Y-70560000D02*
X33390000Y-68110000D01*
X33390000Y-62430000D02*
X33390000Y-64910000D01*
X28310000Y-70560000D02*
X28310000Y-68120000D01*
X28310000Y-62430000D02*
X28310000Y-64880000D01*
X28310000Y-70560000D02*
X33390000Y-70560000D01*
D12*
X33060277Y-63000000D02*
G75*
G03*
X33060277Y-63000000I-210277J0D01*
G01*
D11*
X33850000Y-66500000D02*
G75*
G03*
X33850000Y-66500000I-3000000J0D01*
G01*
X16700000Y-57000000D02*
G75*
G03*
X16700000Y-57000000I-1200000J0D01*
G01*
X48360000Y-73120000D02*
X47830000Y-73120000D01*
X44270000Y-73120000D02*
X44270000Y-68846340D01*
X54020000Y-64170200D02*
X54020000Y-61530000D01*
X50810000Y-73120000D02*
X49980000Y-73120000D01*
X54020000Y-73120000D02*
X54020000Y-68826020D01*
X54020000Y-73120000D02*
X52530000Y-73120000D01*
X45460000Y-73120000D02*
X44280000Y-73120000D01*
X44280000Y-64154960D02*
X44280000Y-61530000D01*
X54020000Y-61530000D02*
X44280000Y-61530000D01*
X16700000Y-17000000D02*
G75*
G03*
X16700000Y-17000000I-1200000J0D01*
G01*
X31720000Y-97000000D02*
G75*
G03*
X31720000Y-97000000I-1200000J0D01*
G01*
X65700000Y-37000000D02*
G75*
G03*
X65700000Y-37000000I-1200000J0D01*
G01*
X68700000Y-37000000D02*
G75*
G03*
X68700000Y-37000000I-1200000J0D01*
G01*
X58580000Y-31270000D02*
X58580000Y-35110000D01*
X60420000Y-35110000D02*
X60420000Y-31270000D01*
X58580000Y-35110000D02*
X60420000Y-35110000D01*
X60420000Y-31270000D02*
X58580000Y-31270000D01*
X59500000Y-30320000D02*
X59500000Y-31270000D01*
X59500000Y-36060000D02*
X59500000Y-35110000D01*
X28310000Y-30560000D02*
X33390000Y-30560000D01*
X28310000Y-30560000D02*
X28310000Y-28120000D01*
X33390000Y-30560000D02*
X33390000Y-28110000D01*
X28310000Y-22430000D02*
X28310000Y-24880000D01*
X33390000Y-22430000D02*
X33390000Y-24910000D01*
X28310000Y-22430000D02*
X33390000Y-22430000D01*
D12*
X33060277Y-23000000D02*
G75*
G03*
X33060277Y-23000000I-210277J0D01*
G01*
D11*
X33850000Y-26500000D02*
G75*
G03*
X33850000Y-26500000I-3000000J0D01*
G01*
X72370000Y-33120000D02*
X72370000Y-28826020D01*
X66710000Y-33120000D02*
X66180000Y-33120000D01*
X72370000Y-33120000D02*
X70880000Y-33120000D01*
X63810000Y-33120000D02*
X62630000Y-33120000D01*
X62630000Y-24154960D02*
X62630000Y-21530000D01*
X62620000Y-33120000D02*
X62620000Y-28846340D01*
X72370000Y-21530000D02*
X62630000Y-21530000D01*
X69160000Y-33120000D02*
X68330000Y-33120000D01*
X72370000Y-24170200D02*
X72370000Y-21530000D01*
%LPC*%
D13*
X26050000Y-46500000D03*
X35650000Y-46500000D03*
D14*
X28350000Y-54000000D03*
D15*
X30850000Y-54000000D03*
X33350000Y-54000000D03*
D16*
X12500000Y-97000000D03*
X33850000Y-37000000D03*
X30850000Y-43960000D03*
X30850000Y-46500000D03*
X30850000Y-49040000D03*
D13*
X44350000Y-86500000D03*
X53950000Y-86500000D03*
D14*
X46650000Y-94000000D03*
D15*
X49150000Y-94000000D03*
X51650000Y-94000000D03*
D16*
X67500000Y-97000000D03*
D13*
X7700000Y-46500000D03*
X17300000Y-46500000D03*
D14*
X10000000Y-54000000D03*
D15*
X12500000Y-54000000D03*
X15000000Y-54000000D03*
D17*
X57000000Y-97100000D03*
D18*
X57000000Y-89480000D03*
D13*
X62700000Y-6500000D03*
X72300000Y-6500000D03*
D14*
X65000000Y-14000000D03*
D15*
X67500000Y-14000000D03*
X70000000Y-14000000D03*
D16*
X30850000Y-17000000D03*
X67500000Y-23960000D03*
X67500000Y-26500000D03*
X67500000Y-29040000D03*
X67500000Y-63960000D03*
X67500000Y-66500000D03*
X67500000Y-69040000D03*
X9500000Y-97000000D03*
X9500000Y-57000000D03*
X12500000Y-23960000D03*
X12500000Y-26500000D03*
X12500000Y-29040000D03*
X67500000Y-43960000D03*
X67500000Y-46500000D03*
X67500000Y-49040000D03*
D13*
X17300000Y-26500000D03*
X7700000Y-26500000D03*
D14*
X10000000Y-34000000D03*
D15*
X12500000Y-34000000D03*
X15000000Y-34000000D03*
D16*
X67500000Y-17000000D03*
X30850000Y-77000000D03*
D17*
X59500000Y-97100000D03*
D18*
X59500000Y-89480000D03*
D16*
X27520000Y-97000000D03*
X27850000Y-37000000D03*
X64500000Y-17000000D03*
X12500000Y-63960000D03*
X12500000Y-66500000D03*
X12500000Y-69040000D03*
D17*
X20500000Y-78000000D03*
D18*
X20500000Y-70380000D03*
D13*
X7700000Y-66500000D03*
X17300000Y-66500000D03*
D14*
X10000000Y-74000000D03*
D15*
X12500000Y-74000000D03*
X15000000Y-74000000D03*
D16*
X70500000Y-77000000D03*
D13*
X35650000Y-26500000D03*
X26050000Y-26500000D03*
D14*
X28350000Y-34000000D03*
D15*
X30850000Y-34000000D03*
X33350000Y-34000000D03*
D13*
X7700000Y-86500000D03*
X17300000Y-86500000D03*
D14*
X10000000Y-94000000D03*
D15*
X12500000Y-94000000D03*
X15000000Y-94000000D03*
D13*
X35650000Y-66500000D03*
X26050000Y-66500000D03*
D14*
X28350000Y-74000000D03*
D15*
X30850000Y-74000000D03*
X33350000Y-74000000D03*
D17*
X59500000Y-17000000D03*
D18*
X59500000Y-9380000D03*
D17*
X23000000Y-37000000D03*
D18*
X23000000Y-29380000D03*
D16*
X33520000Y-97000000D03*
X52150000Y-77000000D03*
D17*
X57000000Y-77000000D03*
D18*
X57000000Y-69380000D03*
D16*
X67500000Y-83960000D03*
X67500000Y-86500000D03*
X67500000Y-89040000D03*
D17*
X20500000Y-57000000D03*
D18*
X20500000Y-49380000D03*
D16*
X49150000Y-97000000D03*
X9500000Y-17000000D03*
X44679812Y-21781164D03*
X52588607Y-30129874D03*
X46742975Y-23959088D03*
X49150000Y-3960000D03*
X49150000Y-6500000D03*
X49150000Y-9040000D03*
X44679812Y-61781164D03*
X52588607Y-70129874D03*
X46742975Y-63959088D03*
D17*
X20500000Y-37000000D03*
D18*
X20500000Y-29380000D03*
D16*
X30850000Y-37000000D03*
X46150000Y-57000000D03*
X30850000Y-3960000D03*
X30850000Y-6500000D03*
X30850000Y-9040000D03*
X8029812Y-61781164D03*
X15938607Y-70129874D03*
X10092975Y-63959088D03*
X52150000Y-17000000D03*
X46150000Y-77000000D03*
X8029812Y-21781164D03*
X15938607Y-30129874D03*
X10092975Y-23959088D03*
X46150000Y-97000000D03*
D17*
X23000000Y-57000000D03*
D18*
X23000000Y-49380000D03*
D17*
X23000000Y-78000000D03*
D18*
X23000000Y-70380000D03*
D13*
X72300000Y-46500000D03*
X62700000Y-46500000D03*
D14*
X65000000Y-54000000D03*
D15*
X67500000Y-54000000D03*
X70000000Y-54000000D03*
D16*
X9500000Y-37000000D03*
X70500000Y-37000000D03*
X44679812Y-1781164D03*
X52588607Y-10129874D03*
X46742975Y-3959088D03*
X12500000Y-37000000D03*
X27850000Y-77000000D03*
X67500000Y-77000000D03*
D17*
X23000000Y-97000000D03*
D18*
X23000000Y-89380000D03*
D13*
X44350000Y-26500000D03*
X53950000Y-26500000D03*
D14*
X46650000Y-34000000D03*
D15*
X49150000Y-34000000D03*
X51650000Y-34000000D03*
D16*
X52150000Y-57000000D03*
X46150000Y-37000000D03*
D13*
X62700000Y-66500000D03*
X72300000Y-66500000D03*
D14*
X65000000Y-74000000D03*
D15*
X67500000Y-74000000D03*
X70000000Y-74000000D03*
D16*
X67500000Y-57000000D03*
X44679812Y-81781164D03*
X52588607Y-90129874D03*
X46742975Y-83959088D03*
X70500000Y-97000000D03*
X12500000Y-3960000D03*
X12500000Y-6500000D03*
X12500000Y-9040000D03*
X33850000Y-77000000D03*
X15500000Y-77000000D03*
X49150000Y-57000000D03*
X63029812Y-81781164D03*
X70938607Y-90129874D03*
X65092975Y-83959088D03*
X8029812Y-1781164D03*
X15938607Y-10129874D03*
X10092975Y-3959088D03*
X9500000Y-77000000D03*
X27850000Y-57000000D03*
X70500000Y-57000000D03*
X46150000Y-17000000D03*
X63029812Y-21781164D03*
X70938607Y-30129874D03*
X65092975Y-23959088D03*
X63029812Y-61781164D03*
X70938607Y-70129874D03*
X65092975Y-63959088D03*
X30850000Y-57000000D03*
X63029812Y-1781164D03*
X70938607Y-10129874D03*
X65092975Y-3959088D03*
X26379812Y-21781164D03*
X34288607Y-30129874D03*
X28442975Y-23959088D03*
D13*
X35650000Y-86500000D03*
X26050000Y-86500000D03*
D14*
X28350000Y-94000000D03*
D15*
X30850000Y-94000000D03*
X33350000Y-94000000D03*
D16*
X63029812Y-41781164D03*
X70938607Y-50129874D03*
X65092975Y-43959088D03*
D17*
X57000000Y-57000000D03*
D18*
X57000000Y-49380000D03*
D16*
X49150000Y-63960000D03*
X49150000Y-66500000D03*
X49150000Y-69040000D03*
X26379812Y-81781164D03*
X34288607Y-90129874D03*
X28442975Y-83959088D03*
D17*
X23000000Y-17000000D03*
D18*
X23000000Y-9380000D03*
D16*
X49150000Y-83960000D03*
X49150000Y-86500000D03*
X49150000Y-89040000D03*
X49150000Y-17000000D03*
D13*
X62700000Y-86500000D03*
X72300000Y-86500000D03*
D14*
X65000000Y-94000000D03*
D15*
X67500000Y-94000000D03*
X70000000Y-94000000D03*
D16*
X12500000Y-77000000D03*
X27850000Y-17000000D03*
X49150000Y-37000000D03*
D17*
X59500000Y-57000000D03*
D18*
X59500000Y-49380000D03*
D16*
X33850000Y-57000000D03*
X26379812Y-41781164D03*
X34288607Y-50129874D03*
X28442975Y-43959088D03*
X33850000Y-17000000D03*
X12500000Y-83960000D03*
X12500000Y-86500000D03*
X12500000Y-89040000D03*
D17*
X57000000Y-37000000D03*
D18*
X57000000Y-29380000D03*
D16*
X12500000Y-57000000D03*
D17*
X20500000Y-97000000D03*
D18*
X20500000Y-89380000D03*
D16*
X12500000Y-17000000D03*
X8029812Y-41781164D03*
X15938607Y-50129874D03*
X10092975Y-43959088D03*
D17*
X20500000Y-17000000D03*
D18*
X20500000Y-9380000D03*
D13*
X26050000Y-6500000D03*
X35650000Y-6500000D03*
D14*
X28350000Y-14000000D03*
D15*
X30850000Y-14000000D03*
X33350000Y-14000000D03*
D16*
X30850000Y-83960000D03*
X30850000Y-86500000D03*
X30850000Y-89040000D03*
X64500000Y-97000000D03*
X52150000Y-97000000D03*
X52150000Y-37000000D03*
X15500000Y-97000000D03*
X15500000Y-37000000D03*
D13*
X53950000Y-6500000D03*
X44350000Y-6500000D03*
D14*
X46650000Y-14000000D03*
D15*
X49150000Y-14000000D03*
X51650000Y-14000000D03*
D16*
X12500000Y-43960000D03*
X12500000Y-46500000D03*
X12500000Y-49040000D03*
X8029812Y-81781164D03*
X15938607Y-90129874D03*
X10092975Y-83959088D03*
D13*
X44350000Y-46500000D03*
X53950000Y-46500000D03*
D14*
X46650000Y-54000000D03*
D15*
X49150000Y-54000000D03*
X51650000Y-54000000D03*
D16*
X49150000Y-77000000D03*
X49150000Y-43960000D03*
X49150000Y-46500000D03*
X49150000Y-49040000D03*
X64500000Y-77000000D03*
X64500000Y-57000000D03*
X26379812Y-1781164D03*
X34288607Y-10129874D03*
X28442975Y-3959088D03*
X49150000Y-23960000D03*
X49150000Y-26500000D03*
X49150000Y-29040000D03*
X70500000Y-17000000D03*
D17*
X59500000Y-77000000D03*
D18*
X59500000Y-69380000D03*
D16*
X67500000Y-3960000D03*
X67500000Y-6500000D03*
X67500000Y-9040000D03*
D13*
X7700000Y-6500000D03*
X17300000Y-6500000D03*
D14*
X10000000Y-14000000D03*
D15*
X12500000Y-14000000D03*
X15000000Y-14000000D03*
D17*
X57000000Y-17000000D03*
D18*
X57000000Y-9380000D03*
D16*
X30850000Y-63960000D03*
X30850000Y-66500000D03*
X30850000Y-69040000D03*
X15500000Y-57000000D03*
D13*
X53950000Y-66500000D03*
X44350000Y-66500000D03*
D14*
X46650000Y-74000000D03*
D15*
X49150000Y-74000000D03*
X51650000Y-74000000D03*
D16*
X15500000Y-17000000D03*
X30520000Y-97000000D03*
X64500000Y-37000000D03*
X67500000Y-37000000D03*
D17*
X59500000Y-37000000D03*
D18*
X59500000Y-29380000D03*
D16*
X30850000Y-23960000D03*
X30850000Y-26500000D03*
X30850000Y-29040000D03*
D13*
X62700000Y-26500000D03*
X72300000Y-26500000D03*
D14*
X65000000Y-34000000D03*
D15*
X67500000Y-34000000D03*
X70000000Y-34000000D03*
D16*
X26379812Y-61781164D03*
X34288607Y-70129874D03*
X28442975Y-63959088D03*
X44679812Y-41781164D03*
X52588607Y-50129874D03*
X46742975Y-43959088D03*
D19*
X2540000Y-53340000D03*
D20*
X2540000Y-55880000D03*
X2540000Y-58420000D03*
X2540000Y-60960000D03*
X2540000Y-63500000D03*
X2540000Y-66040000D03*
X2540000Y-68580000D03*
X2540000Y-71120000D03*
X2540000Y-73660000D03*
X2540000Y-76200000D03*
X2540000Y-78740000D03*
X2540000Y-81280000D03*
X2540000Y-83820000D03*
X2540000Y-86360000D03*
X2540000Y-88900000D03*
X2540000Y-91440000D03*
D19*
X77460000Y-53340000D03*
D20*
X77460000Y-55880000D03*
X77460000Y-58420000D03*
X77460000Y-60960000D03*
X77460000Y-63500000D03*
X77460000Y-66040000D03*
X77460000Y-68580000D03*
X77460000Y-71120000D03*
X77460000Y-73660000D03*
X77460000Y-76200000D03*
X77460000Y-78740000D03*
X77460000Y-81280000D03*
X77460000Y-83820000D03*
X77460000Y-86360000D03*
X77460000Y-88900000D03*
X77460000Y-91440000D03*
D19*
X77460000Y-10160000D03*
D20*
X77460000Y-12700000D03*
X77460000Y-15240000D03*
X77460000Y-17780000D03*
X77460000Y-20320000D03*
X77460000Y-22860000D03*
X77460000Y-25400000D03*
X77460000Y-27940000D03*
X77460000Y-30480000D03*
X77460000Y-33020000D03*
X77460000Y-35560000D03*
X77460000Y-38100000D03*
X77460000Y-40640000D03*
X77460000Y-43180000D03*
X77460000Y-45720000D03*
X77460000Y-48260000D03*
D19*
X2540000Y-10160000D03*
D20*
X2540000Y-12700000D03*
X2540000Y-15240000D03*
X2540000Y-17780000D03*
X2540000Y-20320000D03*
X2540000Y-22860000D03*
X2540000Y-25400000D03*
X2540000Y-27940000D03*
X2540000Y-30480000D03*
X2540000Y-33020000D03*
X2540000Y-35560000D03*
X2540000Y-38100000D03*
X2540000Y-40640000D03*
X2540000Y-43180000D03*
X2540000Y-45720000D03*
X2540000Y-48260000D03*
M02*
