%TF.GenerationSoftware,KiCad,Pcbnew,(6.0.11-0)*%
%TF.CreationDate,2023-03-26T21:43:21+01:00*%
%TF.ProjectId,ioboard,696f626f-6172-4642-9e6b-696361645f70,rev?*%
%TF.SameCoordinates,Original*%
%TF.FileFunction,Drillmap*%
%TF.FilePolarity,Positive*%
%FSLAX45Y45*%
G04 Gerber Fmt 4.5, Leading zero omitted, Abs format (unit mm)*
G04 Created by KiCad (PCBNEW (6.0.11-0)) date 2023-03-26 21:43:21*
%MOMM*%
%LPD*%
G01*
G04 APERTURE LIST*
%ADD10C,0.100000*%
%ADD11C,0.200000*%
%ADD12C,0.040000*%
%ADD13C,0.070000*%
%ADD14C,0.110000*%
G04 APERTURE END LIST*
D10*
X450000Y-9700000D02*
G75*
G03*
X450000Y-9700000I-150000J0D01*
G01*
X7860000Y-300000D02*
G75*
G03*
X7860000Y-300000I-160000J0D01*
G01*
X7860000Y-9700000D02*
G75*
G03*
X7860000Y-9700000I-160000J0D01*
G01*
X0Y0D02*
X8000000Y0D01*
X8000000Y0D02*
X8000000Y-10000000D01*
X8000000Y-10000000D02*
X0Y-10000000D01*
X0Y-10000000D02*
X0Y0D01*
X460000Y-300000D02*
G75*
G03*
X460000Y-300000I-160000J0D01*
G01*
D11*
D12*
X1200000Y-8060000D02*
X1240000Y-8100000D01*
X1240000Y-8060000D02*
X1200000Y-8100000D01*
X1201884Y-4060000D02*
X1241884Y-4100000D01*
X1241884Y-4060000D02*
X1201884Y-4100000D01*
X1210000Y-6030000D02*
X1250000Y-6070000D01*
X1250000Y-6030000D02*
X1210000Y-6070000D01*
D13*
X2085000Y-938000D02*
G75*
G03*
X2085000Y-938000I-35000J0D01*
G01*
X2085000Y-1700000D02*
G75*
G03*
X2085000Y-1700000I-35000J0D01*
G01*
X2085000Y-2938000D02*
G75*
G03*
X2085000Y-2938000I-35000J0D01*
G01*
X2085000Y-3700000D02*
G75*
G03*
X2085000Y-3700000I-35000J0D01*
G01*
X2085000Y-4938000D02*
G75*
G03*
X2085000Y-4938000I-35000J0D01*
G01*
X2085000Y-5700000D02*
G75*
G03*
X2085000Y-5700000I-35000J0D01*
G01*
X2085000Y-7038000D02*
G75*
G03*
X2085000Y-7038000I-35000J0D01*
G01*
X2085000Y-7800000D02*
G75*
G03*
X2085000Y-7800000I-35000J0D01*
G01*
X2085000Y-8938000D02*
G75*
G03*
X2085000Y-8938000I-35000J0D01*
G01*
X2085000Y-9700000D02*
G75*
G03*
X2085000Y-9700000I-35000J0D01*
G01*
X2335000Y-938000D02*
G75*
G03*
X2335000Y-938000I-35000J0D01*
G01*
X2335000Y-1700000D02*
G75*
G03*
X2335000Y-1700000I-35000J0D01*
G01*
X2335000Y-2938000D02*
G75*
G03*
X2335000Y-2938000I-35000J0D01*
G01*
X2335000Y-3700000D02*
G75*
G03*
X2335000Y-3700000I-35000J0D01*
G01*
X2335000Y-4938000D02*
G75*
G03*
X2335000Y-4938000I-35000J0D01*
G01*
X2335000Y-5700000D02*
G75*
G03*
X2335000Y-5700000I-35000J0D01*
G01*
X2335000Y-7038000D02*
G75*
G03*
X2335000Y-7038000I-35000J0D01*
G01*
X2335000Y-7800000D02*
G75*
G03*
X2335000Y-7800000I-35000J0D01*
G01*
X2335000Y-8938000D02*
G75*
G03*
X2335000Y-8938000I-35000J0D01*
G01*
X2335000Y-9700000D02*
G75*
G03*
X2335000Y-9700000I-35000J0D01*
G01*
X5735000Y-938000D02*
G75*
G03*
X5735000Y-938000I-35000J0D01*
G01*
X5735000Y-1700000D02*
G75*
G03*
X5735000Y-1700000I-35000J0D01*
G01*
X5735000Y-2938000D02*
G75*
G03*
X5735000Y-2938000I-35000J0D01*
G01*
X5735000Y-3700000D02*
G75*
G03*
X5735000Y-3700000I-35000J0D01*
G01*
X5735000Y-4938000D02*
G75*
G03*
X5735000Y-4938000I-35000J0D01*
G01*
X5735000Y-5700000D02*
G75*
G03*
X5735000Y-5700000I-35000J0D01*
G01*
X5735000Y-6938000D02*
G75*
G03*
X5735000Y-6938000I-35000J0D01*
G01*
X5735000Y-7700000D02*
G75*
G03*
X5735000Y-7700000I-35000J0D01*
G01*
X5735000Y-8948000D02*
G75*
G03*
X5735000Y-8948000I-35000J0D01*
G01*
X5735000Y-9710000D02*
G75*
G03*
X5735000Y-9710000I-35000J0D01*
G01*
X5985000Y-938000D02*
G75*
G03*
X5985000Y-938000I-35000J0D01*
G01*
X5985000Y-1700000D02*
G75*
G03*
X5985000Y-1700000I-35000J0D01*
G01*
X5985000Y-2938000D02*
G75*
G03*
X5985000Y-2938000I-35000J0D01*
G01*
X5985000Y-3700000D02*
G75*
G03*
X5985000Y-3700000I-35000J0D01*
G01*
X5985000Y-4938000D02*
G75*
G03*
X5985000Y-4938000I-35000J0D01*
G01*
X5985000Y-5700000D02*
G75*
G03*
X5985000Y-5700000I-35000J0D01*
G01*
X5985000Y-6938000D02*
G75*
G03*
X5985000Y-6938000I-35000J0D01*
G01*
X5985000Y-7700000D02*
G75*
G03*
X5985000Y-7700000I-35000J0D01*
G01*
X5985000Y-8948000D02*
G75*
G03*
X5985000Y-8948000I-35000J0D01*
G01*
X5985000Y-9710000D02*
G75*
G03*
X5985000Y-9710000I-35000J0D01*
G01*
D10*
X254000Y-966000D02*
X254000Y-1066000D01*
X204000Y-1016000D02*
X304000Y-1016000D01*
X254000Y-1220000D02*
X254000Y-1320000D01*
X204000Y-1270000D02*
X304000Y-1270000D01*
X254000Y-1474000D02*
X254000Y-1574000D01*
X204000Y-1524000D02*
X304000Y-1524000D01*
X254000Y-1728000D02*
X254000Y-1828000D01*
X204000Y-1778000D02*
X304000Y-1778000D01*
X254000Y-1982000D02*
X254000Y-2082000D01*
X204000Y-2032000D02*
X304000Y-2032000D01*
X254000Y-2236000D02*
X254000Y-2336000D01*
X204000Y-2286000D02*
X304000Y-2286000D01*
X254000Y-2490000D02*
X254000Y-2590000D01*
X204000Y-2540000D02*
X304000Y-2540000D01*
X254000Y-2744000D02*
X254000Y-2844000D01*
X204000Y-2794000D02*
X304000Y-2794000D01*
X254000Y-2998000D02*
X254000Y-3098000D01*
X204000Y-3048000D02*
X304000Y-3048000D01*
X254000Y-3252000D02*
X254000Y-3352000D01*
X204000Y-3302000D02*
X304000Y-3302000D01*
X254000Y-3506000D02*
X254000Y-3606000D01*
X204000Y-3556000D02*
X304000Y-3556000D01*
X254000Y-3760000D02*
X254000Y-3860000D01*
X204000Y-3810000D02*
X304000Y-3810000D01*
X254000Y-4014000D02*
X254000Y-4114000D01*
X204000Y-4064000D02*
X304000Y-4064000D01*
X254000Y-4268000D02*
X254000Y-4368000D01*
X204000Y-4318000D02*
X304000Y-4318000D01*
X254000Y-4522000D02*
X254000Y-4622000D01*
X204000Y-4572000D02*
X304000Y-4572000D01*
X254000Y-4776000D02*
X254000Y-4876000D01*
X204000Y-4826000D02*
X304000Y-4826000D01*
X254000Y-5284000D02*
X254000Y-5384000D01*
X204000Y-5334000D02*
X304000Y-5334000D01*
X254000Y-5538000D02*
X254000Y-5638000D01*
X204000Y-5588000D02*
X304000Y-5588000D01*
X254000Y-5792000D02*
X254000Y-5892000D01*
X204000Y-5842000D02*
X304000Y-5842000D01*
X254000Y-6046000D02*
X254000Y-6146000D01*
X204000Y-6096000D02*
X304000Y-6096000D01*
X254000Y-6300000D02*
X254000Y-6400000D01*
X204000Y-6350000D02*
X304000Y-6350000D01*
X254000Y-6554000D02*
X254000Y-6654000D01*
X204000Y-6604000D02*
X304000Y-6604000D01*
X254000Y-6808000D02*
X254000Y-6908000D01*
X204000Y-6858000D02*
X304000Y-6858000D01*
X254000Y-7062000D02*
X254000Y-7162000D01*
X204000Y-7112000D02*
X304000Y-7112000D01*
X254000Y-7316000D02*
X254000Y-7416000D01*
X204000Y-7366000D02*
X304000Y-7366000D01*
X254000Y-7570000D02*
X254000Y-7670000D01*
X204000Y-7620000D02*
X304000Y-7620000D01*
X254000Y-7824000D02*
X254000Y-7924000D01*
X204000Y-7874000D02*
X304000Y-7874000D01*
X254000Y-8078000D02*
X254000Y-8178000D01*
X204000Y-8128000D02*
X304000Y-8128000D01*
X254000Y-8332000D02*
X254000Y-8432000D01*
X204000Y-8382000D02*
X304000Y-8382000D01*
X254000Y-8586000D02*
X254000Y-8686000D01*
X204000Y-8636000D02*
X304000Y-8636000D01*
X254000Y-8840000D02*
X254000Y-8940000D01*
X204000Y-8890000D02*
X304000Y-8890000D01*
X254000Y-9094000D02*
X254000Y-9194000D01*
X204000Y-9144000D02*
X304000Y-9144000D01*
X1000000Y-1350000D02*
X1000000Y-1450000D01*
X950000Y-1400000D02*
X1050000Y-1400000D01*
X1000000Y-3350000D02*
X1000000Y-3450000D01*
X950000Y-3400000D02*
X1050000Y-3400000D01*
X1000000Y-5350000D02*
X1000000Y-5450000D01*
X950000Y-5400000D02*
X1050000Y-5400000D01*
X1000000Y-7350000D02*
X1000000Y-7450000D01*
X950000Y-7400000D02*
X1050000Y-7400000D01*
X1000000Y-9350000D02*
X1000000Y-9450000D01*
X950000Y-9400000D02*
X1050000Y-9400000D01*
X1250000Y-1350000D02*
X1250000Y-1450000D01*
X1200000Y-1400000D02*
X1300000Y-1400000D01*
X1250000Y-3350000D02*
X1250000Y-3450000D01*
X1200000Y-3400000D02*
X1300000Y-3400000D01*
X1250000Y-5350000D02*
X1250000Y-5450000D01*
X1200000Y-5400000D02*
X1300000Y-5400000D01*
X1250000Y-7350000D02*
X1250000Y-7450000D01*
X1200000Y-7400000D02*
X1300000Y-7400000D01*
X1250000Y-9350000D02*
X1250000Y-9450000D01*
X1200000Y-9400000D02*
X1300000Y-9400000D01*
X1500000Y-1350000D02*
X1500000Y-1450000D01*
X1450000Y-1400000D02*
X1550000Y-1400000D01*
X1500000Y-3350000D02*
X1500000Y-3450000D01*
X1450000Y-3400000D02*
X1550000Y-3400000D01*
X1500000Y-5350000D02*
X1500000Y-5450000D01*
X1450000Y-5400000D02*
X1550000Y-5400000D01*
X1500000Y-7350000D02*
X1500000Y-7450000D01*
X1450000Y-7400000D02*
X1550000Y-7400000D01*
X1500000Y-9350000D02*
X1500000Y-9450000D01*
X1450000Y-9400000D02*
X1550000Y-9400000D01*
X2835000Y-1350000D02*
X2835000Y-1450000D01*
X2785000Y-1400000D02*
X2885000Y-1400000D01*
X2835000Y-3350000D02*
X2835000Y-3450000D01*
X2785000Y-3400000D02*
X2885000Y-3400000D01*
X2835000Y-5350000D02*
X2835000Y-5450000D01*
X2785000Y-5400000D02*
X2885000Y-5400000D01*
X2835000Y-7350000D02*
X2835000Y-7450000D01*
X2785000Y-7400000D02*
X2885000Y-7400000D01*
X2835000Y-9350000D02*
X2835000Y-9450000D01*
X2785000Y-9400000D02*
X2885000Y-9400000D01*
X3085000Y-1350000D02*
X3085000Y-1450000D01*
X3035000Y-1400000D02*
X3135000Y-1400000D01*
X3085000Y-3350000D02*
X3085000Y-3450000D01*
X3035000Y-3400000D02*
X3135000Y-3400000D01*
X3085000Y-5350000D02*
X3085000Y-5450000D01*
X3035000Y-5400000D02*
X3135000Y-5400000D01*
X3085000Y-7350000D02*
X3085000Y-7450000D01*
X3035000Y-7400000D02*
X3135000Y-7400000D01*
X3085000Y-9350000D02*
X3085000Y-9450000D01*
X3035000Y-9400000D02*
X3135000Y-9400000D01*
X3335000Y-1350000D02*
X3335000Y-1450000D01*
X3285000Y-1400000D02*
X3385000Y-1400000D01*
X3335000Y-3350000D02*
X3335000Y-3450000D01*
X3285000Y-3400000D02*
X3385000Y-3400000D01*
X3335000Y-5350000D02*
X3335000Y-5450000D01*
X3285000Y-5400000D02*
X3385000Y-5400000D01*
X3335000Y-7350000D02*
X3335000Y-7450000D01*
X3285000Y-7400000D02*
X3385000Y-7400000D01*
X3335000Y-9350000D02*
X3335000Y-9450000D01*
X3285000Y-9400000D02*
X3385000Y-9400000D01*
X4665000Y-1350000D02*
X4665000Y-1450000D01*
X4615000Y-1400000D02*
X4715000Y-1400000D01*
X4665000Y-3350000D02*
X4665000Y-3450000D01*
X4615000Y-3400000D02*
X4715000Y-3400000D01*
X4665000Y-5350000D02*
X4665000Y-5450000D01*
X4615000Y-5400000D02*
X4715000Y-5400000D01*
X4665000Y-7350000D02*
X4665000Y-7450000D01*
X4615000Y-7400000D02*
X4715000Y-7400000D01*
X4665000Y-9350000D02*
X4665000Y-9450000D01*
X4615000Y-9400000D02*
X4715000Y-9400000D01*
X4915000Y-1350000D02*
X4915000Y-1450000D01*
X4865000Y-1400000D02*
X4965000Y-1400000D01*
X4915000Y-3350000D02*
X4915000Y-3450000D01*
X4865000Y-3400000D02*
X4965000Y-3400000D01*
X4915000Y-5350000D02*
X4915000Y-5450000D01*
X4865000Y-5400000D02*
X4965000Y-5400000D01*
X4915000Y-7350000D02*
X4915000Y-7450000D01*
X4865000Y-7400000D02*
X4965000Y-7400000D01*
X4915000Y-9350000D02*
X4915000Y-9450000D01*
X4865000Y-9400000D02*
X4965000Y-9400000D01*
X5165000Y-1350000D02*
X5165000Y-1450000D01*
X5115000Y-1400000D02*
X5215000Y-1400000D01*
X5165000Y-3350000D02*
X5165000Y-3450000D01*
X5115000Y-3400000D02*
X5215000Y-3400000D01*
X5165000Y-5350000D02*
X5165000Y-5450000D01*
X5115000Y-5400000D02*
X5215000Y-5400000D01*
X5165000Y-7350000D02*
X5165000Y-7450000D01*
X5115000Y-7400000D02*
X5215000Y-7400000D01*
X5165000Y-9350000D02*
X5165000Y-9450000D01*
X5115000Y-9400000D02*
X5215000Y-9400000D01*
X6450000Y-1650000D02*
X6450000Y-1750000D01*
X6400000Y-1700000D02*
X6500000Y-1700000D01*
X6500000Y-1350000D02*
X6500000Y-1450000D01*
X6450000Y-1400000D02*
X6550000Y-1400000D01*
X6500000Y-3350000D02*
X6500000Y-3450000D01*
X6450000Y-3400000D02*
X6550000Y-3400000D01*
X6500000Y-5350000D02*
X6500000Y-5450000D01*
X6450000Y-5400000D02*
X6550000Y-5400000D01*
X6500000Y-7350000D02*
X6500000Y-7450000D01*
X6450000Y-7400000D02*
X6550000Y-7400000D01*
X6500000Y-9350000D02*
X6500000Y-9450000D01*
X6450000Y-9400000D02*
X6550000Y-9400000D01*
X6750000Y-1350000D02*
X6750000Y-1450000D01*
X6700000Y-1400000D02*
X6800000Y-1400000D01*
X6750000Y-1650000D02*
X6750000Y-1750000D01*
X6700000Y-1700000D02*
X6800000Y-1700000D01*
X6750000Y-3350000D02*
X6750000Y-3450000D01*
X6700000Y-3400000D02*
X6800000Y-3400000D01*
X6750000Y-5350000D02*
X6750000Y-5450000D01*
X6700000Y-5400000D02*
X6800000Y-5400000D01*
X6750000Y-7350000D02*
X6750000Y-7450000D01*
X6700000Y-7400000D02*
X6800000Y-7400000D01*
X6750000Y-9350000D02*
X6750000Y-9450000D01*
X6700000Y-9400000D02*
X6800000Y-9400000D01*
X7000000Y-1350000D02*
X7000000Y-1450000D01*
X6950000Y-1400000D02*
X7050000Y-1400000D01*
X7000000Y-3350000D02*
X7000000Y-3450000D01*
X6950000Y-3400000D02*
X7050000Y-3400000D01*
X7000000Y-5350000D02*
X7000000Y-5450000D01*
X6950000Y-5400000D02*
X7050000Y-5400000D01*
X7000000Y-7350000D02*
X7000000Y-7450000D01*
X6950000Y-7400000D02*
X7050000Y-7400000D01*
X7000000Y-9350000D02*
X7000000Y-9450000D01*
X6950000Y-9400000D02*
X7050000Y-9400000D01*
X7050000Y-1650000D02*
X7050000Y-1750000D01*
X7000000Y-1700000D02*
X7100000Y-1700000D01*
X7746000Y-966000D02*
X7746000Y-1066000D01*
X7696000Y-1016000D02*
X7796000Y-1016000D01*
X7746000Y-1220000D02*
X7746000Y-1320000D01*
X7696000Y-1270000D02*
X7796000Y-1270000D01*
X7746000Y-1474000D02*
X7746000Y-1574000D01*
X7696000Y-1524000D02*
X7796000Y-1524000D01*
X7746000Y-1728000D02*
X7746000Y-1828000D01*
X7696000Y-1778000D02*
X7796000Y-1778000D01*
X7746000Y-1982000D02*
X7746000Y-2082000D01*
X7696000Y-2032000D02*
X7796000Y-2032000D01*
X7746000Y-2236000D02*
X7746000Y-2336000D01*
X7696000Y-2286000D02*
X7796000Y-2286000D01*
X7746000Y-2490000D02*
X7746000Y-2590000D01*
X7696000Y-2540000D02*
X7796000Y-2540000D01*
X7746000Y-2744000D02*
X7746000Y-2844000D01*
X7696000Y-2794000D02*
X7796000Y-2794000D01*
X7746000Y-2998000D02*
X7746000Y-3098000D01*
X7696000Y-3048000D02*
X7796000Y-3048000D01*
X7746000Y-3252000D02*
X7746000Y-3352000D01*
X7696000Y-3302000D02*
X7796000Y-3302000D01*
X7746000Y-3506000D02*
X7746000Y-3606000D01*
X7696000Y-3556000D02*
X7796000Y-3556000D01*
X7746000Y-3760000D02*
X7746000Y-3860000D01*
X7696000Y-3810000D02*
X7796000Y-3810000D01*
X7746000Y-4014000D02*
X7746000Y-4114000D01*
X7696000Y-4064000D02*
X7796000Y-4064000D01*
X7746000Y-4268000D02*
X7746000Y-4368000D01*
X7696000Y-4318000D02*
X7796000Y-4318000D01*
X7746000Y-4522000D02*
X7746000Y-4622000D01*
X7696000Y-4572000D02*
X7796000Y-4572000D01*
X7746000Y-4776000D02*
X7746000Y-4876000D01*
X7696000Y-4826000D02*
X7796000Y-4826000D01*
X7746000Y-5284000D02*
X7746000Y-5384000D01*
X7696000Y-5334000D02*
X7796000Y-5334000D01*
X7746000Y-5538000D02*
X7746000Y-5638000D01*
X7696000Y-5588000D02*
X7796000Y-5588000D01*
X7746000Y-5792000D02*
X7746000Y-5892000D01*
X7696000Y-5842000D02*
X7796000Y-5842000D01*
X7746000Y-6046000D02*
X7746000Y-6146000D01*
X7696000Y-6096000D02*
X7796000Y-6096000D01*
X7746000Y-6300000D02*
X7746000Y-6400000D01*
X7696000Y-6350000D02*
X7796000Y-6350000D01*
X7746000Y-6554000D02*
X7746000Y-6654000D01*
X7696000Y-6604000D02*
X7796000Y-6604000D01*
X7746000Y-6808000D02*
X7746000Y-6908000D01*
X7696000Y-6858000D02*
X7796000Y-6858000D01*
X7746000Y-7062000D02*
X7746000Y-7162000D01*
X7696000Y-7112000D02*
X7796000Y-7112000D01*
X7746000Y-7316000D02*
X7746000Y-7416000D01*
X7696000Y-7366000D02*
X7796000Y-7366000D01*
X7746000Y-7570000D02*
X7746000Y-7670000D01*
X7696000Y-7620000D02*
X7796000Y-7620000D01*
X7746000Y-7824000D02*
X7746000Y-7924000D01*
X7696000Y-7874000D02*
X7796000Y-7874000D01*
X7746000Y-8078000D02*
X7746000Y-8178000D01*
X7696000Y-8128000D02*
X7796000Y-8128000D01*
X7746000Y-8332000D02*
X7746000Y-8432000D01*
X7696000Y-8382000D02*
X7796000Y-8382000D01*
X7746000Y-8586000D02*
X7746000Y-8686000D01*
X7696000Y-8636000D02*
X7796000Y-8636000D01*
X7746000Y-8840000D02*
X7746000Y-8940000D01*
X7696000Y-8890000D02*
X7796000Y-8890000D01*
X7746000Y-9094000D02*
X7746000Y-9194000D01*
X7696000Y-9144000D02*
X7796000Y-9144000D01*
D14*
X808891Y-688891D02*
X808891Y-611109D01*
X731109Y-611109D01*
X731109Y-688891D01*
X808891Y-688891D01*
D11*
X825000Y-745000D02*
X825000Y-555000D01*
X715000Y-745000D02*
X715000Y-555000D01*
X825000Y-555000D02*
G75*
G03*
X715000Y-555000I-55000J0D01*
G01*
X715000Y-745000D02*
G75*
G03*
X825000Y-745000I55000J0D01*
G01*
D14*
X808891Y-2688891D02*
X808891Y-2611109D01*
X731109Y-2611109D01*
X731109Y-2688891D01*
X808891Y-2688891D01*
D11*
X825000Y-2745000D02*
X825000Y-2555000D01*
X715000Y-2745000D02*
X715000Y-2555000D01*
X825000Y-2555000D02*
G75*
G03*
X715000Y-2555000I-55000J0D01*
G01*
X715000Y-2745000D02*
G75*
G03*
X825000Y-2745000I55000J0D01*
G01*
D14*
X808891Y-4688891D02*
X808891Y-4611109D01*
X731109Y-4611109D01*
X731109Y-4688891D01*
X808891Y-4688891D01*
D11*
X825000Y-4745000D02*
X825000Y-4555000D01*
X715000Y-4745000D02*
X715000Y-4555000D01*
X825000Y-4555000D02*
G75*
G03*
X715000Y-4555000I-55000J0D01*
G01*
X715000Y-4745000D02*
G75*
G03*
X825000Y-4745000I55000J0D01*
G01*
D14*
X808891Y-6688891D02*
X808891Y-6611109D01*
X731109Y-6611109D01*
X731109Y-6688891D01*
X808891Y-6688891D01*
D11*
X825000Y-6745000D02*
X825000Y-6555000D01*
X715000Y-6745000D02*
X715000Y-6555000D01*
X825000Y-6555000D02*
G75*
G03*
X715000Y-6555000I-55000J0D01*
G01*
X715000Y-6745000D02*
G75*
G03*
X825000Y-6745000I55000J0D01*
G01*
D14*
X808891Y-8688891D02*
X808891Y-8611109D01*
X731109Y-8611109D01*
X731109Y-8688891D01*
X808891Y-8688891D01*
D11*
X825000Y-8745000D02*
X825000Y-8555000D01*
X715000Y-8745000D02*
X715000Y-8555000D01*
X825000Y-8555000D02*
G75*
G03*
X715000Y-8555000I-55000J0D01*
G01*
X715000Y-8745000D02*
G75*
G03*
X825000Y-8745000I55000J0D01*
G01*
D14*
X841872Y-217008D02*
X841872Y-139225D01*
X764090Y-139225D01*
X764090Y-217008D01*
X841872Y-217008D01*
X841872Y-2217008D02*
X841872Y-2139225D01*
X764090Y-2139225D01*
X764090Y-2217008D01*
X841872Y-2217008D01*
X841872Y-4217008D02*
X841872Y-4139225D01*
X764090Y-4139225D01*
X764090Y-4217008D01*
X841872Y-4217008D01*
X841872Y-6217008D02*
X841872Y-6139225D01*
X764090Y-6139225D01*
X764090Y-6217008D01*
X841872Y-6217008D01*
X841872Y-8217008D02*
X841872Y-8139225D01*
X764090Y-8139225D01*
X764090Y-8217008D01*
X841872Y-8217008D01*
X988891Y-1738891D02*
X988891Y-1661109D01*
X911109Y-1661109D01*
X911109Y-1738891D01*
X988891Y-1738891D01*
X988891Y-3738891D02*
X988891Y-3661109D01*
X911109Y-3661109D01*
X911109Y-3738891D01*
X988891Y-3738891D01*
X988891Y-5738891D02*
X988891Y-5661109D01*
X911109Y-5661109D01*
X911109Y-5738891D01*
X988891Y-5738891D01*
X988891Y-7738891D02*
X988891Y-7661109D01*
X911109Y-7661109D01*
X911109Y-7738891D01*
X988891Y-7738891D01*
X988891Y-9738891D02*
X988891Y-9661109D01*
X911109Y-9661109D01*
X911109Y-9738891D01*
X988891Y-9738891D01*
X1048189Y-434800D02*
X1048189Y-357018D01*
X970406Y-357018D01*
X970406Y-434800D01*
X1048189Y-434800D01*
X1048189Y-2434800D02*
X1048189Y-2357018D01*
X970406Y-2357018D01*
X970406Y-2434800D01*
X1048189Y-2434800D01*
X1048189Y-4434800D02*
X1048189Y-4357018D01*
X970406Y-4357018D01*
X970406Y-4434800D01*
X1048189Y-4434800D01*
X1048189Y-6434800D02*
X1048189Y-6357018D01*
X970406Y-6357018D01*
X970406Y-6434800D01*
X1048189Y-6434800D01*
X1048189Y-8434800D02*
X1048189Y-8357018D01*
X970406Y-8357018D01*
X970406Y-8434800D01*
X1048189Y-8434800D01*
X1288891Y-434891D02*
X1288891Y-357109D01*
X1211109Y-357109D01*
X1211109Y-434891D01*
X1288891Y-434891D01*
X1288891Y-688891D02*
X1288891Y-611109D01*
X1211109Y-611109D01*
X1211109Y-688891D01*
X1288891Y-688891D01*
X1288891Y-942891D02*
X1288891Y-865109D01*
X1211109Y-865109D01*
X1211109Y-942891D01*
X1288891Y-942891D01*
X1288891Y-1738891D02*
X1288891Y-1661109D01*
X1211109Y-1661109D01*
X1211109Y-1738891D01*
X1288891Y-1738891D01*
X1288891Y-2434891D02*
X1288891Y-2357109D01*
X1211109Y-2357109D01*
X1211109Y-2434891D01*
X1288891Y-2434891D01*
X1288891Y-2688891D02*
X1288891Y-2611109D01*
X1211109Y-2611109D01*
X1211109Y-2688891D01*
X1288891Y-2688891D01*
X1288891Y-2942891D02*
X1288891Y-2865109D01*
X1211109Y-2865109D01*
X1211109Y-2942891D01*
X1288891Y-2942891D01*
X1288891Y-3738891D02*
X1288891Y-3661109D01*
X1211109Y-3661109D01*
X1211109Y-3738891D01*
X1288891Y-3738891D01*
X1288891Y-4434891D02*
X1288891Y-4357109D01*
X1211109Y-4357109D01*
X1211109Y-4434891D01*
X1288891Y-4434891D01*
X1288891Y-4688891D02*
X1288891Y-4611109D01*
X1211109Y-4611109D01*
X1211109Y-4688891D01*
X1288891Y-4688891D01*
X1288891Y-4942891D02*
X1288891Y-4865109D01*
X1211109Y-4865109D01*
X1211109Y-4942891D01*
X1288891Y-4942891D01*
X1288891Y-5738891D02*
X1288891Y-5661109D01*
X1211109Y-5661109D01*
X1211109Y-5738891D01*
X1288891Y-5738891D01*
X1288891Y-6434891D02*
X1288891Y-6357109D01*
X1211109Y-6357109D01*
X1211109Y-6434891D01*
X1288891Y-6434891D01*
X1288891Y-6688891D02*
X1288891Y-6611109D01*
X1211109Y-6611109D01*
X1211109Y-6688891D01*
X1288891Y-6688891D01*
X1288891Y-6942891D02*
X1288891Y-6865109D01*
X1211109Y-6865109D01*
X1211109Y-6942891D01*
X1288891Y-6942891D01*
X1288891Y-7738891D02*
X1288891Y-7661109D01*
X1211109Y-7661109D01*
X1211109Y-7738891D01*
X1288891Y-7738891D01*
X1288891Y-8434891D02*
X1288891Y-8357109D01*
X1211109Y-8357109D01*
X1211109Y-8434891D01*
X1288891Y-8434891D01*
X1288891Y-8688891D02*
X1288891Y-8611109D01*
X1211109Y-8611109D01*
X1211109Y-8688891D01*
X1288891Y-8688891D01*
X1288891Y-8942891D02*
X1288891Y-8865109D01*
X1211109Y-8865109D01*
X1211109Y-8942891D01*
X1288891Y-8942891D01*
X1288891Y-9738891D02*
X1288891Y-9661109D01*
X1211109Y-9661109D01*
X1211109Y-9738891D01*
X1288891Y-9738891D01*
X1588891Y-1738891D02*
X1588891Y-1661109D01*
X1511109Y-1661109D01*
X1511109Y-1738891D01*
X1588891Y-1738891D01*
X1588891Y-3738891D02*
X1588891Y-3661109D01*
X1511109Y-3661109D01*
X1511109Y-3738891D01*
X1588891Y-3738891D01*
X1588891Y-5738891D02*
X1588891Y-5661109D01*
X1511109Y-5661109D01*
X1511109Y-5738891D01*
X1588891Y-5738891D01*
X1588891Y-7738891D02*
X1588891Y-7661109D01*
X1511109Y-7661109D01*
X1511109Y-7738891D01*
X1588891Y-7738891D01*
X1588891Y-9738891D02*
X1588891Y-9661109D01*
X1511109Y-9661109D01*
X1511109Y-9738891D01*
X1588891Y-9738891D01*
X1632752Y-1051879D02*
X1632752Y-974096D01*
X1554969Y-974096D01*
X1554969Y-1051879D01*
X1632752Y-1051879D01*
X1632752Y-3051879D02*
X1632752Y-2974096D01*
X1554969Y-2974096D01*
X1554969Y-3051879D01*
X1632752Y-3051879D01*
X1632752Y-5051879D02*
X1632752Y-4974096D01*
X1554969Y-4974096D01*
X1554969Y-5051879D01*
X1632752Y-5051879D01*
X1632752Y-7051879D02*
X1632752Y-6974096D01*
X1554969Y-6974096D01*
X1554969Y-7051879D01*
X1632752Y-7051879D01*
X1632752Y-9051879D02*
X1632752Y-8974096D01*
X1554969Y-8974096D01*
X1554969Y-9051879D01*
X1632752Y-9051879D01*
X1768891Y-688891D02*
X1768891Y-611109D01*
X1691109Y-611109D01*
X1691109Y-688891D01*
X1768891Y-688891D01*
D11*
X1785000Y-745000D02*
X1785000Y-555000D01*
X1675000Y-745000D02*
X1675000Y-555000D01*
X1785000Y-555000D02*
G75*
G03*
X1675000Y-555000I-55000J0D01*
G01*
X1675000Y-745000D02*
G75*
G03*
X1785000Y-745000I55000J0D01*
G01*
D14*
X1768891Y-2688891D02*
X1768891Y-2611109D01*
X1691109Y-2611109D01*
X1691109Y-2688891D01*
X1768891Y-2688891D01*
D11*
X1785000Y-2745000D02*
X1785000Y-2555000D01*
X1675000Y-2745000D02*
X1675000Y-2555000D01*
X1785000Y-2555000D02*
G75*
G03*
X1675000Y-2555000I-55000J0D01*
G01*
X1675000Y-2745000D02*
G75*
G03*
X1785000Y-2745000I55000J0D01*
G01*
D14*
X1768891Y-4688891D02*
X1768891Y-4611109D01*
X1691109Y-4611109D01*
X1691109Y-4688891D01*
X1768891Y-4688891D01*
D11*
X1785000Y-4745000D02*
X1785000Y-4555000D01*
X1675000Y-4745000D02*
X1675000Y-4555000D01*
X1785000Y-4555000D02*
G75*
G03*
X1675000Y-4555000I-55000J0D01*
G01*
X1675000Y-4745000D02*
G75*
G03*
X1785000Y-4745000I55000J0D01*
G01*
D14*
X1768891Y-6688891D02*
X1768891Y-6611109D01*
X1691109Y-6611109D01*
X1691109Y-6688891D01*
X1768891Y-6688891D01*
D11*
X1785000Y-6745000D02*
X1785000Y-6555000D01*
X1675000Y-6745000D02*
X1675000Y-6555000D01*
X1785000Y-6555000D02*
G75*
G03*
X1675000Y-6555000I-55000J0D01*
G01*
X1675000Y-6745000D02*
G75*
G03*
X1785000Y-6745000I55000J0D01*
G01*
D14*
X1768891Y-8688891D02*
X1768891Y-8611109D01*
X1691109Y-8611109D01*
X1691109Y-8688891D01*
X1768891Y-8688891D01*
D11*
X1785000Y-8745000D02*
X1785000Y-8555000D01*
X1675000Y-8745000D02*
X1675000Y-8555000D01*
X1785000Y-8555000D02*
G75*
G03*
X1675000Y-8555000I-55000J0D01*
G01*
X1675000Y-8745000D02*
G75*
G03*
X1785000Y-8745000I55000J0D01*
G01*
D14*
X2643891Y-688891D02*
X2643891Y-611109D01*
X2566109Y-611109D01*
X2566109Y-688891D01*
X2643891Y-688891D01*
D11*
X2660000Y-745000D02*
X2660000Y-555000D01*
X2550000Y-745000D02*
X2550000Y-555000D01*
X2660000Y-555000D02*
G75*
G03*
X2550000Y-555000I-55000J0D01*
G01*
X2550000Y-745000D02*
G75*
G03*
X2660000Y-745000I55000J0D01*
G01*
D14*
X2643891Y-2688891D02*
X2643891Y-2611109D01*
X2566109Y-2611109D01*
X2566109Y-2688891D01*
X2643891Y-2688891D01*
D11*
X2660000Y-2745000D02*
X2660000Y-2555000D01*
X2550000Y-2745000D02*
X2550000Y-2555000D01*
X2660000Y-2555000D02*
G75*
G03*
X2550000Y-2555000I-55000J0D01*
G01*
X2550000Y-2745000D02*
G75*
G03*
X2660000Y-2745000I55000J0D01*
G01*
D14*
X2643891Y-4688891D02*
X2643891Y-4611109D01*
X2566109Y-4611109D01*
X2566109Y-4688891D01*
X2643891Y-4688891D01*
D11*
X2660000Y-4745000D02*
X2660000Y-4555000D01*
X2550000Y-4745000D02*
X2550000Y-4555000D01*
X2660000Y-4555000D02*
G75*
G03*
X2550000Y-4555000I-55000J0D01*
G01*
X2550000Y-4745000D02*
G75*
G03*
X2660000Y-4745000I55000J0D01*
G01*
D14*
X2643891Y-6688891D02*
X2643891Y-6611109D01*
X2566109Y-6611109D01*
X2566109Y-6688891D01*
X2643891Y-6688891D01*
D11*
X2660000Y-6745000D02*
X2660000Y-6555000D01*
X2550000Y-6745000D02*
X2550000Y-6555000D01*
X2660000Y-6555000D02*
G75*
G03*
X2550000Y-6555000I-55000J0D01*
G01*
X2550000Y-6745000D02*
G75*
G03*
X2660000Y-6745000I55000J0D01*
G01*
D14*
X2643891Y-8688891D02*
X2643891Y-8611109D01*
X2566109Y-8611109D01*
X2566109Y-8688891D01*
X2643891Y-8688891D01*
D11*
X2660000Y-8745000D02*
X2660000Y-8555000D01*
X2550000Y-8745000D02*
X2550000Y-8555000D01*
X2660000Y-8555000D02*
G75*
G03*
X2550000Y-8555000I-55000J0D01*
G01*
X2550000Y-8745000D02*
G75*
G03*
X2660000Y-8745000I55000J0D01*
G01*
D14*
X2676872Y-217008D02*
X2676872Y-139225D01*
X2599090Y-139225D01*
X2599090Y-217008D01*
X2676872Y-217008D01*
X2676872Y-2217008D02*
X2676872Y-2139225D01*
X2599090Y-2139225D01*
X2599090Y-2217008D01*
X2676872Y-2217008D01*
X2676872Y-4217008D02*
X2676872Y-4139225D01*
X2599090Y-4139225D01*
X2599090Y-4217008D01*
X2676872Y-4217008D01*
X2676872Y-6217008D02*
X2676872Y-6139225D01*
X2599090Y-6139225D01*
X2599090Y-6217008D01*
X2676872Y-6217008D01*
X2676872Y-8217008D02*
X2676872Y-8139225D01*
X2599090Y-8139225D01*
X2599090Y-8217008D01*
X2676872Y-8217008D01*
X2790891Y-9738891D02*
X2790891Y-9661109D01*
X2713109Y-9661109D01*
X2713109Y-9738891D01*
X2790891Y-9738891D01*
X2823891Y-1738891D02*
X2823891Y-1661109D01*
X2746109Y-1661109D01*
X2746109Y-1738891D01*
X2823891Y-1738891D01*
X2823891Y-3738891D02*
X2823891Y-3661109D01*
X2746109Y-3661109D01*
X2746109Y-3738891D01*
X2823891Y-3738891D01*
X2823891Y-5738891D02*
X2823891Y-5661109D01*
X2746109Y-5661109D01*
X2746109Y-5738891D01*
X2823891Y-5738891D01*
X2823891Y-7738891D02*
X2823891Y-7661109D01*
X2746109Y-7661109D01*
X2746109Y-7738891D01*
X2823891Y-7738891D01*
X2883189Y-434800D02*
X2883189Y-357018D01*
X2805406Y-357018D01*
X2805406Y-434800D01*
X2883189Y-434800D01*
X2883189Y-2434800D02*
X2883189Y-2357018D01*
X2805406Y-2357018D01*
X2805406Y-2434800D01*
X2883189Y-2434800D01*
X2883189Y-4434800D02*
X2883189Y-4357018D01*
X2805406Y-4357018D01*
X2805406Y-4434800D01*
X2883189Y-4434800D01*
X2883189Y-6434800D02*
X2883189Y-6357018D01*
X2805406Y-6357018D01*
X2805406Y-6434800D01*
X2883189Y-6434800D01*
X2883189Y-8434800D02*
X2883189Y-8357018D01*
X2805406Y-8357018D01*
X2805406Y-8434800D01*
X2883189Y-8434800D01*
X3090891Y-9738891D02*
X3090891Y-9661109D01*
X3013109Y-9661109D01*
X3013109Y-9738891D01*
X3090891Y-9738891D01*
X3123891Y-434891D02*
X3123891Y-357109D01*
X3046109Y-357109D01*
X3046109Y-434891D01*
X3123891Y-434891D01*
X3123891Y-688891D02*
X3123891Y-611109D01*
X3046109Y-611109D01*
X3046109Y-688891D01*
X3123891Y-688891D01*
X3123891Y-942891D02*
X3123891Y-865109D01*
X3046109Y-865109D01*
X3046109Y-942891D01*
X3123891Y-942891D01*
X3123891Y-1738891D02*
X3123891Y-1661109D01*
X3046109Y-1661109D01*
X3046109Y-1738891D01*
X3123891Y-1738891D01*
X3123891Y-2434891D02*
X3123891Y-2357109D01*
X3046109Y-2357109D01*
X3046109Y-2434891D01*
X3123891Y-2434891D01*
X3123891Y-2688891D02*
X3123891Y-2611109D01*
X3046109Y-2611109D01*
X3046109Y-2688891D01*
X3123891Y-2688891D01*
X3123891Y-2942891D02*
X3123891Y-2865109D01*
X3046109Y-2865109D01*
X3046109Y-2942891D01*
X3123891Y-2942891D01*
X3123891Y-3738891D02*
X3123891Y-3661109D01*
X3046109Y-3661109D01*
X3046109Y-3738891D01*
X3123891Y-3738891D01*
X3123891Y-4434891D02*
X3123891Y-4357109D01*
X3046109Y-4357109D01*
X3046109Y-4434891D01*
X3123891Y-4434891D01*
X3123891Y-4688891D02*
X3123891Y-4611109D01*
X3046109Y-4611109D01*
X3046109Y-4688891D01*
X3123891Y-4688891D01*
X3123891Y-4942891D02*
X3123891Y-4865109D01*
X3046109Y-4865109D01*
X3046109Y-4942891D01*
X3123891Y-4942891D01*
X3123891Y-5738891D02*
X3123891Y-5661109D01*
X3046109Y-5661109D01*
X3046109Y-5738891D01*
X3123891Y-5738891D01*
X3123891Y-6434891D02*
X3123891Y-6357109D01*
X3046109Y-6357109D01*
X3046109Y-6434891D01*
X3123891Y-6434891D01*
X3123891Y-6688891D02*
X3123891Y-6611109D01*
X3046109Y-6611109D01*
X3046109Y-6688891D01*
X3123891Y-6688891D01*
X3123891Y-6942891D02*
X3123891Y-6865109D01*
X3046109Y-6865109D01*
X3046109Y-6942891D01*
X3123891Y-6942891D01*
X3123891Y-7738891D02*
X3123891Y-7661109D01*
X3046109Y-7661109D01*
X3046109Y-7738891D01*
X3123891Y-7738891D01*
X3123891Y-8434891D02*
X3123891Y-8357109D01*
X3046109Y-8357109D01*
X3046109Y-8434891D01*
X3123891Y-8434891D01*
X3123891Y-8688891D02*
X3123891Y-8611109D01*
X3046109Y-8611109D01*
X3046109Y-8688891D01*
X3123891Y-8688891D01*
X3123891Y-8942891D02*
X3123891Y-8865109D01*
X3046109Y-8865109D01*
X3046109Y-8942891D01*
X3123891Y-8942891D01*
X3390891Y-9738891D02*
X3390891Y-9661109D01*
X3313109Y-9661109D01*
X3313109Y-9738891D01*
X3390891Y-9738891D01*
X3423891Y-1738891D02*
X3423891Y-1661109D01*
X3346109Y-1661109D01*
X3346109Y-1738891D01*
X3423891Y-1738891D01*
X3423891Y-3738891D02*
X3423891Y-3661109D01*
X3346109Y-3661109D01*
X3346109Y-3738891D01*
X3423891Y-3738891D01*
X3423891Y-5738891D02*
X3423891Y-5661109D01*
X3346109Y-5661109D01*
X3346109Y-5738891D01*
X3423891Y-5738891D01*
X3423891Y-7738891D02*
X3423891Y-7661109D01*
X3346109Y-7661109D01*
X3346109Y-7738891D01*
X3423891Y-7738891D01*
X3467752Y-1051879D02*
X3467752Y-974096D01*
X3389969Y-974096D01*
X3389969Y-1051879D01*
X3467752Y-1051879D01*
X3467752Y-3051879D02*
X3467752Y-2974096D01*
X3389969Y-2974096D01*
X3389969Y-3051879D01*
X3467752Y-3051879D01*
X3467752Y-5051879D02*
X3467752Y-4974096D01*
X3389969Y-4974096D01*
X3389969Y-5051879D01*
X3467752Y-5051879D01*
X3467752Y-7051879D02*
X3467752Y-6974096D01*
X3389969Y-6974096D01*
X3389969Y-7051879D01*
X3467752Y-7051879D01*
X3467752Y-9051879D02*
X3467752Y-8974096D01*
X3389969Y-8974096D01*
X3389969Y-9051879D01*
X3467752Y-9051879D01*
X3603891Y-688891D02*
X3603891Y-611109D01*
X3526109Y-611109D01*
X3526109Y-688891D01*
X3603891Y-688891D01*
D11*
X3620000Y-745000D02*
X3620000Y-555000D01*
X3510000Y-745000D02*
X3510000Y-555000D01*
X3620000Y-555000D02*
G75*
G03*
X3510000Y-555000I-55000J0D01*
G01*
X3510000Y-745000D02*
G75*
G03*
X3620000Y-745000I55000J0D01*
G01*
D14*
X3603891Y-2688891D02*
X3603891Y-2611109D01*
X3526109Y-2611109D01*
X3526109Y-2688891D01*
X3603891Y-2688891D01*
D11*
X3620000Y-2745000D02*
X3620000Y-2555000D01*
X3510000Y-2745000D02*
X3510000Y-2555000D01*
X3620000Y-2555000D02*
G75*
G03*
X3510000Y-2555000I-55000J0D01*
G01*
X3510000Y-2745000D02*
G75*
G03*
X3620000Y-2745000I55000J0D01*
G01*
D14*
X3603891Y-4688891D02*
X3603891Y-4611109D01*
X3526109Y-4611109D01*
X3526109Y-4688891D01*
X3603891Y-4688891D01*
D11*
X3620000Y-4745000D02*
X3620000Y-4555000D01*
X3510000Y-4745000D02*
X3510000Y-4555000D01*
X3620000Y-4555000D02*
G75*
G03*
X3510000Y-4555000I-55000J0D01*
G01*
X3510000Y-4745000D02*
G75*
G03*
X3620000Y-4745000I55000J0D01*
G01*
D14*
X3603891Y-6688891D02*
X3603891Y-6611109D01*
X3526109Y-6611109D01*
X3526109Y-6688891D01*
X3603891Y-6688891D01*
D11*
X3620000Y-6745000D02*
X3620000Y-6555000D01*
X3510000Y-6745000D02*
X3510000Y-6555000D01*
X3620000Y-6555000D02*
G75*
G03*
X3510000Y-6555000I-55000J0D01*
G01*
X3510000Y-6745000D02*
G75*
G03*
X3620000Y-6745000I55000J0D01*
G01*
D14*
X3603891Y-8688891D02*
X3603891Y-8611109D01*
X3526109Y-8611109D01*
X3526109Y-8688891D01*
X3603891Y-8688891D01*
D11*
X3620000Y-8745000D02*
X3620000Y-8555000D01*
X3510000Y-8745000D02*
X3510000Y-8555000D01*
X3620000Y-8555000D02*
G75*
G03*
X3510000Y-8555000I-55000J0D01*
G01*
X3510000Y-8745000D02*
G75*
G03*
X3620000Y-8745000I55000J0D01*
G01*
D14*
X4473891Y-688891D02*
X4473891Y-611109D01*
X4396109Y-611109D01*
X4396109Y-688891D01*
X4473891Y-688891D01*
D11*
X4490000Y-745000D02*
X4490000Y-555000D01*
X4380000Y-745000D02*
X4380000Y-555000D01*
X4490000Y-555000D02*
G75*
G03*
X4380000Y-555000I-55000J0D01*
G01*
X4380000Y-745000D02*
G75*
G03*
X4490000Y-745000I55000J0D01*
G01*
D14*
X4473891Y-2688891D02*
X4473891Y-2611109D01*
X4396109Y-2611109D01*
X4396109Y-2688891D01*
X4473891Y-2688891D01*
D11*
X4490000Y-2745000D02*
X4490000Y-2555000D01*
X4380000Y-2745000D02*
X4380000Y-2555000D01*
X4490000Y-2555000D02*
G75*
G03*
X4380000Y-2555000I-55000J0D01*
G01*
X4380000Y-2745000D02*
G75*
G03*
X4490000Y-2745000I55000J0D01*
G01*
D14*
X4473891Y-4688891D02*
X4473891Y-4611109D01*
X4396109Y-4611109D01*
X4396109Y-4688891D01*
X4473891Y-4688891D01*
D11*
X4490000Y-4745000D02*
X4490000Y-4555000D01*
X4380000Y-4745000D02*
X4380000Y-4555000D01*
X4490000Y-4555000D02*
G75*
G03*
X4380000Y-4555000I-55000J0D01*
G01*
X4380000Y-4745000D02*
G75*
G03*
X4490000Y-4745000I55000J0D01*
G01*
D14*
X4473891Y-6688891D02*
X4473891Y-6611109D01*
X4396109Y-6611109D01*
X4396109Y-6688891D01*
X4473891Y-6688891D01*
D11*
X4490000Y-6745000D02*
X4490000Y-6555000D01*
X4380000Y-6745000D02*
X4380000Y-6555000D01*
X4490000Y-6555000D02*
G75*
G03*
X4380000Y-6555000I-55000J0D01*
G01*
X4380000Y-6745000D02*
G75*
G03*
X4490000Y-6745000I55000J0D01*
G01*
D14*
X4473891Y-8688891D02*
X4473891Y-8611109D01*
X4396109Y-8611109D01*
X4396109Y-8688891D01*
X4473891Y-8688891D01*
D11*
X4490000Y-8745000D02*
X4490000Y-8555000D01*
X4380000Y-8745000D02*
X4380000Y-8555000D01*
X4490000Y-8555000D02*
G75*
G03*
X4380000Y-8555000I-55000J0D01*
G01*
X4380000Y-8745000D02*
G75*
G03*
X4490000Y-8745000I55000J0D01*
G01*
D14*
X4506872Y-217008D02*
X4506872Y-139225D01*
X4429090Y-139225D01*
X4429090Y-217008D01*
X4506872Y-217008D01*
X4506872Y-2217008D02*
X4506872Y-2139225D01*
X4429090Y-2139225D01*
X4429090Y-2217008D01*
X4506872Y-2217008D01*
X4506872Y-4217008D02*
X4506872Y-4139225D01*
X4429090Y-4139225D01*
X4429090Y-4217008D01*
X4506872Y-4217008D01*
X4506872Y-6217008D02*
X4506872Y-6139225D01*
X4429090Y-6139225D01*
X4429090Y-6217008D01*
X4506872Y-6217008D01*
X4506872Y-8217008D02*
X4506872Y-8139225D01*
X4429090Y-8139225D01*
X4429090Y-8217008D01*
X4506872Y-8217008D01*
X4653891Y-1738891D02*
X4653891Y-1661109D01*
X4576109Y-1661109D01*
X4576109Y-1738891D01*
X4653891Y-1738891D01*
X4653891Y-3738891D02*
X4653891Y-3661109D01*
X4576109Y-3661109D01*
X4576109Y-3738891D01*
X4653891Y-3738891D01*
X4653891Y-5738891D02*
X4653891Y-5661109D01*
X4576109Y-5661109D01*
X4576109Y-5738891D01*
X4653891Y-5738891D01*
X4653891Y-7738891D02*
X4653891Y-7661109D01*
X4576109Y-7661109D01*
X4576109Y-7738891D01*
X4653891Y-7738891D01*
X4653891Y-9738891D02*
X4653891Y-9661109D01*
X4576109Y-9661109D01*
X4576109Y-9738891D01*
X4653891Y-9738891D01*
X4713189Y-434800D02*
X4713189Y-357018D01*
X4635406Y-357018D01*
X4635406Y-434800D01*
X4713189Y-434800D01*
X4713189Y-2434800D02*
X4713189Y-2357018D01*
X4635406Y-2357018D01*
X4635406Y-2434800D01*
X4713189Y-2434800D01*
X4713189Y-4434800D02*
X4713189Y-4357018D01*
X4635406Y-4357018D01*
X4635406Y-4434800D01*
X4713189Y-4434800D01*
X4713189Y-6434800D02*
X4713189Y-6357018D01*
X4635406Y-6357018D01*
X4635406Y-6434800D01*
X4713189Y-6434800D01*
X4713189Y-8434800D02*
X4713189Y-8357018D01*
X4635406Y-8357018D01*
X4635406Y-8434800D01*
X4713189Y-8434800D01*
X4953891Y-434891D02*
X4953891Y-357109D01*
X4876109Y-357109D01*
X4876109Y-434891D01*
X4953891Y-434891D01*
X4953891Y-688891D02*
X4953891Y-611109D01*
X4876109Y-611109D01*
X4876109Y-688891D01*
X4953891Y-688891D01*
X4953891Y-942891D02*
X4953891Y-865109D01*
X4876109Y-865109D01*
X4876109Y-942891D01*
X4953891Y-942891D01*
X4953891Y-1738891D02*
X4953891Y-1661109D01*
X4876109Y-1661109D01*
X4876109Y-1738891D01*
X4953891Y-1738891D01*
X4953891Y-2434891D02*
X4953891Y-2357109D01*
X4876109Y-2357109D01*
X4876109Y-2434891D01*
X4953891Y-2434891D01*
X4953891Y-2688891D02*
X4953891Y-2611109D01*
X4876109Y-2611109D01*
X4876109Y-2688891D01*
X4953891Y-2688891D01*
X4953891Y-2942891D02*
X4953891Y-2865109D01*
X4876109Y-2865109D01*
X4876109Y-2942891D01*
X4953891Y-2942891D01*
X4953891Y-3738891D02*
X4953891Y-3661109D01*
X4876109Y-3661109D01*
X4876109Y-3738891D01*
X4953891Y-3738891D01*
X4953891Y-4434891D02*
X4953891Y-4357109D01*
X4876109Y-4357109D01*
X4876109Y-4434891D01*
X4953891Y-4434891D01*
X4953891Y-4688891D02*
X4953891Y-4611109D01*
X4876109Y-4611109D01*
X4876109Y-4688891D01*
X4953891Y-4688891D01*
X4953891Y-4942891D02*
X4953891Y-4865109D01*
X4876109Y-4865109D01*
X4876109Y-4942891D01*
X4953891Y-4942891D01*
X4953891Y-5738891D02*
X4953891Y-5661109D01*
X4876109Y-5661109D01*
X4876109Y-5738891D01*
X4953891Y-5738891D01*
X4953891Y-6434891D02*
X4953891Y-6357109D01*
X4876109Y-6357109D01*
X4876109Y-6434891D01*
X4953891Y-6434891D01*
X4953891Y-6688891D02*
X4953891Y-6611109D01*
X4876109Y-6611109D01*
X4876109Y-6688891D01*
X4953891Y-6688891D01*
X4953891Y-6942891D02*
X4953891Y-6865109D01*
X4876109Y-6865109D01*
X4876109Y-6942891D01*
X4953891Y-6942891D01*
X4953891Y-7738891D02*
X4953891Y-7661109D01*
X4876109Y-7661109D01*
X4876109Y-7738891D01*
X4953891Y-7738891D01*
X4953891Y-8434891D02*
X4953891Y-8357109D01*
X4876109Y-8357109D01*
X4876109Y-8434891D01*
X4953891Y-8434891D01*
X4953891Y-8688891D02*
X4953891Y-8611109D01*
X4876109Y-8611109D01*
X4876109Y-8688891D01*
X4953891Y-8688891D01*
X4953891Y-8942891D02*
X4953891Y-8865109D01*
X4876109Y-8865109D01*
X4876109Y-8942891D01*
X4953891Y-8942891D01*
X4953891Y-9738891D02*
X4953891Y-9661109D01*
X4876109Y-9661109D01*
X4876109Y-9738891D01*
X4953891Y-9738891D01*
X5253891Y-1738891D02*
X5253891Y-1661109D01*
X5176109Y-1661109D01*
X5176109Y-1738891D01*
X5253891Y-1738891D01*
X5253891Y-3738891D02*
X5253891Y-3661109D01*
X5176109Y-3661109D01*
X5176109Y-3738891D01*
X5253891Y-3738891D01*
X5253891Y-5738891D02*
X5253891Y-5661109D01*
X5176109Y-5661109D01*
X5176109Y-5738891D01*
X5253891Y-5738891D01*
X5253891Y-7738891D02*
X5253891Y-7661109D01*
X5176109Y-7661109D01*
X5176109Y-7738891D01*
X5253891Y-7738891D01*
X5253891Y-9738891D02*
X5253891Y-9661109D01*
X5176109Y-9661109D01*
X5176109Y-9738891D01*
X5253891Y-9738891D01*
X5297752Y-1051879D02*
X5297752Y-974096D01*
X5219970Y-974096D01*
X5219970Y-1051879D01*
X5297752Y-1051879D01*
X5297752Y-3051879D02*
X5297752Y-2974096D01*
X5219970Y-2974096D01*
X5219970Y-3051879D01*
X5297752Y-3051879D01*
X5297752Y-5051879D02*
X5297752Y-4974096D01*
X5219970Y-4974096D01*
X5219970Y-5051879D01*
X5297752Y-5051879D01*
X5297752Y-7051879D02*
X5297752Y-6974096D01*
X5219970Y-6974096D01*
X5219970Y-7051879D01*
X5297752Y-7051879D01*
X5297752Y-9051879D02*
X5297752Y-8974096D01*
X5219970Y-8974096D01*
X5219970Y-9051879D01*
X5297752Y-9051879D01*
X5433891Y-688891D02*
X5433891Y-611109D01*
X5356109Y-611109D01*
X5356109Y-688891D01*
X5433891Y-688891D01*
D11*
X5450000Y-745000D02*
X5450000Y-555000D01*
X5340000Y-745000D02*
X5340000Y-555000D01*
X5450000Y-555000D02*
G75*
G03*
X5340000Y-555000I-55000J0D01*
G01*
X5340000Y-745000D02*
G75*
G03*
X5450000Y-745000I55000J0D01*
G01*
D14*
X5433891Y-2688891D02*
X5433891Y-2611109D01*
X5356109Y-2611109D01*
X5356109Y-2688891D01*
X5433891Y-2688891D01*
D11*
X5450000Y-2745000D02*
X5450000Y-2555000D01*
X5340000Y-2745000D02*
X5340000Y-2555000D01*
X5450000Y-2555000D02*
G75*
G03*
X5340000Y-2555000I-55000J0D01*
G01*
X5340000Y-2745000D02*
G75*
G03*
X5450000Y-2745000I55000J0D01*
G01*
D14*
X5433891Y-4688891D02*
X5433891Y-4611109D01*
X5356109Y-4611109D01*
X5356109Y-4688891D01*
X5433891Y-4688891D01*
D11*
X5450000Y-4745000D02*
X5450000Y-4555000D01*
X5340000Y-4745000D02*
X5340000Y-4555000D01*
X5450000Y-4555000D02*
G75*
G03*
X5340000Y-4555000I-55000J0D01*
G01*
X5340000Y-4745000D02*
G75*
G03*
X5450000Y-4745000I55000J0D01*
G01*
D14*
X5433891Y-6688891D02*
X5433891Y-6611109D01*
X5356109Y-6611109D01*
X5356109Y-6688891D01*
X5433891Y-6688891D01*
D11*
X5450000Y-6745000D02*
X5450000Y-6555000D01*
X5340000Y-6745000D02*
X5340000Y-6555000D01*
X5450000Y-6555000D02*
G75*
G03*
X5340000Y-6555000I-55000J0D01*
G01*
X5340000Y-6745000D02*
G75*
G03*
X5450000Y-6745000I55000J0D01*
G01*
D14*
X5433891Y-8688891D02*
X5433891Y-8611109D01*
X5356109Y-8611109D01*
X5356109Y-8688891D01*
X5433891Y-8688891D01*
D11*
X5450000Y-8745000D02*
X5450000Y-8555000D01*
X5340000Y-8745000D02*
X5340000Y-8555000D01*
X5450000Y-8555000D02*
G75*
G03*
X5340000Y-8555000I-55000J0D01*
G01*
X5340000Y-8745000D02*
G75*
G03*
X5450000Y-8745000I55000J0D01*
G01*
D14*
X6308891Y-688891D02*
X6308891Y-611109D01*
X6231109Y-611109D01*
X6231109Y-688891D01*
X6308891Y-688891D01*
D11*
X6325000Y-745000D02*
X6325000Y-555000D01*
X6215000Y-745000D02*
X6215000Y-555000D01*
X6325000Y-555000D02*
G75*
G03*
X6215000Y-555000I-55000J0D01*
G01*
X6215000Y-745000D02*
G75*
G03*
X6325000Y-745000I55000J0D01*
G01*
D14*
X6308891Y-2688891D02*
X6308891Y-2611109D01*
X6231109Y-2611109D01*
X6231109Y-2688891D01*
X6308891Y-2688891D01*
D11*
X6325000Y-2745000D02*
X6325000Y-2555000D01*
X6215000Y-2745000D02*
X6215000Y-2555000D01*
X6325000Y-2555000D02*
G75*
G03*
X6215000Y-2555000I-55000J0D01*
G01*
X6215000Y-2745000D02*
G75*
G03*
X6325000Y-2745000I55000J0D01*
G01*
D14*
X6308891Y-4688891D02*
X6308891Y-4611109D01*
X6231109Y-4611109D01*
X6231109Y-4688891D01*
X6308891Y-4688891D01*
D11*
X6325000Y-4745000D02*
X6325000Y-4555000D01*
X6215000Y-4745000D02*
X6215000Y-4555000D01*
X6325000Y-4555000D02*
G75*
G03*
X6215000Y-4555000I-55000J0D01*
G01*
X6215000Y-4745000D02*
G75*
G03*
X6325000Y-4745000I55000J0D01*
G01*
D14*
X6308891Y-6688891D02*
X6308891Y-6611109D01*
X6231109Y-6611109D01*
X6231109Y-6688891D01*
X6308891Y-6688891D01*
D11*
X6325000Y-6745000D02*
X6325000Y-6555000D01*
X6215000Y-6745000D02*
X6215000Y-6555000D01*
X6325000Y-6555000D02*
G75*
G03*
X6215000Y-6555000I-55000J0D01*
G01*
X6215000Y-6745000D02*
G75*
G03*
X6325000Y-6745000I55000J0D01*
G01*
D14*
X6308891Y-8688891D02*
X6308891Y-8611109D01*
X6231109Y-8611109D01*
X6231109Y-8688891D01*
X6308891Y-8688891D01*
D11*
X6325000Y-8745000D02*
X6325000Y-8555000D01*
X6215000Y-8745000D02*
X6215000Y-8555000D01*
X6325000Y-8555000D02*
G75*
G03*
X6215000Y-8555000I-55000J0D01*
G01*
X6215000Y-8745000D02*
G75*
G03*
X6325000Y-8745000I55000J0D01*
G01*
D14*
X6341872Y-217008D02*
X6341872Y-139225D01*
X6264090Y-139225D01*
X6264090Y-217008D01*
X6341872Y-217008D01*
X6341872Y-2217008D02*
X6341872Y-2139225D01*
X6264090Y-2139225D01*
X6264090Y-2217008D01*
X6341872Y-2217008D01*
X6341872Y-4217008D02*
X6341872Y-4139225D01*
X6264090Y-4139225D01*
X6264090Y-4217008D01*
X6341872Y-4217008D01*
X6341872Y-6217008D02*
X6341872Y-6139225D01*
X6264090Y-6139225D01*
X6264090Y-6217008D01*
X6341872Y-6217008D01*
X6341872Y-8217008D02*
X6341872Y-8139225D01*
X6264090Y-8139225D01*
X6264090Y-8217008D01*
X6341872Y-8217008D01*
X6488891Y-3738891D02*
X6488891Y-3661109D01*
X6411109Y-3661109D01*
X6411109Y-3738891D01*
X6488891Y-3738891D01*
X6488891Y-5738891D02*
X6488891Y-5661109D01*
X6411109Y-5661109D01*
X6411109Y-5738891D01*
X6488891Y-5738891D01*
X6488891Y-7738891D02*
X6488891Y-7661109D01*
X6411109Y-7661109D01*
X6411109Y-7738891D01*
X6488891Y-7738891D01*
X6488891Y-9738891D02*
X6488891Y-9661109D01*
X6411109Y-9661109D01*
X6411109Y-9738891D01*
X6488891Y-9738891D01*
X6548189Y-434800D02*
X6548189Y-357018D01*
X6470406Y-357018D01*
X6470406Y-434800D01*
X6548189Y-434800D01*
X6548189Y-2434800D02*
X6548189Y-2357018D01*
X6470406Y-2357018D01*
X6470406Y-2434800D01*
X6548189Y-2434800D01*
X6548189Y-4434800D02*
X6548189Y-4357018D01*
X6470406Y-4357018D01*
X6470406Y-4434800D01*
X6548189Y-4434800D01*
X6548189Y-6434800D02*
X6548189Y-6357018D01*
X6470406Y-6357018D01*
X6470406Y-6434800D01*
X6548189Y-6434800D01*
X6548189Y-8434800D02*
X6548189Y-8357018D01*
X6470406Y-8357018D01*
X6470406Y-8434800D01*
X6548189Y-8434800D01*
X6788891Y-434891D02*
X6788891Y-357109D01*
X6711109Y-357109D01*
X6711109Y-434891D01*
X6788891Y-434891D01*
X6788891Y-688891D02*
X6788891Y-611109D01*
X6711109Y-611109D01*
X6711109Y-688891D01*
X6788891Y-688891D01*
X6788891Y-942891D02*
X6788891Y-865109D01*
X6711109Y-865109D01*
X6711109Y-942891D01*
X6788891Y-942891D01*
X6788891Y-2434891D02*
X6788891Y-2357109D01*
X6711109Y-2357109D01*
X6711109Y-2434891D01*
X6788891Y-2434891D01*
X6788891Y-2688891D02*
X6788891Y-2611109D01*
X6711109Y-2611109D01*
X6711109Y-2688891D01*
X6788891Y-2688891D01*
X6788891Y-2942891D02*
X6788891Y-2865109D01*
X6711109Y-2865109D01*
X6711109Y-2942891D01*
X6788891Y-2942891D01*
X6788891Y-3738891D02*
X6788891Y-3661109D01*
X6711109Y-3661109D01*
X6711109Y-3738891D01*
X6788891Y-3738891D01*
X6788891Y-4434891D02*
X6788891Y-4357109D01*
X6711109Y-4357109D01*
X6711109Y-4434891D01*
X6788891Y-4434891D01*
X6788891Y-4688891D02*
X6788891Y-4611109D01*
X6711109Y-4611109D01*
X6711109Y-4688891D01*
X6788891Y-4688891D01*
X6788891Y-4942891D02*
X6788891Y-4865109D01*
X6711109Y-4865109D01*
X6711109Y-4942891D01*
X6788891Y-4942891D01*
X6788891Y-5738891D02*
X6788891Y-5661109D01*
X6711109Y-5661109D01*
X6711109Y-5738891D01*
X6788891Y-5738891D01*
X6788891Y-6434891D02*
X6788891Y-6357109D01*
X6711109Y-6357109D01*
X6711109Y-6434891D01*
X6788891Y-6434891D01*
X6788891Y-6688891D02*
X6788891Y-6611109D01*
X6711109Y-6611109D01*
X6711109Y-6688891D01*
X6788891Y-6688891D01*
X6788891Y-6942891D02*
X6788891Y-6865109D01*
X6711109Y-6865109D01*
X6711109Y-6942891D01*
X6788891Y-6942891D01*
X6788891Y-7738891D02*
X6788891Y-7661109D01*
X6711109Y-7661109D01*
X6711109Y-7738891D01*
X6788891Y-7738891D01*
X6788891Y-8434891D02*
X6788891Y-8357109D01*
X6711109Y-8357109D01*
X6711109Y-8434891D01*
X6788891Y-8434891D01*
X6788891Y-8688891D02*
X6788891Y-8611109D01*
X6711109Y-8611109D01*
X6711109Y-8688891D01*
X6788891Y-8688891D01*
X6788891Y-8942891D02*
X6788891Y-8865109D01*
X6711109Y-8865109D01*
X6711109Y-8942891D01*
X6788891Y-8942891D01*
X6788891Y-9738891D02*
X6788891Y-9661109D01*
X6711109Y-9661109D01*
X6711109Y-9738891D01*
X6788891Y-9738891D01*
X7088891Y-3738891D02*
X7088891Y-3661109D01*
X7011109Y-3661109D01*
X7011109Y-3738891D01*
X7088891Y-3738891D01*
X7088891Y-5738891D02*
X7088891Y-5661109D01*
X7011109Y-5661109D01*
X7011109Y-5738891D01*
X7088891Y-5738891D01*
X7088891Y-7738891D02*
X7088891Y-7661109D01*
X7011109Y-7661109D01*
X7011109Y-7738891D01*
X7088891Y-7738891D01*
X7088891Y-9738891D02*
X7088891Y-9661109D01*
X7011109Y-9661109D01*
X7011109Y-9738891D01*
X7088891Y-9738891D01*
X7132752Y-1051879D02*
X7132752Y-974096D01*
X7054969Y-974096D01*
X7054969Y-1051879D01*
X7132752Y-1051879D01*
X7132752Y-3051879D02*
X7132752Y-2974096D01*
X7054969Y-2974096D01*
X7054969Y-3051879D01*
X7132752Y-3051879D01*
X7132752Y-5051879D02*
X7132752Y-4974096D01*
X7054969Y-4974096D01*
X7054969Y-5051879D01*
X7132752Y-5051879D01*
X7132752Y-7051879D02*
X7132752Y-6974096D01*
X7054969Y-6974096D01*
X7054969Y-7051879D01*
X7132752Y-7051879D01*
X7132752Y-9051879D02*
X7132752Y-8974096D01*
X7054969Y-8974096D01*
X7054969Y-9051879D01*
X7132752Y-9051879D01*
X7268891Y-688891D02*
X7268891Y-611109D01*
X7191109Y-611109D01*
X7191109Y-688891D01*
X7268891Y-688891D01*
D11*
X7285000Y-745000D02*
X7285000Y-555000D01*
X7175000Y-745000D02*
X7175000Y-555000D01*
X7285000Y-555000D02*
G75*
G03*
X7175000Y-555000I-55000J0D01*
G01*
X7175000Y-745000D02*
G75*
G03*
X7285000Y-745000I55000J0D01*
G01*
D14*
X7268891Y-2688891D02*
X7268891Y-2611109D01*
X7191109Y-2611109D01*
X7191109Y-2688891D01*
X7268891Y-2688891D01*
D11*
X7285000Y-2745000D02*
X7285000Y-2555000D01*
X7175000Y-2745000D02*
X7175000Y-2555000D01*
X7285000Y-2555000D02*
G75*
G03*
X7175000Y-2555000I-55000J0D01*
G01*
X7175000Y-2745000D02*
G75*
G03*
X7285000Y-2745000I55000J0D01*
G01*
D14*
X7268891Y-4688891D02*
X7268891Y-4611109D01*
X7191109Y-4611109D01*
X7191109Y-4688891D01*
X7268891Y-4688891D01*
D11*
X7285000Y-4745000D02*
X7285000Y-4555000D01*
X7175000Y-4745000D02*
X7175000Y-4555000D01*
X7285000Y-4555000D02*
G75*
G03*
X7175000Y-4555000I-55000J0D01*
G01*
X7175000Y-4745000D02*
G75*
G03*
X7285000Y-4745000I55000J0D01*
G01*
D14*
X7268891Y-6688891D02*
X7268891Y-6611109D01*
X7191109Y-6611109D01*
X7191109Y-6688891D01*
X7268891Y-6688891D01*
D11*
X7285000Y-6745000D02*
X7285000Y-6555000D01*
X7175000Y-6745000D02*
X7175000Y-6555000D01*
X7285000Y-6555000D02*
G75*
G03*
X7175000Y-6555000I-55000J0D01*
G01*
X7175000Y-6745000D02*
G75*
G03*
X7285000Y-6745000I55000J0D01*
G01*
D14*
X7268891Y-8688891D02*
X7268891Y-8611109D01*
X7191109Y-8611109D01*
X7191109Y-8688891D01*
X7268891Y-8688891D01*
D11*
X7285000Y-8745000D02*
X7285000Y-8555000D01*
X7175000Y-8745000D02*
X7175000Y-8555000D01*
X7285000Y-8555000D02*
G75*
G03*
X7175000Y-8555000I-55000J0D01*
G01*
X7175000Y-8745000D02*
G75*
G03*
X7285000Y-8745000I55000J0D01*
G01*
X252619Y-10315476D02*
X252619Y-10115476D01*
X300238Y-10115476D01*
X328810Y-10125000D01*
X347857Y-10144048D01*
X357381Y-10163095D01*
X366905Y-10201190D01*
X366905Y-10229762D01*
X357381Y-10267857D01*
X347857Y-10286905D01*
X328810Y-10305952D01*
X300238Y-10315476D01*
X252619Y-10315476D01*
X452619Y-10315476D02*
X452619Y-10182143D01*
X452619Y-10220238D02*
X462143Y-10201190D01*
X471667Y-10191667D01*
X490714Y-10182143D01*
X509762Y-10182143D01*
X576429Y-10315476D02*
X576429Y-10182143D01*
X576429Y-10115476D02*
X566905Y-10125000D01*
X576429Y-10134524D01*
X585952Y-10125000D01*
X576429Y-10115476D01*
X576429Y-10134524D01*
X700238Y-10315476D02*
X681190Y-10305952D01*
X671667Y-10286905D01*
X671667Y-10115476D01*
X805000Y-10315476D02*
X785952Y-10305952D01*
X776428Y-10286905D01*
X776428Y-10115476D01*
X1033571Y-10315476D02*
X1033571Y-10115476D01*
X1100238Y-10258333D01*
X1166905Y-10115476D01*
X1166905Y-10315476D01*
X1347857Y-10315476D02*
X1347857Y-10210714D01*
X1338333Y-10191667D01*
X1319286Y-10182143D01*
X1281190Y-10182143D01*
X1262143Y-10191667D01*
X1347857Y-10305952D02*
X1328810Y-10315476D01*
X1281190Y-10315476D01*
X1262143Y-10305952D01*
X1252619Y-10286905D01*
X1252619Y-10267857D01*
X1262143Y-10248810D01*
X1281190Y-10239286D01*
X1328810Y-10239286D01*
X1347857Y-10229762D01*
X1443095Y-10182143D02*
X1443095Y-10382143D01*
X1443095Y-10191667D02*
X1462143Y-10182143D01*
X1500238Y-10182143D01*
X1519286Y-10191667D01*
X1528809Y-10201190D01*
X1538333Y-10220238D01*
X1538333Y-10277381D01*
X1528809Y-10296429D01*
X1519286Y-10305952D01*
X1500238Y-10315476D01*
X1462143Y-10315476D01*
X1443095Y-10305952D01*
X1624048Y-10296429D02*
X1633571Y-10305952D01*
X1624048Y-10315476D01*
X1614524Y-10305952D01*
X1624048Y-10296429D01*
X1624048Y-10315476D01*
X1624048Y-10191667D02*
X1633571Y-10201190D01*
X1624048Y-10210714D01*
X1614524Y-10201190D01*
X1624048Y-10191667D01*
X1624048Y-10210714D01*
D12*
X-45000Y-10625000D02*
X-5000Y-10665000D01*
X-5000Y-10625000D02*
X-45000Y-10665000D01*
D11*
X290714Y-10535476D02*
X309762Y-10535476D01*
X328810Y-10545000D01*
X338333Y-10554524D01*
X347857Y-10573571D01*
X357381Y-10611667D01*
X357381Y-10659286D01*
X347857Y-10697381D01*
X338333Y-10716429D01*
X328810Y-10725952D01*
X309762Y-10735476D01*
X290714Y-10735476D01*
X271667Y-10725952D01*
X262143Y-10716429D01*
X252619Y-10697381D01*
X243095Y-10659286D01*
X243095Y-10611667D01*
X252619Y-10573571D01*
X262143Y-10554524D01*
X271667Y-10545000D01*
X290714Y-10535476D01*
X443095Y-10716429D02*
X452619Y-10725952D01*
X443095Y-10735476D01*
X433571Y-10725952D01*
X443095Y-10716429D01*
X443095Y-10735476D01*
X624048Y-10602143D02*
X624048Y-10735476D01*
X576429Y-10525952D02*
X528810Y-10668810D01*
X652619Y-10668810D01*
X766905Y-10535476D02*
X785952Y-10535476D01*
X805000Y-10545000D01*
X814524Y-10554524D01*
X824048Y-10573571D01*
X833571Y-10611667D01*
X833571Y-10659286D01*
X824048Y-10697381D01*
X814524Y-10716429D01*
X805000Y-10725952D01*
X785952Y-10735476D01*
X766905Y-10735476D01*
X747857Y-10725952D01*
X738333Y-10716429D01*
X728809Y-10697381D01*
X719286Y-10659286D01*
X719286Y-10611667D01*
X728809Y-10573571D01*
X738333Y-10554524D01*
X747857Y-10545000D01*
X766905Y-10535476D01*
X957381Y-10535476D02*
X976428Y-10535476D01*
X995476Y-10545000D01*
X1005000Y-10554524D01*
X1014524Y-10573571D01*
X1024048Y-10611667D01*
X1024048Y-10659286D01*
X1014524Y-10697381D01*
X1005000Y-10716429D01*
X995476Y-10725952D01*
X976428Y-10735476D01*
X957381Y-10735476D01*
X938333Y-10725952D01*
X928809Y-10716429D01*
X919286Y-10697381D01*
X909762Y-10659286D01*
X909762Y-10611667D01*
X919286Y-10573571D01*
X928809Y-10554524D01*
X938333Y-10545000D01*
X957381Y-10535476D01*
X1109762Y-10735476D02*
X1109762Y-10602143D01*
X1109762Y-10621190D02*
X1119286Y-10611667D01*
X1138333Y-10602143D01*
X1166905Y-10602143D01*
X1185952Y-10611667D01*
X1195476Y-10630714D01*
X1195476Y-10735476D01*
X1195476Y-10630714D02*
X1205000Y-10611667D01*
X1224048Y-10602143D01*
X1252619Y-10602143D01*
X1271667Y-10611667D01*
X1281190Y-10630714D01*
X1281190Y-10735476D01*
X1376429Y-10735476D02*
X1376429Y-10602143D01*
X1376429Y-10621190D02*
X1385952Y-10611667D01*
X1405000Y-10602143D01*
X1433571Y-10602143D01*
X1452619Y-10611667D01*
X1462143Y-10630714D01*
X1462143Y-10735476D01*
X1462143Y-10630714D02*
X1471667Y-10611667D01*
X1490714Y-10602143D01*
X1519286Y-10602143D01*
X1538333Y-10611667D01*
X1547857Y-10630714D01*
X1547857Y-10735476D01*
X1938333Y-10525952D02*
X1766905Y-10783095D01*
X2195476Y-10535476D02*
X2214524Y-10535476D01*
X2233571Y-10545000D01*
X2243095Y-10554524D01*
X2252619Y-10573571D01*
X2262143Y-10611667D01*
X2262143Y-10659286D01*
X2252619Y-10697381D01*
X2243095Y-10716429D01*
X2233571Y-10725952D01*
X2214524Y-10735476D01*
X2195476Y-10735476D01*
X2176429Y-10725952D01*
X2166905Y-10716429D01*
X2157381Y-10697381D01*
X2147857Y-10659286D01*
X2147857Y-10611667D01*
X2157381Y-10573571D01*
X2166905Y-10554524D01*
X2176429Y-10545000D01*
X2195476Y-10535476D01*
X2347857Y-10716429D02*
X2357381Y-10725952D01*
X2347857Y-10735476D01*
X2338333Y-10725952D01*
X2347857Y-10716429D01*
X2347857Y-10735476D01*
X2481190Y-10535476D02*
X2500238Y-10535476D01*
X2519286Y-10545000D01*
X2528810Y-10554524D01*
X2538333Y-10573571D01*
X2547857Y-10611667D01*
X2547857Y-10659286D01*
X2538333Y-10697381D01*
X2528810Y-10716429D01*
X2519286Y-10725952D01*
X2500238Y-10735476D01*
X2481190Y-10735476D01*
X2462143Y-10725952D01*
X2452619Y-10716429D01*
X2443095Y-10697381D01*
X2433571Y-10659286D01*
X2433571Y-10611667D01*
X2443095Y-10573571D01*
X2452619Y-10554524D01*
X2462143Y-10545000D01*
X2481190Y-10535476D01*
X2738333Y-10735476D02*
X2624048Y-10735476D01*
X2681190Y-10735476D02*
X2681190Y-10535476D01*
X2662143Y-10564048D01*
X2643095Y-10583095D01*
X2624048Y-10592619D01*
X2919286Y-10535476D02*
X2824048Y-10535476D01*
X2814524Y-10630714D01*
X2824048Y-10621190D01*
X2843095Y-10611667D01*
X2890714Y-10611667D01*
X2909762Y-10621190D01*
X2919286Y-10630714D01*
X2928809Y-10649762D01*
X2928809Y-10697381D01*
X2919286Y-10716429D01*
X2909762Y-10725952D01*
X2890714Y-10735476D01*
X2843095Y-10735476D01*
X2824048Y-10725952D01*
X2814524Y-10716429D01*
X2995476Y-10535476D02*
X3128809Y-10535476D01*
X3043095Y-10735476D01*
X3195476Y-10535476D02*
X3195476Y-10573571D01*
X3271667Y-10535476D02*
X3271667Y-10573571D01*
X3566905Y-10811667D02*
X3557381Y-10802143D01*
X3538333Y-10773571D01*
X3528809Y-10754524D01*
X3519286Y-10725952D01*
X3509762Y-10678333D01*
X3509762Y-10640238D01*
X3519286Y-10592619D01*
X3528809Y-10564048D01*
X3538333Y-10545000D01*
X3557381Y-10516429D01*
X3566905Y-10506905D01*
X3624048Y-10535476D02*
X3747857Y-10535476D01*
X3681190Y-10611667D01*
X3709762Y-10611667D01*
X3728809Y-10621190D01*
X3738333Y-10630714D01*
X3747857Y-10649762D01*
X3747857Y-10697381D01*
X3738333Y-10716429D01*
X3728809Y-10725952D01*
X3709762Y-10735476D01*
X3652619Y-10735476D01*
X3633571Y-10725952D01*
X3624048Y-10716429D01*
X3985952Y-10735476D02*
X3985952Y-10535476D01*
X4071667Y-10735476D02*
X4071667Y-10630714D01*
X4062143Y-10611667D01*
X4043095Y-10602143D01*
X4014524Y-10602143D01*
X3995476Y-10611667D01*
X3985952Y-10621190D01*
X4195476Y-10735476D02*
X4176428Y-10725952D01*
X4166905Y-10716429D01*
X4157381Y-10697381D01*
X4157381Y-10640238D01*
X4166905Y-10621190D01*
X4176428Y-10611667D01*
X4195476Y-10602143D01*
X4224048Y-10602143D01*
X4243095Y-10611667D01*
X4252619Y-10621190D01*
X4262143Y-10640238D01*
X4262143Y-10697381D01*
X4252619Y-10716429D01*
X4243095Y-10725952D01*
X4224048Y-10735476D01*
X4195476Y-10735476D01*
X4376429Y-10735476D02*
X4357381Y-10725952D01*
X4347857Y-10706905D01*
X4347857Y-10535476D01*
X4528810Y-10725952D02*
X4509762Y-10735476D01*
X4471667Y-10735476D01*
X4452619Y-10725952D01*
X4443095Y-10706905D01*
X4443095Y-10630714D01*
X4452619Y-10611667D01*
X4471667Y-10602143D01*
X4509762Y-10602143D01*
X4528810Y-10611667D01*
X4538333Y-10630714D01*
X4538333Y-10649762D01*
X4443095Y-10668810D01*
X4614524Y-10725952D02*
X4633571Y-10735476D01*
X4671667Y-10735476D01*
X4690714Y-10725952D01*
X4700238Y-10706905D01*
X4700238Y-10697381D01*
X4690714Y-10678333D01*
X4671667Y-10668810D01*
X4643095Y-10668810D01*
X4624048Y-10659286D01*
X4614524Y-10640238D01*
X4614524Y-10630714D01*
X4624048Y-10611667D01*
X4643095Y-10602143D01*
X4671667Y-10602143D01*
X4690714Y-10611667D01*
X4766905Y-10811667D02*
X4776429Y-10802143D01*
X4795476Y-10773571D01*
X4805000Y-10754524D01*
X4814524Y-10725952D01*
X4824048Y-10678333D01*
X4824048Y-10640238D01*
X4814524Y-10592619D01*
X4805000Y-10564048D01*
X4795476Y-10545000D01*
X4776429Y-10516429D01*
X4766905Y-10506905D01*
D13*
X-5000Y-10909000D02*
G75*
G03*
X-5000Y-10909000I-35000J0D01*
G01*
D11*
X290714Y-10799476D02*
X309762Y-10799476D01*
X328810Y-10809000D01*
X338333Y-10818524D01*
X347857Y-10837571D01*
X357381Y-10875667D01*
X357381Y-10923286D01*
X347857Y-10961381D01*
X338333Y-10980429D01*
X328810Y-10989952D01*
X309762Y-10999476D01*
X290714Y-10999476D01*
X271667Y-10989952D01*
X262143Y-10980429D01*
X252619Y-10961381D01*
X243095Y-10923286D01*
X243095Y-10875667D01*
X252619Y-10837571D01*
X262143Y-10818524D01*
X271667Y-10809000D01*
X290714Y-10799476D01*
X443095Y-10980429D02*
X452619Y-10989952D01*
X443095Y-10999476D01*
X433571Y-10989952D01*
X443095Y-10980429D01*
X443095Y-10999476D01*
X519286Y-10799476D02*
X652619Y-10799476D01*
X566905Y-10999476D01*
X766905Y-10799476D02*
X785952Y-10799476D01*
X805000Y-10809000D01*
X814524Y-10818524D01*
X824048Y-10837571D01*
X833571Y-10875667D01*
X833571Y-10923286D01*
X824048Y-10961381D01*
X814524Y-10980429D01*
X805000Y-10989952D01*
X785952Y-10999476D01*
X766905Y-10999476D01*
X747857Y-10989952D01*
X738333Y-10980429D01*
X728809Y-10961381D01*
X719286Y-10923286D01*
X719286Y-10875667D01*
X728809Y-10837571D01*
X738333Y-10818524D01*
X747857Y-10809000D01*
X766905Y-10799476D01*
X957381Y-10799476D02*
X976428Y-10799476D01*
X995476Y-10809000D01*
X1005000Y-10818524D01*
X1014524Y-10837571D01*
X1024048Y-10875667D01*
X1024048Y-10923286D01*
X1014524Y-10961381D01*
X1005000Y-10980429D01*
X995476Y-10989952D01*
X976428Y-10999476D01*
X957381Y-10999476D01*
X938333Y-10989952D01*
X928809Y-10980429D01*
X919286Y-10961381D01*
X909762Y-10923286D01*
X909762Y-10875667D01*
X919286Y-10837571D01*
X928809Y-10818524D01*
X938333Y-10809000D01*
X957381Y-10799476D01*
X1109762Y-10999476D02*
X1109762Y-10866143D01*
X1109762Y-10885190D02*
X1119286Y-10875667D01*
X1138333Y-10866143D01*
X1166905Y-10866143D01*
X1185952Y-10875667D01*
X1195476Y-10894714D01*
X1195476Y-10999476D01*
X1195476Y-10894714D02*
X1205000Y-10875667D01*
X1224048Y-10866143D01*
X1252619Y-10866143D01*
X1271667Y-10875667D01*
X1281190Y-10894714D01*
X1281190Y-10999476D01*
X1376429Y-10999476D02*
X1376429Y-10866143D01*
X1376429Y-10885190D02*
X1385952Y-10875667D01*
X1405000Y-10866143D01*
X1433571Y-10866143D01*
X1452619Y-10875667D01*
X1462143Y-10894714D01*
X1462143Y-10999476D01*
X1462143Y-10894714D02*
X1471667Y-10875667D01*
X1490714Y-10866143D01*
X1519286Y-10866143D01*
X1538333Y-10875667D01*
X1547857Y-10894714D01*
X1547857Y-10999476D01*
X1938333Y-10789952D02*
X1766905Y-11047095D01*
X2195476Y-10799476D02*
X2214524Y-10799476D01*
X2233571Y-10809000D01*
X2243095Y-10818524D01*
X2252619Y-10837571D01*
X2262143Y-10875667D01*
X2262143Y-10923286D01*
X2252619Y-10961381D01*
X2243095Y-10980429D01*
X2233571Y-10989952D01*
X2214524Y-10999476D01*
X2195476Y-10999476D01*
X2176429Y-10989952D01*
X2166905Y-10980429D01*
X2157381Y-10961381D01*
X2147857Y-10923286D01*
X2147857Y-10875667D01*
X2157381Y-10837571D01*
X2166905Y-10818524D01*
X2176429Y-10809000D01*
X2195476Y-10799476D01*
X2347857Y-10980429D02*
X2357381Y-10989952D01*
X2347857Y-10999476D01*
X2338333Y-10989952D01*
X2347857Y-10980429D01*
X2347857Y-10999476D01*
X2481190Y-10799476D02*
X2500238Y-10799476D01*
X2519286Y-10809000D01*
X2528810Y-10818524D01*
X2538333Y-10837571D01*
X2547857Y-10875667D01*
X2547857Y-10923286D01*
X2538333Y-10961381D01*
X2528810Y-10980429D01*
X2519286Y-10989952D01*
X2500238Y-10999476D01*
X2481190Y-10999476D01*
X2462143Y-10989952D01*
X2452619Y-10980429D01*
X2443095Y-10961381D01*
X2433571Y-10923286D01*
X2433571Y-10875667D01*
X2443095Y-10837571D01*
X2452619Y-10818524D01*
X2462143Y-10809000D01*
X2481190Y-10799476D01*
X2624048Y-10818524D02*
X2633571Y-10809000D01*
X2652619Y-10799476D01*
X2700238Y-10799476D01*
X2719286Y-10809000D01*
X2728810Y-10818524D01*
X2738333Y-10837571D01*
X2738333Y-10856619D01*
X2728810Y-10885190D01*
X2614524Y-10999476D01*
X2738333Y-10999476D01*
X2805000Y-10799476D02*
X2938333Y-10799476D01*
X2852619Y-10999476D01*
X3100238Y-10799476D02*
X3062143Y-10799476D01*
X3043095Y-10809000D01*
X3033571Y-10818524D01*
X3014524Y-10847095D01*
X3005000Y-10885190D01*
X3005000Y-10961381D01*
X3014524Y-10980429D01*
X3024048Y-10989952D01*
X3043095Y-10999476D01*
X3081190Y-10999476D01*
X3100238Y-10989952D01*
X3109762Y-10980429D01*
X3119286Y-10961381D01*
X3119286Y-10913762D01*
X3109762Y-10894714D01*
X3100238Y-10885190D01*
X3081190Y-10875667D01*
X3043095Y-10875667D01*
X3024048Y-10885190D01*
X3014524Y-10894714D01*
X3005000Y-10913762D01*
X3195476Y-10799476D02*
X3195476Y-10837571D01*
X3271667Y-10799476D02*
X3271667Y-10837571D01*
X3566905Y-11075667D02*
X3557381Y-11066143D01*
X3538333Y-11037571D01*
X3528809Y-11018524D01*
X3519286Y-10989952D01*
X3509762Y-10942333D01*
X3509762Y-10904238D01*
X3519286Y-10856619D01*
X3528809Y-10828048D01*
X3538333Y-10809000D01*
X3557381Y-10780429D01*
X3566905Y-10770905D01*
X3728809Y-10866143D02*
X3728809Y-10999476D01*
X3681190Y-10789952D02*
X3633571Y-10932810D01*
X3757381Y-10932810D01*
X3871667Y-10799476D02*
X3890714Y-10799476D01*
X3909762Y-10809000D01*
X3919286Y-10818524D01*
X3928809Y-10837571D01*
X3938333Y-10875667D01*
X3938333Y-10923286D01*
X3928809Y-10961381D01*
X3919286Y-10980429D01*
X3909762Y-10989952D01*
X3890714Y-10999476D01*
X3871667Y-10999476D01*
X3852619Y-10989952D01*
X3843095Y-10980429D01*
X3833571Y-10961381D01*
X3824048Y-10923286D01*
X3824048Y-10875667D01*
X3833571Y-10837571D01*
X3843095Y-10818524D01*
X3852619Y-10809000D01*
X3871667Y-10799476D01*
X4176428Y-10999476D02*
X4176428Y-10799476D01*
X4262143Y-10999476D02*
X4262143Y-10894714D01*
X4252619Y-10875667D01*
X4233571Y-10866143D01*
X4205000Y-10866143D01*
X4185952Y-10875667D01*
X4176428Y-10885190D01*
X4385952Y-10999476D02*
X4366905Y-10989952D01*
X4357381Y-10980429D01*
X4347857Y-10961381D01*
X4347857Y-10904238D01*
X4357381Y-10885190D01*
X4366905Y-10875667D01*
X4385952Y-10866143D01*
X4414524Y-10866143D01*
X4433571Y-10875667D01*
X4443095Y-10885190D01*
X4452619Y-10904238D01*
X4452619Y-10961381D01*
X4443095Y-10980429D01*
X4433571Y-10989952D01*
X4414524Y-10999476D01*
X4385952Y-10999476D01*
X4566905Y-10999476D02*
X4547857Y-10989952D01*
X4538333Y-10970905D01*
X4538333Y-10799476D01*
X4719286Y-10989952D02*
X4700238Y-10999476D01*
X4662143Y-10999476D01*
X4643095Y-10989952D01*
X4633571Y-10970905D01*
X4633571Y-10894714D01*
X4643095Y-10875667D01*
X4662143Y-10866143D01*
X4700238Y-10866143D01*
X4719286Y-10875667D01*
X4728810Y-10894714D01*
X4728810Y-10913762D01*
X4633571Y-10932810D01*
X4805000Y-10989952D02*
X4824048Y-10999476D01*
X4862143Y-10999476D01*
X4881190Y-10989952D01*
X4890714Y-10970905D01*
X4890714Y-10961381D01*
X4881190Y-10942333D01*
X4862143Y-10932810D01*
X4833571Y-10932810D01*
X4814524Y-10923286D01*
X4805000Y-10904238D01*
X4805000Y-10894714D01*
X4814524Y-10875667D01*
X4833571Y-10866143D01*
X4862143Y-10866143D01*
X4881190Y-10875667D01*
X4957381Y-11075667D02*
X4966905Y-11066143D01*
X4985952Y-11037571D01*
X4995476Y-11018524D01*
X5005000Y-10989952D01*
X5014524Y-10942333D01*
X5014524Y-10904238D01*
X5005000Y-10856619D01*
X4995476Y-10828048D01*
X4985952Y-10809000D01*
X4966905Y-10780429D01*
X4957381Y-10770905D01*
D10*
X-55000Y-11123000D02*
X-55000Y-11223000D01*
X-105000Y-11173000D02*
X-5000Y-11173000D01*
D11*
X357381Y-11263476D02*
X243095Y-11263476D01*
X300238Y-11263476D02*
X300238Y-11063476D01*
X281190Y-11092048D01*
X262143Y-11111095D01*
X243095Y-11120619D01*
X443095Y-11244428D02*
X452619Y-11253952D01*
X443095Y-11263476D01*
X433571Y-11253952D01*
X443095Y-11244428D01*
X443095Y-11263476D01*
X576429Y-11063476D02*
X595476Y-11063476D01*
X614524Y-11073000D01*
X624048Y-11082524D01*
X633571Y-11101571D01*
X643095Y-11139667D01*
X643095Y-11187286D01*
X633571Y-11225381D01*
X624048Y-11244428D01*
X614524Y-11253952D01*
X595476Y-11263476D01*
X576429Y-11263476D01*
X557381Y-11253952D01*
X547857Y-11244428D01*
X538333Y-11225381D01*
X528810Y-11187286D01*
X528810Y-11139667D01*
X538333Y-11101571D01*
X547857Y-11082524D01*
X557381Y-11073000D01*
X576429Y-11063476D01*
X766905Y-11063476D02*
X785952Y-11063476D01*
X805000Y-11073000D01*
X814524Y-11082524D01*
X824048Y-11101571D01*
X833571Y-11139667D01*
X833571Y-11187286D01*
X824048Y-11225381D01*
X814524Y-11244428D01*
X805000Y-11253952D01*
X785952Y-11263476D01*
X766905Y-11263476D01*
X747857Y-11253952D01*
X738333Y-11244428D01*
X728809Y-11225381D01*
X719286Y-11187286D01*
X719286Y-11139667D01*
X728809Y-11101571D01*
X738333Y-11082524D01*
X747857Y-11073000D01*
X766905Y-11063476D01*
X957381Y-11063476D02*
X976428Y-11063476D01*
X995476Y-11073000D01*
X1005000Y-11082524D01*
X1014524Y-11101571D01*
X1024048Y-11139667D01*
X1024048Y-11187286D01*
X1014524Y-11225381D01*
X1005000Y-11244428D01*
X995476Y-11253952D01*
X976428Y-11263476D01*
X957381Y-11263476D01*
X938333Y-11253952D01*
X928809Y-11244428D01*
X919286Y-11225381D01*
X909762Y-11187286D01*
X909762Y-11139667D01*
X919286Y-11101571D01*
X928809Y-11082524D01*
X938333Y-11073000D01*
X957381Y-11063476D01*
X1109762Y-11263476D02*
X1109762Y-11130143D01*
X1109762Y-11149190D02*
X1119286Y-11139667D01*
X1138333Y-11130143D01*
X1166905Y-11130143D01*
X1185952Y-11139667D01*
X1195476Y-11158714D01*
X1195476Y-11263476D01*
X1195476Y-11158714D02*
X1205000Y-11139667D01*
X1224048Y-11130143D01*
X1252619Y-11130143D01*
X1271667Y-11139667D01*
X1281190Y-11158714D01*
X1281190Y-11263476D01*
X1376429Y-11263476D02*
X1376429Y-11130143D01*
X1376429Y-11149190D02*
X1385952Y-11139667D01*
X1405000Y-11130143D01*
X1433571Y-11130143D01*
X1452619Y-11139667D01*
X1462143Y-11158714D01*
X1462143Y-11263476D01*
X1462143Y-11158714D02*
X1471667Y-11139667D01*
X1490714Y-11130143D01*
X1519286Y-11130143D01*
X1538333Y-11139667D01*
X1547857Y-11158714D01*
X1547857Y-11263476D01*
X1938333Y-11053952D02*
X1766905Y-11311095D01*
X2195476Y-11063476D02*
X2214524Y-11063476D01*
X2233571Y-11073000D01*
X2243095Y-11082524D01*
X2252619Y-11101571D01*
X2262143Y-11139667D01*
X2262143Y-11187286D01*
X2252619Y-11225381D01*
X2243095Y-11244428D01*
X2233571Y-11253952D01*
X2214524Y-11263476D01*
X2195476Y-11263476D01*
X2176429Y-11253952D01*
X2166905Y-11244428D01*
X2157381Y-11225381D01*
X2147857Y-11187286D01*
X2147857Y-11139667D01*
X2157381Y-11101571D01*
X2166905Y-11082524D01*
X2176429Y-11073000D01*
X2195476Y-11063476D01*
X2347857Y-11244428D02*
X2357381Y-11253952D01*
X2347857Y-11263476D01*
X2338333Y-11253952D01*
X2347857Y-11244428D01*
X2347857Y-11263476D01*
X2481190Y-11063476D02*
X2500238Y-11063476D01*
X2519286Y-11073000D01*
X2528810Y-11082524D01*
X2538333Y-11101571D01*
X2547857Y-11139667D01*
X2547857Y-11187286D01*
X2538333Y-11225381D01*
X2528810Y-11244428D01*
X2519286Y-11253952D01*
X2500238Y-11263476D01*
X2481190Y-11263476D01*
X2462143Y-11253952D01*
X2452619Y-11244428D01*
X2443095Y-11225381D01*
X2433571Y-11187286D01*
X2433571Y-11139667D01*
X2443095Y-11101571D01*
X2452619Y-11082524D01*
X2462143Y-11073000D01*
X2481190Y-11063476D01*
X2614524Y-11063476D02*
X2738333Y-11063476D01*
X2671667Y-11139667D01*
X2700238Y-11139667D01*
X2719286Y-11149190D01*
X2728810Y-11158714D01*
X2738333Y-11177762D01*
X2738333Y-11225381D01*
X2728810Y-11244428D01*
X2719286Y-11253952D01*
X2700238Y-11263476D01*
X2643095Y-11263476D01*
X2624048Y-11253952D01*
X2614524Y-11244428D01*
X2833571Y-11263476D02*
X2871667Y-11263476D01*
X2890714Y-11253952D01*
X2900238Y-11244428D01*
X2919286Y-11215857D01*
X2928809Y-11177762D01*
X2928809Y-11101571D01*
X2919286Y-11082524D01*
X2909762Y-11073000D01*
X2890714Y-11063476D01*
X2852619Y-11063476D01*
X2833571Y-11073000D01*
X2824048Y-11082524D01*
X2814524Y-11101571D01*
X2814524Y-11149190D01*
X2824048Y-11168238D01*
X2833571Y-11177762D01*
X2852619Y-11187286D01*
X2890714Y-11187286D01*
X2909762Y-11177762D01*
X2919286Y-11168238D01*
X2928809Y-11149190D01*
X3100238Y-11130143D02*
X3100238Y-11263476D01*
X3052619Y-11053952D02*
X3005000Y-11196809D01*
X3128809Y-11196809D01*
X3195476Y-11063476D02*
X3195476Y-11101571D01*
X3271667Y-11063476D02*
X3271667Y-11101571D01*
X3566905Y-11339667D02*
X3557381Y-11330143D01*
X3538333Y-11301571D01*
X3528809Y-11282524D01*
X3519286Y-11253952D01*
X3509762Y-11206333D01*
X3509762Y-11168238D01*
X3519286Y-11120619D01*
X3528809Y-11092048D01*
X3538333Y-11073000D01*
X3557381Y-11044429D01*
X3566905Y-11034905D01*
X3747857Y-11263476D02*
X3633571Y-11263476D01*
X3690714Y-11263476D02*
X3690714Y-11063476D01*
X3671667Y-11092048D01*
X3652619Y-11111095D01*
X3633571Y-11120619D01*
X3824048Y-11082524D02*
X3833571Y-11073000D01*
X3852619Y-11063476D01*
X3900238Y-11063476D01*
X3919286Y-11073000D01*
X3928809Y-11082524D01*
X3938333Y-11101571D01*
X3938333Y-11120619D01*
X3928809Y-11149190D01*
X3814524Y-11263476D01*
X3938333Y-11263476D01*
X4005000Y-11063476D02*
X4138333Y-11063476D01*
X4052619Y-11263476D01*
X4366905Y-11263476D02*
X4366905Y-11063476D01*
X4452619Y-11263476D02*
X4452619Y-11158714D01*
X4443095Y-11139667D01*
X4424048Y-11130143D01*
X4395476Y-11130143D01*
X4376429Y-11139667D01*
X4366905Y-11149190D01*
X4576429Y-11263476D02*
X4557381Y-11253952D01*
X4547857Y-11244428D01*
X4538333Y-11225381D01*
X4538333Y-11168238D01*
X4547857Y-11149190D01*
X4557381Y-11139667D01*
X4576429Y-11130143D01*
X4605000Y-11130143D01*
X4624048Y-11139667D01*
X4633571Y-11149190D01*
X4643095Y-11168238D01*
X4643095Y-11225381D01*
X4633571Y-11244428D01*
X4624048Y-11253952D01*
X4605000Y-11263476D01*
X4576429Y-11263476D01*
X4757381Y-11263476D02*
X4738333Y-11253952D01*
X4728810Y-11234905D01*
X4728810Y-11063476D01*
X4909762Y-11253952D02*
X4890714Y-11263476D01*
X4852619Y-11263476D01*
X4833571Y-11253952D01*
X4824048Y-11234905D01*
X4824048Y-11158714D01*
X4833571Y-11139667D01*
X4852619Y-11130143D01*
X4890714Y-11130143D01*
X4909762Y-11139667D01*
X4919286Y-11158714D01*
X4919286Y-11177762D01*
X4824048Y-11196809D01*
X4995476Y-11253952D02*
X5014524Y-11263476D01*
X5052619Y-11263476D01*
X5071667Y-11253952D01*
X5081190Y-11234905D01*
X5081190Y-11225381D01*
X5071667Y-11206333D01*
X5052619Y-11196809D01*
X5024048Y-11196809D01*
X5005000Y-11187286D01*
X4995476Y-11168238D01*
X4995476Y-11158714D01*
X5005000Y-11139667D01*
X5024048Y-11130143D01*
X5052619Y-11130143D01*
X5071667Y-11139667D01*
X5147857Y-11339667D02*
X5157381Y-11330143D01*
X5176429Y-11301571D01*
X5185952Y-11282524D01*
X5195476Y-11253952D01*
X5205000Y-11206333D01*
X5205000Y-11168238D01*
X5195476Y-11120619D01*
X5185952Y-11092048D01*
X5176429Y-11073000D01*
X5157381Y-11044429D01*
X5147857Y-11034905D01*
D14*
X-21109Y-11475891D02*
X-21109Y-11398109D01*
X-98891Y-11398109D01*
X-98891Y-11475891D01*
X-21109Y-11475891D01*
D11*
X357381Y-11527476D02*
X243095Y-11527476D01*
X300238Y-11527476D02*
X300238Y-11327476D01*
X281190Y-11356048D01*
X262143Y-11375095D01*
X243095Y-11384619D01*
X443095Y-11508428D02*
X452619Y-11517952D01*
X443095Y-11527476D01*
X433571Y-11517952D01*
X443095Y-11508428D01*
X443095Y-11527476D01*
X643095Y-11527476D02*
X528810Y-11527476D01*
X585952Y-11527476D02*
X585952Y-11327476D01*
X566905Y-11356048D01*
X547857Y-11375095D01*
X528810Y-11384619D01*
X766905Y-11327476D02*
X785952Y-11327476D01*
X805000Y-11337000D01*
X814524Y-11346524D01*
X824048Y-11365571D01*
X833571Y-11403667D01*
X833571Y-11451286D01*
X824048Y-11489381D01*
X814524Y-11508428D01*
X805000Y-11517952D01*
X785952Y-11527476D01*
X766905Y-11527476D01*
X747857Y-11517952D01*
X738333Y-11508428D01*
X728809Y-11489381D01*
X719286Y-11451286D01*
X719286Y-11403667D01*
X728809Y-11365571D01*
X738333Y-11346524D01*
X747857Y-11337000D01*
X766905Y-11327476D01*
X957381Y-11327476D02*
X976428Y-11327476D01*
X995476Y-11337000D01*
X1005000Y-11346524D01*
X1014524Y-11365571D01*
X1024048Y-11403667D01*
X1024048Y-11451286D01*
X1014524Y-11489381D01*
X1005000Y-11508428D01*
X995476Y-11517952D01*
X976428Y-11527476D01*
X957381Y-11527476D01*
X938333Y-11517952D01*
X928809Y-11508428D01*
X919286Y-11489381D01*
X909762Y-11451286D01*
X909762Y-11403667D01*
X919286Y-11365571D01*
X928809Y-11346524D01*
X938333Y-11337000D01*
X957381Y-11327476D01*
X1109762Y-11527476D02*
X1109762Y-11394143D01*
X1109762Y-11413190D02*
X1119286Y-11403667D01*
X1138333Y-11394143D01*
X1166905Y-11394143D01*
X1185952Y-11403667D01*
X1195476Y-11422714D01*
X1195476Y-11527476D01*
X1195476Y-11422714D02*
X1205000Y-11403667D01*
X1224048Y-11394143D01*
X1252619Y-11394143D01*
X1271667Y-11403667D01*
X1281190Y-11422714D01*
X1281190Y-11527476D01*
X1376429Y-11527476D02*
X1376429Y-11394143D01*
X1376429Y-11413190D02*
X1385952Y-11403667D01*
X1405000Y-11394143D01*
X1433571Y-11394143D01*
X1452619Y-11403667D01*
X1462143Y-11422714D01*
X1462143Y-11527476D01*
X1462143Y-11422714D02*
X1471667Y-11403667D01*
X1490714Y-11394143D01*
X1519286Y-11394143D01*
X1538333Y-11403667D01*
X1547857Y-11422714D01*
X1547857Y-11527476D01*
X1938333Y-11317952D02*
X1766905Y-11575095D01*
X2195476Y-11327476D02*
X2214524Y-11327476D01*
X2233571Y-11337000D01*
X2243095Y-11346524D01*
X2252619Y-11365571D01*
X2262143Y-11403667D01*
X2262143Y-11451286D01*
X2252619Y-11489381D01*
X2243095Y-11508428D01*
X2233571Y-11517952D01*
X2214524Y-11527476D01*
X2195476Y-11527476D01*
X2176429Y-11517952D01*
X2166905Y-11508428D01*
X2157381Y-11489381D01*
X2147857Y-11451286D01*
X2147857Y-11403667D01*
X2157381Y-11365571D01*
X2166905Y-11346524D01*
X2176429Y-11337000D01*
X2195476Y-11327476D01*
X2347857Y-11508428D02*
X2357381Y-11517952D01*
X2347857Y-11527476D01*
X2338333Y-11517952D01*
X2347857Y-11508428D01*
X2347857Y-11527476D01*
X2481190Y-11327476D02*
X2500238Y-11327476D01*
X2519286Y-11337000D01*
X2528810Y-11346524D01*
X2538333Y-11365571D01*
X2547857Y-11403667D01*
X2547857Y-11451286D01*
X2538333Y-11489381D01*
X2528810Y-11508428D01*
X2519286Y-11517952D01*
X2500238Y-11527476D01*
X2481190Y-11527476D01*
X2462143Y-11517952D01*
X2452619Y-11508428D01*
X2443095Y-11489381D01*
X2433571Y-11451286D01*
X2433571Y-11403667D01*
X2443095Y-11365571D01*
X2452619Y-11346524D01*
X2462143Y-11337000D01*
X2481190Y-11327476D01*
X2719286Y-11394143D02*
X2719286Y-11527476D01*
X2671667Y-11317952D02*
X2624048Y-11460809D01*
X2747857Y-11460809D01*
X2805000Y-11327476D02*
X2928809Y-11327476D01*
X2862143Y-11403667D01*
X2890714Y-11403667D01*
X2909762Y-11413190D01*
X2919286Y-11422714D01*
X2928809Y-11441762D01*
X2928809Y-11489381D01*
X2919286Y-11508428D01*
X2909762Y-11517952D01*
X2890714Y-11527476D01*
X2833571Y-11527476D01*
X2814524Y-11517952D01*
X2805000Y-11508428D01*
X2995476Y-11327476D02*
X3119286Y-11327476D01*
X3052619Y-11403667D01*
X3081190Y-11403667D01*
X3100238Y-11413190D01*
X3109762Y-11422714D01*
X3119286Y-11441762D01*
X3119286Y-11489381D01*
X3109762Y-11508428D01*
X3100238Y-11517952D01*
X3081190Y-11527476D01*
X3024048Y-11527476D01*
X3005000Y-11517952D01*
X2995476Y-11508428D01*
X3195476Y-11327476D02*
X3195476Y-11365571D01*
X3271667Y-11327476D02*
X3271667Y-11365571D01*
X3566905Y-11603667D02*
X3557381Y-11594143D01*
X3538333Y-11565571D01*
X3528809Y-11546524D01*
X3519286Y-11517952D01*
X3509762Y-11470333D01*
X3509762Y-11432238D01*
X3519286Y-11384619D01*
X3528809Y-11356048D01*
X3538333Y-11337000D01*
X3557381Y-11308428D01*
X3566905Y-11298905D01*
X3747857Y-11527476D02*
X3633571Y-11527476D01*
X3690714Y-11527476D02*
X3690714Y-11327476D01*
X3671667Y-11356048D01*
X3652619Y-11375095D01*
X3633571Y-11384619D01*
X3814524Y-11327476D02*
X3947857Y-11327476D01*
X3862143Y-11527476D01*
X4005000Y-11327476D02*
X4138333Y-11327476D01*
X4052619Y-11527476D01*
X4366905Y-11527476D02*
X4366905Y-11327476D01*
X4452619Y-11527476D02*
X4452619Y-11422714D01*
X4443095Y-11403667D01*
X4424048Y-11394143D01*
X4395476Y-11394143D01*
X4376429Y-11403667D01*
X4366905Y-11413190D01*
X4576429Y-11527476D02*
X4557381Y-11517952D01*
X4547857Y-11508428D01*
X4538333Y-11489381D01*
X4538333Y-11432238D01*
X4547857Y-11413190D01*
X4557381Y-11403667D01*
X4576429Y-11394143D01*
X4605000Y-11394143D01*
X4624048Y-11403667D01*
X4633571Y-11413190D01*
X4643095Y-11432238D01*
X4643095Y-11489381D01*
X4633571Y-11508428D01*
X4624048Y-11517952D01*
X4605000Y-11527476D01*
X4576429Y-11527476D01*
X4757381Y-11527476D02*
X4738333Y-11517952D01*
X4728810Y-11498905D01*
X4728810Y-11327476D01*
X4909762Y-11517952D02*
X4890714Y-11527476D01*
X4852619Y-11527476D01*
X4833571Y-11517952D01*
X4824048Y-11498905D01*
X4824048Y-11422714D01*
X4833571Y-11403667D01*
X4852619Y-11394143D01*
X4890714Y-11394143D01*
X4909762Y-11403667D01*
X4919286Y-11422714D01*
X4919286Y-11441762D01*
X4824048Y-11460809D01*
X4995476Y-11517952D02*
X5014524Y-11527476D01*
X5052619Y-11527476D01*
X5071667Y-11517952D01*
X5081190Y-11498905D01*
X5081190Y-11489381D01*
X5071667Y-11470333D01*
X5052619Y-11460809D01*
X5024048Y-11460809D01*
X5005000Y-11451286D01*
X4995476Y-11432238D01*
X4995476Y-11422714D01*
X5005000Y-11403667D01*
X5024048Y-11394143D01*
X5052619Y-11394143D01*
X5071667Y-11403667D01*
X5319286Y-11451286D02*
X5471667Y-11451286D01*
X5395476Y-11527476D02*
X5395476Y-11375095D01*
X5805000Y-11394143D02*
X5805000Y-11527476D01*
X5757381Y-11317952D02*
X5709762Y-11460809D01*
X5833571Y-11460809D01*
X5947857Y-11327476D02*
X5966905Y-11327476D01*
X5985952Y-11337000D01*
X5995476Y-11346524D01*
X6005000Y-11365571D01*
X6014524Y-11403667D01*
X6014524Y-11451286D01*
X6005000Y-11489381D01*
X5995476Y-11508428D01*
X5985952Y-11517952D01*
X5966905Y-11527476D01*
X5947857Y-11527476D01*
X5928809Y-11517952D01*
X5919286Y-11508428D01*
X5909762Y-11489381D01*
X5900238Y-11451286D01*
X5900238Y-11403667D01*
X5909762Y-11365571D01*
X5919286Y-11346524D01*
X5928809Y-11337000D01*
X5947857Y-11327476D01*
X6243095Y-11517952D02*
X6262143Y-11527476D01*
X6300238Y-11527476D01*
X6319286Y-11517952D01*
X6328809Y-11498905D01*
X6328809Y-11489381D01*
X6319286Y-11470333D01*
X6300238Y-11460809D01*
X6271667Y-11460809D01*
X6252619Y-11451286D01*
X6243095Y-11432238D01*
X6243095Y-11422714D01*
X6252619Y-11403667D01*
X6271667Y-11394143D01*
X6300238Y-11394143D01*
X6319286Y-11403667D01*
X6443095Y-11527476D02*
X6424048Y-11517952D01*
X6414524Y-11498905D01*
X6414524Y-11327476D01*
X6547857Y-11527476D02*
X6528809Y-11517952D01*
X6519286Y-11508428D01*
X6509762Y-11489381D01*
X6509762Y-11432238D01*
X6519286Y-11413190D01*
X6528809Y-11403667D01*
X6547857Y-11394143D01*
X6576428Y-11394143D01*
X6595476Y-11403667D01*
X6605000Y-11413190D01*
X6614524Y-11432238D01*
X6614524Y-11489381D01*
X6605000Y-11508428D01*
X6595476Y-11517952D01*
X6576428Y-11527476D01*
X6547857Y-11527476D01*
X6671667Y-11394143D02*
X6747857Y-11394143D01*
X6700238Y-11327476D02*
X6700238Y-11498905D01*
X6709762Y-11517952D01*
X6728809Y-11527476D01*
X6747857Y-11527476D01*
X6805000Y-11517952D02*
X6824048Y-11527476D01*
X6862143Y-11527476D01*
X6881190Y-11517952D01*
X6890714Y-11498905D01*
X6890714Y-11489381D01*
X6881190Y-11470333D01*
X6862143Y-11460809D01*
X6833571Y-11460809D01*
X6814524Y-11451286D01*
X6805000Y-11432238D01*
X6805000Y-11422714D01*
X6814524Y-11403667D01*
X6833571Y-11394143D01*
X6862143Y-11394143D01*
X6881190Y-11403667D01*
X6957381Y-11603667D02*
X6966905Y-11594143D01*
X6985952Y-11565571D01*
X6995476Y-11546524D01*
X7005000Y-11517952D01*
X7014524Y-11470333D01*
X7014524Y-11432238D01*
X7005000Y-11384619D01*
X6995476Y-11356048D01*
X6985952Y-11337000D01*
X6966905Y-11308428D01*
X6957381Y-11298905D01*
M02*
