G04 #@! TF.GenerationSoftware,KiCad,Pcbnew,(6.0.11-0)*
G04 #@! TF.CreationDate,2023-03-26T21:42:55+01:00*
G04 #@! TF.ProjectId,ioboard,696f626f-6172-4642-9e6b-696361645f70,rev?*
G04 #@! TF.SameCoordinates,Original*
G04 #@! TF.FileFunction,Legend,Bot*
G04 #@! TF.FilePolarity,Positive*
%FSLAX46Y46*%
G04 Gerber Fmt 4.6, Leading zero omitted, Abs format (unit mm)*
G04 Created by KiCad (PCBNEW (6.0.11-0)) date 2023-03-26 21:42:55*
%MOMM*%
%LPD*%
G01*
G04 APERTURE LIST*
%ADD10C,0.120000*%
%ADD11O,2.500000X4.500000*%
%ADD12R,1.800000X1.800000*%
%ADD13C,1.800000*%
%ADD14C,2.000000*%
%ADD15C,1.400000*%
%ADD16O,1.400000X1.400000*%
%ADD17C,1.700000*%
%ADD18O,1.700000X1.700000*%
G04 APERTURE END LIST*
D10*
X3870000Y-92770000D02*
X1210000Y-92770000D01*
X3870000Y-52070000D02*
X3870000Y-92770000D01*
X3870000Y-52070000D02*
X1210000Y-52070000D01*
X1210000Y-52070000D02*
X1210000Y-92770000D01*
X78790000Y-92770000D02*
X76130000Y-92770000D01*
X78780800Y-52019200D02*
X76139200Y-52019200D01*
X78780800Y-52019200D02*
X78790000Y-92770000D01*
X76139200Y-52019200D02*
X76130000Y-92770000D01*
X76139200Y-8839200D02*
X76130000Y-49590000D01*
X78790000Y-49590000D02*
X76130000Y-49590000D01*
X78780800Y-8839200D02*
X78790000Y-49590000D01*
X78780800Y-8839200D02*
X76139200Y-8839200D01*
X3870000Y-8839200D02*
X1210000Y-8839200D01*
X1210000Y-8839200D02*
X1210000Y-49590000D01*
X3870000Y-8839200D02*
X3870000Y-49590000D01*
X3870000Y-49590000D02*
X1210000Y-49590000D01*
%LPC*%
D11*
X26050000Y-46500000D03*
X35650000Y-46500000D03*
D12*
X28350000Y-54000000D03*
D13*
X30850000Y-54000000D03*
X33350000Y-54000000D03*
D14*
X12500000Y-97000000D03*
X33850000Y-37000000D03*
X30850000Y-43960000D03*
X30850000Y-46500000D03*
X30850000Y-49040000D03*
D11*
X44350000Y-86500000D03*
X53950000Y-86500000D03*
D12*
X46650000Y-94000000D03*
D13*
X49150000Y-94000000D03*
X51650000Y-94000000D03*
D14*
X67500000Y-97000000D03*
D11*
X7700000Y-46500000D03*
X17300000Y-46500000D03*
D12*
X10000000Y-54000000D03*
D13*
X12500000Y-54000000D03*
X15000000Y-54000000D03*
D15*
X57000000Y-97100000D03*
D16*
X57000000Y-89480000D03*
D11*
X62700000Y-6500000D03*
X72300000Y-6500000D03*
D12*
X65000000Y-14000000D03*
D13*
X67500000Y-14000000D03*
X70000000Y-14000000D03*
D14*
X30850000Y-17000000D03*
X67500000Y-23960000D03*
X67500000Y-26500000D03*
X67500000Y-29040000D03*
X67500000Y-63960000D03*
X67500000Y-66500000D03*
X67500000Y-69040000D03*
X9500000Y-97000000D03*
X9500000Y-57000000D03*
X12500000Y-23960000D03*
X12500000Y-26500000D03*
X12500000Y-29040000D03*
X67500000Y-43960000D03*
X67500000Y-46500000D03*
X67500000Y-49040000D03*
D11*
X17300000Y-26500000D03*
X7700000Y-26500000D03*
D12*
X10000000Y-34000000D03*
D13*
X12500000Y-34000000D03*
X15000000Y-34000000D03*
D14*
X67500000Y-17000000D03*
X30850000Y-77000000D03*
D15*
X59500000Y-97100000D03*
D16*
X59500000Y-89480000D03*
D14*
X27520000Y-97000000D03*
X27850000Y-37000000D03*
X64500000Y-17000000D03*
X12500000Y-63960000D03*
X12500000Y-66500000D03*
X12500000Y-69040000D03*
D15*
X20500000Y-78000000D03*
D16*
X20500000Y-70380000D03*
D11*
X7700000Y-66500000D03*
X17300000Y-66500000D03*
D12*
X10000000Y-74000000D03*
D13*
X12500000Y-74000000D03*
X15000000Y-74000000D03*
D14*
X70500000Y-77000000D03*
D11*
X35650000Y-26500000D03*
X26050000Y-26500000D03*
D12*
X28350000Y-34000000D03*
D13*
X30850000Y-34000000D03*
X33350000Y-34000000D03*
D11*
X7700000Y-86500000D03*
X17300000Y-86500000D03*
D12*
X10000000Y-94000000D03*
D13*
X12500000Y-94000000D03*
X15000000Y-94000000D03*
D11*
X35650000Y-66500000D03*
X26050000Y-66500000D03*
D12*
X28350000Y-74000000D03*
D13*
X30850000Y-74000000D03*
X33350000Y-74000000D03*
D15*
X59500000Y-17000000D03*
D16*
X59500000Y-9380000D03*
D15*
X23000000Y-37000000D03*
D16*
X23000000Y-29380000D03*
D14*
X33520000Y-97000000D03*
X52150000Y-77000000D03*
D15*
X57000000Y-77000000D03*
D16*
X57000000Y-69380000D03*
D14*
X67500000Y-83960000D03*
X67500000Y-86500000D03*
X67500000Y-89040000D03*
D15*
X20500000Y-57000000D03*
D16*
X20500000Y-49380000D03*
D14*
X49150000Y-97000000D03*
X9500000Y-17000000D03*
X44679812Y-21781164D03*
X52588607Y-30129874D03*
X46742975Y-23959088D03*
X49150000Y-3960000D03*
X49150000Y-6500000D03*
X49150000Y-9040000D03*
X44679812Y-61781164D03*
X52588607Y-70129874D03*
X46742975Y-63959088D03*
D15*
X20500000Y-37000000D03*
D16*
X20500000Y-29380000D03*
D14*
X30850000Y-37000000D03*
X46150000Y-57000000D03*
X30850000Y-3960000D03*
X30850000Y-6500000D03*
X30850000Y-9040000D03*
X8029812Y-61781164D03*
X15938607Y-70129874D03*
X10092975Y-63959088D03*
X52150000Y-17000000D03*
X46150000Y-77000000D03*
X8029812Y-21781164D03*
X15938607Y-30129874D03*
X10092975Y-23959088D03*
X46150000Y-97000000D03*
D15*
X23000000Y-57000000D03*
D16*
X23000000Y-49380000D03*
D15*
X23000000Y-78000000D03*
D16*
X23000000Y-70380000D03*
D11*
X72300000Y-46500000D03*
X62700000Y-46500000D03*
D12*
X65000000Y-54000000D03*
D13*
X67500000Y-54000000D03*
X70000000Y-54000000D03*
D14*
X9500000Y-37000000D03*
X70500000Y-37000000D03*
X44679812Y-1781164D03*
X52588607Y-10129874D03*
X46742975Y-3959088D03*
X12500000Y-37000000D03*
X27850000Y-77000000D03*
X67500000Y-77000000D03*
D15*
X23000000Y-97000000D03*
D16*
X23000000Y-89380000D03*
D11*
X44350000Y-26500000D03*
X53950000Y-26500000D03*
D12*
X46650000Y-34000000D03*
D13*
X49150000Y-34000000D03*
X51650000Y-34000000D03*
D14*
X52150000Y-57000000D03*
X46150000Y-37000000D03*
D11*
X62700000Y-66500000D03*
X72300000Y-66500000D03*
D12*
X65000000Y-74000000D03*
D13*
X67500000Y-74000000D03*
X70000000Y-74000000D03*
D14*
X67500000Y-57000000D03*
X44679812Y-81781164D03*
X52588607Y-90129874D03*
X46742975Y-83959088D03*
X70500000Y-97000000D03*
X12500000Y-3960000D03*
X12500000Y-6500000D03*
X12500000Y-9040000D03*
X33850000Y-77000000D03*
X15500000Y-77000000D03*
X49150000Y-57000000D03*
X63029812Y-81781164D03*
X70938607Y-90129874D03*
X65092975Y-83959088D03*
X8029812Y-1781164D03*
X15938607Y-10129874D03*
X10092975Y-3959088D03*
X9500000Y-77000000D03*
X27850000Y-57000000D03*
X70500000Y-57000000D03*
X46150000Y-17000000D03*
X63029812Y-21781164D03*
X70938607Y-30129874D03*
X65092975Y-23959088D03*
X63029812Y-61781164D03*
X70938607Y-70129874D03*
X65092975Y-63959088D03*
X30850000Y-57000000D03*
X63029812Y-1781164D03*
X70938607Y-10129874D03*
X65092975Y-3959088D03*
X26379812Y-21781164D03*
X34288607Y-30129874D03*
X28442975Y-23959088D03*
D11*
X35650000Y-86500000D03*
X26050000Y-86500000D03*
D12*
X28350000Y-94000000D03*
D13*
X30850000Y-94000000D03*
X33350000Y-94000000D03*
D14*
X63029812Y-41781164D03*
X70938607Y-50129874D03*
X65092975Y-43959088D03*
D15*
X57000000Y-57000000D03*
D16*
X57000000Y-49380000D03*
D14*
X49150000Y-63960000D03*
X49150000Y-66500000D03*
X49150000Y-69040000D03*
X26379812Y-81781164D03*
X34288607Y-90129874D03*
X28442975Y-83959088D03*
D15*
X23000000Y-17000000D03*
D16*
X23000000Y-9380000D03*
D14*
X49150000Y-83960000D03*
X49150000Y-86500000D03*
X49150000Y-89040000D03*
X49150000Y-17000000D03*
D11*
X62700000Y-86500000D03*
X72300000Y-86500000D03*
D12*
X65000000Y-94000000D03*
D13*
X67500000Y-94000000D03*
X70000000Y-94000000D03*
D14*
X12500000Y-77000000D03*
X27850000Y-17000000D03*
X49150000Y-37000000D03*
D15*
X59500000Y-57000000D03*
D16*
X59500000Y-49380000D03*
D14*
X33850000Y-57000000D03*
X26379812Y-41781164D03*
X34288607Y-50129874D03*
X28442975Y-43959088D03*
X33850000Y-17000000D03*
X12500000Y-83960000D03*
X12500000Y-86500000D03*
X12500000Y-89040000D03*
D15*
X57000000Y-37000000D03*
D16*
X57000000Y-29380000D03*
D14*
X12500000Y-57000000D03*
D15*
X20500000Y-97000000D03*
D16*
X20500000Y-89380000D03*
D14*
X12500000Y-17000000D03*
X8029812Y-41781164D03*
X15938607Y-50129874D03*
X10092975Y-43959088D03*
D15*
X20500000Y-17000000D03*
D16*
X20500000Y-9380000D03*
D11*
X26050000Y-6500000D03*
X35650000Y-6500000D03*
D12*
X28350000Y-14000000D03*
D13*
X30850000Y-14000000D03*
X33350000Y-14000000D03*
D14*
X30850000Y-83960000D03*
X30850000Y-86500000D03*
X30850000Y-89040000D03*
X64500000Y-97000000D03*
X52150000Y-97000000D03*
X52150000Y-37000000D03*
X15500000Y-97000000D03*
X15500000Y-37000000D03*
D11*
X53950000Y-6500000D03*
X44350000Y-6500000D03*
D12*
X46650000Y-14000000D03*
D13*
X49150000Y-14000000D03*
X51650000Y-14000000D03*
D14*
X12500000Y-43960000D03*
X12500000Y-46500000D03*
X12500000Y-49040000D03*
X8029812Y-81781164D03*
X15938607Y-90129874D03*
X10092975Y-83959088D03*
D11*
X44350000Y-46500000D03*
X53950000Y-46500000D03*
D12*
X46650000Y-54000000D03*
D13*
X49150000Y-54000000D03*
X51650000Y-54000000D03*
D14*
X49150000Y-77000000D03*
X49150000Y-43960000D03*
X49150000Y-46500000D03*
X49150000Y-49040000D03*
X64500000Y-77000000D03*
X64500000Y-57000000D03*
X26379812Y-1781164D03*
X34288607Y-10129874D03*
X28442975Y-3959088D03*
X49150000Y-23960000D03*
X49150000Y-26500000D03*
X49150000Y-29040000D03*
X70500000Y-17000000D03*
D15*
X59500000Y-77000000D03*
D16*
X59500000Y-69380000D03*
D14*
X67500000Y-3960000D03*
X67500000Y-6500000D03*
X67500000Y-9040000D03*
D11*
X7700000Y-6500000D03*
X17300000Y-6500000D03*
D12*
X10000000Y-14000000D03*
D13*
X12500000Y-14000000D03*
X15000000Y-14000000D03*
D15*
X57000000Y-17000000D03*
D16*
X57000000Y-9380000D03*
D14*
X30850000Y-63960000D03*
X30850000Y-66500000D03*
X30850000Y-69040000D03*
X15500000Y-57000000D03*
D11*
X53950000Y-66500000D03*
X44350000Y-66500000D03*
D12*
X46650000Y-74000000D03*
D13*
X49150000Y-74000000D03*
X51650000Y-74000000D03*
D14*
X15500000Y-17000000D03*
X30520000Y-97000000D03*
X64500000Y-37000000D03*
X67500000Y-37000000D03*
D15*
X59500000Y-37000000D03*
D16*
X59500000Y-29380000D03*
D14*
X30850000Y-23960000D03*
X30850000Y-26500000D03*
X30850000Y-29040000D03*
D11*
X62700000Y-26500000D03*
X72300000Y-26500000D03*
D12*
X65000000Y-34000000D03*
D13*
X67500000Y-34000000D03*
X70000000Y-34000000D03*
D14*
X26379812Y-61781164D03*
X34288607Y-70129874D03*
X28442975Y-63959088D03*
X44679812Y-41781164D03*
X52588607Y-50129874D03*
X46742975Y-43959088D03*
D17*
X2540000Y-53340000D03*
D18*
X2540000Y-55880000D03*
X2540000Y-58420000D03*
X2540000Y-60960000D03*
X2540000Y-63500000D03*
X2540000Y-66040000D03*
X2540000Y-68580000D03*
X2540000Y-71120000D03*
X2540000Y-73660000D03*
X2540000Y-76200000D03*
X2540000Y-78740000D03*
X2540000Y-81280000D03*
X2540000Y-83820000D03*
X2540000Y-86360000D03*
X2540000Y-88900000D03*
X2540000Y-91440000D03*
D17*
X77460000Y-53340000D03*
D18*
X77460000Y-55880000D03*
X77460000Y-58420000D03*
X77460000Y-60960000D03*
X77460000Y-63500000D03*
X77460000Y-66040000D03*
X77460000Y-68580000D03*
X77460000Y-71120000D03*
X77460000Y-73660000D03*
X77460000Y-76200000D03*
X77460000Y-78740000D03*
X77460000Y-81280000D03*
X77460000Y-83820000D03*
X77460000Y-86360000D03*
X77460000Y-88900000D03*
X77460000Y-91440000D03*
D17*
X77460000Y-10160000D03*
D18*
X77460000Y-12700000D03*
X77460000Y-15240000D03*
X77460000Y-17780000D03*
X77460000Y-20320000D03*
X77460000Y-22860000D03*
X77460000Y-25400000D03*
X77460000Y-27940000D03*
X77460000Y-30480000D03*
X77460000Y-33020000D03*
X77460000Y-35560000D03*
X77460000Y-38100000D03*
X77460000Y-40640000D03*
X77460000Y-43180000D03*
X77460000Y-45720000D03*
X77460000Y-48260000D03*
D17*
X2540000Y-10160000D03*
D18*
X2540000Y-12700000D03*
X2540000Y-15240000D03*
X2540000Y-17780000D03*
X2540000Y-20320000D03*
X2540000Y-22860000D03*
X2540000Y-25400000D03*
X2540000Y-27940000D03*
X2540000Y-30480000D03*
X2540000Y-33020000D03*
X2540000Y-35560000D03*
X2540000Y-38100000D03*
X2540000Y-40640000D03*
X2540000Y-43180000D03*
X2540000Y-45720000D03*
X2540000Y-48260000D03*
M02*
